<?xml version="1.0" encoding="UTF-8" standalone="no"?>
<!DOCTYPE svg PUBLIC "-//W3C//DTD SVG 1.1//EN" "http://www.w3.org/Graphics/SVG/1.1/DTD/svg11.dtd">
<svg width="100%" height="100%" viewBox="0 0 60 75" version="1.1" xmlns="http://www.w3.org/2000/svg" xmlns:xlink="http://www.w3.org/1999/xlink" xml:space="preserve" xmlns:serif="http://www.serif.com/" style="fill-rule:evenodd;clip-rule:evenodd;stroke-linejoin:round;stroke-miterlimit:2;">
    <g transform="matrix(1.19532,0,0,1.16432,-5.97662,3)">
        <g transform="matrix(0.836593,0,0,0.85887,5,-2.57661)">
            <path d="M53.79,70.531L5.977,70.531C5.321,70.531 4.781,70.005 4.781,69.366L4.781,63.545L54.985,63.545L54.985,69.366C54.985,70.005 54.445,70.531 53.79,70.531Z" style="fill:none;fill-rule:nonzero;stroke:rgb(0,1,0);stroke-width:5.1px;"/>
            <path d="M53.79,70.531L5.977,70.531C5.321,70.531 4.781,70.005 4.781,69.366L4.781,63.545L54.985,63.545L54.985,69.366C54.985,70.005 54.445,70.531 53.79,70.531Z" style="fill:rgb(127,128,128);fill-rule:nonzero;"/>
        </g>
        <g transform="matrix(0.836593,0,0,0.85887,5,-2.57661)">
            <path d="M2.391,6.493C2.391,5.854 2.93,5.329 3.586,5.329L56.18,5.329C56.836,5.329 57.376,5.854 57.376,6.493L57.376,60.052C57.376,60.69 56.836,61.216 56.18,61.216L3.586,61.216C2.93,61.216 2.391,60.69 2.391,60.052L2.391,6.493Z" style="fill:none;fill-rule:nonzero;stroke:rgb(0,1,0);stroke-width:5.1px;"/>
            <path d="M2.391,6.493C2.391,5.854 2.93,5.329 3.586,5.329L56.18,5.329C56.836,5.329 57.376,5.854 57.376,6.493L57.376,60.052C57.376,60.69 56.836,61.216 56.18,61.216L3.586,61.216C2.93,61.216 2.391,60.69 2.391,60.052L2.391,6.493Z" style="fill:rgb(205,207,208);fill-rule:nonzero;"/>
        </g>
        <g transform="matrix(0.811482,0,0,0.833091,5.74393,-1.90918)">
            <path d="M51.858,7.587C37.037,6.526 22.216,6.526 7.395,7.587C6.542,7.649 5.76,8.377 5.658,9.209C4.324,20.33 4.324,31.451 5.658,42.573C5.759,43.404 6.542,44.132 7.395,44.195C22.216,45.255 37.037,45.255 51.858,44.195C52.711,44.132 53.494,43.404 53.595,42.573C54.928,31.451 54.928,20.33 53.595,9.209C53.493,8.377 52.711,7.649 51.858,7.587Z" style="fill:rgb(112,255,48);"/>
        </g>
        <path d="M48.384,3.939C35.985,3.029 23.585,3.029 11.187,3.939C10.473,3.993 9.819,4.618 9.734,5.332C8.618,14.884 8.618,24.436 9.734,33.988C9.818,34.702 10.473,35.327 11.187,35.381C23.585,36.291 35.985,36.291 48.384,35.381C49.098,35.327 49.752,34.702 49.837,33.988C50.953,24.436 50.953,14.884 49.837,5.332C49.752,4.618 49.098,3.993 48.384,3.939ZM39.341,33.52L39.341,30.799L41.68,30.799L41.68,33.52L39.341,33.52ZM44.033,33.52L44.033,30.799L46.372,30.799L46.372,33.52L44.033,33.52ZM37.001,28.048L37.001,25.312L39.341,25.312L39.341,28.048L37.001,28.048ZM41.68,28.048L41.68,25.312L44.033,25.312L44.033,28.048L41.68,28.048ZM39.341,22.576L39.341,19.84L41.68,19.84L41.68,22.576L39.341,22.576ZM44.033,22.576L44.033,19.84L46.372,19.84L46.372,22.576L44.033,22.576ZM37.001,17.105L37.001,14.369L39.341,14.369L39.341,17.105L37.001,17.105ZM41.68,17.105L41.68,14.369L44.033,14.369L44.033,17.105L41.68,17.105ZM39.341,11.618L39.341,8.882L41.68,8.882L41.68,11.618L39.341,11.618ZM44.033,11.618L44.033,8.882L46.372,8.882L46.372,11.618L44.033,11.618ZM48.712,14.369L48.712,6.146L34.661,6.146L34.661,8.882L37.001,8.882L37.001,11.618L34.661,11.618L34.661,19.84L37.001,19.84L37.001,22.576L34.661,22.576L34.661,30.799L37.001,30.799L37.001,33.52L34.661,33.52L34.617,33.532L48.668,33.532L48.712,28.048L46.372,28.048L46.372,25.312L48.712,25.312L48.712,17.105L46.372,17.105L46.372,14.369L48.712,14.369ZM32.322,8.882L32.322,6.146L29.982,6.146L29.982,8.882L32.322,8.882L32.322,11.618L29.982,11.618L29.982,8.882L27.63,8.882L27.63,11.618L29.982,11.618L29.982,14.369L32.322,14.369L32.322,17.105L29.982,17.105L29.982,19.84L32.322,19.84L32.322,22.576L29.982,22.576L29.982,25.312L32.322,25.312L32.322,28.048L29.982,28.048L29.982,30.799L27.63,30.799L27.63,33.52L25.29,33.52L25.29,30.799L22.951,30.799L22.951,28.048L25.29,28.048L25.29,25.312L22.951,25.312L22.951,22.576L25.29,22.576L25.29,19.84L22.951,19.84L22.951,17.105L25.29,17.105L25.29,14.369L22.951,14.369L22.951,11.618L25.29,11.618L25.29,8.882L27.63,8.882L27.63,6.146L25.29,6.146L25.29,8.882L22.951,8.882L22.951,11.618L20.611,11.618L20.611,14.369L22.951,14.369L22.951,17.105L20.611,17.105L20.611,19.84L22.951,19.84L22.951,22.576L20.611,22.576L20.611,25.312L22.951,25.312L22.951,28.048L20.611,28.048L20.611,30.799L22.951,30.799L22.951,33.52L29.982,33.52L29.982,30.799L32.322,30.799L32.322,33.52L29.982,33.52L34.661,33.52L34.661,30.799L32.322,30.799L32.322,28.048L34.661,28.048L34.661,25.312L32.322,25.312L32.322,22.576L34.661,22.576L34.661,19.84L32.322,19.84L32.322,17.105L34.661,17.105L34.661,14.369L32.322,14.369L32.322,11.618L34.661,11.618L34.661,8.882L32.322,8.882ZM22.951,33.52L20.611,33.52L22.951,33.52ZM22.951,8.882L22.951,6.146L20.611,6.146L20.611,8.882L22.951,8.882ZM29.982,14.369L27.63,14.369L27.63,11.618L25.29,11.618L25.29,14.369L27.63,14.369L27.63,17.105L29.982,17.105L29.982,14.369ZM29.982,19.84L27.63,19.84L27.63,17.105L25.29,17.105L25.29,19.84L27.63,19.84L27.63,22.576L29.982,22.576L29.982,19.84ZM29.982,25.312L27.63,25.312L27.63,22.576L25.29,22.576L25.29,25.312L27.63,25.312L27.63,28.048L29.982,28.048L29.982,25.312ZM27.63,30.799L27.63,28.048L25.29,28.048L25.29,30.799L27.63,30.799ZM20.611,11.618L20.611,8.882L18.271,8.882L18.271,11.618L20.611,11.618ZM15.932,11.618L15.932,8.882L13.579,8.882L13.579,11.618L15.932,11.618ZM18.271,17.105L18.271,14.354L15.932,14.354L15.932,17.105L18.271,17.105ZM13.579,17.105L13.579,14.354L11.24,14.354L11.24,17.105L13.579,17.105ZM20.611,22.576L20.611,19.84L18.271,19.84L18.271,22.576L20.611,22.576ZM15.932,22.576L15.932,19.84L13.579,19.84L13.579,22.576L15.932,22.576ZM18.271,28.048L18.271,25.312L15.932,25.312L15.932,28.048L18.271,28.048ZM13.579,28.048L13.579,25.312L11.24,25.312L11.24,28.048L13.579,28.048ZM20.611,33.52L20.611,30.799L18.271,30.799L18.271,33.52L20.611,33.52ZM15.932,33.52L15.932,30.799L13.579,30.799L13.579,33.52L15.932,33.52Z" style="fill:rgb(0,1,0);"/>
        <g transform="matrix(1,0,0,1,-0.836593,0)">
            <path d="M42,54L41,54C40.451,54 40,54.451 40,55C40,55.549 40.451,56 41,56L42,56C42.549,56 43,55.549 43,55C43,54.451 42.549,54 42,54Z" style="fill:rgb(0,1,0);fill-rule:nonzero;"/>
        </g>
        <g transform="matrix(1,0,0,1,-0.836593,0)">
            <path d="M47,54L46,54C45.451,54 45,54.451 45,55C45,55.549 45.451,56 46,56L47,56C47.549,56 48,55.549 48,55C48,54.451 47.549,54 47,54Z" style="fill:rgb(0,1,0);fill-rule:nonzero;"/>
        </g>
        <g transform="matrix(0.94128,0,0,0.849898,-8.74727,10.276)">
            <path d="M28,41L22.111,41C21.563,41 21.111,41.451 21.111,42C21.111,42.549 21.563,43 22.111,43L28,43C28.549,43 29,42.549 29,42C29,41.451 28.549,41 28,41Z" style="fill:rgb(0,1,0);fill-rule:nonzero;"/>
        </g>
        <g transform="matrix(0.94128,0,0,0.849898,-8.74727,7.35624)">
            <path d="M28,41L22.111,41C21.563,41 21.111,41.451 21.111,42C21.111,42.549 21.563,43 22.111,43L28,43C28.549,43 29,42.549 29,42C29,41.451 28.549,41 28,41Z" style="fill:rgb(0,1,0);fill-rule:nonzero;"/>
        </g>
        <g transform="matrix(0.94128,0,0,0.849898,-8.74727,4.43643)">
            <path d="M28,41L22.111,41C21.563,41 21.111,41.451 21.111,42C21.111,42.549 21.563,43 22.111,43L28,43C28.549,43 29,42.549 29,42C29,41.451 28.549,41 28,41Z" style="fill:rgb(0,1,0);fill-rule:nonzero;"/>
        </g>
        <g transform="matrix(0.665142,0,0,0.682854,282.66,-152.466)">
            <circle cx="-402.909" cy="304.034" r="2.589" style="fill:rgb(0,1,0);"/>
        </g>
        <g transform="matrix(1.38498,0,0,1.6195,538.204,-438.619)">
            <path d="M-353.608,295.827L-359.608,295.827C-359.974,295.827 -360.271,296.124 -360.271,296.49C-360.271,296.856 -360.568,296.867 -360.934,296.867L-367.794,296.867C-368.16,296.867 -368.457,297.164 -368.457,297.53L-368.457,297.593C-368.457,297.959 -368.16,298.256 -367.794,298.256L-360.934,298.256C-360.568,298.256 -360.271,298.256 -360.271,298.622C-360.271,298.988 -359.974,299.285 -359.608,299.285L-353.608,299.285C-353.242,299.285 -352.945,298.988 -352.945,298.622L-352.945,296.489C-352.945,296.124 -353.242,295.827 -353.608,295.827Z" style="fill:rgb(0,1,0);fill-rule:nonzero;"/>
        </g>
    </g>
</svg>
