<?xml version="1.0" encoding="UTF-8" standalone="no"?>
<!DOCTYPE svg PUBLIC "-//W3C//DTD SVG 1.1//EN" "http://www.w3.org/Graphics/SVG/1.1/DTD/svg11.dtd">
<svg width="100%" height="100%" viewBox="0 0 113 157" version="1.1" xmlns="http://www.w3.org/2000/svg" xmlns:xlink="http://www.w3.org/1999/xlink" xml:space="preserve" xmlns:serif="http://www.serif.com/" style="fill-rule:evenodd;clip-rule:evenodd;stroke-miterlimit:2;">
    <g transform="matrix(-1.07241,-1.31332e-16,1.31332e-16,-1.07241,103.688,108.81)">
        <g transform="matrix(1.01377,0,0,1.01377,-0.338397,-0.263267)">
            <path d="M0.425,27.714C0.425,27.714 0.158,84.107 0.142,86.831L81.056,86.831C94.69,86.619 92.043,79.364 92.139,75.04L92.152,20.567L6.2,20.337C3.064,20.337 0.425,23.821 0.425,27.714Z" style="fill:none;stroke:rgb(0,0,16);stroke-width:8.28px;"/>
        </g>
        <g transform="matrix(1.01377,0,0,1.01377,-0.338397,-0.263267)">
            <path d="M0.425,27.714C0.425,27.714 0.158,84.107 0.142,86.831L81.056,86.831C94.69,86.619 92.043,79.364 92.139,75.04L92.152,20.567L6.2,20.337C3.064,20.337 0.425,23.821 0.425,27.714Z" style="fill:rgb(165,210,236);"/>
        </g>
    </g>
    <g transform="matrix(1.34281,0,0,1.34281,-14.6621,-12.963)">
        <g transform="matrix(1.05201,0,0,1.05201,-7.07926,-1.24348)">
            <path d="M70.425,29.936C71.598,31.186 71.598,33.197 70.425,34.43L42.433,64.547C41.86,65.159 41.086,65.484 40.333,65.484C39.58,65.484 38.804,65.168 38.23,64.547C37.058,63.298 37.058,61.286 38.23,60.054L66.222,29.936C67.393,28.686 69.255,28.686 70.425,29.936Z" style="fill:white;"/>
        </g>
        <g transform="matrix(1.05201,0,0,1.05201,-7.7307,-0.0205423)">
            <path d="M36.34,45.243C35.168,43.993 35.168,41.982 36.34,40.75L48.254,28.037C49.426,26.788 51.31,26.788 52.466,28.037C53.638,29.288 53.638,31.298 52.466,32.531L40.552,45.243C39.977,45.855 39.203,46.18 38.45,46.18C37.69,46.18 36.913,45.864 36.34,45.243Z" style="fill:white;"/>
        </g>
        <g transform="matrix(1.05201,0,0,1.05201,-4.66776,-3.23215)">
            <path d="M72.316,49.232C73.488,50.483 73.488,52.493 72.316,53.726L60.402,66.438C59.827,67.05 59.053,67.375 58.3,67.375C57.547,67.375 56.771,67.059 56.197,66.438C55.025,65.188 55.025,63.177 56.197,61.945L68.113,49.232C69.284,47.982 71.145,47.982 72.316,49.232Z" style="fill:white;"/>
        </g>
    </g>
    <g transform="matrix(1.18192,0,0,1.37526,-8.62582,-32.0468)">
        <g transform="matrix(1.01377,0,0,1.01377,-1.00156,-1.9423)">
            <path d="M11.396,91.021C11.395,91.082 11.453,115.601 11.453,116.06C11.445,121.284 17.277,124.326 23.632,124.511C23.632,124.511 98.675,124.704 98.929,124.692L98.971,103.559C98.795,95.558 89.749,90.397 82.999,90.512L11.396,91.021Z" style="fill:none;stroke:rgb(0,0,16);stroke-width:6.92px;stroke-linecap:round;"/>
        </g>
        <g transform="matrix(1.01377,0,0,1.01377,-1.00156,-1.9423)">
            <path d="M11.396,91.021C11.395,91.082 11.453,115.601 11.453,116.06C11.445,121.284 17.277,124.326 23.632,124.511C23.632,124.511 98.675,124.704 98.929,124.692L98.971,103.559C98.795,95.558 89.749,90.397 82.999,90.512L11.396,91.021Z" style="fill:rgb(159,80,225);"/>
        </g>
    </g>
    <g transform="matrix(1.92096,0,0,1.91341,-64.0503,-38.0318)">
        <g transform="matrix(0.584742,0,0,0.584742,30.128,15.7252)">
            <g transform="matrix(1.27629,0,0,1.27629,-54.1129,-29.1896)">
                <path d="M79.911,117.179C78.902,115.836 78.049,113.948 78.049,111.743C78.049,107.96 83.012,100.978 84.874,102.933L91.021,102.917C93.8,103.911 98.341,107.675 97.718,111.406C97.034,115.498 93.773,117.653 91.722,118.924C88.755,120.587 84.932,120.609 82.061,119.144C81.863,119.043 81.648,118.906 81.423,118.734C81.71,118.784 81.999,118.827 82.291,118.862C82.868,118.931 83.479,118.976 84.115,118.983L79.911,117.179ZM84.873,118.005L84.855,104.164C84.481,104.279 84.118,104.432 83.775,104.624L83.74,104.645C83.423,105.049 81.906,107.053 81.631,108.698C81.084,111.976 82.574,116.514 84.873,118.005ZM90.796,105.395L85.324,118.252C85.398,118.286 85.473,118.316 85.549,118.343L87.353,118.654C88.92,118.306 90.55,117.646 92.152,116.513C93.295,115.705 94.36,113.2 94.36,111.743C94.36,108.756 92.409,106.602 90.796,105.395Z" style="fill:rgb(0,0,16);"/>
                <path d="M84.874,102.933L91.021,102.917C93.8,103.911 98.341,107.675 97.718,111.406C97.034,115.498 93.773,117.653 91.722,118.924C88.755,120.587 84.932,120.609 82.061,119.144C80.566,118.381 78.049,115.529 78.049,111.743C78.049,107.96 83.012,100.978 84.874,102.933Z" style="fill:rgb(0,0,16);"/>
            </g>
            <g transform="matrix(0.760046,0,0,0.760046,11.8258,30.1219)">
                <circle cx="62.623" cy="105.848" r="11.65" style="fill:none;stroke:rgb(0,0,16);stroke-width:6.92px;stroke-linecap:round;stroke-linejoin:round;stroke-miterlimit:1.5;"/>
                <circle cx="62.623" cy="105.848" r="11.65" style="fill:rgb(151,255,63);"/>
            </g>
        </g>
        <g transform="matrix(0.584742,0,0,0.584742,30.1209,15.7252)">
            <g transform="matrix(1.27629,0,0,1.27629,-25.2322,-29.1896)">
                <path d="M84.874,102.933L91.021,102.917C93.8,103.911 98.341,107.675 97.718,111.406C97.034,115.498 93.773,117.653 91.722,118.924C88.755,120.587 84.932,120.609 82.061,119.144C80.566,118.381 78.049,115.529 78.049,111.743C78.049,107.96 83.012,100.978 84.874,102.933ZM90.796,105.395L85.324,118.252C85.398,118.286 85.473,118.316 85.549,118.343L87.353,118.654C88.92,118.306 90.55,117.646 92.152,116.513C93.295,115.705 94.36,113.2 94.36,111.743C94.36,108.756 92.409,106.602 90.796,105.395Z" style="fill:rgb(0,0,16);"/>
                <path d="M84.874,102.933L91.021,102.917C93.8,103.911 98.341,107.675 97.718,111.406C97.034,115.498 93.773,117.653 91.722,118.924C88.755,120.587 84.932,120.609 82.061,119.144C80.566,118.381 78.049,115.529 78.049,111.743C78.049,107.96 83.012,100.978 84.874,102.933Z" style="fill:rgb(0,0,16);"/>
            </g>
            <g transform="matrix(0.760046,0,0,0.760046,40.6598,30.1219)">
                <circle cx="62.623" cy="105.848" r="11.65" style="fill:none;stroke:rgb(0,0,16);stroke-width:6.92px;stroke-linecap:round;stroke-linejoin:round;stroke-miterlimit:1.5;"/>
                <circle cx="62.623" cy="105.848" r="11.65" style="fill:rgb(151,255,63);"/>
            </g>
        </g>
        <g transform="matrix(0.584742,0,0,0.584742,31.1692,15.7252)">
            <g transform="matrix(1.27629,0,0,1.27629,-83.8962,-29.1896)">
                <path d="M80.877,110.401C80.875,109.894 80.877,109.392 80.877,108.903C80.877,105.12 84.426,100.978 86.289,102.933L91.021,102.917C93.087,103.656 96.669,106.658 96.815,109.844C96.871,111.056 97.007,111.886 96.977,112.659C96.864,115.637 94.473,118.12 92.423,119.391C89.455,121.053 86.111,121.003 83.475,119.144C83.277,119.004 83.094,118.851 82.925,118.685C83.657,118.784 84.398,118.827 85.147,118.818L82.03,117.482C81.414,116.347 81.126,114.935 80.992,113.441C81.299,114.46 81.769,115.442 82.446,116.313C83.308,117.423 84.701,118.04 85.549,118.343L86.287,118.47L86.264,104.37C85.659,104.525 85.06,104.763 84.476,105.091L83.852,105.458C82.386,106.367 81.307,108.302 80.877,110.401Z" style="fill:rgb(0,0,16);"/>
                <path d="M86.289,102.933L91.021,102.917C93.087,103.656 96.669,106.658 96.815,109.844C96.871,111.056 97.007,111.886 96.977,112.659C96.864,115.637 94.473,118.12 92.423,119.391C89.455,121.053 86.111,121.003 83.475,119.144C80.745,117.218 80.877,112.69 80.877,108.903C80.877,105.12 84.426,100.978 86.289,102.933Z" style="fill:rgb(0,0,16);"/>
            </g>
            <g transform="matrix(1.27629,0,0,1.27629,-90.2138,-61.8085)">
                <path d="M86.289,102.933L91.021,102.917C93.8,103.911 99.667,120.342 99.044,124.073C98.361,128.165 95.894,129.722 93.844,130.993C90.876,132.655 86.683,135.161 86.109,133.905C85.409,132.375 80.17,114.82 80.17,111.033C80.17,107.25 84.426,100.978 86.289,102.933ZM86.812,118.079L86.621,118.527L88.017,118.767C88.68,118.629 89.352,118.446 90.032,118.219C89.692,118.148 89.344,118.087 88.989,118.034C88.548,117.968 87.728,118.002 86.812,118.079Z" style="fill:rgb(0,0,16);"/>
                <path d="M86.289,102.933L91.021,102.917C93.8,103.911 99.667,120.342 99.044,124.073C98.361,128.165 95.894,129.722 93.844,130.993C90.876,132.655 86.683,135.161 86.109,133.905C85.409,132.375 80.17,114.82 80.17,111.033C80.17,107.25 84.426,100.978 86.289,102.933Z" style="fill:rgb(0,0,16);"/>
            </g>
            <g transform="matrix(0.83377,0,0,0.83377,9.82126,18.2203)">
                <path d="M32.849,92.022L32.849,115.243C32.01,119.757 28.19,121.923 24.993,121.923C21.792,121.923 17.974,119.757 17.134,115.243L17.134,92.006C17.134,92.006 32.686,92.019 32.849,92.022Z" style="fill:none;stroke:rgb(0,0,16);stroke-width:6.36px;stroke-linejoin:round;"/>
                <path d="M32.849,92.022L32.849,115.243C32.01,119.757 28.19,121.923 24.993,121.923C21.792,121.923 17.974,119.757 17.134,115.243L17.134,92.006C17.134,92.006 32.686,92.019 32.849,92.022Z" style="fill:rgb(151,255,63);"/>
            </g>
            <g transform="matrix(1.20216,0,0,-1.09463,-15.627,178.892)">
                <path d="M32.717,69.51C35.665,63.721 41.671,63.622 44.59,69.331C47.41,74.846 50.182,88.105 50.182,91.974C50.182,98.934 45.036,104.584 38.699,104.584C32.362,104.584 27.217,98.934 27.217,91.974C27.217,88.147 29.929,74.984 32.717,69.51Z" style="fill:none;stroke:rgb(0,0,16);stroke-width:5.06px;stroke-linecap:round;stroke-linejoin:round;stroke-miterlimit:1.5;"/>
                <path d="M32.717,69.51C35.665,63.721 41.671,63.622 44.59,69.331C47.41,74.846 50.182,88.105 50.182,91.974C50.182,98.934 45.036,104.584 38.699,104.584C32.362,104.584 27.217,98.934 27.217,91.974C27.217,88.147 29.929,74.984 32.717,69.51Z" style="fill:rgb(151,255,63);"/>
            </g>
        </g>
    </g>
</svg>
