<?xml version="1.0" encoding="UTF-8" standalone="no"?>
<!DOCTYPE svg PUBLIC "-//W3C//DTD SVG 1.1//EN" "http://www.w3.org/Graphics/SVG/1.1/DTD/svg11.dtd">
<svg width="100%" height="100%" viewBox="0 0 113 157" version="1.1" xmlns="http://www.w3.org/2000/svg" xmlns:xlink="http://www.w3.org/1999/xlink" xml:space="preserve" xmlns:serif="http://www.serif.com/" style="fill-rule:evenodd;clip-rule:evenodd;stroke-miterlimit:2;">
    <g transform="matrix(-0.94325,-1.26377e-16,1.2339e-16,-1.09102,97.0685,105.398)">
        <g transform="matrix(1.01377,0,0,1.01377,-0.338397,-0.263267)">
            <path d="M0.425,27.714C0.425,27.714 0.158,84.107 0.142,86.831L81.056,86.831C94.69,86.619 92.043,79.364 92.139,75.04L92.152,20.567L6.2,20.337C3.064,20.337 0.425,23.821 0.425,27.714Z" style="fill:none;stroke:rgb(0,0,16);stroke-width:8.28px;"/>
        </g>
        <g transform="matrix(1.01377,0,0,1.01377,-0.338397,-0.263267)">
            <path d="M0.425,27.714C0.425,27.714 0.158,84.107 0.142,86.831L81.056,86.831C94.69,86.619 92.043,79.364 92.139,75.04L92.152,20.567L6.2,20.337C3.064,20.337 0.425,23.821 0.425,27.714Z" style="fill:rgb(165,210,236);"/>
        </g>
    </g>
    <g transform="matrix(1.92096,0,0,1.91341,-64.0503,-38.0318)">
        <g transform="matrix(0.771699,0,0,1.20926,18.468,29.3959)">
            <path d="M25.232,54.945C25.232,56.681 26.66,58.109 28.396,58.109L84.196,58.109C85.931,58.109 87.36,56.681 87.36,54.945L91.765,40.47C91.765,38.735 90.336,37.306 88.601,37.306L25.785,37.306C24.05,37.306 22.621,38.735 22.621,40.47L25.232,54.945Z" style="fill:none;stroke:rgb(0,0,16);stroke-width:5.15px;stroke-linejoin:round;"/>
            <path d="M25.232,54.945C25.232,56.681 26.66,58.109 28.396,58.109L84.196,58.109C85.931,58.109 87.36,56.681 87.36,54.945L91.765,40.47C91.765,38.735 90.336,37.306 88.601,37.306L25.785,37.306C24.05,37.306 22.621,38.735 22.621,40.47L25.232,54.945Z" style="fill:rgb(171,147,252);"/>
        </g>
        <g transform="matrix(0.679844,0,0,1.23645,31.9621,-54.3515)">
            <path d="M5.922,106.105L83.963,106.105L78.513,98.394L9.07,98.043L5.922,106.105Z" style="fill:none;stroke:rgb(0,0,16);stroke-width:5.23px;stroke-linejoin:round;"/>
            <path d="M5.922,106.105L83.963,106.105L78.513,98.394L9.07,98.043L5.922,106.105Z" style="fill:rgb(24,200,178);"/>
        </g>
        <g transform="matrix(4.55475e-17,0.746781,-0.743848,4.57271e-17,78.4438,53.0494)">
            <path d="M46.672,43.047L42.4,43.047L42.4,31.641C42.4,30.467 41.437,29.505 40.263,29.505L31.794,29.505C29.776,29.529 27.829,28.762 26.368,27.368C24.752,25.746 23.965,23.469 24.232,21.195C24.782,17.326 28.186,14.449 32.093,14.554L48.724,14.554C50.331,14.571 51.159,12.962 51.214,11.285C51.221,11.056 51.107,2.163 51.086,1.936C50.939,0.375 50.115,-1.058 48.617,-1.082L22.748,-0.964C22.709,-0.984 22.746,-5.277 22.748,-5.293L48.36,-5.354C51.467,-5.41 54.211,-3.258 54.897,-0.227C54.983,0.194 55.132,11.986 55.132,12.417C55.132,15.932 52.24,18.824 48.726,18.824L31.944,18.824C30.254,18.772 28.771,19.995 28.504,21.666C28.386,22.669 28.741,23.674 29.465,24.378C30.095,24.951 30.921,25.258 31.774,25.232L40.263,25.232C43.779,25.232 46.672,28.125 46.672,31.641L46.672,43.047Z" style="fill:none;stroke:rgb(32,19,64);stroke-width:7px;stroke-linecap:round;stroke-linejoin:round;"/>
            <path d="M46.672,43.047L42.4,43.047L42.4,31.641C42.4,30.467 41.437,29.505 40.263,29.505L31.794,29.505C29.776,29.529 27.829,28.762 26.368,27.368C24.752,25.746 23.965,23.469 24.232,21.195C24.782,17.326 28.186,14.449 32.093,14.554L48.724,14.554C50.331,14.571 51.159,12.962 51.214,11.285C51.221,11.056 51.107,2.163 51.086,1.936C50.939,0.375 50.115,-1.058 48.617,-1.082L22.748,-0.964C22.709,-0.984 22.746,-5.277 22.748,-5.293L48.36,-5.354C51.467,-5.41 54.211,-3.258 54.897,-0.227C54.983,0.194 55.132,11.986 55.132,12.417C55.132,15.932 52.24,18.824 48.726,18.824L31.944,18.824C30.254,18.772 28.771,19.995 28.504,21.666C28.386,22.669 28.741,23.674 29.465,24.378C30.095,24.951 30.921,25.258 31.774,25.232L40.263,25.232C43.779,25.232 46.672,28.125 46.672,31.641L46.672,43.047Z" style="fill:rgb(255,182,0);"/>
        </g>
        <g transform="matrix(0.520574,0,0,0.522627,31.2606,19.8764)">
            <path d="M32.237,35.136L102.423,35.136C103.977,35.134 105.368,36.131 105.858,37.592L111.929,55.737C112.292,56.832 112.104,58.032 111.423,58.964C110.745,59.897 109.653,60.451 108.496,60.453L107.321,60.453L112.109,80.588C112.262,81.218 112.339,81.862 112.339,82.506C112.339,86.981 108.65,90.676 104.139,90.718L89.341,90.718C85.625,90.593 82.429,87.997 81.569,84.406L81.318,83.331L73.642,72.531C67.27,72.455 62.225,67.262 62.216,60.937L62.216,60.453L32.237,60.453C30.255,60.453 28.624,58.833 28.624,56.868L28.624,38.723C28.624,36.755 30.255,35.136 32.237,35.136ZM76.601,65.402L75.498,60.453L69.445,60.453L69.445,60.937C69.445,63.379 71.465,65.393 73.927,65.402L76.601,65.402Z" style="fill:none;stroke:rgb(32,19,64);stroke-width:10px;stroke-linejoin:round;"/>
            <path d="M32.237,35.136L102.423,35.136C103.977,35.134 105.368,36.131 105.858,37.592L111.929,55.737C112.292,56.832 112.104,58.032 111.423,58.964C110.745,59.897 109.653,60.451 108.496,60.453L107.321,60.453L112.109,80.588C112.262,81.218 112.339,81.862 112.339,82.506C112.339,86.981 108.65,90.676 104.139,90.718L89.341,90.718C85.625,90.593 82.429,87.997 81.569,84.406L81.318,83.331L73.642,72.531C67.27,72.455 62.225,67.262 62.216,60.937L62.216,60.453L32.237,60.453C30.255,60.453 28.624,58.833 28.624,56.868L28.624,38.723C28.624,36.755 30.255,35.136 32.237,35.136ZM76.601,65.402L75.498,60.453L69.445,60.453L69.445,60.937C69.445,63.379 71.465,65.393 73.927,65.402L76.601,65.402Z" style="fill:rgb(242,0,209);"/>
        </g>
        <g transform="matrix(0.520574,0,0,0.522627,33.3429,19.8764)">
            <path d="M89.341,83.546L98.731,83.546L91.141,61.583C91.014,60.943 90.444,60.474 89.786,60.47L81.015,60.47L88.311,82.74C88.426,83.21 88.853,83.545 89.341,83.546ZM100.473,40.134L104.473,50.798L33.56,50.798L33.56,40.134L100.473,40.134Z" style="fill:rgb(209,95,255);"/>
        </g>
    </g>
</svg>
