<?xml version="1.0" encoding="UTF-8" standalone="no"?>
<!DOCTYPE svg PUBLIC "-//W3C//DTD SVG 1.1//EN" "http://www.w3.org/Graphics/SVG/1.1/DTD/svg11.dtd">
<svg width="100%" height="100%" viewBox="0 0 113 157" version="1.1" xmlns="http://www.w3.org/2000/svg" xmlns:xlink="http://www.w3.org/1999/xlink" xml:space="preserve" xmlns:serif="http://www.serif.com/" style="fill-rule:evenodd;clip-rule:evenodd;stroke-linecap:round;stroke-linejoin:round;stroke-miterlimit:2;">
    <g transform="matrix(1.06232e-16,1.73491,-1.73491,1.06232e-16,81.9196,47.5519)">
        <path d="M46.672,43.047L42.4,43.047L42.4,31.641C42.4,30.467 41.437,29.505 40.263,29.505L31.794,29.505C29.776,29.529 27.829,28.762 26.368,27.368C24.752,25.746 23.965,23.469 24.232,21.195C24.782,17.326 28.186,14.449 32.093,14.554L48.724,14.554C50.331,14.571 51.159,12.962 51.214,11.285C51.221,11.056 51.214,3.128 51.193,2.901C51.046,1.34 50.222,-0.093 48.724,-0.117L26.931,-0.106C26.892,-0.126 26.929,-4.419 26.931,-4.435L48.467,-4.389C51.574,-4.445 54.318,-2.293 55.004,0.738C55.09,1.159 55.132,11.986 55.132,12.417C55.132,15.932 52.24,18.824 48.726,18.824L31.944,18.824C30.254,18.772 28.771,19.995 28.504,21.666C28.386,22.669 28.741,23.674 29.465,24.378C30.095,24.951 30.921,25.258 31.774,25.232L40.263,25.232C43.779,25.232 46.672,28.125 46.672,31.641L46.672,43.047Z" style="fill:none;stroke:rgb(32,19,64);stroke-width:7px;"/>
        <path d="M46.672,43.047L42.4,43.047L42.4,31.641C42.4,30.467 41.437,29.505 40.263,29.505L31.794,29.505C29.776,29.529 27.829,28.762 26.368,27.368C24.752,25.746 23.965,23.469 24.232,21.195C24.782,17.326 28.186,14.449 32.093,14.554L48.724,14.554C50.331,14.571 51.159,12.962 51.214,11.285C51.221,11.056 51.214,3.128 51.193,2.901C51.046,1.34 50.222,-0.093 48.724,-0.117L26.931,-0.106C26.892,-0.126 26.929,-4.419 26.931,-4.435L48.467,-4.389C51.574,-4.445 54.318,-2.293 55.004,0.738C55.09,1.159 55.132,11.986 55.132,12.417C55.132,15.932 52.24,18.824 48.726,18.824L31.944,18.824C30.254,18.772 28.771,19.995 28.504,21.666C28.386,22.669 28.741,23.674 29.465,24.378C30.095,24.951 30.921,25.258 31.774,25.232L40.263,25.232C43.779,25.232 46.672,28.125 46.672,31.641L46.672,43.047Z" style="fill:rgb(255,182,0);"/>
    </g>
    <g transform="matrix(1.21416,0,0,1.21416,-29.0583,-20.9543)">
        <path d="M32.237,35.136L102.423,35.136C103.977,35.134 105.368,36.131 105.858,37.592L111.929,55.737C112.292,56.832 112.104,58.032 111.423,58.964C110.745,59.897 109.653,60.451 108.496,60.453L107.321,60.453L112.109,80.588C112.262,81.218 112.339,81.862 112.339,82.506C112.339,86.981 108.65,90.676 104.139,90.718L89.341,90.718C85.625,90.593 82.429,87.997 81.569,84.406L81.318,83.331L73.642,72.531C67.27,72.455 62.225,67.262 62.216,60.937L62.216,60.453L32.237,60.453C30.255,60.453 28.624,58.833 28.624,56.868L28.624,38.723C28.624,36.755 30.255,35.136 32.237,35.136ZM76.601,65.402L75.498,60.453L69.445,60.453L69.445,60.937C69.445,63.379 71.465,65.393 73.927,65.402L76.601,65.402Z" style="fill:none;stroke:rgb(32,19,64);stroke-width:10px;stroke-linecap:butt;"/>
        <path d="M32.237,35.136L102.423,35.136C103.977,35.134 105.368,36.131 105.858,37.592L111.929,55.737C112.292,56.832 112.104,58.032 111.423,58.964C110.745,59.897 109.653,60.451 108.496,60.453L107.321,60.453L112.109,80.588C112.262,81.218 112.339,81.862 112.339,82.506C112.339,86.981 108.65,90.676 104.139,90.718L89.341,90.718C85.625,90.593 82.429,87.997 81.569,84.406L81.318,83.331L73.642,72.531C67.27,72.455 62.225,67.262 62.216,60.937L62.216,60.453L32.237,60.453C30.255,60.453 28.624,58.833 28.624,56.868L28.624,38.723C28.624,36.755 30.255,35.136 32.237,35.136ZM76.601,65.402L75.498,60.453L69.445,60.453L69.445,60.937C69.445,63.379 71.465,65.393 73.927,65.402L76.601,65.402Z" style="fill:rgb(242,0,209);"/>
    </g>
    <g transform="matrix(1.21416,0,0,1.21416,-24.2016,-20.9543)">
        <path d="M89.341,83.546L98.731,83.546L91.141,61.583C91.014,60.943 90.444,60.474 89.786,60.47L81.015,60.47L88.311,82.74C88.426,83.21 88.853,83.545 89.341,83.546ZM100.473,40.134L104.473,50.798L33.56,50.798L33.56,40.134L100.473,40.134Z" style="fill:rgb(209,95,255);"/>
    </g>
</svg>
