<svg xmlns="http://www.w3.org/2000/svg" width="100%" height="100%" viewBox="0 0 110 135" fill-rule="evenodd" stroke-linejoin="round" stroke-miterlimit="2" xmlns:v="https://vecta.io/nano"><path d="M108.257 16.895l-.644 96.217-96.406-1.087-1.519-94.271 98.57-.858z" fill="#e8e0d0"/><path d="M1.5 98.526V22.393c0-5.94 2.563-11.633 7.113-15.838C13.169 2.357 17.352 0 23.798 0h79.752c2.685 0 4.859 2.004 4.859 4.478v107.484c0 4.948-4.349 8.956-9.719 8.956H84.112v-8.956H98.69V85.091H23.798c-8.049 0-12.579 6.018-12.579 13.435s6.53 13.436 14.579 13.436h58.314v8.956H25.798c-13.412 0-24.298-10.031-24.298-22.392z" fill="#d99145"/><path d="M90.93 102.27H32.026c-4.363 0-7.084-1.272-8.439-4.107.129-3.462 2.172-4.487 13.501-4.487h53.733l.109 8.594z" fill="#9d271e"/><path d="M38.231 97.013L38 131.97l19.554-11.722 19.431 11.605c-.069-2.929.122-34.84.122-34.84H38.231z" fill="red" stroke="#9d271e" stroke-width="6.13"/><path d="M20.797 8.957v67.177c-5.466 0-7.514 1.668-11.578 4.484V22.392c0-3.566 1.537-6.98 4.27-9.499s3.439-3.936 7.308-3.936z" fill="#e6bb85"/><path d="M57.867 5.455h.007c9.605.023 18.815 3.876 25.596 10.708 6.781 6.824 10.576 16.077 10.561 25.709a36.42 36.42 0 0 1-10.646 25.687c-6.804 6.809-16.022 10.631-25.633 10.623-9.604-.008-18.822-3.838-25.619-10.654a36.45 36.45 0 0 1-10.615-25.695c.008-9.656 3.842-18.917 10.661-25.741S48.24 5.446 57.875 5.469l-.008-.014z" fill="#000100"/><path d="M57.874 14.956c-2.191 2.136-5.924 9.765-6.657 22.36h13.33c-.748-12.596-4.467-20.224-6.673-22.36zm26.814 22.368c-1.496-8.735-7.143-16.193-15.127-19.985a62.53 62.53 0 0 1 3.949 19.985h11.178zm.062 9.091H73.572A64.44 64.44 0 0 1 69.623 66.4c7.968-3.822 13.6-11.265 15.127-19.985zm-20.203 0h-13.33c.787 12.58 4.466 20.201 6.657 22.344 2.214-2.135 5.925-9.764 6.673-22.344zM46.18 17.339c-7.954 3.83-13.585 11.265-15.128 19.985h11.124a65.72 65.72 0 0 1 3.95-19.985h.054zm0 49.059c-2.33-6.422-3.657-13.161-3.95-19.985H31.052c1.551 8.712 7.174 16.147 15.128 19.985z" fill="#e6bb85"/></svg>