<svg xmlns="http://www.w3.org/2000/svg" width="100%" height="100%" viewBox="0 0 110 135" fill-rule="evenodd" stroke-linejoin="round" stroke-miterlimit="2" xmlns:v="https://vecta.io/nano"><path d="M108.257 16.895l-.644 96.217-96.406-1.087-1.519-94.271 98.57-.858z" fill="#e8e0d0"/><path d="M1.5 98.526V22.393c0-5.94 2.563-11.633 7.113-15.838C13.169 2.357 17.352 0 23.798 0h79.752c2.685 0 4.859 2.004 4.859 4.478v107.484c0 4.948-4.349 8.956-9.719 8.956H84.112v-8.956H98.69V85.091H23.798c-8.049 0-12.579 6.018-12.579 13.435s6.53 13.436 14.579 13.436h58.314v8.956H25.798c-13.412 0-24.298-10.031-24.298-22.392z" fill="#0b8ca9"/><use href="#B" fill="#0e3821" stroke="#0e3821" stroke-width=".999"/><use href="#B" fill="#9d271e"/><use href="#B" fill="#fff" stroke="#fff" stroke-width=".999"/><path d="M1.5 98.526v-1.133c0-5.94 2.563-11.633 7.113-15.838C13.169 77.357 17.352 75 23.798 75h79.752c2.685 0 4.859 2.004 4.859 4.478v32.484c0 4.948-4.349 8.956-9.719 8.956H84.112v-8.956H98.69V85.091H23.798c-8.049 0-12.579 6.018-12.579 13.435s6.53 13.436 14.579 13.436h58.314v8.956H25.798c-13.412 0-24.298-10.031-24.298-22.392z" fill="#69bac9"/><path d="M38.231 100.013L38 131.97l19.554-11.722 19.431 11.605c-.069-2.929.122-31.84.122-31.84H38.231z" fill="#87ff53" stroke="#0e3821" stroke-width="6.13"/><path d="M20.797 8.957v67.177c-5.466 0-7.514 1.668-11.578 4.484V22.392c0-3.566 1.537-6.98 4.27-9.499s3.439-3.936 7.308-3.936z" fill="#69bac9"/><g fill-rule="nonzero"><path d="M36.517 69.863l-.085-15.412h-8.267l.046-8.809h8.435l-.038-11.757h-8.697l.046-8.809h8.779l-.121-15.55h8.776l-.037 15.636h11.549l.038-15.636h8.69l-.051 15.55h9.235l-.046 8.809h-9.144l-.134 11.757h9.664l-.046 8.809H65.62l-.086 15.412h-8.776l.001-15.412H45.294l-.087 15.412h-8.69zm8.733-24.222H56.8l-.038-11.757H45.384l-.134 11.757z" fill="#201340" stroke="#201240" stroke-width="3.612"/><path d="M57.153 55.833l.097-22.913-8.114-.106.109-7.072 8.023.074.073-9.117 8.53.055.062 9.111 9.005-.06-.039 7.332-9.016.092-.246 22.699-8.484-.096z" fill="#87ffaf"/><path d="M84.075 51.503l-1.287-39.478h11.408l-1.458 39.478h-8.663zm4.374 19.221c-1.658 0-3.102-.575-4.332-1.724s-1.844-2.672-1.844-4.568c0-1.84.614-3.348 1.844-4.526s2.673-1.767 4.332-1.767 3.102.589 4.332 1.767 1.844 2.686 1.844 4.526c0 1.896-.614 3.418-1.844 4.568s-2.673 1.724-4.332 1.724z" fill="#201340" stroke="#201240" stroke-width="3.612"/></g><defs ><path id="B" d="M90.93 102.27H32.026c-4.363 0-7.084-1.272-8.439-4.107.129-3.462 2.172-4.487 13.501-4.487h53.733l.109 8.594z"/></defs></svg>