<svg xmlns="http://www.w3.org/2000/svg" width="100%" height="100%" viewBox="0 0 110 135" fill-rule="nonzero" stroke-linejoin="round" stroke-miterlimit="2" xmlns:v="https://vecta.io/nano"><path d="M29.276 54.273c1.843 1.351 3.042 3.346 3.387 5.612a8.61 8.61 0 0 1-.398 4.185c-.278.78-.665 1.521-1.17 2.209-1.351 1.861-3.342 3.082-5.595 3.435s-4.508-.19-6.345-1.539a8.46 8.46 0 0 1-3.387-5.613c-.344-2.268.206-4.537 1.561-6.39 1.351-1.861 3.337-3.084 5.59-3.437 2.258-.362 4.516.188 6.35 1.542l.007-.004zm14.952-4.894l9.103 6.706 11.276 8.299 12.108 8.892 7.88 5.815 15.89 11.702c7.792 5.738 10.555 15.82 7.457 24.547-.685 1.93-1.638 3.783-2.913 5.527-7.013 9.608-20.385 11.742-29.879 4.738L9.771 77.478C.269 70.492-1.75 57.041 5.247 47.41a21.51 21.51 0 0 1 9.679-7.423c6.537-2.529 14.148-1.768 20.198 2.691l9.103 6.706.001-.005zm52.651 62.033a9.42 9.42 0 0 1-1.304 2.477c-.705.965-.495 2.306.452 3.001.951.703 2.288.493 2.986-.469a13.81 13.81 0 0 0 1.89-3.586c2.051-5.777.056-12.34-4.856-15.955l-43.06-31.695c-.953-.698-2.387-.551-2.986.469-.625 1.057-.325 2.43.452 3.002l43.06 31.696c3.401 2.508 4.784 7.05 3.363 11.053l.003.007zM22.281 48.487c-3.385.539-6.365 2.363-8.391 5.152-.751 1.029-1.339 2.144-1.755 3.316-.705 1.986-.912 4.133-.587 6.279.52 3.402 2.322 6.394 5.082 8.416 2.75 2.027 6.134 2.846 9.517 2.312 3.389-.536 6.367-2.367 8.397-5.15a12.91 12.91 0 0 0 2.344-9.587c-.514-3.401-2.322-6.394-5.079-8.422s-6.14-2.848-9.525-2.309l-.003-.007z" fill="#87ff5f"/><path d="M101.003 22.531c1.85-5.037 1.821-10.025-.127-14.35l6.569-2.524s10.326 21.954-14.984 35.834l-33.295 13.55-21.505-15.839c-2.347-1.73-4.93-2.971-7.62-3.801L96.835 9.742c1.222 2.556 1.58 5.438.964 8.512-.137-.059-.281-.116-.422-.166-3.881-1.378-8.17.689-9.561 4.605a7.55 7.55 0 0 0 1.149 7.193c-.498.32-1.008.624-1.521.921L58.931 42.416a2.14 2.14 0 0 0-1.218 1.28c-.169.476-.174 1.016.025 1.521.437 1.102 1.681 1.63 2.778 1.186L89.16 34.745c.085-.032 3.237-1.939 4.604-2.966a2.19 2.19 0 0 0 .861-1.931c-.071-.744-.52-1.406-1.187-1.729-1.469-.714-2.151-2.429-1.597-3.99.597-1.683 2.436-2.571 4.101-1.98.569.202 1.034.532 1.385.982a2.12 2.12 0 0 0 2.011.794 2.14 2.14 0 0 0 1.675-1.386l-.008-.009z" fill="#fff"/></svg>