<svg xmlns="http://www.w3.org/2000/svg" width="100%" height="100%" viewBox="0 0 14 16" fill-rule="evenodd" stroke-linejoin="round" stroke-miterlimit="2" xmlns:v="https://vecta.io/nano"><path d="M1.839 6.132c.02-.122.068-.17.142-.143s.286-.191.306-.266c-.156-.183-.213-.634-.173-1.353l.102-1.262C2.474 1.657 3.274.707 4.617.26c.312-.102.633-.146.962-.133l1.104.031 1.083.005c.322-.01.697.019 1.124.087.421.081.729.261.926.539s.322.519.377.722c.061.088.137.134.229.137s.239.097.442.28c.38.36.573.95.58 1.771v2.004c.007.129.041.153.102.071s.102-.04.122.122l-.132.326a1.56 1.56 0 0 0-.092.315c-.041.163-.073.377-.096.641l-.056.59c-.021.136-.029.278-.026.428s-.002.274-.015.376c-.041.224-.119.343-.234.356s-.214-.061-.295-.224c-.082.19-.156.494-.224.911a7.74 7.74 0 0 1-.255 1.104 12.97 12.97 0 0 1-.747 1.786c-.295.579-.656 1.11-1.084 1.592-.149.163-.252.251-.31.264a3.54 3.54 0 0 1-.321.051c-.162.027-1.027-.051-1.19-.051-.427 0-.804-.03-1.129-.091s-.573-.329-.743-.804l-.378-.383-.629-1.311c-.204-.431-.356-.802-.458-1.114-.116-.305-.344-.466-.365-.764s-.08-.336-.141-.485c-.088-.027.016-.343-.049-.292s-.328.043-.389-.072c-.081-.142-.166-.512-.254-1.109-.048-.251-.09-.604-.128-1.058l-.089-.746z" fill="#f6d6a9" fill-rule="nonzero"/><path d="M2.979 6.407c.115 1.866.385 2.914 1.018 3.715.084.106 1.143-.935 1.234-.83.12.138.122.402.214.678.268.796.303 2.569.711 2.629-.344.507-.352.864-.676.897-.757.078-1.759-1.15-2.19-3.068-.093-.415-.452-.701-.517-1.125-.039-.248-.395-.256-.566-.321l-.388-2.975c.36-.28.751-.086 1.16.4zm8.66-.707c-.101 1.635-.227 3.066-.501 3.25l-.312-.015-.014-2.701c.272-.194.127-.434.827-.534zM8.214 9.189l.779 1.193-2.395.427-.155-.7c.525-.076 1.12-.398 1.771-.92zM5.285 6.081v.699H3.343v-.699h1.942zm4.513-.072v.816H8.175v-.816h1.623z" fill="#ceaa7e"/><path d="M5.518 6.986v.238c0 .066-.056.222-.122.222H4.073c-.066 0-.117-.156-.117-.222v-.238a.12.12 0 0 1 .119-.12h1.324a.12.12 0 0 1 .119.12zm3.862.005v.238c0 .066-.093.196-.159.196l-1.006.003c-.066 0-.227-.133-.227-.199v-.238a.12.12 0 0 1 .12-.119h1.036c.066 0 .236.053.236.119zm-1.05 3.846l.004.253c0 .093-.036.257-.128.257-.945.694-1.675.777-2.454.261-.093 0-.38-.356-.38-.449v-.335c0-.093.15-.154.243-.154.84.126 1.689.135 2.547 0 .093 0 .168.075.168.167z" fill="#ebebeb"/><path d="M11.34 2.586v2.986c.132.229-.13.444-.308.444s-.338-.266-.338-.444c.09-1.011.052-2.036-.249-3.088 0-.178.393-.221.572-.221s.323.144.323.323zM9.118.337c.52.559.972 1.094 1.059 1.494-1.433.45-2.949.832-5.201.596l-1.616.185.039-1.824C5.336.393 7.219.106 9.118.337z" fill="#e77439"/><path d="M10.193 7.275c.092 0-.117-1.467-.236-1.518-.048-.02-.149-.712-.105-.868s.158-.4.341-.733l-.01 1.084c.013.315.081.666.203 1.053v1.465l-.193.102v-.585zm0 0c.092 0-.117-1.467-.236-1.518-.048-.02-.149-.712-.105-.868s.158-.4.341-.733l-.01 1.084c.013.315.081.666.203 1.053v1.465l-.193.102v-.585zM1.992 5.734v-2.3c.02-.102.034-.219.041-.351a1.74 1.74 0 0 1 .051-.351c.122-.475.249-.795.381-.961l.707-.819C3.457.633 3.81.4 4.231.255A3.85 3.85 0 0 1 5.502.036L6.83-.005c.424-.027.863.01 1.318.112.088.02.2.027.335.02s.248 0 .336.021c.272.067.558.218.86.452s.453.494.453.779c.359.196.719.498 1.078.905.19.224.295.411.316.56l.091.661a5.38 5.38 0 0 1 .026.885l-.026.865a11.35 11.35 0 0 0-.173.214c.048.081.102.161.163.239l.173.239c0 .075-.024.132-.071.173s-.072.095-.072.163v.794a2.81 2.81 0 0 1-.096.579 1.14 1.14 0 0 0-.046.438c.02.305-.02.56-.122.763s-.258.227-.468.071c-.054.305-.258 1.085-.366 1.573-.229 1.032-1.992 3.915-2.302 4.004-.168.048-.418.087-.798.108-.122.006-1.838-.165-2.028-.236s-.465-.338-.824-.799l-1.293 1.791c-.237.224-.474.332-.712.325s-.397-.044-.478-.112c-.163-.149-.332-.335-.509-.559s-.288-.438-.335-.641c-.082-.312-.031-.587.152-.824.17-.19.39-.36.662-.509.318-.156.563-.17.732-.041l.641.794.814-.845-.789-1.287-.513-1.104-.061-.152-.158-.611-.148-.61c-.223-.075-.356-.143-.396-.204s-.085-.224-.133-.488l-.071-.519-.066-.671-.066-.672c-.02-.088-.049-.17-.087-.244s-.066-.153-.086-.234c0-.082.102-.224.305-.427zM6.153.656c-.02.041-.018.089.006.143s.025.102.005.142L5.96.784C5.872.719 5.808.663 5.767.616c.129.183.271.41.427.681l.417.713c0-.17.009-.292.026-.367s-.019-.207-.107-.396L6.153.656zm.397 9.798c.136.068.255.15.356.245l.357-.143c.128-.054.369-.108.722-.163l.855-.122c-.116-.149-.221-.307-.316-.473l-.305-.483-.209.178a1.98 1.98 0 0 1-.218.158c-.089.061-.184.111-.285.152s-.194.092-.275.153c-.054.034-.098.076-.132.127s-.075.09-.122.117l-.428.254zm-1.556 2.585l.366.264.549-.671-.315-.367-.6.774zm-.499-2.971l.107.234.117.234.31-.402.311-.402-.051-.346-.794.682zm.183 2.503l.275-.27.295-.27-.331-.661-.32-.682c-.373-.339-.539-.349-.499-.03s.102.6.183.844l.397 1.069zM3.64 10.709c.061.407.141.773.24 1.099s.266.671.503 1.037l.163-.152a6.08 6.08 0 0 1-.514-.962l-.392-1.022zm2.025-9.9c-.007.332-.059.439-.158.32S5.258.88 5.055.738l.605.91c.119.139.297.267.534.382-.02-.061-.056-.12-.107-.178a.51.51 0 0 1-.107-.188l-.157-.423-.158-.432zM2.847 7.28l-.061.677-.051.676.498 1.506c-.027-.217-.069-.443-.127-.677s-.096-.463-.117-.686c-.04-.251-.066-.499-.076-.743l-.066-.753zm-.824-1.221c-.028.027-.068.061-.122.102-.048.041-.017.122.091.244a4.18 4.18 0 0 1 .224.31c.088.133.18.158.275.077.108-.082.139-.15.091-.204a3.84 3.84 0 0 1-.183-.234c-.013-.027-.041-.068-.081-.122-.143-.156-.241-.214-.295-.173zm.335 1.872l-.03.407-.01.285c0 .048.022.139.066.275s.096.132.158-.01c.027-.061.003-.29-.072-.687s-.112-.487-.112-.27zM4.922.952c-.108 0-.098.128.031.386l.224.448h.142v-.112l-.198-.356a3.76 3.76 0 0 1-.199-.366zm-.437 5.982c-.271.014-.424.095-.458.244.02.055.092.177.204.177h.249c-.075-.102-.077-.306.005-.421zm-.834-.58l.203.316c.237-.197.415-.292.534-.285l.656.04a1.35 1.35 0 0 0-.071-.112c-.108-.135-.285-.213-.529-.234-.142-.006-.261-.003-.356.011-.149.047-.295.135-.437.264zm.62.244c-.02.041-.03.085-.03.133.135.013.274.017.417.01h.427c0-.027-.01-.051-.03-.071s-.031-.045-.031-.072h-.753zm-.132-5.514c-.007.013-.02.051-.041.112l.168.295c.051.088.137.149.26.183 0-.082-.065-.241-.194-.478a1.91 1.91 0 0 1-.193-.112zm.153-.132a6.9 6.9 0 0 1 .488.773c.02-.014.042-.027.066-.041s.046-.03.066-.051l-.102-.269-.091-.28c-.17-.116-.312-.16-.427-.132zm-.489.62l.234.066c.027.01.041-.056.041-.198-.163 0-.255.044-.275.132zm-.295 1.862l-.02 1.267-.021 1.256.316-.218a.82.82 0 0 1 .315-.148 2.62 2.62 0 0 1 1.252.143c.203.203.363.381.478.534l.407.534.025.432.026.463c.006.224-.027.485-.102.784l-.107.432-.076.371c-.034.129-.058.143-.071.041V7.463c0-.054-.039-.068-.117-.041l-.128.051c-.345.285-.6.453-.763.504s-.464-.036-.905-.26l.87.006c.186.003.374-.172.564-.524-.21-.177-.396-.265-.559-.265.095.048.137.224.117.34s-.075.176-.163.183l-.6.015c-.285.004-.463-.144-.524-.253-.021-.02-.048-.125-.082-.315l-.437-.133c0 .59.035 1.077.107 1.46s.222.799.453 1.247c.149.298.264.446.345.442s.265-.103.55-.3c.163-.108.317-.227.463-.356l.371-.336a.72.72 0 0 1 .102.031c.061.02.091.051.091.091-.169.082-.234.2-.193.356.027.17.115.248.265.234.04 0 .076-.01.106-.03s.087-.031.168-.031c.082.014.165.053.25.117a1.24 1.24 0 0 0 .269.158c.156.082.292.088.407.02l.356-.223a.77.77 0 0 0 .489-.367c.034-.047.052-.11.056-.188s.066-.12.188-.127c.258.013.549.207.875.58.102.122.164.186.188.193s.097-.068.219-.224a1.53 1.53 0 0 0 .071-.137 1.09 1.09 0 0 1 .081-.148c.048.014.095.063.143.148s.095.137.142.158c.082.054.189-.019.321-.219s.232-.314.3-.341c.041.183.046.412.015.687l-.045.748.127-.611.127-.61.081-1.206.092-1.216-.219-.753-.208-.763.127-.91.127-.911a2.19 2.19 0 0 0-.321-.616 1.98 1.98 0 0 1-.31-.615c-.61.224-1.129.456-1.557.697s-.983.419-1.668.534c-.258.027-.602-.01-1.033-.112l-1.023-.234-.62.122c-.129.027-.319.102-.57.224zm7.987 2.554c-.027 0-.098.063-.214.188l-.305.321c-.088.101-.074.152.041.152a3.62 3.62 0 0 0 .259-.244c.078-.081.168-.163.27-.244l-.01-.087c-.007-.057-.021-.086-.041-.086zm-.427 1.577l-.041 1.129c.237.082.309-.061.214-.427l-.173-.702zm-.061-2.411l-.021.3-.01.3.193.102.067-.087.076-.097a1.77 1.77 0 0 1-.097-.127l-.086-.127v-.234c-.021 0-.041-.003-.061-.01l-.061-.02zm-.092-.57l.066.198.077.188h.152v-.468a.99.99 0 0 1-.152.046l-.143.036zm-.02-.397c0 .027-.007.081-.021.163h.285v-.143l-.264-.02zm-.407-1.506l.066.061.076.061.138-.066.147-.076-.066-.122a1.1 1.1 0 0 1-.066-.133l-.153.143-.142.132zm.183.173a2.36 2.36 0 0 0 .051.244l.254-.04c0-.048.005-.097.015-.148l.026-.147-.178.05-.168.041zm.163.336c-.027.068-.044.119-.051.153l.163.076.162.066.026-.066.035-.076c-.061-.021-.118-.045-.173-.072l-.162-.081zm.03.366l.051.275h.295l-.051-.244a1.2 1.2 0 0 1-.152-.01l-.143-.021zM6.347.656c.319.475.529.899.631 1.272l.101.387c.122-.366.1-.673-.066-.921S6.625.901 6.347.656zm4.497 3.256c0 .027.003.054.01.082l.02.071h.295c0-.02.006-.042.016-.066l.025-.066-.366-.021zM7.557.422l.021.26.03.249C7.541.87 7.456.772 7.354.636L7.11.331c.013.074.046.169.096.285l.107.274A1.58 1.58 0 0 1 7.14.758L6.978.616c.19.264.3.461.33.59s.066.353.107.671c.095-.135.142-.366.142-.691l.102.295.072.468.081.457c.081-.264.117-.491.107-.681l-.066-.713.127.408.127.406c.176-.284.18-.546.01-.783s-.356-.444-.56-.621zM9.419.85c.156.237.251.546.285.926l.102-.529L9.419.85zm-1.2-.468l.315.468c.068.108.102.271.102.488h.193c-.02-.122-.076-.3-.168-.534S8.422.429 8.219.382zm.804.234C9.009.609 8.999.6 8.992.59s-.013-.022-.02-.035l-.026.132a.51.51 0 0 0-.015.122.78.78 0 0 1 .092.438l.335.529-.025-.265c-.01-.088-.015-.176-.015-.264L9.023.616zm-.251 10.221c-.006.012-.052.081-.136.208a1.2 1.2 0 0 1-.631.478l-.152.04v-.132l.142-.041.031-.101-.427.095v-.122l.254-.065.468-.305-.356-.193c-.394.101-.725.164-.993.188s-.612-.005-1.032-.087l-.509-.01-.02.224.447.193.255.082.295-.01.264.05.255-.04.285.04.169-.026-.026.156-.154.023-.274-.051-.255.051-.244-.031-.152-.01-.153.255h1.465c.088 0 .109.023.061.071-.129.115-.237.18-.326.193-.203.027-.378.029-.523.005s-.318-.025-.514-.005c-.143 0-.2.041-.173.122.02.122.101.2.244.234a.81.81 0 0 0 .31.021c.105-.014.209-.021.311-.021l.213.021.224.01.448.061c.088.02.04.112-.143.275-.061.054-.2.084-.417.091l-.417.021-.407.01-.244.02-.239.509c-.071.142-.117.319-.138.529 0 .136.065.203.194.203.196 0 .407.036.631.107s.457.114.702.127c.149.014.291-.034.427-.142.271-.183.482-.349.631-.499a2.38 2.38 0 0 0 .402-.493l.3-.565.437-.982c.129-.329.234-.697.316-1.104-.021-.013-.063.017-.127.092a1.31 1.31 0 0 1-.148.153c-.034.034-.088.023-.163-.031a.82.82 0 0 1-.102-.168c-.033-.071-.064-.127-.091-.168l-.173.133-.322.311zm.096-3.903c.271.014.424.095.458.244-.02.055-.092.177-.204.177h-.249a.41.41 0 0 0-.005-.421zm.834-.58l-.203.316c-.238-.197-.416-.292-.534-.285l-.656.04a1.35 1.35 0 0 1 .071-.112c.108-.135.285-.213.529-.234.142-.006.261-.003.356.011.149.047.295.135.437.264zm-.62.244c.02.041.03.085.03.133-.135.013-.274.017-.417.01s-.285-.007-.427 0c0-.027.01-.051.03-.071s.031-.045.031-.072h.753zm.63.306c.247-.015.226-1.079-.142-1.165-.13-.031-.214-.128-.315-.148a2.62 2.62 0 0 0-1.252.143c-.203.203-.363.381-.478.534l-.407.534a4.9 4.9 0 0 0-.025.432l-.026.463c-.007.224.356.59.356.59v-.824c0-.054.039-.068.117-.041l.127.051c.346.285.601.453.764.504s.464-.036.905-.26l-.87.006c-.186.003-.375-.172-.565-.524.211-.177.397-.265.56-.265-.095.048-.137.224-.117.34s.075.176.163.183l.6.015c.285.004.463-.144.524-.253.021-.02.048-.125.081-.315z" fill="#111212" fill-rule="nonzero"/><path d="M5.788 11.443c-.007-.014.335.083.335.083l-2.77 3.969c-.243.229-.487.34-.73.333s-.407-.045-.491-.114c-.167-.153-.341-.344-.521-.573s-.296-.448-.345-.657c-.083-.319-.031-.6.157-.843.174-.195.4-.368.678-.521.327-.16.577-.174.751-.042l.658.813 2.278-2.448z" fill="#542507"/><path d="M2.028 13.297a2.25 2.25 0 0 0-.402.328c-.142.142-.217.287-.224.432-.028.167.052.264.24.292.083.014.257-.007.522-.062.222.118.363.338.422.661s.145.474.256.453c.083-.014.143-.104.177-.271s-.031-.385-.198-.656l-.141-.219-.13-.218c.209-.188.311-.348.308-.48s-.023-.232-.058-.302c-.111-.201-.369-.187-.772.042z" fill="#98633b"/><path d="M1.985 13.546c.278-.175.569-.213.65-.086s-.081.373-.359.547-.569.213-.649.086.08-.373.358-.547z" fill="#011"/><path d="M5.624 11.291l.002-.004.059-.044.069-.022.057-.003c.046.004.308.074.365.09l.023.007.082.052.047.068.018.064-.223.251.137-.056.047-.04-2.769 3.969c-.009.013-.019.024-.031.035-.295.278-.595.403-.891.394-.314-.009-.52-.077-.628-.166-.182-.167-.365-.367-.554-.607-.204-.258-.331-.506-.385-.738-.103-.393-.035-.738.196-1.037.199-.224.445-.414.748-.581.438-.214.767-.196.995-.023.015.011.028.023.039.037l.495.612 2.102-2.258zm.3.128l.014-.021c.022-.032.052-.057.087-.074-.051.025-.082.058-.101.095zm.084.075c.011-.044.009-.092-.016-.146.022.047.026.098.015.146l-.219-.051-2.278 2.448-.658-.813c-.174-.132-.424-.118-.751.042-.278.153-.504.326-.678.521-.188.243-.24.524-.157.843.049.209.164.428.345.657s.354.42.521.573c.084.069.247.107.491.114s.487-.104.73-.333l2.77-3.969-.115-.032z" fill="#251c14"/></svg>