<svg xmlns="http://www.w3.org/2000/svg" width="100%" height="100%" viewBox="0 0 110 135" fill-rule="evenodd" stroke-linejoin="round" stroke-miterlimit="2" xmlns:v="https://vecta.io/nano"><path d="M11.737 53.584c-4.119-6.453 1.231-9.489 4.42-4.958.418.594-.168-.955.005-1.592-1.337-1.566.17-3.421.518-9.566s.641-9.74.873-10.785C19.764 14.278 26.626 6.16 38.14 2.335c2.675-.87 5.423-1.247 8.243-1.131l9.466.262c3.432.116 6.528.13 9.291.043s5.975.16 9.639.74c3.607.696 6.251 2.231 7.938 4.608s2.763 4.435 3.228 6.175c.523.754 1.178 1.146 1.963 1.174s.6.498 2.343 2.064c3.257 3.072 4.915 8.118 4.974 15.133s-.407 13.789-.466 18.196c.059 1.101.223 1.069.873.509 6.582-5.686 17.509-6.623 8.845 1.391-.525 1.391-4.367 3.412-4.658 4.745-.348 1.391-.002 2.267-.205 4.528s.027 8.488.055 9.763-.319 2.286-.435 3.156c-.35 1.912-1.479 2.096-2.468 2.211s-5.586-.996-6.284-2.387c-.698 1.622-.45 5.218-1.032 8.783s-1.308 7.71-2.181 10.436c-1.745 5.216-2.995 9.304-5.525 14.261a64.42 64.42 0 0 1-9.291 13.61c-1.28 1.391-2.167 2.146-2.659 2.261s-3.186.262-4.524.434c-1.396.233-3.096.217-5.102-.043s-3.708-.391-5.104-.391c-3.664 0-5.63-.064-8.423-.585s-4.913-2.813-6.367-6.871l-3.239-3.273c-1.221-2.377-4.913-7.721-6.657-11.402s-3.053-6.856-3.926-9.523c-.989-2.608-3.041-9.566-3.564-10.842-.202-.491-.325-1.92-.789-1.765-.646.217-5.216-.194-5.739-1.18-.698-1.217-.953-3.686-1.71-8.787-.407-2.146.232-2.16-.089-6.045s-2.416-7.673-2.823-9.007z" fill="#87ff3f" fill-rule="nonzero"/><path d="M25.019 54.873c.978 15.955 3.288 24.912 8.698 31.753.717.907 9.772-7.986 10.549-7.091 1.024 1.181 1.038 3.432 1.831 5.793 2.287 6.809 2.589 21.958 6.074 22.469-2.943 4.333-3.007 7.388-5.778 7.672-6.467.664-15.032-9.835-18.718-26.224-.798-3.547-4.378-8.472-5.816-12.489-.234-.653-4.747 2.492-4.981-1.554.192-8.56-1.085-17.316-3.817-26.266 3.992 2.802 9.272 6.959 11.958 5.937zm79.105-6.161c.699 2.583-2.886 4.287-4.381 5.666-5.086 4.692-1.77 16.559-3.93 18.181l-2.994-.251-.296-21.923c1.823-.212 10.085-1.767 11.601-1.673zM69.757 78.651l6.661 10.196-20.473 3.657-1.323-5.983c4.493-.656 9.574-3.408 15.135-7.87zM44.725 52.088v5.974H28.126v-5.974h16.599zm38.577-.613v6.973h-13.87v-6.973h13.87z" fill="#6c9c54"/><path d="M46.718 59.822v2.037c0 .562-.479 1.902-1.041 1.902H34.368c-.562 0-.996-1.34-.996-1.902v-2.037a1.02 1.02 0 0 1 1.018-1.019h11.309a1.02 1.02 0 0 1 1.019 1.019zm33.01.044v2.037c0 .562-.797 1.678-1.359 1.678l-8.6.02c-.562 0-1.936-1.135-1.936-1.697v-2.037a1.02 1.02 0 0 1 1.019-1.018h8.858c.562 0 2.017.455 2.017 1.018zm-8.974 32.877l.034 2.163c0 .792-.31 2.19-1.099 2.19-8.075 5.931-14.309 6.648-20.971 2.234-.792 0-3.249-3.048-3.249-3.839v-2.866c0-.79 1.284-1.315 2.076-1.315 7.186 1.076 14.439 1.16 21.776 0 .792 0 1.434.64 1.434 1.432zM96.48 22.216v25.521c1.126 1.959-1.108 3.802-2.633 3.802s-2.893-2.277-2.893-3.802c.777-8.641.448-17.397-2.122-26.387 0-1.525 3.361-1.896 4.885-1.896s2.763 1.238 2.763 2.763zM77.492 2.994l9.05 12.768c-12.254 3.846-25.204 7.111-44.457 5.097l-13.814 1.585.461-15.435c16.556-3.375 32.528-5.987 48.76-4.015z" fill="#adffff"/><path d="M86.673 62.294c.791 0-.995-12.538-2.015-12.973-.408-.174-1.275-6.086-.898-7.419s1.348-3.421 2.913-6.261c-.173 3.478-.202 6.565-.086 9.261s.695 5.696 1.739 9.001v12.522a35.33 35.33 0 0 0-1.653.87v-5.001zm0 0c.791 0-.995-12.538-2.015-12.973-.408-.174-1.275-6.086-.898-7.419s1.348-3.421 2.913-6.261c-.173 3.478-.202 6.565-.086 9.261s.695 5.696 1.739 9.001v12.522a35.33 35.33 0 0 0-1.653.87v-5.001zm-69.036-9.722c-1.214-3.508-3.045-7.141-2.291-12.509l.329-11.692c.058-1.131.203-2.131.435-3.001 1.043-4.058 3.386-8.702 4.516-10.122s3.145-3.754 6.044-7c2.435-2.725 5.449-4.711 9.044-5.957s7.218-1.87 10.87-1.87c3.942 0 7.725-.116 11.349-.348s7.377.087 11.261.957c.754.174 1.71.232 2.87.174s2.116 0 2.87.174c2.319.579 4.768 1.869 7.348 3.869s3.87 4.218 3.87 6.653c3.072 1.681 6.145 4.261 9.218 7.74 1.623 1.913 2.522 3.507 2.695 4.783l.783 5.652c.29 2.725.362 5.247.218 7.566s-.468 9.037-.345 10.389c.406.696 1.157.774 1.998.684.369-.04 3.645-1.371 4.3-.325.498.794-2.476 3.97-3.608 4.79-.433.314-2.772 2.746-2.772 3.325.128 1.897-.07 3.659-.406 5.365-.782 1.54.047 6.76.15 8.037.209 2.605.127 3.339-.439 4.013-.812.968-1.223 1.042-2.759-.069-.463 2.608-3.134 7.33-3.163 9.011s-.508 4.609-1.435 8.783c-1.16 3.015-2.551 6.319-4.174 9.914-1.45 3.13-3.03 6.304-4.74 9.522s-3.87 5.957-6.478 8.218c-2.609 2.377-4.725 3.913-6.349 4.609s-4.058 1.13-7.304 1.304c-1.044.058-2.03.015-2.957-.13l-2.696-.392c-5.102-.521-8.464-1.087-10.088-1.695s-3.971-2.885-7.043-6.827l-11.045 15.305c-2.029 1.914-4.058 2.841-6.087 2.783s-3.391-.377-4.087-.956c-1.391-1.276-2.841-2.87-4.348-4.783s-2.464-3.74-2.87-5.479c-.696-2.667-.261-5.015 1.305-7.044 1.449-1.623 3.333-3.072 5.652-4.348 2.725-1.333 4.812-1.449 6.261-.348l5.479 6.783 6.957-7.218c-3.247-4.753-5.493-8.42-6.74-11a432.87 432.87 0 0 1-4.391-9.436l-.522-1.304c-.464-1.739-1.561-3.954-2.396-5.864-.718-1.643-1.898-4.387-2.304-6.126-1.93 1.12-2.707.064-3.055-.458s-.158-1.941-.564-4.202c-.174-.985-.267-1.623-.499-3.594-.174-1.913.588-4.155.385-6.068s-1.711-5.729-2.03-6.367-1.678-7.04-1.852-7.736c.621-2.082 4.256 2.822 5.63 3.865zM52.15 5.726c-.174.348-.16.753.043 1.217s.218.87.044 1.218c-.406-.348-.986-.797-1.74-1.348s-1.304-1.029-1.652-1.435c1.102 1.565 2.319 3.507 3.653 5.826l3.565 6.088c0-1.45.072-2.493.217-3.131s-.159-1.768-.913-3.391L52.15 5.726zm3.391 83.744c1.16.58 2.174 1.275 3.044 2.087l3.044-1.218c1.101-.463 3.159-.927 6.174-1.391l7.305-1.043c-.986-1.276-1.885-2.624-2.696-4.044s-1.682-2.797-2.609-4.131c-.522.464-1.116.971-1.783 1.522s-1.29 1-1.869 1.348c-.754.522-1.566.956-2.435 1.304s-1.653.783-2.348 1.305c-.464.29-.841.652-1.131 1.087s-.638.768-1.043 1c-1.624.927-2.841 1.652-3.653 2.174zm-13.305 22.088l3.131 2.261 4.696-5.739-2.696-3.131-5.131 6.609zm-4.261-25.393a31.67 31.67 0 0 0 .913 2l1 2.001 2.652-3.435 2.653-3.435-.435-2.957c-1.507 1.333-3.768 3.275-6.783 5.826zm1.565 21.393c.696-.754 1.479-1.522 2.348-2.305l2.522-2.304-2.826-5.653c-1.131-2.203-2.044-4.145-2.739-5.826-3.189-2.899-4.609-2.986-4.262-.261s.87 5.131 1.566 7.218l3.391 9.131zm-8.87-15.914c.522 3.478 1.203 6.609 2.044 9.392s2.275 5.739 4.304 8.87l1.392-1.305c-1.74-2.666-3.203-5.406-4.392-8.217a141.02 141.02 0 0 1-3.348-8.74zM47.976 7.03c-.058 2.841-.508 3.754-1.348 2.739s-2.131-2.13-3.87-3.348c2.435 4.001 4.159 6.595 5.174 7.784s2.536 2.275 4.566 3.261c-.174-.522-.479-1.029-.914-1.522s-.739-1.029-.913-1.609a58.48 58.48 0 0 1-1.348-3.609c-.376-1.13-.826-2.362-1.347-3.696zM23.887 62.338c-.116 1.913-.29 3.841-.522 5.783a65.46 65.46 0 0 0-.434 5.783c.731 5.636 2.213 9.928 4.261 12.87a50.47 50.47 0 0 0-1.087-5.783 39.46 39.46 0 0 1-1-5.87 53.55 53.55 0 0 1-.653-6.348c-.087-2.087-.275-4.232-.565-6.435zm-7.615-8.786c-2.231-2.578-1.517-.557-1.228 1.005.187 1.007 2.478 4.421 2.451 4.954-.068 1.358 3.537 1.348 4.348.653.928-.696 1.356-1.513.783-1.74-.378-.149-4.143-1.906-4.52-2.386-.76-.97-1.368-1.948-1.834-2.486zm1.441 12.351l-.261 3.479a39.61 39.61 0 0 0-.087 2.435c0 .406 2.189 1.188 2.565 2.348s.826.13 1.348-1.087c.232-.522.029-1.479-.608-4.87s-2.957-4.16-2.957-2.305zM41.627 8.248c-.927 0-.84 1.101.261 3.304l1.913 3.826h1.218v-.956a38.85 38.85 0 0 0-1.696-3.044c-.609-.985-1.174-2.029-1.696-3.13zm-3.739 51.133c-2.319.116-3.623.812-3.913 2.087.174.464.783 1.512 1.74 1.512h2.13c-.638-.87-.653-2.613.043-3.599zm-7.131-4.957c.174.29.754 1.189 1.739 2.696 2.029-1.681 3.551-2.493 4.566-2.435l5.609.348c-.058-.116-.261-.435-.609-.957-.927-1.159-2.435-1.826-4.522-2-1.217-.058-2.232-.029-3.044.087-1.275.406-2.521 1.16-3.739 2.261zm5.305 2.087c-.174.348-.261.725-.261 1.131 1.159.116 2.348.145 3.565.087a38.37 38.37 0 0 1 3.653 0c0-.232-.087-.435-.261-.609s-.261-.377-.261-.609h-6.435zM34.931 9.378c-.058.116-.174.435-.348.957l1.435 2.522c.435.753 1.174 1.275 2.218 1.565 0-.696-.551-2.058-1.652-4.087a15.36 15.36 0 0 1-1.653-.957zm1.305-1.13c1.739 2.435 3.13 4.638 4.174 6.609.174-.116.362-.232.565-.348s.391-.261.565-.435l-.869-2.304a32.93 32.93 0 0 1-.783-2.392c-1.449-.985-2.667-1.362-3.652-1.13zm-4.174 5.304c1.101.29 1.768.479 2 .566s.347-.479.347-1.696c-1.391 0-2.174.377-2.347 1.13zM29.54 29.466a349.48 349.48 0 0 1-.174 10.827 346.85 346.85 0 0 0-.174 10.74 94.74 94.74 0 0 0 2.696-1.87c.927-.667 1.826-1.087 2.695-1.261 3.653-.464 7.218-.058 10.697 1.218 1.739 1.739 3.101 3.261 4.087 4.565l3.478 4.566c.116 1.101.189 2.333.218 3.695a57.1 57.1 0 0 0 .217 3.957c.058 1.913-.232 4.145-.869 6.696a53.01 53.01 0 0 0-.914 3.696l-.652 3.174c-.29 1.102-.493 1.218-.608.348V63.903c0-.464-.334-.58-1.001-.348s-1.029.377-1.087.435c-2.956 2.435-5.13 3.87-6.522 4.305s-3.971-.305-7.739-2.218l7.435.044c1.594.029 3.203-1.464 4.826-4.479-1.797-1.507-3.391-2.261-4.783-2.261.812.406 1.175 1.918 1.001 2.903s-.638 1.508-1.391 1.566c-.986.057-2.696.101-5.131.13s-3.957-1.236-4.479-2.164c-.174-.174-.406-1.072-.696-2.696l-3.739-1.13c0 5.044.304 9.203.913 12.479s1.899 6.826 3.87 10.653c1.275 2.55 2.261 3.811 2.956 3.782s2.261-.884 4.696-2.565a36.65 36.65 0 0 0 3.957-3.044l3.174-2.869c.058 0 .348.087.87.261s.782.434.782.782c-1.449.696-2 1.71-1.652 3.044.232 1.449.986 2.116 2.261 2 .348 0 .652-.087.913-.261s.739-.261 1.435-.261c.696.116 1.406.449 2.131 1a10.88 10.88 0 0 0 2.304 1.348c1.334.696 2.493.754 3.479.174s2-1.217 3.043-1.913c1.74-.406 3.131-1.449 4.174-3.131.29-.406.45-.942.479-1.609s.565-1.029 1.609-1.087c2.203.116 4.695 1.769 7.478 4.957.87 1.044 1.406 1.595 1.609 1.653s.826-.58 1.87-1.914c.116-.174.319-.565.608-1.174s.522-1.029.696-1.261c.406.116.812.537 1.218 1.261s.811 1.174 1.217 1.348c.696.464 1.609-.159 2.739-1.869s1.986-2.682 2.566-2.914c.348 1.566.391 3.522.13 5.87s-.391 4.479-.391 6.392l1.087-5.218 1.087-5.217.696-10.305.782-10.392-1.869-6.435-1.783-6.523 1.087-7.783 1.087-7.783a18.58 18.58 0 0 0-2.739-5.261c-1.189-1.594-2.073-3.348-2.653-5.261-5.217 1.913-9.652 3.899-13.305 5.957s-8.406 3.58-14.262 4.565c-2.203.232-5.145-.087-8.826-.956l-8.74-2-5.305 1.043c-1.101.232-2.724.87-4.869 1.913zm69.984 20.576c-.2.117-2.56 1.788-3.546 2.86s-1.855 1.986-2.608 2.74c-.754.869-.638 1.304.347 1.304.812-.695 1.551-1.391 2.218-2.087s4.981-3.168 5.85-3.863c2.301-2.154-.939-1.726-2.261-.954zm-5.372 10.731c-.116 2.145-.232 5.362-.348 9.652 2.029.696 2.638-.521 1.827-3.652l-1.479-6zm-.522-16.61l-.174 2.565a37.93 37.93 0 0 0-.086 2.566c.927.463 1.478.753 1.652.869l.565-.739.652-.826c-.29-.348-.565-.71-.826-1.087l-.739-1.087v-2a1.64 1.64 0 0 1-.522-.087l-.522-.174zm-.782-4.87c.174.58.362 1.145.565 1.696s.42 1.087.652 1.609h1.305v-4.001c-.464.174-.899.305-1.305.392s-.811.188-1.217.304zm-.174-3.392c0 .232-.058.696-.174 1.392h2.435v-1.218c-1.044-.116-1.797-.174-2.261-.174zm-3.479-12.87a10.05 10.05 0 0 0 .566.522 12.83 12.83 0 0 0 .652.522 48.43 48.43 0 0 1 1.174-.566c.435-.202.855-.42 1.261-.652-.174-.348-.363-.695-.565-1.043a10.28 10.28 0 0 1-.566-1.131c-.464.406-.898.812-1.304 1.218a22.02 22.02 0 0 1-1.218 1.13zm1.566 1.478c.058.464.203 1.16.434 2.088a111.93 111.93 0 0 0 2.175-.348c0-.406.043-.826.13-1.261a23.06 23.06 0 0 0 .217-1.261c-.521.174-1.029.319-1.521.435l-1.435.347zm1.391 2.87c-.232.58-.377 1.015-.435 1.305.464.232.928.449 1.392.652s.927.391 1.391.565a7.31 7.31 0 0 1 .217-.565c.087-.203.189-.42.305-.652-.522-.174-1.015-.377-1.479-.609l-1.391-.696zm.261 3.131c.232 1.043.377 1.826.435 2.348h2.522c-.232-.928-.377-1.623-.435-2.087a9.24 9.24 0 0 1-1.305-.087l-1.217-.174zM53.802 5.726c2.725 4.058 4.522 7.681 5.392 10.87.405 1.739.695 2.841.869 3.305 1.044-3.131.855-5.754-.565-7.871s-3.319-4.217-5.696-6.304zm38.437 27.827a2.86 2.86 0 0 0 .087.696 8.36 8.36 0 0 0 .174.609h2.522a1.44 1.44 0 0 1 .13-.565c.087-.203.16-.392.218-.566-1.392-.116-2.435-.174-3.131-.174zM64.15 3.726l.174 2.217c.058.841.145 1.551.261 2.131-.58-.522-1.304-1.363-2.174-2.522s-1.565-2.029-2.087-2.609c.116.638.391 1.449.826 2.435s.739 1.768.913 2.348a14.32 14.32 0 0 1-1.478-1.131l-1.391-1.217c1.623 2.261 2.565 3.942 2.826 5.044s.565 3.014.913 5.739c.812-1.159 1.217-3.13 1.217-5.913.29.753.58 1.594.87 2.522a95.43 95.43 0 0 0 .609 4l.695 3.913c.696-2.261 1-4.203.914-5.826s-.276-3.653-.566-6.088c.348 1.044.71 2.203 1.087 3.479l1.087 3.478c1.508-2.435 1.537-4.667.087-6.696S65.89 5.233 64.15 3.726zm15.914 3.652c1.334 2.029 2.145 4.667 2.435 7.914.232-1.044.522-2.551.87-4.522l-3.305-3.392zm-10.261-4c1.217 1.739 2.116 3.072 2.696 4s.869 2.319.869 4.174h1.653c-.174-1.043-.653-2.565-1.435-4.565s-2.044-3.203-3.783-3.609zm6.87 2c-.116-.058-.203-.131-.261-.218a2.74 2.74 0 0 1-.174-.304c-.058.406-.13.783-.217 1.131s-.131.695-.131 1.043c.638 1.218.899 2.464.783 3.74l2.87 4.522a59.39 59.39 0 0 0-.218-2.261c-.087-.754-.13-1.508-.13-2.261-.696-1.624-1.537-3.421-2.522-5.392zm-2.14 87.362c-.055.1-.443.692-1.165 1.774-1.333 1.971-3.13 3.333-5.391 4.087l-1.305.348v-1.131l1.218-.348.261-.869-3.65.814v-1.043l2.171-.554 4.001-2.609-3.044-1.652c-3.363.87-6.189 1.406-8.479 1.609s-5.232-.044-8.827-.739l-4.348-.087-.174 1.913 3.827 1.652 2.174.696 2.522-.087 2.261.435 2.174-.348 2.435.348 1.449-.228-.225 1.336-1.311.196-2.348-.435-2.174.435-2.087-.261-1.305-.087-1.304 2.174h12.522c.754 0 .928.203.522.609-1.101.986-2.029 1.536-2.783 1.652-1.739.232-3.232.247-4.478.044s-2.711-.218-4.392-.044c-1.217 0-1.71.348-1.478 1.044.174 1.043.869 1.71 2.087 2a6.81 6.81 0 0 0 2.652.174c.899-.116 1.783-.174 2.653-.174l1.826.174a21.09 21.09 0 0 0 1.913.087c1.797.174 3.073.348 3.826.522s.348.956-1.217 2.347c-.522.464-1.71.725-3.566.783l-3.565.174c-1.16.058-2.319.087-3.479.087-.927.116-1.623.174-2.087.174-.753 1.681-1.434 3.131-2.043 4.348s-1 2.725-1.174 4.522c0 1.16.551 1.739 1.652 1.739 1.681 0 3.479.305 5.392.913s3.913.971 6 1.087c1.275.116 2.493-.289 3.652-1.217 2.319-1.565 4.117-2.986 5.392-4.261 1.449-1.392 2.594-2.797 3.435-4.218s1.696-3.029 2.565-4.826a101.74 101.74 0 0 0 3.74-8.392c1.101-2.812 2-5.957 2.696-9.435-.174-.116-.537.145-1.087.782s-.972 1.073-1.261 1.305c-.29.29-.754.203-1.392-.261-.29-.348-.58-.826-.869-1.435s-.551-1.087-.783-1.435c-.406.29-.899.667-1.478 1.131-.632.574-1.548 1.461-2.749 2.661.016-.029.004-.017-.034.034.011-.011.023-.022.034-.034zm.819-33.359c2.319.116 3.623.812 3.913 2.087-.174.464-.783 1.512-1.74 1.512h-2.131c.638-.87.653-2.613-.042-3.599zm7.13-4.957c-.174.29-.753 1.189-1.739 2.696-2.029-1.681-3.551-2.493-4.565-2.435l-5.609.348c.058-.116.261-.435.608-.957.928-1.159 2.435-1.826 4.522-2 1.218-.058 2.232-.029 3.044.087 1.275.406 2.522 1.16 3.739 2.261zm-5.304 2.087c.174.348.261.725.261 1.131-1.16.116-2.348.145-3.566.087s-2.435-.058-3.652 0c0-.232.087-.435.261-.609s.261-.377.261-.609h6.435zm5.391 2.609c2.107-.126 1.926-9.222-1.217-9.957-1.112-.26-1.826-1.087-2.696-1.261A22.42 22.42 0 0 0 67.96 49.12c-1.739 1.739-3.102 3.261-4.087 4.565l-3.479 4.566c-.116 1.101-.188 2.333-.217 3.695s-.102 2.682-.218 3.957c-.058 1.913 3.044 5.044 3.044 5.044v-7.044c0-.464.333-.58 1-.348s1.029.377 1.087.435c2.957 2.435 5.131 3.87 6.522 4.305s3.971-.305 7.74-2.218l-7.435.044c-1.595.029-3.204-1.464-4.827-4.479 1.797-1.507 3.392-2.261 4.783-2.261-.812.406-1.175 1.918-1.001 2.903s.638 1.508 1.392 1.566c.985.057 2.696.101 5.131.13s3.957-1.236 4.479-2.164c.174-.174.406-1.072.695-2.696z" fill="#111212" fill-rule="nonzero"/><g transform="matrix(1.61481 0 0 1.61481 -11.4124 -58.9648)"><path d="M37.307 95.71c-.037-.078 1.764.436 1.76.437L24.48 117.09c-1.283 1.21-2.565 1.796-3.848 1.759s-2.143-.238-2.583-.604c-.879-.807-1.796-1.814-2.748-3.023s-1.557-2.364-1.814-3.463c-.44-1.686-.165-3.17.825-4.452.916-1.026 2.107-1.942 3.573-2.748 1.722-.843 3.042-.916 3.957-.22l3.463 4.287L37.307 95.71z" fill="#9a0098"/><path d="M35.981 95.585l.012-.018c.348-.472.795-.559 1.316-.353.245.018 1.281.376 1.578.462 1.02.398 1.09 1.051.692 1.827l-14.127 20.262a1.2 1.2 0 0 1-.159.185c-1.557 1.467-3.137 2.125-4.693 2.08-1.654-.047-2.74-.406-3.308-.878l-.042-.037c-.921-.844-1.881-1.898-2.879-3.164-1.074-1.363-1.741-2.672-2.03-3.899-.54-2.073-.184-3.894 1.033-5.471l.054-.066c.997-1.117 2.289-2.119 3.885-2.997l.05-.026c2.257-1.105 3.994-1.012 5.194-.099.076.058.145.125.205.198l2.605 3.226 10.613-11.234zm2.627 1.242c.186-.141-1.573-.643-1.76-.437l-11.543 12.234-3.463-4.287c-.916-.696-2.235-.623-3.957.22-1.466.807-2.657 1.722-3.573 2.748-.99 1.283-1.265 2.767-.825 4.452.257 1.099.861 2.254 1.814 3.463s1.869 2.217 2.748 3.023c.44.366 1.301.568 2.583.604s2.565-.549 3.848-1.759l14.128-20.262z" fill="#251c14"/><path d="M17.499 105.491c-.659.403-1.365.98-2.116 1.732s-1.145 1.511-1.181 2.281c-.147.879.274 1.392 1.264 1.539.439.073 1.356-.037 2.748-.33 1.173.623 1.915 1.786 2.226 3.49s.76 2.501 1.346 2.391c.44-.073.752-.55.935-1.429s-.165-2.034-1.045-3.463l-.742-1.154-.687-1.154c1.1-.99 1.64-1.832 1.622-2.528s-.119-1.228-.303-1.594c-.586-1.063-1.942-.99-4.067.219z" fill="#fd00b8"/><ellipse cx="19.219" cy="117.942" rx="4.962" ry="2.277" fill="#011" transform="matrix(.535096 -.336457 .336457 .535096 -31.9257 51.3778)"/></g></svg>