<svg xmlns="http://www.w3.org/2000/svg" width="100%" height="100%" viewBox="0 0 14 16" fill-rule="evenodd" stroke-linejoin="round" stroke-miterlimit="2" xmlns:v="https://vecta.io/nano"><path d="M1.846 6.17c.02-.122.068-.17.143-.143s.288-.193.308-.268c-.157-.184-.215-.638-.174-1.361l.102-1.269c.26-1.46 1.067-2.416 2.42-2.866.315-.102.638-.147.969-.133l1.113.031 1.092.005c.325-.01.703.019 1.133.087.424.082.735.262.933.542s.325.522.38.727c.061.089.138.135.231.138s.241.097.446.282c.382.361.577.955.584 1.78v2.017c.007.129.041.153.103.071s.102-.04.123.123l-.134.328c-.027.055-.058.16-.092.317-.041.164-.073.379-.097.645l-.057.594c-.02.136-.029.279-.025.43a2.49 2.49 0 0 1-.016.378c-.041.225-.119.345-.236.358s-.215-.061-.297-.225c-.082.191-.157.497-.225.916s-.154.79-.257 1.111c-.205.614-.456 1.213-.754 1.796s-.661 1.117-1.092 1.602c-.15.164-.254.252-.312.266a3.62 3.62 0 0 1-.323.051c-.165.028-1.036-.051-1.2-.051-.431 0-.81-.031-1.138-.092s-.578-.331-.749-.809l-.381-.385-.634-1.319c-.205-.433-.359-.807-.462-1.121-.116-.307-.346-.468-.367-.768s-.081-.338-.142-.488c-.089-.027.016-.345-.049-.294s-.331.044-.393-.072c-.082-.143-.167-.515-.256-1.116-.048-.252-.091-.607-.128-1.064l-.09-.751z" fill="#ff4b3c" fill-rule="nonzero"/><path d="M2.995 6.447c.115 1.878.387 2.932 1.025 3.737.085.107 1.153-.94 1.244-.835.121.139.123.404.216.682.27.802.305 2.585.716 2.645-.347.51-.354.869-.681.903-.763.078-1.772-1.158-2.207-3.087-.094-.417-.455-.705-.521-1.132-.039-.249-.398-.257-.57-.323l-.392-2.992c.363-.282.757-.087 1.17.402zm8.727-.711c-.102 1.645-.228 3.084-.504 3.27l-.315-.016-.014-2.717c.274-.195.128-.437.833-.537zM8.27 9.245l.786 1.2-2.415.431-.156-.704c.53-.078 1.129-.402 1.785-.927zM5.318 6.119v.703H3.361v-.703h1.957zm4.549-.072v.82H8.232v-.82h1.635z" fill="#b90609"/><path d="M5.553 7.029v.24c0 .066-.056.224-.122.224H4.097c-.066 0-.117-.158-.117-.224v-.24a.12.12 0 0 1 .12-.12h1.333a.12.12 0 0 1 .12.12zm3.893.005v.24c0 .066-.094.198-.16.198l-1.015.002a.35.35 0 0 1-.228-.2v-.24a.12.12 0 0 1 .12-.119h1.045c.066 0 .238.053.238.119zm-1.058 3.87l.004.254c0 .094-.037.258-.13.258-.952.698-1.687.783-2.473.263-.093 0-.383-.358-.383-.452v-.337c0-.093.152-.155.245-.155.847.127 1.702.137 2.568 0a.17.17 0 0 1 .169.169z" fill="#ebebeb"/><path d="M11.421 2.603v3.004c.133.23-.131.447-.31.447s-.341-.268-.341-.447c.091-1.017.052-2.048-.251-3.106 0-.179.397-.223.576-.223s.326.146.326.325zM9.182.341l1.067 1.502c-1.445.453-2.972.837-5.242.6l-1.629.187.04-1.835C5.37.398 7.268.109 9.182.341z" fill="#7baabc"/><g fill-rule="nonzero"><path d="M10.265 7.32c.093 0-.118-1.476-.238-1.527-.048-.02-.15-.716-.106-.873s.159-.403.344-.737l-.01 1.09a4.12 4.12 0 0 0 .205 1.06v1.473l-.195.103V7.32zm0 0c.093 0-.118-1.476-.238-1.527-.048-.02-.15-.716-.106-.873s.159-.403.344-.737l-.01 1.09a4.12 4.12 0 0 0 .205 1.06v1.473l-.195.103V7.32zM2 5.77V3.456c.02-.102.034-.22.041-.353a1.76 1.76 0 0 1 .051-.353c.123-.477.251-.8.385-.967l.712-.824A2.51 2.51 0 0 1 4.256.258a3.89 3.89 0 0 1 1.282-.22l1.338-.041c.427-.027.87.01 1.328.113.089.02.201.027.338.02s.25 0 .339.021c.273.068.562.22.866.455s.456.496.456.783c.363.198.725.501 1.087.911.192.225.298.413.318.563l.092.665c.035.321.043.618.026.891l-.026.869-.174.215a2.18 2.18 0 0 0 .164.241l.175.241c0 .075-.024.133-.072.173s-.072.096-.072.164v.799c-.021.245-.053.44-.097.583a1.13 1.13 0 0 0-.047.44c.021.307-.02.563-.123.768s-.259.228-.471.071c-.055.307-.26 1.092-.369 1.583-.231 1.037-2.007 3.938-2.32 4.027-.169.048-.422.088-.804.109-.123.007-1.853-.166-2.045-.238s-.468-.339-.83-.803l-1.303 1.801c-.239.225-.478.335-.717.328s-.4-.045-.482-.113c-.164-.15-.335-.338-.513-.563s-.291-.44-.338-.645c-.083-.313-.031-.59.153-.829.171-.191.393-.361.667-.511.321-.157.567-.171.738-.041l.646.798.821-.85-.795-1.294-.518-1.111-.061-.153-.159-.614-.149-.614c-.226-.076-.359-.144-.4-.205s-.085-.225-.133-.492L2 8.032l-.067-.676-.066-.676a1.11 1.11 0 0 0-.088-.245c-.037-.075-.066-.154-.087-.236 0-.081.103-.225.308-.429zM6.194.662c-.021.041-.019.089.005.144s.026.102.005.143L5.999.79C5.91.725 5.845.669 5.804.621c.13.185.274.413.431.686l.42.717c0-.171.009-.294.026-.369s-.019-.208-.108-.399L6.194.662zm.4 9.857c.137.068.256.15.359.245l.359-.143c.129-.055.372-.109.728-.164l.861-.123a4.18 4.18 0 0 1-.318-.475l-.307-.487-.211.179c-.078.065-.152.118-.22.159a1.44 1.44 0 0 1-.287.154 1.21 1.21 0 0 0-.277.153.43.43 0 0 0-.133.128c-.035.051-.076.091-.123.118l-.431.256zm-1.569 2.599l.369.266.554-.675-.318-.368-.605.777zm-.503-2.988l.108.235.118.236.313-.405.313-.404-.052-.348-.8.686zm.185 2.518l.277-.272.297-.271-.333-.665-.323-.686c-.376-.341-.543-.351-.503-.031a4.58 4.58 0 0 0 .185.85l.4 1.075zm-1.046-1.873c.062.409.142.777.241 1.105s.268.675.508 1.044l.164-.154a6.11 6.11 0 0 1-.518-.967l-.395-1.028zM5.702.816c-.007.334-.06.442-.159.322S5.291.887 5.086.744l.611.916c.119.14.299.268.538.384a.54.54 0 0 0-.108-.179.5.5 0 0 1-.107-.189l-.159-.425-.159-.435zM2.861 7.325l-.061.681-.051.681.502 1.514c-.027-.218-.07-.445-.128-.68s-.098-.466-.118-.691c-.041-.253-.067-.502-.077-.747l-.067-.758zm-.83-1.228c-.028.027-.069.061-.123.102-.048.041-.017.123.092.246a4.04 4.04 0 0 1 .225.312c.089.133.182.159.277.077.11-.082.14-.15.093-.205s-.11-.133-.185-.235c-.014-.027-.041-.068-.082-.123-.143-.157-.243-.215-.297-.174zm.338 1.883l-.031.41-.01.286c0 .048.022.14.067.277s.097.133.159-.011c.027-.061.003-.291-.072-.69s-.113-.49-.113-.272zM4.953.959c-.109 0-.099.13.031.389l.225.45h.144v-.112l-.2-.359a3.67 3.67 0 0 1-.2-.368zm-.441 6.018c-.273.014-.427.096-.461.246.02.055.092.178.205.178h.251c-.075-.103-.077-.308.005-.424zm-.841-.583l.205.317c.24-.198.419-.293.539-.286l.661.041c-.007-.014-.031-.052-.072-.113-.109-.136-.287-.215-.533-.235-.143-.007-.263-.004-.359.01-.15.048-.297.136-.441.266zm.626.246c-.021.04-.031.085-.031.133.137.013.277.017.42.01h.431c0-.027-.01-.051-.031-.072s-.03-.044-.03-.071h-.759zm-.133-5.548c-.007.014-.021.051-.042.113l.17.297c.051.088.138.15.261.184 0-.082-.065-.242-.195-.481-.068-.034-.133-.072-.194-.113zm.153-.133c.205.287.369.546.493.778.02-.014.042-.027.066-.041a.36.36 0 0 0 .067-.051l-.103-.271-.092-.282c-.171-.116-.314-.16-.431-.133zm-.492.624l.236.067c.027.01.041-.056.041-.2-.164 0-.256.045-.277.133zm-.297 1.873l-.021 1.275-.02 1.264.318-.22a.83.83 0 0 1 .317-.149 2.65 2.65 0 0 1 1.262.144 5.36 5.36 0 0 1 .482.537l.41.537.026.435.025.466a2.93 2.93 0 0 1-.102.788l-.108.435-.077.374c-.034.129-.058.143-.072.041V7.51c0-.055-.039-.069-.118-.041l-.128.051c-.348.286-.605.455-.769.506s-.468-.035-.912-.261l.876.006c.188.003.378-.173.569-.528-.212-.177-.4-.266-.564-.266.096.048.139.226.118.342s-.075.177-.164.184l-.605.016c-.287.003-.466-.146-.528-.255-.02-.021-.048-.126-.082-.317l-.441-.133c0 .593.036 1.083.108 1.468s.224.804.456 1.254c.151.3.267.449.349.445s.266-.104.553-.302c.165-.109.32-.228.467-.358l.374-.338c.007 0 .041.011.103.031s.092.051.092.092c-.171.082-.236.201-.195.358.028.171.117.25.267.236.041 0 .077-.01.108-.031s.087-.031.169-.031c.082.014.166.053.251.118s.176.118.272.159c.157.082.294.089.41.02l.359-.225c.205-.048.369-.17.492-.368.034-.048.053-.111.056-.19s.067-.121.19-.128c.26.014.554.208.882.584.103.123.166.187.19.194s.097-.068.22-.225c.014-.02.038-.067.072-.138s.061-.121.082-.149c.048.014.096.064.144.149s.095.138.143.158c.082.055.19-.018.323-.22s.234-.315.303-.342c.041.184.046.414.015.69s-.046.528-.046.753l.128-.614.128-.614.082-1.213.093-1.223-.221-.758-.21-.768.128-.916.128-.916a2.19 2.19 0 0 0-.323-.619c-.14-.187-.244-.394-.313-.619-.615.225-1.138.459-1.568.701s-.992.421-1.682.537c-.26.028-.607-.01-1.041-.112l-1.031-.236-.625.123c-.13.028-.321.103-.574.225zm8.049 2.569c-.027 0-.099.064-.215.19l-.308.322c-.088.103-.075.154.041.154l.262-.246c.079-.082.169-.164.272-.246l-.011-.087c-.007-.058-.02-.087-.041-.087zm-.43 1.587l-.041 1.136c.239.082.311-.061.215-.43l-.174-.706zm-.062-2.426l-.02.302-.011.302.195.102.067-.087.077-.097-.098-.128-.087-.128v-.235c-.02 0-.041-.004-.061-.01l-.062-.021zm-.092-.573l.067.2.076.189h.154v-.471c-.054.021-.106.036-.154.046l-.143.036zm-.021-.399c0 .027-.006.082-.02.164h.287v-.144l-.267-.02zm-.41-1.515l.067.061.077.062.138-.067.149-.076-.067-.123c-.024-.041-.046-.086-.066-.133l-.154.143-.144.133zm.185.174a2.37 2.37 0 0 0 .051.246l.256-.041a.79.79 0 0 1 .016-.149l.025-.148-.179.051-.169.041zm.164.338a.83.83 0 0 0-.051.153l.164.077.164.067.025-.067.036-.077c-.061-.02-.119-.044-.174-.071l-.164-.082zm.031.368l.051.277h.297l-.051-.246c-.055 0-.106-.003-.154-.01l-.143-.021zM6.389.662c.321.478.533.904.636 1.28l.102.389c.123-.369.101-.678-.067-.927S6.669.908 6.389.662zm4.532 3.275c0 .028.004.055.01.082l.021.072h.297c0-.02.005-.043.016-.066l.025-.067-.369-.021zM7.609.427l.02.261a2.2 2.2 0 0 0 .031.251C7.592.877 7.506.778 7.404.642L7.158.335c.013.075.046.17.097.286l.108.277c-.062-.041-.12-.086-.174-.133L7.025.621c.191.266.302.464.333.594s.066.355.107.675c.096-.136.144-.368.144-.696l.103.297.071.471.082.461c.082-.266.118-.495.108-.686l-.067-.717.128.41.129.409c.177-.286.181-.549.01-.788a3.54 3.54 0 0 0-.564-.624zm1.876.43c.158.239.253.549.288.931l.102-.532-.39-.399zM8.276.386l.317.471c.069.109.103.273.103.491h.195c-.021-.123-.077-.302-.169-.537S8.481.434 8.276.386zm.81.235C9.072.614 9.062.606 9.055.596S9.041.574 9.034.56l-.025.133a.47.47 0 0 0-.016.123c.075.143.106.29.093.44l.338.532-.026-.266a2.37 2.37 0 0 1-.015-.266L9.086.621zm-.253 10.283c-.006.011-.052.081-.137.208-.157.232-.369.393-.636.481l-.154.041v-.133l.144-.041.031-.102-.431.096v-.123l.256-.065.472-.307-.359-.195c-.396.103-.73.166-1 .19s-.617-.005-1.041-.087l-.512-.011-.021.226.452.194.256.082.297-.01.267.051.256-.041.287.041.171-.027-.026.157-.155.023-.277-.051-.256.051-.246-.03-.154-.011-.154.256H7.64c.089 0 .109.024.061.072-.13.116-.239.181-.328.194-.205.028-.381.03-.528.006s-.32-.026-.518-.006c-.143 0-.201.041-.174.123.02.123.102.202.246.236.103.027.207.034.313.02s.21-.02.313-.02l.215.02.225.01.452.062c.088.02.041.112-.144.276-.061.055-.202.085-.42.092l-.421.021-.41.01-.246.02-.241.512c-.072.144-.118.321-.138.532 0 .137.065.205.194.205a2.09 2.09 0 0 1 .636.108c.226.071.462.114.708.128.15.013.294-.035.43-.144.274-.184.486-.351.636-.501.171-.164.306-.329.405-.497l.303-.568.441-.987c.129-.331.235-.702.317-1.111-.02-.014-.063.017-.128.092s-.114.126-.148.154c-.035.034-.089.024-.165-.031-.034-.041-.068-.097-.102-.169s-.065-.128-.092-.169l-.175.133-.324.314zm.097-3.927c.273.014.427.096.461.246-.02.055-.092.178-.205.178h-.251c.075-.103.077-.308-.005-.424zm.841-.583l-.205.317c-.24-.198-.419-.293-.539-.286l-.661.041c.007-.014.031-.052.072-.113.109-.136.287-.215.533-.235.143-.007.263-.004.359.01.15.048.297.136.441.266zm-.626.246c.021.04.031.085.031.133-.137.013-.277.017-.421.01s-.287-.007-.43 0c0-.027.01-.051.031-.072s.03-.044.03-.071h.759zm.636.307c.248-.015.227-1.086-.144-1.172-.131-.031-.215-.128-.318-.149-.43-.054-.851-.007-1.261.144a5.24 5.24 0 0 0-.482.537l-.41.537-.026.435-.025.466c-.007.225.359.594.359.594V7.51c0-.055.039-.069.118-.041l.128.051c.348.286.605.455.769.506s.468-.035.912-.261l-.876.006c-.188.003-.378-.173-.569-.528.211-.177.4-.266.564-.266-.096.048-.139.226-.118.342s.075.177.164.184l.605.016c.287.003.466-.146.528-.255.02-.021.048-.126.082-.317z" fill="#111212"/><path d="M4.572 4.29c0 .057-.535.513-.583.541-.158.092-.328.16-.505.202-.044.01-.091.001-.127-.027l-.126-.089c-.029-.024-.195-.192-.233-.232-.462-.487-.735-1.115-.856-1.961-.134-.93.101-1.878.654-2.63.051-.069.148-.084.216-.032l.052.04c.04.03.063.078.062.129 0 .023-.027 2.202 1.515 2.866a12 12 0 0 1 .295.172c.002.017-.007.057-.01.074l-.034.186c-.047.264-.149.516-.3.736-.006.01-.013.018-.02.025zm4.385.182c-.298-.274-.508-.645-.584-1.065l-.033-.185c-.002-.014-.003-.029-.002-.043.098-.103.517-.316.619-.385C10.162 1.985 10.14.131 10.139.11a.16.16 0 0 1 .062-.13l.053-.04c.067-.051.165-.037.215.033.553.752.789 1.699.654 2.629-.119.839-.388 1.463-.843 1.948-.041.043-.329.302-.371.334s-.083.038-.127.028a1.84 1.84 0 0 1-.825-.44z" fill="#b90609"/><path d="M3.25 1.98l-.098-.257c-.021-.064-.081-.108-.148-.108-.084.001-.154.072-.153.159a.16.16 0 0 0 .009.053l.108.279c.024.059.08.097.143.097.084-.001.154-.072.153-.159 0-.022-.005-.044-.014-.064zm1.127 1.336a2.52 2.52 0 0 1-.785-.722l-.165-.257c-.027-.049-.079-.079-.134-.079-.085 0-.154.072-.154.158a.16.16 0 0 0 .022.08 3.11 3.11 0 0 0 .182.284 2.83 2.83 0 0 0 .882.81c.023.013.049.02.075.02.085-.001.154-.072.154-.159 0-.056-.03-.107-.077-.135zm4.617.16h0-.001c-.084-.004-.151-.078-.147-.165.003-.054.033-.103.079-.13a2.33 2.33 0 0 0 .238-.157.15.15 0 0 1 .098-.029c.084.004.151.078.147.164-.003.047-.026.091-.063.12-.086.064-.176.123-.268.176-.026.015-.054.022-.083.021zm.567-.443c-.084-.004-.151-.079-.147-.165.002-.039.018-.076.045-.104a3.14 3.14 0 0 0 .621-.952l.053-.126c.023-.064.084-.105.151-.102.085.004.151.078.147.165-.001.017-.005.035-.011.052l-.057.138c-.177.41-.408.763-.685 1.047-.031.032-.073.049-.117.047z" fill="#ff4b3c"/><path d="M3.124 2.236l-.098-.258c-.02-.064-.08-.108-.146-.108-.085 0-.155.071-.155.157 0 .019.003.037.009.054l.106.279c.024.059.08.097.143.097.084 0 .154-.071.154-.157 0-.022-.004-.044-.013-.064zm1.119 1.341a2.52 2.52 0 0 1-.781-.726c-.059-.083-.113-.169-.163-.258-.028-.049-.079-.08-.135-.08-.084 0-.154.072-.154.158a.16.16 0 0 0 .021.08l.181.285c.232.332.531.61.878.815.023.013.049.02.075.02.085 0 .154-.072.154-.158 0-.056-.029-.108-.076-.136h0zM2.998 4.685c-.462-.487-.735-1.115-.856-1.961-.134-.93.101-1.878.654-2.63.051-.069.148-.084.216-.032l.052.04c.04.03.063.078.062.129 0 .023-.027 2.202 1.515 2.866a12 12 0 0 1 .295.172c.002.017-.007.057-.01.074l-.034.186c-.047.264-.149.516-.3.736-.029.043-.076.068-.126.068-.085 0-.155-.071-.155-.157a.16.16 0 0 1 .028-.09c.125-.184.21-.394.25-.614l.009-.053c-.728-.284-1.265-.903-1.554-1.789A4.72 4.72 0 0 1 2.836.604c-.355.627-.492 1.359-.388 2.075.118.831.392 1.428.862 1.877l.174.152a1.52 1.52 0 0 0 .352-.151c.023-.014.049-.021.076-.021.085 0 .155.072.155.158a.16.16 0 0 1-.078.137c-.158.092-.328.16-.505.202-.044.01-.091.001-.127-.027l-.126-.089c-.029-.024-.195-.192-.233-.232zm5.959-.213c-.298-.274-.508-.645-.584-1.065l-.033-.185c-.002-.014-.003-.029-.002-.043.098-.103.517-.316.619-.385v.367a2.31 2.31 0 0 1-.289.136l.009.053c.044.242.141.466.28.656v.466zm0-1.678C10.162 1.985 10.14.131 10.139.11a.16.16 0 0 1 .062-.13l.053-.04c.067-.051.165-.037.215.033.553.752.789 1.699.654 2.629-.119.839-.388 1.463-.843 1.948-.041.043-.329.302-.371.334s-.083.038-.127.028a1.84 1.84 0 0 1-.825-.44v-.466c.201.277.489.484.825.58a2.31 2.31 0 0 0 .174-.152c.47-.449.743-1.046.862-1.877A3.27 3.27 0 0 0 10.43.483a4.82 4.82 0 0 1-.208 1.024c-.249.765-.683 1.331-1.265 1.654v-.367zm.227.904h0 0c-.085 0-.154-.071-.154-.157 0-.055.027-.105.072-.134a2.22 2.22 0 0 0 .23-.168c.028-.022.062-.034.097-.034.084 0 .154.071.154.158a.16.16 0 0 1-.057.122c-.083.068-.17.131-.26.189-.024.016-.053.024-.082.024zm.547-.469c-.085 0-.155-.071-.155-.157 0-.04.015-.077.04-.106.238-.268.433-.598.577-.98l.046-.129c.021-.064.08-.108.147-.108.084 0 .154.071.154.157a.16.16 0 0 1-.009.053l-.05.141c-.158.418-.372.781-.636 1.078-.029.033-.071.051-.114.051z" fill="#111212"/></g><path d="M5.705 11.481c-.007-.014.329.081.328.082l-2.721 3.899c-.239.225-.478.335-.717.328s-.4-.045-.482-.113c-.164-.15-.335-.338-.513-.563s-.291-.44-.338-.645c-.083-.313-.031-.59.153-.829.171-.191.393-.361.667-.511.321-.157.567-.171.738-.041l.646.798 2.239-2.405z" fill="#892311"/><path d="M2.01 13.303c-.123.075-.255.182-.395.322s-.213.281-.22.425c-.027.164.051.259.236.286.082.014.253-.006.512-.061.219.116.358.333.416.65s.142.466.251.445c.082-.013.14-.102.174-.266s-.03-.379-.195-.645l-.138-.215-.128-.215c.205-.184.306-.341.302-.47a.72.72 0 0 0-.056-.297c-.109-.198-.362-.185-.759.041z" fill="#98633b"/><path d="M1.968 13.547c.273-.172.559-.209.638-.084s-.079.366-.352.538-.559.209-.638.084.079-.367.352-.538z" fill="#011"/><path d="M5.543 11.331l.003-.003.057-.043.068-.023.056-.002c.046.003.303.072.359.088l.022.007.081.051.046.067.018.063-.22.247.136-.056.046-.039-2.721 3.9c-.009.013-.019.024-.03.035-.291.273-.585.395-.876.387-.308-.009-.511-.076-.617-.164-.179-.163-.358-.36-.544-.595-.201-.254-.325-.498-.379-.726-.101-.386-.034-.726.193-1.019.196-.22.437-.407.735-.57.43-.211.754-.194.978-.024.014.011.027.023.038.037l.486.601 2.065-2.219zm.295.126l.014-.02a.23.23 0 0 1 .085-.073.21.21 0 0 0-.099.093zm.083.074c.011-.043.009-.091-.016-.143.021.045.026.096.015.143l-.215-.05-2.239 2.405-.646-.798c-.171-.13-.417-.116-.738.041-.274.15-.496.32-.667.511-.184.239-.236.516-.153.829.047.205.16.42.338.645s.349.413.513.563c.082.068.242.106.482.113s.478-.103.717-.328l2.721-3.899a1.94 1.94 0 0 0-.112-.032z" fill="#251c14"/></svg>