<svg xmlns="http://www.w3.org/2000/svg" width="100%" height="100%" viewBox="0 0 14 16" fill-rule="evenodd" stroke-linejoin="round" stroke-miterlimit="2" xmlns:v="https://vecta.io/nano"><path d="M1.842 6.15c.021-.122.068-.17.143-.143s.286-.192.307-.267c-.157-.183-.214-.636-.174-1.357l.102-1.265C2.479 1.662 3.282.709 4.629.261a2.69 2.69 0 0 1 .964-.133L6.7.158l1.087.005c.323-.01.699.019 1.127.087.422.082.732.262.929.541s.323.52.378.725c.061.088.137.134.229.137s.24.097.444.281c.381.36.575.952.582 1.775V5.72c.007.129.041.153.102.071s.102-.041.122.123l-.132.326c-.028.055-.058.16-.092.317-.041.163-.073.377-.097.642l-.056.592c-.021.136-.029.279-.026.429s-.001.275-.015.378c-.041.224-.119.343-.235.357s-.214-.062-.296-.225c-.081.191-.156.495-.224.913s-.153.788-.255 1.107a13.07 13.07 0 0 1-.75 1.791 7.58 7.58 0 0 1-1.087 1.597c-.15.164-.254.252-.311.266a4.43 4.43 0 0 1-.322.051c-.163.027-1.031-.051-1.194-.051-.428 0-.806-.031-1.133-.092s-.574-.33-.744-.806l-.379-.384-.632-1.315c-.204-.432-.357-.805-.459-1.118-.115-.306-.345-.466-.365-.766s-.081-.337-.142-.486c-.088-.027.016-.345-.049-.294s-.329.044-.39-.071c-.082-.143-.167-.514-.255-1.113-.048-.251-.091-.605-.128-1.061l-.09-.748z" fill="#9ffdff" fill-rule="nonzero"/><path d="M2.986 6.426c.115 1.872.386 2.923 1.02 3.726.085.106 1.147-.938 1.238-.833.121.139.122.403.215.68.269.799.304 2.577.713 2.637-.345.508-.353.867-.678.9-.759.078-1.764-1.154-2.196-3.077-.094-.416-.453-.704-.519-1.129-.039-.249-.396-.256-.568-.322l-.389-2.983c.361-.281.753-.086 1.164.401zm8.685-.709c-.102 1.64-.227 3.075-.502 3.26l-.313-.016-.014-2.709c.273-.194.127-.435.829-.535zM8.236 9.216l.781 1.196-2.402.429-.155-.702c.527-.077 1.123-.4 1.776-.923zM5.298 6.099V6.8H3.35v-.701h1.948zm4.527-.072v.818H8.197v-.818h1.628z" fill="#69bac9"/><path d="M5.532 7.006v.239c0 .066-.056.223-.122.223H4.083c-.066 0-.117-.157-.117-.223v-.239c0-.066.053-.119.119-.119h1.327a.12.12 0 0 1 .12.119zm3.874.005v.239c0 .066-.094.197-.16.197l-1.009.003c-.066 0-.227-.134-.227-.2v-.239c0-.066.053-.119.119-.119h1.04c.066 0 .237.053.237.119zm-1.053 3.858l.004.254c0 .093-.037.257-.129.257-.948.696-1.679.78-2.461.262-.093 0-.381-.357-.381-.45v-.337c0-.092.15-.154.243-.154.843.127 1.694.136 2.555 0 .093 0 .169.075.169.168z" fill="#ebebeb"/><path d="M11.371 2.593v2.995c.132.23-.13.446-.309.446s-.339-.267-.339-.446c.091-1.014.052-2.041-.249-3.096 0-.179.394-.223.573-.223s.324.146.324.324zM9.143.338l1.062 1.498c-1.438.451-2.957.834-5.217.598l-1.621.186.04-1.829C5.349.395 7.238.106 9.143.338z" fill="#fd00b8"/><path d="M10.221 7.296c.092 0-.117-1.471-.237-1.522-.048-.02-.15-.714-.105-.871s.158-.401.342-.734l-.011 1.086c.014.317.082.669.205 1.057v1.469l-.194.102v-.587zm0 0c.092 0-.117-1.471-.237-1.522-.048-.02-.15-.714-.105-.871s.158-.401.342-.734l-.011 1.086c.014.317.082.669.205 1.057v1.469l-.194.102v-.587zM1.996 5.75V3.444a2.53 2.53 0 0 0 .041-.352c.006-.132.023-.25.051-.352.122-.476.25-.798.382-.964l.71-.822c.285-.319.639-.552 1.061-.699S5.088.036 5.516.036l1.332-.041a4.67 4.67 0 0 1 1.321.112c.089.021.201.028.337.021s.249 0 .337.02c.272.068.56.22.862.454s.454.495.454.781c.361.197.721.5 1.082.908.191.225.296.412.316.561l.092.664c.034.319.043.615.026.887l-.026.868a11.35 11.35 0 0 0-.173.214 2.03 2.03 0 0 0 .163.24l.174.24c0 .075-.024.132-.072.173s-.071.095-.071.163v.796c-.021.245-.053.439-.097.582s-.06.289-.046.439c.02.306-.021.561-.123.765s-.258.228-.469.072l-.367 1.577c-.23 1.035-1.998 3.926-2.308 4.015-.169.048-.42.088-.801.109-.123.007-1.844-.166-2.035-.237s-.465-.338-.826-.801l-1.296 1.796c-.238.225-.476.333-.714.326s-.398-.044-.48-.112a4.69 4.69 0 0 1-.51-.561c-.177-.224-.289-.439-.337-.643-.082-.313-.03-.588.153-.826.17-.191.391-.361.663-.511.32-.156.565-.17.735-.04l.643.795.816-.847c-.381-.557-.644-.988-.79-1.29l-.516-1.108-.061-.153-.158-.612-.148-.612c-.225-.075-.357-.143-.398-.204s-.085-.225-.133-.49l-.071-.52-.066-.674-.067-.673a1.09 1.09 0 0 0-.086-.245 1.09 1.09 0 0 1-.087-.235c0-.082.102-.224.306-.429zM6.169.658c-.02.041-.018.089.006.143s.025.102.005.143L5.976.786a1.21 1.21 0 0 1-.194-.168c.129.183.272.411.428.683l.419.715c0-.171.008-.293.025-.368s-.019-.207-.107-.398L6.169.658zm.398 9.827a1.5 1.5 0 0 1 .358.245l.357-.143c.129-.054.37-.109.724-.163l.857-.122c-.115-.15-.221-.308-.316-.475l-.306-.485-.209.179c-.079.065-.152.117-.22.158-.088.061-.183.112-.285.153s-.194.092-.276.153a.44.44 0 0 0-.133.128c-.034.051-.074.09-.122.117l-.429.255zm-1.561 2.592l.368.265.551-.673-.317-.367-.602.775zm-.5-2.98l.107.235.118.235.311-.403.311-.403-.051-.347-.796.683zm.184 2.511a3.94 3.94 0 0 1 .275-.271l.296-.27-.331-.663-.322-.684c-.374-.34-.541-.35-.5-.031a4.47 4.47 0 0 0 .184.847l.398 1.072zM3.649 10.74a7.76 7.76 0 0 0 .24 1.102c.098.327.267.674.505 1.041l.163-.153c-.204-.313-.376-.634-.515-.964l-.393-1.026zM5.68.811c-.007.334-.06.441-.158.322S5.271.883 5.067.74l.608.913c.119.14.297.267.535.383a.52.52 0 0 0-.107-.179c-.051-.057-.087-.12-.107-.188l-.158-.424L5.68.811zm-2.827 6.49l-.061.679-.051.679.5 1.51a5.83 5.83 0 0 0-.128-.679c-.058-.234-.097-.464-.117-.689a6.41 6.41 0 0 1-.077-.744l-.066-.756zm-.827-1.224c-.027.027-.068.061-.122.102-.048.041-.017.122.092.245.061.075.136.178.224.311s.181.158.276.077c.109-.082.139-.15.092-.204a3.78 3.78 0 0 1-.184-.235c-.014-.027-.041-.068-.082-.123-.142-.156-.241-.214-.296-.173zm.337 1.878l-.03.408-.011.285c0 .048.023.14.067.276s.097.133.158-.01c.027-.061.003-.291-.071-.689s-.113-.488-.113-.27zM4.935.954c-.109 0-.099.13.03.388l.225.449h.143v-.112l-.199-.357c-.072-.116-.138-.238-.199-.368zm-.439 6.001c-.272.013-.425.095-.459.244.02.055.092.178.204.178h.25a.41.41 0 0 1 .005-.422zm-.837-.582l.204.316c.238-.197.417-.292.536-.286l.658.041a1.73 1.73 0 0 0-.071-.112c-.109-.136-.286-.214-.531-.235-.143-.006-.262-.003-.357.011-.15.047-.296.136-.439.265zm.623.245c-.021.041-.031.085-.031.132.136.014.276.017.418.011h.429c0-.028-.01-.051-.031-.072s-.03-.044-.03-.071h-.755zm-.133-5.531c-.007.014-.02.051-.041.112l.169.296c.051.089.137.15.26.184 0-.082-.065-.242-.194-.48a1.75 1.75 0 0 1-.194-.112zm.153-.133c.204.286.367.545.49.776.02-.014.042-.027.066-.041s.046-.031.066-.051l-.101-.27-.092-.281c-.17-.116-.313-.16-.429-.133zm-.49.623l.235.066c.027.01.041-.056.041-.199-.164 0-.255.044-.276.133zm-.296 1.867l-.02 1.271-.02 1.26.316-.22a.82.82 0 0 1 .316-.147 2.63 2.63 0 0 1 1.255.142 5.54 5.54 0 0 1 .48.536l.408.536.026.433.025.465c.007.224-.027.486-.102.786l-.107.433-.077.373c-.034.129-.057.143-.071.041V7.485c0-.054-.039-.068-.117-.041l-.128.051c-.347.286-.602.454-.765.506s-.466-.036-.908-.261l.872.005c.187.004.376-.171.566-.525-.211-.177-.398-.265-.561-.265.095.047.138.225.118.34s-.075.177-.164.184l-.602.015c-.286.004-.464-.145-.525-.254-.021-.02-.048-.126-.082-.316l-.439-.133c0 .592.036 1.08.107 1.465s.223.801.454 1.25c.15.299.266.447.347.443s.266-.103.551-.301c.164-.108.318-.227.465-.357l.372-.336a.8.8 0 0 1 .102.03c.061.021.092.051.092.092-.17.082-.235.201-.194.357.027.17.116.249.265.235.041 0 .077-.01.108-.031s.086-.03.168-.03a.56.56 0 0 1 .25.117 1.27 1.27 0 0 0 .27.158c.157.082.293.089.409.021l.357-.225c.204-.048.367-.17.49-.367.034-.048.052-.111.056-.189s.066-.121.189-.128c.258.014.55.208.877.582.102.123.165.187.189.194s.097-.068.219-.225c.014-.02.038-.066.072-.137s.061-.121.081-.148c.048.013.096.063.143.148s.095.137.143.158c.082.054.189-.019.321-.22s.233-.314.302-.341c.04.183.045.413.015.688s-.046.526-.046.75l.127-.612.128-.612.082-1.209.091-1.22-.219-.755-.209-.765.127-.914.128-.913c-.075-.224-.182-.43-.321-.617a1.98 1.98 0 0 1-.312-.618c-.612.225-1.132.458-1.561.7s-.986.42-1.674.535c-.258.027-.603-.01-1.035-.112L4.71 3.097l-.622.123c-.129.027-.32.102-.572.224zm8.011 2.562c-.027 0-.099.062-.215.188l-.306.322c-.088.102-.074.153.041.153l.26-.245c.079-.082.169-.163.271-.245l-.01-.087c-.007-.058-.021-.086-.041-.086zm-.429 1.581l-.041 1.133c.238.081.31-.061.215-.429l-.174-.704zm-.061-2.418l-.021.301-.01.301.194.102.067-.087.076-.097-.097-.127-.087-.128v-.235a.19.19 0 0 1-.061-.01l-.061-.02zm-.092-.572l.066.199.077.189h.153v-.469c-.054.02-.105.035-.153.046l-.143.035zm-.02-.398c0 .028-.007.082-.021.164h.286V4.22l-.265-.021zm-.409-1.51l.067.061.076.062.138-.067.148-.076-.066-.123c-.024-.041-.046-.085-.067-.132l-.153.142-.143.133zm.184.174a2.42 2.42 0 0 0 .051.245l.255-.041a.7.7 0 0 1 .016-.148l.025-.148-.178.051-.169.041zm.163.336c-.027.068-.044.119-.051.153l.164.077.163.066.025-.066.036-.077a1.28 1.28 0 0 1-.173-.071l-.164-.082zm.031.368l.051.275h.296l-.051-.245c-.054 0-.105-.003-.153-.01l-.143-.02zM6.363.658c.32.477.531.902.633 1.276l.102.388c.123-.368.1-.675-.066-.924s-.39-.495-.669-.74zm4.511 3.266a.32.32 0 0 0 .01.081l.02.072h.296c0-.021.005-.043.016-.066l.025-.067-.367-.02zM7.578.424l.02.26a1.95 1.95 0 0 0 .031.25c-.068-.061-.153-.16-.255-.296L7.129.332c.013.075.046.17.097.286l.107.275A1.74 1.74 0 0 1 7.159.76L6.996.618c.191.265.301.462.332.591a7.85 7.85 0 0 1 .107.674c.095-.136.143-.367.143-.694l.102.296.071.469.082.46a2.04 2.04 0 0 0 .107-.684l-.066-.714.127.408.128.408c.177-.286.18-.548.01-.786a3.55 3.55 0 0 0-.561-.622zm1.867.428c.157.238.252.548.286.929l.102-.531-.388-.398zM8.241.383l.316.469c.068.109.102.272.102.49h.194a2.93 2.93 0 0 0-.168-.536c-.092-.234-.24-.375-.444-.423zm.806.235C9.033.611 9.023.602 9.016.592l-.02-.036-.025.133a.47.47 0 0 0-.016.122c.075.143.106.29.092.439l.337.531-.026-.265a2.37 2.37 0 0 1-.015-.266L9.047.618zm-.251 10.251c-.006.012-.052.081-.137.208-.156.231-.367.391-.632.48l-.153.041v-.133l.142-.041.031-.102-.428.096v-.123l.255-.065.469-.306-.357-.194a6.38 6.38 0 0 1-.995.189c-.269.024-.614-.005-1.036-.087l-.51-.01-.021.225.45.193.255.082.296-.01.265.051.255-.041.286.041.17-.027-.027.157-.153.023-.276-.051-.255.051-.245-.031-.153-.01-.153.255h1.469c.089 0 .109.024.061.072-.129.115-.238.18-.326.193a1.83 1.83 0 0 1-.526.006 1.98 1.98 0 0 0-.515-.006c-.143 0-.201.041-.173.123.02.122.102.201.245.235.102.027.205.034.311.02a2.35 2.35 0 0 1 .311-.02l.214.02.225.01.449.062c.088.02.041.112-.143.275-.061.054-.201.085-.418.092l-.419.02-.408.01-.245.021-.24.51c-.071.143-.117.32-.137.531 0 .136.064.204.193.204a2.1 2.1 0 0 1 .633.107c.225.071.459.114.704.127.15.014.293-.033.429-.142.272-.184.483-.351.632-.5.17-.164.305-.329.404-.495l.301-.567.438-.984a6.54 6.54 0 0 0 .317-1.107c-.021-.014-.063.017-.128.091s-.114.126-.148.153c-.034.034-.088.024-.163-.03-.034-.041-.068-.097-.102-.169a1.46 1.46 0 0 0-.092-.168l-.173.133-.323.312zm.096-3.914c.272.013.425.095.459.244-.02.055-.092.178-.204.178h-.25a.41.41 0 0 0-.005-.422zm.837-.582l-.204.316c-.238-.197-.417-.292-.536-.286l-.658.041a1.73 1.73 0 0 1 .071-.112c.109-.136.286-.214.531-.235.143-.006.262-.003.357.011.15.047.296.136.439.265zm-.623.245c.021.041.031.085.031.132-.136.014-.276.017-.418.011s-.286-.007-.429 0c0-.028.01-.051.031-.072s.03-.044.03-.071h.755zm.633.306c.247-.015.226-1.082-.143-1.169-.13-.03-.214-.127-.316-.147a2.63 2.63 0 0 0-1.255.142 5.54 5.54 0 0 0-.48.536l-.408.536-.026.433-.025.465c-.007.224.357.592.357.592v-.827c0-.054.039-.068.117-.041l.128.051c.347.286.602.454.765.506s.466-.036.908-.261l-.872.005c-.187.004-.376-.171-.566-.525.21-.177.398-.265.561-.265-.095.047-.138.225-.118.34s.075.177.164.184l.602.015c.285.004.464-.145.525-.254.021-.02.048-.126.082-.316z" fill="#111212" fill-rule="nonzero"/><path d="M5.787 11.329a2.86 2.86 0 0 1 .337.084l-2.791 4.008c-.246.231-.491.343-.737.336s-.41-.045-.494-.115c-.168-.155-.344-.347-.526-.579s-.298-.452-.347-.663c-.085-.322-.032-.606.157-.852a2.6 2.6 0 0 1 .684-.526c.33-.161.582-.175.758-.042l.662.821 2.297-2.472z" fill="#9a0098"/><path d="M5.534 11.305l.002-.003c.067-.09.152-.107.252-.068.047.004.245.072.302.089.195.076.209.201.132.349L3.518 15.55c-.008.013-.019.025-.03.036-.298.28-.6.406-.898.398-.317-.009-.525-.078-.633-.168-.184-.169-.368-.37-.559-.613-.206-.261-.333-.511-.389-.746-.103-.397-.035-.745.198-1.047a2.79 2.79 0 0 1 .754-.586c.442-.217.774-.199 1.004-.024a.28.28 0 0 1 .039.038l.498.617 2.032-2.15zm.502.238c.036-.027-.301-.123-.337-.084L3.49 13.801l-.662-.821c-.176-.133-.428-.119-.758.042a2.6 2.6 0 0 0-.684.526c-.189.246-.242.53-.157.852.049.211.164.432.347.663s.358.424.526.579c.084.07.249.108.494.115s.491-.105.737-.336l2.703-3.878z" fill="#251c14"/><path d="M1.997 13.201c-.127.077-.262.188-.405.332s-.22.289-.227.436c-.028.168.053.267.242.295.084.014.26-.007.526-.063.225.119.367.341.426.668s.146.478.258.457c.084-.014.144-.105.179-.273s-.032-.39-.2-.663l-.142-.221-.131-.221c.21-.189.313-.351.31-.484s-.023-.235-.058-.305c-.112-.203-.372-.189-.778.042z" fill="#fd00b8"/><path d="M1.954 13.452c.28-.176.573-.215.654-.086s-.081.376-.361.552-.574.216-.655.087.081-.377.362-.553z" fill="#011"/><path d="M5.696 4.81v.273c0 .076.062.256.135.256h1.47c.073 0 .129-.18.129-.256V4.81c0-.076-.059-.137-.132-.137h-1.47c-.073 0-.132.061-.132.137z" fill="#fff"/><path d="M6.843 4.751c.302.015.471.109.509.28-.023.062-.102.203-.226.203h-.277a.48.48 0 0 0-.006-.483zm.237-.386a.34.34 0 0 1 .034.152c-.15.016-.305.019-.463.012s-.316-.008-.475 0c0-.032.012-.059.034-.082s.034-.051.034-.082h.836zm.611.713c.022-.024.141-.499.02-.589s-.076-.098-.449-.244a2.13 2.13 0 0 0-.821-.097c-.208.031-.421.03-.662.121-.294.234-.398.372-.448.547-.061.211.171.546.179.554.384.327.666.519.847.578s.516-.041 1.006-.298l-.966.006c-.207.004-.416-.197-.627-.602.233-.202.44-.303.621-.303-.105.054-.152.257-.13.389s.083.203.181.211l.667.017c.316.004.514-.166.582-.29z" fill="#111212" fill-rule="nonzero"/></svg>