<?xml version="1.0" encoding="UTF-8" standalone="no"?>
<!DOCTYPE svg PUBLIC "-//W3C//DTD SVG 1.1//EN" "http://www.w3.org/Graphics/SVG/1.1/DTD/svg11.dtd">
<svg width="100%" height="100%" viewBox="0 0 110 135" version="1.1" xmlns="http://www.w3.org/2000/svg" xmlns:xlink="http://www.w3.org/1999/xlink" xml:space="preserve" xmlns:serif="http://www.serif.com/" style="fill-rule:evenodd;clip-rule:evenodd;stroke-linejoin:round;stroke-miterlimit:2;">
    <g transform="matrix(1.05559,0.551658,-0.551658,1.05559,21.8287,-11.6221)">
        <g transform="matrix(1.0547,-2.80592e-16,2.77556e-16,1,-4.14989,0.978233)">
            <path d="M37.867,15.989C35.615,12.899 31.189,11.899 28.213,14.602C25.664,16.875 25.461,20.783 27.761,23.311C31.476,27.4 31.957,33.472 28.924,38.068C28.661,38.409 27.616,40.188 27.244,40.446C26.312,41.274 24.9,41.417 23.8,40.704C22.49,39.855 22.121,38.114 22.975,36.817L24.178,34.991L24.186,34.991C25.814,32.521 25.557,29.261 23.56,27.063C19.168,22.229 19.556,14.768 24.423,10.427C29.709,5.664 37.62,6.437 41.851,12.033C41.866,12.022 37.959,15.854 37.867,15.989Z" style="fill:rgb(255,182,0);"/>
        </g>
        <g transform="matrix(1,-1.11022e-16,1.11022e-16,1,0.404385,2.36248)">
            <path d="M42.21,12.33C44.32,10.835 47.291,9.736 49.475,11.646L53.208,14.666C50.317,16.04 47.736,17.825 45.289,19.983C42.854,22.161 40.793,24.547 39.096,27.242C37.556,24.706 34.332,21.555 36.345,18.394C36.817,17.595 42.133,12.453 42.21,12.33Z" style="fill:none;stroke:rgb(0,1,0);stroke-width:6.45px;"/>
        </g>
        <g transform="matrix(1,-1.11022e-16,1.11022e-16,1,0.404385,2.36248)">
            <path d="M42.21,12.33C44.32,10.835 47.291,9.736 49.475,11.646L53.208,14.666C50.317,16.04 47.736,17.825 45.289,19.983C42.854,22.161 40.793,24.547 39.096,27.242C37.556,24.706 34.332,21.555 36.345,18.394C36.817,17.595 42.133,12.453 42.21,12.33Z" style="fill:rgb(87,72,117);stroke:rgb(0,1,0);stroke-width:0.84px;"/>
        </g>
        <g transform="matrix(0.95294,0.30316,-0.30316,0.95294,9.47458,-5.7547)">
            <path d="M29.997,59.469L23.479,55.252L16.323,56.186C15.977,56.2 15.627,56.031 15.411,55.751C15.195,55.469 15.147,55.12 15.292,54.844L18.881,49.269L16.843,42.355L16.84,42.35C16.778,42.032 16.906,41.727 17.175,41.565C17.444,41.403 17.811,41.409 18.124,41.577L24.667,45.779L31.819,44.887L31.821,44.891C32.164,44.874 32.515,45.042 32.731,45.322C32.947,45.604 32.994,45.954 32.853,46.233L29.269,51.766L31.281,58.696C31.343,59.015 31.215,59.319 30.945,59.482C30.676,59.644 30.309,59.637 29.997,59.469Z" style="fill:rgb(226,255,2);"/>
        </g>
        <path d="M91.72,27.155C103.189,39.897 102.151,59.624 89.409,71.093C57.587,97.441 18.235,53.694 47.782,24.843C60.525,13.376 80.235,14.393 91.72,27.155Z" style="fill:none;stroke:rgb(0,1,0);stroke-width:7.92px;stroke-linecap:round;"/>
        <path d="M91.72,27.155C103.189,39.897 102.151,59.624 89.409,71.093C57.587,97.441 18.235,53.694 47.782,24.843C60.525,13.376 80.235,14.393 91.72,27.155Z" style="fill:rgb(87,72,117);"/>
        <path d="M60.399,64.388C64.174,65.233 62.929,70.988 59.134,70.181C51.564,68.599 45.885,62.717 43.801,55.449C43.11,52.272 41.602,43.089 47.125,43.697C48.748,44.051 49.737,45.634 49.389,47.226C47.694,54.992 52.634,62.688 60.4,64.383L60.399,64.388Z" style="fill:rgb(226,226,226);"/>
    </g>
</svg>
