<svg xmlns="http://www.w3.org/2000/svg" width="100%" height="100%" viewBox="0 0 110 135" fill-rule="evenodd" stroke-linejoin="round" stroke-miterlimit="2" xmlns:v="https://vecta.io/nano"><path d="M108.257 16.895l-.644 96.217-96.406-1.087-1.519-94.271 98.57-.858z" fill="#e8e0d0"/><path d="M1.5 98.526V22.393c0-5.94 2.563-11.633 7.113-15.838C13.169 2.357 17.352 0 23.798 0h79.752c2.685 0 4.859 2.004 4.859 4.478v107.484c0 4.948-4.349 8.956-9.719 8.956H84.112v-8.956H98.69V85.091H23.798c-8.049 0-12.579 6.018-12.579 13.435s6.53 13.436 14.579 13.436h58.314v8.956H25.798c-13.412 0-24.298-10.031-24.298-22.392z" fill="#69bac9"/><path d="M90.93 102.27H32.026c-4.363 0-7.084-1.272-8.439-4.107.129-3.462 2.172-4.487 13.501-4.487h53.733l.109 8.594z" fill="#fff" stroke="#fff" stroke-width=".999"/><path d="M20.797 8.957v67.177c-5.466 0-7.514 1.668-11.578 4.484V22.392c0-3.566 1.537-6.98 4.27-9.499s3.439-3.936 7.308-3.936z" fill="#0b8ca9"/></svg>