<?xml version="1.0" encoding="UTF-8" standalone="no"?>
<!DOCTYPE svg PUBLIC "-//W3C//DTD SVG 1.1//EN" "http://www.w3.org/Graphics/SVG/1.1/DTD/svg11.dtd">
<svg width="100%" height="100%" viewBox="0 0 110 135" version="1.1" xmlns="http://www.w3.org/2000/svg" xmlns:xlink="http://www.w3.org/1999/xlink" xml:space="preserve" xmlns:serif="http://www.serif.com/" style="fill-rule:evenodd;clip-rule:evenodd;stroke-linejoin:round;stroke-miterlimit:2;">
    <g>
        <g transform="matrix(0.945466,0,0,0.726746,3.82859,31.7966)">
            <path d="M110.452,-20.504L109.771,111.89L7.804,110.394L6.197,-19.323L110.452,-20.504Z" style="fill:rgb(232,224,208);"/>
        </g>
        <path d="M1.5,98.526L1.5,22.393C1.5,16.453 4.063,10.76 8.613,6.555C13.169,2.357 17.352,0 23.798,0L103.55,0C106.235,0 108.409,2.004 108.409,4.478L108.409,111.962C108.409,116.91 104.06,120.918 98.69,120.918L84.112,120.918L84.112,111.962L98.69,111.962L98.69,85.091L23.798,85.091C15.749,85.091 11.219,91.109 11.219,98.526C11.219,105.944 17.749,111.962 25.798,111.962L84.112,111.962L84.112,120.918L25.798,120.918C12.386,120.918 1.5,110.887 1.5,98.526Z" style="fill:rgb(105,186,201);"/>
        <path d="M1.5,98.526L1.5,97.393C1.5,91.453 4.063,85.76 8.613,81.555C13.169,77.357 17.352,75 23.798,75L103.55,75C106.235,75 108.409,77.004 108.409,79.478L108.409,111.962C108.409,116.91 104.06,120.918 98.69,120.918L84.112,120.918L84.112,111.962L98.69,111.962L98.69,85.091L23.798,85.091C15.749,85.091 11.219,91.109 11.219,98.526C11.219,105.944 17.749,111.962 25.798,111.962L84.112,111.962L84.112,120.918L25.798,120.918C12.386,120.918 1.5,110.887 1.5,98.526Z" style="fill:rgb(11,140,169);"/>
        <g transform="matrix(1.32765,0,0,1,-29.7944,-1)">
            <path d="M90.931,103.27L46.564,103.27C43.278,103.27 41.228,101.998 40.208,99.163C40.305,95.701 41.844,94.676 50.377,94.676L90.849,94.676C90.858,96.495 90.947,101.986 90.931,103.27Z" style="fill:white;stroke:white;stroke-width:0.85px;"/>
        </g>
        <g transform="matrix(1,0,0,1,-2.1446,-2.81455)">
            <path d="M40.376,102.828C40.376,102.828 40.383,133.97 40.145,134.785L59.699,123.063L79.13,134.668C79.061,131.739 79.252,102.828 79.252,102.828L40.376,102.828Z" style="fill:rgb(135,255,83);stroke:rgb(14,56,33);stroke-width:6.13px;"/>
        </g>
    </g>
    <g transform="matrix(1,0,0,1,-1,0)">
        <path d="M21.797,8.957L21.797,76.134C16.331,76.134 14.283,77.802 10.219,80.618L10.219,22.392C10.219,18.826 11.756,15.412 14.489,12.893C17.223,10.373 17.928,8.957 21.797,8.957Z" style="fill:rgb(11,140,169);"/>
    </g>
    <g transform="matrix(0.887857,0,0,0.887857,7.8404,0.0521041)">
        <path d="M57.867,5.455L57.874,5.455C67.479,5.478 76.689,9.331 83.47,16.163C90.251,22.987 94.046,32.24 94.031,41.872C94.015,51.512 90.189,60.75 83.385,67.559C76.581,74.368 67.363,78.19 57.752,78.182C48.148,78.174 38.93,74.344 32.133,67.528C25.344,60.712 21.526,51.474 21.518,41.833C21.526,32.177 25.36,22.916 32.179,16.092C38.998,9.268 48.24,5.446 57.875,5.469L57.867,5.455Z" style="fill:rgb(32,19,64);stroke:rgb(0,1,0);stroke-width:1.13px;"/>
        <path d="M57.874,14.956C55.683,17.092 51.95,24.721 51.217,37.316L64.547,37.316C63.799,24.72 60.08,17.092 57.874,14.956Z" style="fill:rgb(135,255,175);"/>
        <path d="M84.688,37.324C83.192,28.589 77.545,21.131 69.561,17.339C71.96,23.738 73.294,30.484 73.51,37.324L84.688,37.324Z" style="fill:rgb(135,255,175);"/>
        <path d="M84.75,46.415L73.572,46.415C73.325,53.239 71.991,59.986 69.623,66.4C77.591,62.578 83.223,55.135 84.75,46.415Z" style="fill:rgb(135,255,175);"/>
        <path d="M64.547,46.415L51.217,46.415C52.004,58.995 55.683,66.616 57.874,68.759C60.088,66.624 63.799,58.995 64.547,46.415Z" style="fill:rgb(135,255,175);"/>
        <path d="M46.18,17.339C38.226,21.169 32.595,28.604 31.052,37.324L42.176,37.324C42.446,30.492 43.78,23.753 46.126,17.339L46.18,17.339Z" style="fill:rgb(135,255,175);"/>
        <path d="M46.18,66.398C43.85,59.976 42.523,53.237 42.23,46.413L31.052,46.413C32.603,55.125 38.226,62.56 46.18,66.398Z" style="fill:rgb(135,255,175);"/>
    </g>
</svg>
