<?xml version="1.0" encoding="UTF-8" standalone="no"?>
<!DOCTYPE svg PUBLIC "-//W3C//DTD SVG 1.1//EN" "http://www.w3.org/Graphics/SVG/1.1/DTD/svg11.dtd">
<svg width="100%" height="100%" viewBox="0 0 110 135" version="1.1" xmlns="http://www.w3.org/2000/svg" xmlns:xlink="http://www.w3.org/1999/xlink" xml:space="preserve" xmlns:serif="http://www.serif.com/" style="fill-rule:evenodd;clip-rule:evenodd;stroke-linejoin:round;stroke-miterlimit:2;">
    <g>
        <g transform="matrix(0.945466,0,0,0.726746,3.82859,31.7966)">
            <path d="M110.452,-20.504L109.771,111.89L7.804,110.394L6.197,-19.323L110.452,-20.504Z" style="fill:rgb(232,224,208);"/>
        </g>
        <path d="M1.5,98.526L1.5,22.393C1.5,16.453 4.063,10.76 8.613,6.555C13.169,2.357 17.352,0 23.798,0L103.55,0C106.235,0 108.409,2.004 108.409,4.478L108.409,111.962C108.409,116.91 104.06,120.918 98.69,120.918L84.112,120.918L84.112,111.962L98.69,111.962L98.69,85.091L23.798,85.091C15.749,85.091 11.219,91.109 11.219,98.526C11.219,105.944 17.749,111.962 25.798,111.962L84.112,111.962L84.112,120.918L25.798,120.918C12.386,120.918 1.5,110.887 1.5,98.526Z" style="fill:rgb(11,140,169);"/>
        <g transform="matrix(1.32765,0,0,1,-29.7944,-1)">
            <path d="M90.931,103.27L46.564,103.27C43.278,103.27 41.228,101.998 40.208,99.163C40.305,95.701 41.844,94.676 50.377,94.676L90.849,94.676C90.858,96.495 90.947,101.986 90.931,103.27Z" style="fill:rgb(14,56,33);stroke:rgb(14,56,33);stroke-width:0.85px;"/>
        </g>
        <g transform="matrix(1.32765,0,0,1,-29.7944,-1)">
            <path d="M90.931,103.27L46.564,103.27C43.278,103.27 41.228,101.998 40.208,99.163C40.305,95.701 41.844,94.676 50.377,94.676L90.849,94.676C90.858,96.495 90.947,101.986 90.931,103.27Z" style="fill:rgb(157,39,30);"/>
        </g>
        <g transform="matrix(1.32765,0,0,1,-29.7944,-1)">
            <path d="M90.931,103.27L46.564,103.27C43.278,103.27 41.228,101.998 40.208,99.163C40.305,95.701 41.844,94.676 50.377,94.676L90.849,94.676C90.858,96.495 90.947,101.986 90.931,103.27Z" style="fill:white;stroke:white;stroke-width:0.85px;"/>
        </g>
        <path d="M1.5,98.526L1.5,97.393C1.5,91.453 4.063,85.76 8.613,81.555C13.169,77.357 17.352,75 23.798,75L103.55,75C106.235,75 108.409,77.004 108.409,79.478L108.409,111.962C108.409,116.91 104.06,120.918 98.69,120.918L84.112,120.918L84.112,111.962L98.69,111.962L98.69,85.091L23.798,85.091C15.749,85.091 11.219,91.109 11.219,98.526C11.219,105.944 17.749,111.962 25.798,111.962L84.112,111.962L84.112,120.918L25.798,120.918C12.386,120.918 1.5,110.887 1.5,98.526Z" style="fill:rgb(105,186,201);"/>
        <g transform="matrix(1,0,0,1,-2.1446,-2.81455)">
            <path d="M40.376,102.828C40.376,102.828 40.383,133.97 40.145,134.785L59.699,123.063L79.13,134.668C79.061,131.739 79.252,102.828 79.252,102.828L40.376,102.828Z" style="fill:rgb(135,255,83);stroke:rgb(14,56,33);stroke-width:6.13px;"/>
        </g>
    </g>
    <g transform="matrix(1,0,0,1,-1,0)">
        <path d="M21.797,8.957L21.797,76.134C16.331,76.134 14.283,77.802 10.219,80.618L10.219,22.392C10.219,18.826 11.756,15.412 14.489,12.893C17.223,10.373 17.928,8.957 21.797,8.957Z" style="fill:rgb(105,186,201);"/>
    </g>
    <g transform="matrix(0.917565,0,0,0.917565,4.02201,1.47438)">
        <g transform="matrix(1,0,0,1,3.03585,0.159768)">
            <path d="M32.031,41.987C27.612,48.658 24.872,54.996 24.135,59.967C23.328,65.384 24.673,69.647 27.449,72.423C30.225,75.199 34.488,76.544 39.905,75.737C44.876,75.001 51.221,72.26 57.885,67.841C64.556,72.26 70.893,75 75.865,75.737C81.282,76.544 85.545,75.199 88.321,72.423C91.097,69.647 92.442,65.384 91.635,59.967C90.898,54.996 88.158,48.651 83.739,41.987C88.158,35.316 90.898,28.979 91.635,24.007C92.442,18.59 91.097,14.327 88.321,11.551C85.545,8.775 81.282,7.43 75.865,8.237C70.893,8.974 64.549,11.714 57.885,16.133C51.214,11.714 44.876,8.974 39.905,8.237C34.488,7.43 30.225,8.775 27.449,11.551C24.673,14.327 23.328,18.59 24.135,24.007C24.871,28.979 27.612,35.323 32.031,41.987Z" style="fill:rgb(32,19,64);"/>
        </g>
        <g transform="matrix(1,0,0,1,3.03585,0.159768)">
            <path d="M76.409,51.519C75.035,53.084 73.591,54.627 72.061,56.164C70.524,57.694 68.981,59.145 67.416,60.512C70.064,62.041 72.585,63.189 74.901,63.911C76.303,64.35 77.585,64.612 78.739,64.647C79.376,64.662 79.964,64.775 80.318,64.414C80.672,64.06 80.559,63.472 80.552,62.835C80.516,61.687 80.254,60.398 79.815,58.996C79.093,56.688 77.946,54.16 76.416,51.511L76.409,51.519Z" style="fill:rgb(135,255,175);"/>
        </g>
        <g transform="matrix(1,0,0,1,3.03585,0.159768)">
            <path d="M39.358,51.519C37.829,54.167 36.681,56.688 35.959,59.004C35.52,60.406 35.258,61.688 35.223,62.842C35.209,63.479 35.095,64.067 35.456,64.421C35.81,64.775 36.398,64.662 37.036,64.655C38.183,64.619 39.472,64.357 40.874,63.918C43.182,63.196 45.71,62.049 48.359,60.519C46.794,59.145 45.25,57.701 43.713,56.171C42.184,54.634 40.732,53.091 39.365,51.526L39.358,51.519Z" style="fill:rgb(135,255,175);"/>
        </g>
        <g transform="matrix(1,0,0,1,3.03585,0.159768)">
            <path d="M57.884,30.203C59.944,31.917 62.012,33.801 64.044,35.833C66.077,37.858 67.968,39.926 69.674,41.994C67.96,44.054 66.077,46.122 64.044,48.154C62.019,50.187 59.951,52.078 57.884,53.784C55.823,52.071 53.755,50.187 51.723,48.154C49.691,46.129 47.8,44.061 46.093,41.994C47.807,39.933 49.691,37.865 51.723,35.833C53.748,33.801 55.816,31.91 57.884,30.203Z" style="fill:rgb(135,255,175);"/>
        </g>
        <g transform="matrix(1,0,0,1,3.03585,0.159768)">
            <path d="M76.409,32.462C77.939,29.814 79.086,27.293 79.808,24.977C80.247,23.575 80.509,22.293 80.545,21.139C80.559,20.502 80.672,19.914 80.311,19.56C79.957,19.206 79.369,19.319 78.732,19.326C77.585,19.362 76.296,19.624 74.894,20.063C72.585,20.785 70.057,21.932 67.409,23.462C68.974,24.836 70.517,26.28 72.054,27.81C73.584,29.346 75.035,30.89 76.402,32.455L76.409,32.462Z" style="fill:rgb(135,255,175);"/>
        </g>
        <g transform="matrix(1,0,0,1,3.03585,0.159768)">
            <path d="M48.352,23.469C45.703,21.939 43.182,20.792 40.867,20.07C39.465,19.631 38.183,19.369 37.029,19.333C36.391,19.319 35.803,19.206 35.449,19.567C35.095,19.921 35.209,20.509 35.216,21.146C35.251,22.293 35.513,23.582 35.952,24.984C36.675,27.293 37.822,29.821 39.351,32.469C40.725,30.904 42.17,29.361 43.699,27.824C45.236,26.294 46.78,24.843 48.345,23.476L48.352,23.469Z" style="fill:rgb(135,255,175);"/>
        </g>
    </g>
</svg>
