<svg xmlns="http://www.w3.org/2000/svg" width="100%" height="100%" viewBox="0 0 110 135" fill-rule="evenodd" stroke-linejoin="round" stroke-miterlimit="2" xmlns:v="https://vecta.io/nano"><path d="M108.257 16.895l-.644 96.217-96.406-1.087-1.519-94.271 98.57-.858z" fill="#e8e0d0"/><path d="M1.5 98.526V22.393c0-5.94 2.563-11.633 7.113-15.838C13.169 2.357 17.352 0 23.798 0h79.752c2.685 0 4.859 2.004 4.859 4.478v107.484c0 4.948-4.349 8.956-9.719 8.956H84.112v-8.956H98.69V85.091H23.798c-8.049 0-12.579 6.018-12.579 13.435s6.53 13.436 14.579 13.436h58.314v8.956H25.798c-13.412 0-24.298-10.031-24.298-22.392z" fill="#69bac9"/><path d="M109.728 27.195v30.213a5.37 5.37 0 0 1-3.189 1.055H77.29c-3.128 0-12.268-13.383-12.268-16.161s9.14-16.161 12.268-16.161h29.249c1.183 0 2.281.389 3.189 1.054z" fill="#ce67f0" stroke="#201240" stroke-width="5.33"/><path d="M83.564 49.88c3.796 0 6.869-3.39 6.869-7.578s-3.073-7.577-6.869-7.577-6.87 3.39-6.87 7.577 3.073 7.578 6.87 7.578z" fill="#201240"/><path d="M38.231 97.013L38 131.97l19.554-11.722 19.431 11.605c-.069-2.929.122-34.84.122-34.84H38.231z" fill="#ce67f0" stroke="#201240" stroke-width="6.13"/><path d="M21.797 8.957v67.177c-5.466 0-7.514 1.668-11.578 4.484V22.392c0-3.566 1.537-6.98 4.27-9.499s3.439-3.936 7.308-3.936z" fill="#0b8ca9"/></svg>