<svg xmlns="http://www.w3.org/2000/svg" width="100%" height="100%" viewBox="0 0 110 135" fill-rule="evenodd" stroke-linejoin="round" stroke-miterlimit="2" xmlns:v="https://vecta.io/nano"><path d="M108.257 16.895l-.644 96.217-96.406-1.087-1.519-94.271 98.57-.858z" fill="#e8e0d0"/><path d="M1.5 98.526V22.393c0-5.94 2.563-11.633 7.113-15.838C13.169 2.357 17.352 0 23.798 0h79.752c2.685 0 4.859 2.004 4.859 4.478v107.484c0 4.948-4.349 8.956-9.719 8.956H84.112v-8.956H98.69V85.091H23.798c-8.049 0-12.579 6.018-12.579 13.435s6.53 13.436 14.579 13.436h58.314v8.956H25.798c-13.412 0-24.298-10.031-24.298-22.392z" fill="#69bac9"/><path d="M90.93 102.27H32.026c-4.363 0-7.084-1.272-8.439-4.107.129-3.462 2.172-4.487 13.501-4.487h53.733l.109 8.594z" fill="#fff" stroke="#fff" stroke-width=".999"/><path d="M20.797 8.957v67.177c-5.466 0-7.514 1.668-11.578 4.484V22.392c0-3.566 1.537-6.98 4.27-9.499s3.439-3.936 7.308-3.936z" fill="#0b8ca9"/><g fill="#201340" fill-rule="nonzero" stroke="#201340"><path d="M85.085 55.268h-38.91c-2.271 0-4.11-1.894-4.11-4.229s1.84-4.23 4.11-4.23h38.91c2.271 0 4.112 1.894 4.112 4.23s-1.841 4.229-4.112 4.229zM69.902 72.325h-23.85c-2.271 0-4.112-1.894-4.112-4.229s1.841-4.23 4.112-4.23h23.85c2.271 0 4.112 1.894 4.112 4.23s-1.841 4.229-4.112 4.229z" stroke-width="2.453"/><path d="M82.951 38.078H48.278c-4.032 0-7.311-3.375-7.311-7.522V17.691c0-4.148 3.279-7.522 7.311-7.522H82.95c4.032 0 7.311 3.375 7.311 7.522v12.864c.001 4.148-3.279 7.523-7.31 7.523z" stroke-width="2.45"/></g><path d="M48.278 16.71c-.526 0-.954.44-.954.982v12.864a.97.97 0 0 0 .954.981H82.95c.526 0 .953-.441.953-.981V17.691c0-.541-.427-.982-.953-.982H48.278v.001z" fill="#87ffaf" fill-rule="nonzero"/></svg>