<svg xmlns="http://www.w3.org/2000/svg" width="100%" height="100%" viewBox="0 0 110 135" fill-rule="evenodd" stroke-linejoin="round" stroke-miterlimit="2" xmlns:v="https://vecta.io/nano"><path d="M108.257 16.895l-.644 96.217-96.406-1.087-1.519-94.271 98.57-.858z" fill="#e8e0d0"/><path d="M1.5 98.526V22.393c0-5.94 2.563-11.633 7.113-15.838C13.169 2.357 17.352 0 23.798 0h79.752c2.685 0 4.859 2.004 4.859 4.478v107.484c0 4.948-4.349 8.956-9.719 8.956H84.112v-8.956H98.69V85.091H23.798c-8.049 0-12.579 6.018-12.579 13.435s6.53 13.436 14.579 13.436h58.314v8.956H25.798c-13.412 0-24.298-10.031-24.298-22.392z" fill="#29bc0b"/><g stroke="#0e3821"><path d="M90.93 102.27H32.026c-4.363 0-7.084-1.272-8.439-4.107.129-3.462 2.172-4.487 13.501-4.487h53.733l.109 8.594z" fill="#0e3821" stroke-width=".999"/><path d="M38.231 97.013L38 131.97l19.554-11.722 19.431 11.605c-.069-2.929.122-34.84.122-34.84H38.231z" fill="#87ff53" stroke-width="6.13"/></g><g transform="matrix(1 0 0 -1 -17 86.7861)"><path d="M125.376 1.746l.029 85.081-88.083-.06c-3.059-.831-5.841-1.896-8.081-3.643l.177-88.611c1.235 2.097 2.495 3.923 4.116 5.085l1.509 2.266 90.333-.118z" fill="#0e3821"/><path d="M38.394 38.092c2.63 0 4.765 2.075 4.765 4.633s-2.135 4.633-4.765 4.633-4.765-2.075-4.765-4.633 2.135-4.633 4.765-4.633zm12.881-27.741c2.63 0 4.765 2.075 4.765 4.633s-2.135 4.633-4.765 4.633-4.765-2.075-4.765-4.633 2.135-4.633 4.765-4.633zm40.182 64.556v11.876l33.952.014.019-15.053-11.678.025-6.224 3.101-16.068.037zM69.223 47.269c2.63 0 4.765 2.075 4.765 4.633s-2.135 4.633-4.765 4.633-4.765-2.075-4.765-4.633 2.135-4.633 4.765-4.633zm-3.338-21.892a1.58 1.58 0 0 0 .937.309l58.606-.074-.027-15.09-11.929.02-5.824 3.098-32.624.045c-1.741-.005-3.172-1.396-3.176-3.088l.095-8.894H35.048L33.675-.349l-.046 18.366a1.49 1.49 0 0 0 .397 1.004l4.765 6.204a4.61 4.61 0 0 1 1.191 3.073v6.859c3.683.73 6.353 3.91 6.353 7.565 0 4.236-3.585 7.721-7.941 7.721s-7.941-3.485-7.941-7.721c0-3.655 2.67-6.834 6.353-7.565v-6.859a1.53 1.53 0 0 0-.397-1.019l-4.749-6.204c-.772-.835-1.202-1.919-1.207-3.042l-.067-21.972-1.169-1.893c-.276.473-3.793 7.478-3.793 7.478l-.119 74.506c.002 4.236 3.045 6.381 3.045 6.381.772.639 1.448 1.025 1.917 1.376l-.083-21.689c0-1.692 1.434-3.087 3.175-3.087h8.61l10.117-9.864V42.2c.008-.817.345-1.598.937-2.177l7.401-4.196c.597-.582 2.973-.602 3.82-.602l61.184.235V28.7l-58.606.074c-1.012.002-1.996-.312-2.811-.896l-7.447-7.151c-1.448 1.275-3.335 1.98-5.289 1.977-4.35-.005-7.925-3.485-7.925-7.713s3.58-7.713 7.933-7.713 7.933 3.481 7.933 7.713a7.52 7.52 0 0 1-.746 3.266l7.415 7.12zm59.516-14.855l.075-8.776-50.357-.045-.095 8.894 32.426-.045 17.952-.029zM62.68 38.004L55.263 42.2v7.069a3.07 3.07 0 0 1-.921 2.177l-10.133 9.88a3.25 3.25 0 0 1-2.239.896h-8.608l-.006 23.238 4.044 1.348 11.399-.025V72.539c0-1.638.669-3.21 1.858-4.37l11.739-12.33a7.61 7.61 0 0 1-1.136-3.993c0-4.267 3.612-7.778 8-7.778s7.998 3.511 7.998 7.778-3.612 7.776-7.998 7.776c-1.698 0-3.351-.525-4.72-1.498L52.911 70.362c-.604.571-.942 1.359-.937 2.177v14.243h15.674V71.008c0-1.688 1.429-3.078 3.165-3.078h6.62L89.55 56.051v-6.053c-.003-.823-.665-.613-.064-1.192l5.402-7.196c.602-.576 1.41-.903 2.255-.911l28.285-.074-.032-2.792-62.716.171zm34.463 5.783l-4.417 6.211v6.053a3.07 3.07 0 0 1-.921 2.177L79.672 70.107c-.596.576-1.399.903-2.239.911h-6.609v15.764h17.456V74.907c.005-1.692 1.436-3.084 3.176-3.088l15.903-.036 18.068-.039V43.713l-28.285.074z" fill="#29bc0b"/></g><path d="M109.728 31.195v30.213a5.37 5.37 0 0 1-3.189 1.055H77.29c-3.128 0-12.268-13.383-12.268-16.161s9.14-16.161 12.268-16.161h29.249c1.183 0 2.281.389 3.189 1.054z" fill="#87ffaf" stroke="#0e3821" stroke-width="5.33"/><g fill="#0e3821"><path d="M83.564 53.88c3.796 0 6.869-3.39 6.869-7.578s-3.073-7.577-6.869-7.577-6.87 3.39-6.87 7.577 3.073 7.578 6.87 7.578z"/><ellipse cx="96.096" cy="13.491" rx="7.915" ry="7.708"/></g><ellipse cx="96.142" cy="13.536" rx="4.712" ry="4.589" fill="#29bc0b"/><ellipse cx="96.096" cy="74.491" rx="7.915" ry="7.708" fill="#0e3821"/><ellipse cx="96.142" cy="74.536" rx="4.712" ry="4.589" fill="#29bc0b"/></svg>