<?xml version="1.0" encoding="UTF-8" standalone="no"?>
<!DOCTYPE svg PUBLIC "-//W3C//DTD SVG 1.1//EN" "http://www.w3.org/Graphics/SVG/1.1/DTD/svg11.dtd">
<svg width="100%" height="100%" viewBox="0 0 110 135" version="1.1" xmlns="http://www.w3.org/2000/svg" xmlns:xlink="http://www.w3.org/1999/xlink" xml:space="preserve" xmlns:serif="http://www.serif.com/" style="fill-rule:evenodd;clip-rule:evenodd;stroke-linejoin:round;stroke-miterlimit:2;">
    <g>
        <g transform="matrix(0.945466,0,0,0.726746,3.82859,31.7966)">
            <path d="M110.452,-20.504L109.771,111.89L7.804,110.394L6.197,-19.323L110.452,-20.504Z" style="fill:rgb(232,224,208);"/>
        </g>
        <path d="M1.5,98.526L1.5,22.393C1.5,16.453 4.063,10.76 8.613,6.555C13.169,2.357 17.352,0 23.798,0L103.55,0C106.235,0 108.409,2.004 108.409,4.478L108.409,111.962C108.409,116.91 104.06,120.918 98.69,120.918L84.112,120.918L84.112,111.962L98.69,111.962L98.69,85.091L23.798,85.091C15.749,85.091 11.219,91.109 11.219,98.526C11.219,105.944 17.749,111.962 25.798,111.962L84.112,111.962L84.112,120.918L25.798,120.918C12.386,120.918 1.5,110.887 1.5,98.526Z" style="fill:rgb(11,140,169);"/>
        <path d="M1.5,98.526L1.5,97.393C1.5,91.453 4.063,85.76 8.613,81.555C13.169,77.357 17.352,75 23.798,75L103.55,75C106.235,75 108.409,77.004 108.409,79.478L108.409,111.962C108.409,116.91 104.06,120.918 98.69,120.918L84.112,120.918L84.112,111.962L98.69,111.962L98.69,85.091L23.798,85.091C15.749,85.091 11.219,91.109 11.219,98.526C11.219,105.944 17.749,111.962 25.798,111.962L84.112,111.962L84.112,120.918L25.798,120.918C12.386,120.918 1.5,110.887 1.5,98.526Z" style="fill:rgb(105,186,201);"/>
        <g transform="matrix(1.32765,0,0,1,-29.7944,-1)">
            <path d="M90.931,103.27L46.564,103.27C43.278,103.27 41.228,101.998 40.208,99.163C40.305,95.701 41.844,94.676 50.377,94.676L90.849,94.676C90.858,96.495 90.947,101.986 90.931,103.27Z" style="fill:rgb(14,56,33);stroke:rgb(14,56,33);stroke-width:0.85px;"/>
        </g>
        <g transform="matrix(1.32765,0,0,1,-29.7944,-1)">
            <path d="M90.931,103.27L46.564,103.27C43.278,103.27 41.228,101.998 40.208,99.163C40.305,95.701 41.844,94.676 50.377,94.676L90.849,94.676C90.858,96.495 90.947,101.986 90.931,103.27Z" style="fill:rgb(157,39,30);"/>
        </g>
        <g transform="matrix(1.32765,0,0,1,-29.7944,-1)">
            <path d="M90.931,103.27L46.564,103.27C43.278,103.27 41.228,101.998 40.208,99.163C40.305,95.701 41.844,94.676 50.377,94.676L90.849,94.676C90.858,96.495 90.947,101.986 90.931,103.27Z" style="fill:white;stroke:white;stroke-width:0.85px;"/>
        </g>
    </g>
    <g transform="matrix(1,0,0,1,-1,0)">
        <path d="M21.797,8.957L21.797,76.134C16.331,76.134 14.283,77.802 10.219,80.618L10.219,22.392C10.219,18.826 11.756,15.412 14.489,12.893C17.223,10.373 17.928,8.957 21.797,8.957Z" style="fill:rgb(105,186,201);"/>
    </g>
    <g transform="matrix(1,0,0,1,0,-3)">
        <g transform="matrix(1.26433,0,0,1.26433,-11.0861,-13.0063)">
            <path d="M76.065,54L45.29,54C43.494,54 42.039,52.502 42.039,50.655C42.039,48.807 43.494,47.309 45.29,47.309L76.065,47.309C77.861,47.309 79.317,48.807 79.317,50.655C79.317,52.502 77.861,54 76.065,54ZM64.056,67.491L45.192,67.491C43.396,67.491 41.94,65.993 41.94,64.146C41.94,62.298 43.396,60.8 45.192,60.8L64.056,60.8C65.852,60.8 67.308,62.298 67.308,64.146C67.308,65.993 65.852,67.491 64.056,67.491Z" style="fill:rgb(32,19,64);fill-rule:nonzero;stroke:rgb(32,19,64);stroke-width:1.94px;"/>
        </g>
        <g transform="matrix(1,0,0,1,-5.71743e-08,-4.63333)">
            <path d="M82.951,42.711L48.278,42.711C44.246,42.711 40.967,39.336 40.967,35.189L40.967,22.324C40.967,18.176 44.246,14.802 48.278,14.802L82.95,14.802C86.982,14.802 90.261,18.177 90.261,22.324L90.261,35.188C90.262,39.336 86.982,42.711 82.951,42.711Z" style="fill:rgb(32,19,64);fill-rule:nonzero;stroke:rgb(32,19,64);stroke-width:2.45px;"/>
        </g>
        <g transform="matrix(1,0,0,1,-5.71743e-08,-4.63333)">
            <path d="M48.278,21.343C47.752,21.343 47.324,21.783 47.324,22.325L47.324,35.189C47.324,35.729 47.752,36.17 48.278,36.17L82.95,36.17C83.476,36.17 83.903,35.729 83.903,35.189L83.903,22.324C83.903,21.783 83.476,21.342 82.95,21.342L48.278,21.342L48.278,21.343Z" style="fill:white;fill-rule:nonzero;"/>
        </g>
    </g>
</svg>
