<?xml version="1.0" encoding="UTF-8" standalone="no"?>
<!DOCTYPE svg PUBLIC "-//W3C//DTD SVG 1.1//EN" "http://www.w3.org/Graphics/SVG/1.1/DTD/svg11.dtd">
<svg width="100%" height="100%" viewBox="0 0 110 135" version="1.1" xmlns="http://www.w3.org/2000/svg" xmlns:xlink="http://www.w3.org/1999/xlink" xml:space="preserve" xmlns:serif="http://www.serif.com/" style="fill-rule:evenodd;clip-rule:evenodd;stroke-linejoin:round;stroke-miterlimit:2;">
    <g>
        <g transform="matrix(0.945466,0,0,0.726746,3.82859,31.7966)">
            <path d="M110.452,-20.504L109.771,111.89L7.804,110.394L6.197,-19.323L110.452,-20.504Z" style="fill:rgb(232,224,208);"/>
        </g>
        <path d="M1.5,98.526L1.5,22.393C1.5,16.453 4.063,10.76 8.613,6.555C13.169,2.357 17.352,0 23.798,0L103.55,0C106.235,0 108.409,2.004 108.409,4.478L108.409,111.962C108.409,116.91 104.06,120.918 98.69,120.918L84.112,120.918L84.112,111.962L98.69,111.962L98.69,85.091L23.798,85.091C15.749,85.091 11.219,91.109 11.219,98.526C11.219,105.944 17.749,111.962 25.798,111.962L84.112,111.962L84.112,120.918L25.798,120.918C12.386,120.918 1.5,110.887 1.5,98.526Z" style="fill:rgb(11,140,169);"/>
        <g transform="matrix(1.32765,0,0,1,-29.7944,-1)">
            <path d="M90.931,103.27L46.564,103.27C43.278,103.27 41.228,101.998 40.208,99.163C40.305,95.701 41.844,94.676 50.377,94.676L90.849,94.676C90.858,96.495 90.947,101.986 90.931,103.27Z" style="fill:rgb(14,56,33);stroke:rgb(14,56,33);stroke-width:0.85px;"/>
        </g>
        <g transform="matrix(1.32765,0,0,1,-29.7944,-1)">
            <path d="M90.931,103.27L46.564,103.27C43.278,103.27 41.228,101.998 40.208,99.163C40.305,95.701 41.844,94.676 50.377,94.676L90.849,94.676C90.858,96.495 90.947,101.986 90.931,103.27Z" style="fill:rgb(157,39,30);"/>
        </g>
        <g transform="matrix(1.32765,0,0,1,-29.7944,-1)">
            <path d="M90.931,103.27L46.564,103.27C43.278,103.27 41.228,101.998 40.208,99.163C40.305,95.701 41.844,94.676 50.377,94.676L90.849,94.676C90.858,96.495 90.947,101.986 90.931,103.27Z" style="fill:white;stroke:white;stroke-width:0.85px;"/>
        </g>
        <path d="M1.5,98.526L1.5,97.393C1.5,91.453 4.063,85.76 8.613,81.555C13.169,77.357 17.352,75 23.798,75L103.55,75C106.235,75 108.409,77.004 108.409,79.478L108.409,111.962C108.409,116.91 104.06,120.918 98.69,120.918L84.112,120.918L84.112,111.962L98.69,111.962L98.69,85.091L23.798,85.091C15.749,85.091 11.219,91.109 11.219,98.526C11.219,105.944 17.749,111.962 25.798,111.962L84.112,111.962L84.112,120.918L25.798,120.918C12.386,120.918 1.5,110.887 1.5,98.526Z" style="fill:rgb(105,186,201);"/>
        <g transform="matrix(1,0,0,1,-2.1446,-2.81455)">
            <path d="M40.376,102.828C40.376,102.828 40.383,133.97 40.145,134.785L59.699,123.063L79.13,134.668C79.061,131.739 79.252,102.828 79.252,102.828L40.376,102.828Z" style="fill:rgb(135,255,83);stroke:rgb(14,56,33);stroke-width:6.13px;"/>
        </g>
    </g>
    <g transform="matrix(1,0,0,1,-1,0)">
        <path d="M21.797,8.957L21.797,76.134C16.331,76.134 14.283,77.802 10.219,80.618L10.219,22.392C10.219,18.826 11.756,15.412 14.489,12.893C17.223,10.373 17.928,8.957 21.797,8.957Z" style="fill:rgb(105,186,201);"/>
    </g>
    <g>
        <g transform="matrix(0.712568,0,0,0.972578,20.6544,1.36676)">
            <path d="M83.198,19.178L95.848,27.491L95.848,56.763L83.713,65.173L28.793,65.173L17.307,57.07L17.307,27.207L27.216,19.178L83.198,19.178Z" style="fill:rgb(135,255,175);"/>
        </g>
        <g transform="matrix(0.894367,0,0,1,16.3818,-7.62451)">
            <path d="M93.11,46L76.27,29.18C75.23,28.202 73.855,27.657 72.427,27.657C69.349,27.657 66.817,30.189 66.817,33.267C66.817,34.695 67.362,36.07 68.34,37.11L81.2,50L68.34,62.81C67.291,63.86 66.701,65.286 66.701,66.77C66.701,69.844 69.231,72.374 72.305,72.374C73.792,72.374 75.219,71.782 76.27,70.73L93.11,53.92C95.277,51.745 95.277,48.175 93.11,46ZM31.66,29.18C29.484,27.006 25.906,27.006 23.73,29.18L6.89,46C4.716,48.176 4.716,51.754 6.89,53.93L23.73,70.73C24.781,71.782 26.208,72.374 27.695,72.374C30.769,72.374 33.299,69.844 33.299,66.77C33.299,65.286 32.709,63.86 31.66,62.81L18.8,50L31.66,37.11C33.834,34.934 33.834,31.356 31.66,29.18ZM59.21,18.92C56.305,17.881 53.059,19.403 52,22.3L37.41,72.83C37.283,73.307 37.218,73.798 37.218,74.291C37.218,77.396 39.773,79.951 42.878,79.951C45.067,79.951 47.068,78.681 48,76.7L62.59,26.17C62.817,25.549 62.933,24.893 62.933,24.231C62.933,21.859 61.44,19.729 59.21,18.92Z" style="fill:rgb(32,19,64);"/>
        </g>
    </g>
</svg>
