<?xml version="1.0" encoding="UTF-8" standalone="no"?>
<!DOCTYPE svg PUBLIC "-//W3C//DTD SVG 1.1//EN" "http://www.w3.org/Graphics/SVG/1.1/DTD/svg11.dtd">
<svg width="100%" height="100%" viewBox="0 0 110 135" version="1.1" xmlns="http://www.w3.org/2000/svg" xmlns:xlink="http://www.w3.org/1999/xlink" xml:space="preserve" xmlns:serif="http://www.serif.com/" style="fill-rule:evenodd;clip-rule:evenodd;stroke-linejoin:round;stroke-miterlimit:2;">
    <g>
        <g transform="matrix(0.945466,0,0,0.726746,3.82859,31.7966)">
            <path d="M110.452,-20.504L109.771,111.89L7.804,110.394L6.197,-19.323L110.452,-20.504Z" style="fill:rgb(232,224,208);"/>
        </g>
        <path d="M1.5,98.526L1.5,22.393C1.5,16.453 4.063,10.76 8.613,6.555C13.169,2.357 17.352,0 23.798,0L103.55,0C106.235,0 108.409,2.004 108.409,4.478L108.409,111.962C108.409,116.91 104.06,120.918 98.69,120.918L84.112,120.918L84.112,111.962L98.69,111.962L98.69,85.091L23.798,85.091C15.749,85.091 11.219,91.109 11.219,98.526C11.219,105.944 17.749,111.962 25.798,111.962L84.112,111.962L84.112,120.918L25.798,120.918C12.386,120.918 1.5,110.887 1.5,98.526Z" style="fill:rgb(11,140,169);"/>
        <g transform="matrix(1.32765,0,0,1,-29.7944,-1)">
            <path d="M90.931,103.27L46.564,103.27C43.278,103.27 41.228,101.998 40.208,99.163C40.305,95.701 41.844,94.676 50.377,94.676L90.849,94.676C90.858,96.495 90.947,101.986 90.931,103.27Z" style="fill:rgb(14,56,33);stroke:rgb(14,56,33);stroke-width:0.85px;"/>
        </g>
        <g transform="matrix(1.32765,0,0,1,-29.7944,-1)">
            <path d="M90.931,103.27L46.564,103.27C43.278,103.27 41.228,101.998 40.208,99.163C40.305,95.701 41.844,94.676 50.377,94.676L90.849,94.676C90.858,96.495 90.947,101.986 90.931,103.27Z" style="fill:rgb(157,39,30);"/>
        </g>
        <g transform="matrix(1.32765,0,0,1,-29.7944,-1)">
            <path d="M90.931,103.27L46.564,103.27C43.278,103.27 41.228,101.998 40.208,99.163C40.305,95.701 41.844,94.676 50.377,94.676L90.849,94.676C90.858,96.495 90.947,101.986 90.931,103.27Z" style="fill:white;stroke:white;stroke-width:0.85px;"/>
        </g>
        <path d="M1.5,98.526L1.5,97.393C1.5,91.453 4.063,85.76 8.613,81.555C13.169,77.357 17.352,75 23.798,75L103.55,75C106.235,75 108.409,77.004 108.409,79.478L108.409,111.962C108.409,116.91 104.06,120.918 98.69,120.918L84.112,120.918L84.112,111.962L98.69,111.962L98.69,85.091L23.798,85.091C15.749,85.091 11.219,91.109 11.219,98.526C11.219,105.944 17.749,111.962 25.798,111.962L84.112,111.962L84.112,120.918L25.798,120.918C12.386,120.918 1.5,110.887 1.5,98.526Z" style="fill:rgb(105,186,201);"/>
        <g transform="matrix(1,0,0,1,-2.1446,-2.81455)">
            <path d="M40.376,102.828C40.376,102.828 40.383,133.97 40.145,134.785L59.699,123.063L79.13,134.668C79.061,131.739 79.252,102.828 79.252,102.828L40.376,102.828Z" style="fill:rgb(135,255,83);stroke:rgb(14,56,33);stroke-width:6.13px;"/>
        </g>
    </g>
    <g transform="matrix(1,0,0,1,-1,0)">
        <path d="M21.797,8.957L21.797,76.134C16.331,76.134 14.283,77.802 10.219,80.618L10.219,22.392C10.219,18.826 11.756,15.412 14.489,12.893C17.223,10.373 17.928,8.957 21.797,8.957Z" style="fill:rgb(105,186,201);"/>
    </g>
    <g transform="matrix(0.902213,0,0,0.857329,5.54437,0.265863)">
        <g transform="matrix(1.37857,0,0,4.65467,-34.9286,-90.153)">
            <path d="M55.244,21.429C54.719,21.429 49.516,21.87 49.516,22.412L49.516,35.275C49.516,35.816 54.535,36.278 55.06,36.278L85.312,36.23C85.837,36.23 89.532,35.729 89.532,35.189L89.532,22.324C89.532,21.783 85.327,21.329 84.802,21.329L50.469,21.429L55.244,21.429Z" style="fill:rgb(135,255,175);fill-rule:nonzero;"/>
        </g>
        <g transform="matrix(0.81246,0,0,0.697652,21.874,8.8902)">
            <path d="M36.876,13.414L36.876,3.064L25.297,3.064C20.764,3.064 17.214,4.581 14.647,7.614C11.881,10.914 10.497,15.614 10.497,21.714L10.497,28.764C10.497,34.298 9.714,38.298 8.147,40.764C6.381,43.264 3.331,44.514 -1.003,44.514L-3.053,44.514L-3.053,56.114L-1.003,56.114C3.331,56.114 6.381,57.364 8.147,59.864C9.714,62.064 10.497,65.931 10.497,71.464L10.497,78.914C10.497,84.981 11.881,89.548 14.647,92.614C17.214,95.914 20.764,97.564 25.297,97.564L36.876,97.564L36.876,86.764L26.747,86.364C25.581,86.098 24.597,85.548 23.797,84.714C22.997,83.881 22.414,82.631 22.047,80.964C21.647,79.331 21.447,77.264 21.447,74.764L21.447,69.364C21.447,64.664 20.564,60.798 18.797,57.764C16.831,54.731 14.281,52.381 11.147,50.714L11.147,49.464C14.281,48.098 16.831,45.898 18.797,42.864C20.564,39.531 21.447,35.648 21.447,31.214L21.447,25.414C21.447,22.948 21.647,20.881 22.047,19.214C22.414,17.848 22.997,16.598 23.797,15.464C24.597,14.931 25.581,14.381 26.747,13.814L36.876,13.414M99.693,44.2L97.343,44.2C93.176,44.2 90.209,42.95 88.443,40.45C86.676,37.983 85.793,33.983 85.793,28.45L85.793,21.4C85.793,15.3 84.526,10.6 81.993,7.3C79.426,4.267 75.876,2.75 71.343,2.75L59.464,2.75L59.464,13.1L69.893,13.5C70.859,14.067 71.743,14.617 72.543,15.15C73.309,16.283 73.893,17.533 74.293,18.9C74.693,20.567 74.893,22.633 74.893,25.1L74.893,30.9C74.893,35.333 75.876,39.217 77.843,42.55C79.609,45.583 82.076,47.783 85.243,49.15L85.243,50.4C82.076,52.067 79.609,54.417 77.843,57.45C75.876,60.483 74.893,64.35 74.893,69.05L74.893,74.45C74.893,76.95 74.693,79.017 74.293,80.65C73.893,82.317 73.309,83.567 72.543,84.4C71.743,85.233 70.859,85.783 69.893,86.05L59.464,86.45L59.464,97.25L71.343,97.25C75.876,97.25 79.426,95.6 81.993,92.3C84.526,89.233 85.793,84.667 85.793,78.6L85.793,71.15C85.793,65.617 86.676,61.75 88.443,59.55C90.209,57.05 93.176,55.8 97.343,55.8L99.693,55.8L99.693,44.2Z" style="fill:rgb(32,19,64);fill-rule:nonzero;stroke:rgb(32,19,64);stroke-width:5.39px;stroke-linecap:round;stroke-linejoin:miter;stroke-miterlimit:2.97417;"/>
        </g>
    </g>
</svg>
