<?xml version="1.0" encoding="UTF-8" standalone="no"?>
<!DOCTYPE svg PUBLIC "-//W3C//DTD SVG 1.1//EN" "http://www.w3.org/Graphics/SVG/1.1/DTD/svg11.dtd">
<svg width="100%" height="100%" viewBox="0 0 110 135" version="1.1" xmlns="http://www.w3.org/2000/svg" xmlns:xlink="http://www.w3.org/1999/xlink" xml:space="preserve" xmlns:serif="http://www.serif.com/" style="fill-rule:evenodd;clip-rule:evenodd;stroke-linejoin:round;stroke-miterlimit:2;">
    <g>
        <g transform="matrix(0.945466,0,0,0.726746,3.82859,31.7966)">
            <path d="M110.452,-20.504L109.771,111.89L7.804,110.394L6.197,-19.323L110.452,-20.504Z" style="fill:rgb(232,224,208);"/>
        </g>
        <path d="M1.5,98.526L1.5,22.393C1.5,16.453 4.063,10.76 8.613,6.555C13.169,2.357 17.352,0 23.798,0L103.55,0C106.235,0 108.409,2.004 108.409,4.478L108.409,111.962C108.409,116.91 104.06,120.918 98.69,120.918L84.112,120.918L84.112,111.962L98.69,111.962L98.69,85.091L23.798,85.091C15.749,85.091 11.219,91.109 11.219,98.526C11.219,105.944 17.749,111.962 25.798,111.962L84.112,111.962L84.112,120.918L25.798,120.918C12.386,120.918 1.5,110.887 1.5,98.526Z" style="fill:rgb(11,140,169);"/>
        <g transform="matrix(1.32765,0,0,1,-29.7944,-1)">
            <path d="M90.931,103.27L46.564,103.27C43.278,103.27 41.228,101.998 40.208,99.163C40.305,95.701 41.844,94.676 50.377,94.676L90.849,94.676C90.858,96.495 90.947,101.986 90.931,103.27Z" style="fill:rgb(14,56,33);stroke:rgb(14,56,33);stroke-width:0.85px;"/>
        </g>
        <g transform="matrix(1.32765,0,0,1,-29.7944,-1)">
            <path d="M90.931,103.27L46.564,103.27C43.278,103.27 41.228,101.998 40.208,99.163C40.305,95.701 41.844,94.676 50.377,94.676L90.849,94.676C90.858,96.495 90.947,101.986 90.931,103.27Z" style="fill:rgb(157,39,30);"/>
        </g>
        <g transform="matrix(1.32765,0,0,1,-29.7944,-1)">
            <path d="M90.931,103.27L46.564,103.27C43.278,103.27 41.228,101.998 40.208,99.163C40.305,95.701 41.844,94.676 50.377,94.676L90.849,94.676C90.858,96.495 90.947,101.986 90.931,103.27Z" style="fill:white;stroke:white;stroke-width:0.85px;"/>
        </g>
        <path d="M1.5,98.526L1.5,97.393C1.5,91.453 4.063,85.76 8.613,81.555C13.169,77.357 17.352,75 23.798,75L103.55,75C106.235,75 108.409,77.004 108.409,79.478L108.409,111.962C108.409,116.91 104.06,120.918 98.69,120.918L84.112,120.918L84.112,111.962L98.69,111.962L98.69,85.091L23.798,85.091C15.749,85.091 11.219,91.109 11.219,98.526C11.219,105.944 17.749,111.962 25.798,111.962L84.112,111.962L84.112,120.918L25.798,120.918C12.386,120.918 1.5,110.887 1.5,98.526Z" style="fill:rgb(105,186,201);"/>
        <g transform="matrix(1,0,0,1,-2.1446,-2.81455)">
            <path d="M40.376,102.828C40.376,102.828 40.383,133.97 40.145,134.785L59.699,123.063L79.13,134.668C79.061,131.739 79.252,102.828 79.252,102.828L40.376,102.828Z" style="fill:rgb(135,255,83);stroke:rgb(14,56,33);stroke-width:6.13px;"/>
        </g>
    </g>
    <g transform="matrix(1,0,0,1,-1,0)">
        <path d="M21.797,8.957L21.797,76.134C16.331,76.134 14.283,77.802 10.219,80.618L10.219,22.392C10.219,18.826 11.756,15.412 14.489,12.893C17.223,10.373 17.928,8.957 21.797,8.957Z" style="fill:rgb(105,186,201);"/>
    </g>
    <g transform="matrix(0.843471,0,0,0.843471,10.8639,3.60516)">
        <g transform="matrix(1,0,0,1.02308,-2.21487,-0.583669)">
            <path d="M85.149,29.716C85.149,20.561 80.29,12.1 72.387,7.482C64.485,2.865 54.726,2.789 46.755,7.286C38.783,11.778 33.793,20.168 33.652,29.319C33.511,38.47 38.238,47.007 46.068,51.745L46.044,61.145C46.199,61.127 46.351,61.12 46.506,61.124L72.25,61.124C72.405,61.121 72.556,61.128 72.712,61.145L72.736,51.745C80.446,47.083 85.152,38.725 85.148,29.715L85.149,29.716Z" style="fill:rgb(32,19,64);fill-rule:nonzero;stroke:rgb(135,255,83);stroke-width:5.86px;"/>
        </g>
        <g transform="matrix(1,0,0,1,-2.21487,-0.49216)">
            <path d="M85.149,29.716C85.149,20.561 80.29,12.1 72.387,7.482C64.485,2.865 54.726,2.789 46.755,7.286C38.783,11.778 33.793,20.168 33.652,29.319C33.511,38.47 38.238,47.007 46.068,51.745L46.068,61.117C46.223,61.1 46.375,61.093 46.53,61.097L51.474,61.097L51.474,43.376C51.474,42.362 52.868,41.538 53.885,41.538C54.902,41.538 56.295,42.362 56.295,43.376L56.295,61.097L62.504,61.097L62.508,46.813C62.511,46.431 62.632,46.058 62.856,45.748L71.98,36.167L69.939,32.084L68.046,34.533C67.322,35.247 65.587,35.24 64.866,34.523L61.935,31.571L58.969,34.533C58.621,34.871 58.152,35.064 57.665,35.067C57.183,35.064 56.721,34.871 56.376,34.533L53.431,31.571L50.468,34.533C50.123,34.871 49.661,35.064 49.182,35.067C48.693,35.064 48.227,34.871 47.875,34.533L43.623,30.281C42.903,29.56 42.903,27.818 43.623,27.098C44.344,26.377 45.516,26.377 46.237,27.098L49.182,30.043L51.551,27.101C51.896,26.756 52.938,26.563 53.427,26.563C53.913,26.563 54.955,26.76 55.3,27.108L57.666,30.06L60.055,27.098C60.4,26.753 61.438,26.56 61.924,26.56C62.411,26.56 63.449,26.753 63.794,27.098L66.183,30.06L69.129,27.098C69.549,26.681 70.719,26.491 71.301,26.584C71.884,26.681 72.957,27.05 73.219,27.577L76.325,35.505L76.322,35.505C76.636,36.112 76.58,36.846 76.177,37.398L67.33,47.403L67.33,61.097L72.274,61.097C72.429,61.094 72.58,61.101 72.736,61.118L72.736,51.745C80.446,47.083 85.152,38.725 85.148,29.715L85.149,29.716Z" style="fill:rgb(135,255,175);fill-rule:nonzero;"/>
        </g>
        <g transform="matrix(1.04695,0,0,1.03841,-5.21972,-3.87)">
            <path d="M75.032,64.655C75.032,62.624 73.387,60.976 71.356,60.976L47.448,60.976C45.417,60.976 43.772,62.624 43.772,64.655C43.772,66.686 45.417,68.334 47.448,68.334C45.417,68.334 43.772,69.979 43.772,72.009C43.772,74.04 45.417,75.689 47.448,75.689L49.103,75.689L49.616,78.25C49.961,79.968 51.468,81.205 53.223,81.205L65.581,81.205C67.336,81.205 68.843,79.968 69.187,78.25L69.701,75.689L71.356,75.689C73.387,75.689 75.032,74.04 75.032,72.009C75.032,69.979 73.387,68.334 71.356,68.334C73.387,68.334 75.032,66.686 75.032,64.655Z" style="fill:rgb(135,95,175);fill-rule:nonzero;stroke:rgb(0,0,16);stroke-width:3.41px;"/>
        </g>
        <g transform="matrix(0.808997,-0.568401,0.568401,0.808997,4.16214,24.7383)">
            <path d="M60.774,22.164C62.519,25.448 58.235,26.089 58.076,25.189C53.504,15.971 42.6,14.085 35.873,16.836C35.269,17.328 32.878,13.711 34.576,12.827C34.918,12.649 34.963,12.604 34.963,12.604C45.581,9.259 55.556,12.344 60.774,22.164Z" style="fill:white;fill-rule:nonzero;"/>
        </g>
    </g>
</svg>
