<?xml version="1.0" encoding="UTF-8" standalone="no"?>
<!DOCTYPE svg PUBLIC "-//W3C//DTD SVG 1.1//EN" "http://www.w3.org/Graphics/SVG/1.1/DTD/svg11.dtd">
<svg width="100%" height="100%" viewBox="0 0 110 135" version="1.1" xmlns="http://www.w3.org/2000/svg" xmlns:xlink="http://www.w3.org/1999/xlink" xml:space="preserve" xmlns:serif="http://www.serif.com/" style="fill-rule:evenodd;clip-rule:evenodd;stroke-linejoin:round;stroke-miterlimit:2;">
    <g>
        <g transform="matrix(0.945466,0,0,0.726746,3.82859,31.7966)">
            <path d="M110.452,-20.504L109.771,111.89L7.804,110.394L6.197,-19.323L110.452,-20.504Z" style="fill:rgb(232,224,208);"/>
        </g>
        <path d="M1.5,98.526L1.5,22.393C1.5,16.453 4.063,10.76 8.613,6.555C13.169,2.357 17.352,0 23.798,0L103.55,0C106.235,0 108.409,2.004 108.409,4.478L108.409,111.962C108.409,116.91 104.06,120.918 98.69,120.918L84.112,120.918L84.112,111.962L98.69,111.962L98.69,85.091L23.798,85.091C15.749,85.091 11.219,91.109 11.219,98.526C11.219,105.944 17.749,111.962 25.798,111.962L84.112,111.962L84.112,120.918L25.798,120.918C12.386,120.918 1.5,110.887 1.5,98.526Z" style="fill:rgb(11,140,169);"/>
        <g transform="matrix(1.32765,0,0,1,-29.7944,-1)">
            <path d="M90.931,103.27L46.564,103.27C43.278,103.27 41.228,101.998 40.208,99.163C40.305,95.701 41.844,94.676 50.377,94.676L90.849,94.676C90.858,96.495 90.947,101.986 90.931,103.27Z" style="fill:rgb(14,56,33);stroke:rgb(14,56,33);stroke-width:0.85px;"/>
        </g>
        <g transform="matrix(1.32765,0,0,1,-29.7944,-1)">
            <path d="M90.931,103.27L46.564,103.27C43.278,103.27 41.228,101.998 40.208,99.163C40.305,95.701 41.844,94.676 50.377,94.676L90.849,94.676C90.858,96.495 90.947,101.986 90.931,103.27Z" style="fill:rgb(157,39,30);"/>
        </g>
        <g transform="matrix(1.32765,0,0,1,-29.7944,-1)">
            <path d="M90.931,103.27L46.564,103.27C43.278,103.27 41.228,101.998 40.208,99.163C40.305,95.701 41.844,94.676 50.377,94.676L90.849,94.676C90.858,96.495 90.947,101.986 90.931,103.27Z" style="fill:white;stroke:white;stroke-width:0.85px;"/>
        </g>
        <path d="M1.5,98.526L1.5,97.393C1.5,91.453 4.063,85.76 8.613,81.555C13.169,77.357 17.352,75 23.798,75L103.55,75C106.235,75 108.409,77.004 108.409,79.478L108.409,111.962C108.409,116.91 104.06,120.918 98.69,120.918L84.112,120.918L84.112,111.962L98.69,111.962L98.69,85.091L23.798,85.091C15.749,85.091 11.219,91.109 11.219,98.526C11.219,105.944 17.749,111.962 25.798,111.962L84.112,111.962L84.112,120.918L25.798,120.918C12.386,120.918 1.5,110.887 1.5,98.526Z" style="fill:rgb(105,186,201);"/>
        <g transform="matrix(1,0,0,1,-2.1446,-2.81455)">
            <path d="M40.376,102.828C40.376,102.828 40.383,133.97 40.145,134.785L59.699,123.063L79.13,134.668C79.061,131.739 79.252,102.828 79.252,102.828L40.376,102.828Z" style="fill:rgb(135,255,83);stroke:rgb(14,56,33);stroke-width:6.13px;"/>
        </g>
    </g>
    <g transform="matrix(1,0,0,1,-1,0)">
        <path d="M21.797,8.957L21.797,76.134C16.331,76.134 14.283,77.802 10.219,80.618L10.219,22.392C10.219,18.826 11.756,15.412 14.489,12.893C17.223,10.373 17.928,8.957 21.797,8.957Z" style="fill:rgb(105,186,201);"/>
    </g>
    <g transform="matrix(0.652595,0,0,0.652595,5.18349,0.513784)">
        <g transform="matrix(0.722167,0,0,1.12075,52.894,15.5339)">
            <path d="M97.986,0.513L108.189,8.484L108.189,69.831L98.124,76.375L-9.776,76.375L-21.425,68.142L-21.425,8.661L-9.5,0.513L97.986,0.513Z" style="fill:rgb(135,255,175);"/>
        </g>
        <path d="M27.566,58.586C27.566,54.309 27.934,50.309 28.67,46.584C29.407,42.86 30.525,39.192 32.027,35.58C33.528,31.969 35.383,28.351 37.592,24.726C38.923,22.516 40.042,20.923 40.948,19.946C41.855,18.969 42.712,18.36 43.519,18.119C44.326,17.878 45.367,17.758 46.641,17.758C48.029,17.758 48.723,18.14 48.723,18.905C48.723,19.16 48.072,20.697 46.769,23.515C45.466,26.333 44.241,29.286 43.094,32.373C41.947,35.46 40.885,39.312 39.908,43.929C38.93,48.545 38.442,53.431 38.442,58.586C38.442,63.684 38.923,68.513 39.886,73.073C40.849,77.634 41.947,81.585 43.179,84.927C44.411,88.269 45.643,91.264 46.875,93.912C48.107,96.561 48.723,97.998 48.723,98.225C48.723,98.989 48.029,99.372 46.641,99.372C45.339,99.372 44.284,99.237 43.476,98.968C42.669,98.699 41.826,98.069 40.948,97.078C40.07,96.086 38.952,94.5 37.592,92.319C35.355,88.581 33.506,84.976 32.048,81.507C30.589,78.037 29.477,74.433 28.713,70.694C27.948,66.956 27.566,62.92 27.566,58.586Z" style="fill:rgb(32,19,64);fill-rule:nonzero;stroke:rgb(32,18,64);stroke-width:4.9px;"/>
        <g transform="matrix(1,0,0,1,1.53234,7.66172)">
            <path d="M66.567,82.165C64.811,82.165 63.296,81.599 62.021,80.466C60.746,79.333 60.109,77.747 60.109,75.708C60.109,73.98 60.718,72.493 61.936,71.247C63.154,70 64.655,69.377 66.439,69.377C68.224,69.377 69.746,69.993 71.007,71.225C72.267,72.457 72.897,73.952 72.897,75.708C72.897,77.719 72.267,79.298 71.007,80.445C69.746,81.592 68.266,82.165 66.567,82.165Z" style="fill:rgb(32,19,64);fill-rule:nonzero;stroke:rgb(32,18,64);stroke-width:4.9px;"/>
        </g>
        <g transform="matrix(1,0,0,1,-6.12937,4.59703)">
            <path d="M101.532,29.229C103.373,28.379 105.129,27.53 106.8,26.68C108.471,25.83 109.802,25.207 110.794,24.811C111.785,24.414 112.578,24.216 113.173,24.216C114.164,24.216 115.021,24.549 115.743,25.214C116.465,25.88 116.827,26.708 116.827,27.7C116.827,28.266 116.65,28.854 116.296,29.463C115.942,30.072 115.566,30.461 115.17,30.631C111.516,32.075 107.494,33.123 103.104,33.775C103.897,34.511 104.874,35.488 106.035,36.706C107.197,37.924 107.806,38.576 107.862,38.661C108.287,39.255 108.882,39.992 109.647,40.87C110.411,41.748 110.942,42.435 111.24,42.93C111.537,43.426 111.686,44.028 111.686,44.736C111.686,45.642 111.346,46.435 110.666,47.115C109.987,47.795 109.109,48.135 108.032,48.135C106.956,48.135 105.745,47.299 104.4,45.628C103.054,43.957 101.32,40.955 99.195,36.621C97.043,40.53 95.598,43.107 94.862,44.354C94.125,45.6 93.417,46.542 92.738,47.179C92.058,47.816 91.279,48.135 90.401,48.135C89.353,48.135 88.482,47.774 87.788,47.051C87.094,46.329 86.747,45.557 86.747,44.736C86.747,43.971 86.889,43.391 87.172,42.994C89.778,39.454 92.497,36.381 95.329,33.775C92.95,33.407 90.826,32.996 88.956,32.543C87.087,32.09 85.105,31.424 83.009,30.546C82.669,30.376 82.336,29.987 82.01,29.378C81.684,28.769 81.522,28.209 81.522,27.7C81.522,26.708 81.883,25.88 82.605,25.214C83.327,24.549 84.156,24.216 85.09,24.216C85.77,24.216 86.62,24.421 87.639,24.832C88.659,25.242 89.955,25.837 91.527,26.616C93.099,27.395 94.89,28.266 96.901,29.229C96.533,27.445 96.228,25.398 95.988,23.09C95.747,20.782 95.627,19.203 95.627,18.353C95.627,17.305 95.959,16.406 96.625,15.655C97.291,14.904 98.147,14.529 99.195,14.529C100.215,14.529 101.058,14.904 101.723,15.655C102.389,16.406 102.722,17.404 102.722,18.65C102.722,18.99 102.672,19.663 102.573,20.668C102.474,21.674 102.332,22.892 102.148,24.322C101.964,25.752 101.759,27.388 101.532,29.229Z" style="fill:rgb(32,19,64);fill-rule:nonzero;stroke:rgb(32,18,64);stroke-width:4.9px;"/>
        </g>
        <path d="M143.635,58.586C143.635,64.817 142.806,70.609 141.149,75.962C139.492,81.316 136.979,86.768 133.608,92.319C131.711,95.435 130.209,97.389 129.105,98.182C128,98.975 126.499,99.372 124.601,99.372C123.185,99.372 122.477,98.989 122.477,98.225C122.477,97.97 123.072,96.603 124.261,94.125C125.451,91.647 126.69,88.694 127.979,85.267C129.268,81.84 130.386,77.811 131.335,73.18C132.284,68.549 132.758,63.684 132.758,58.586C132.758,53.46 132.277,48.574 131.314,43.929C130.351,39.284 129.232,35.262 127.958,31.863C126.683,28.464 125.451,25.512 124.261,23.005C123.072,20.498 122.477,19.132 122.477,18.905C122.477,18.14 123.185,17.758 124.601,17.758C126.584,17.758 128.113,18.133 129.19,18.884C130.266,19.634 131.739,21.582 133.608,24.726C135.279,27.501 136.738,30.234 137.984,32.925C139.23,35.616 140.271,38.307 141.107,40.997C141.942,43.688 142.573,46.492 142.997,49.409C143.422,52.327 143.635,55.386 143.635,58.586Z" style="fill:rgb(32,19,64);fill-rule:nonzero;stroke:rgb(32,18,64);stroke-width:4.9px;"/>
    </g>
</svg>
