<?xml version="1.0" encoding="UTF-8" standalone="no"?>
<!DOCTYPE svg PUBLIC "-//W3C//DTD SVG 1.1//EN" "http://www.w3.org/Graphics/SVG/1.1/DTD/svg11.dtd">
<svg width="100%" height="100%" viewBox="0 0 110 135" version="1.1" xmlns="http://www.w3.org/2000/svg" xmlns:xlink="http://www.w3.org/1999/xlink" xml:space="preserve" xmlns:serif="http://www.serif.com/" style="fill-rule:evenodd;clip-rule:evenodd;stroke-linejoin:round;stroke-miterlimit:2;">
    <g>
        <g transform="matrix(0.945466,0,0,0.726746,3.82859,31.7966)">
            <path d="M110.452,-20.504L109.771,111.89L7.804,110.394L6.197,-19.323L110.452,-20.504Z" style="fill:rgb(232,224,208);"/>
        </g>
        <path d="M1.5,98.526L1.5,22.393C1.5,16.453 4.063,10.76 8.613,6.555C13.169,2.357 17.352,0 23.798,0L103.55,0C106.235,0 108.409,2.004 108.409,4.478L108.409,111.962C108.409,116.91 104.06,120.918 98.69,120.918L84.112,120.918L84.112,111.962L98.69,111.962L98.69,85.091L23.798,85.091C15.749,85.091 11.219,91.109 11.219,98.526C11.219,105.944 17.749,111.962 25.798,111.962L84.112,111.962L84.112,120.918L25.798,120.918C12.386,120.918 1.5,110.887 1.5,98.526Z" style="fill:rgb(11,140,169);"/>
        <g transform="matrix(1.32765,0,0,1,-29.7944,-1)">
            <path d="M90.931,103.27L46.564,103.27C43.278,103.27 41.228,101.998 40.208,99.163C40.305,95.701 41.844,94.676 50.377,94.676L90.849,94.676C90.858,96.495 90.947,101.986 90.931,103.27Z" style="fill:rgb(14,56,33);stroke:rgb(14,56,33);stroke-width:0.85px;"/>
        </g>
        <g transform="matrix(1.32765,0,0,1,-29.7944,-1)">
            <path d="M90.931,103.27L46.564,103.27C43.278,103.27 41.228,101.998 40.208,99.163C40.305,95.701 41.844,94.676 50.377,94.676L90.849,94.676C90.858,96.495 90.947,101.986 90.931,103.27Z" style="fill:rgb(157,39,30);"/>
        </g>
        <g transform="matrix(1.32765,0,0,1,-29.7944,-1)">
            <path d="M90.931,103.27L46.564,103.27C43.278,103.27 41.228,101.998 40.208,99.163C40.305,95.701 41.844,94.676 50.377,94.676L90.849,94.676C90.858,96.495 90.947,101.986 90.931,103.27Z" style="fill:white;stroke:white;stroke-width:0.85px;"/>
        </g>
        <path d="M1.5,98.526L1.5,97.393C1.5,91.453 4.063,85.76 8.613,81.555C13.169,77.357 17.352,75 23.798,75L103.55,75C106.235,75 108.409,77.004 108.409,79.478L108.409,111.962C108.409,116.91 104.06,120.918 98.69,120.918L84.112,120.918L84.112,111.962L98.69,111.962L98.69,85.091L23.798,85.091C15.749,85.091 11.219,91.109 11.219,98.526C11.219,105.944 17.749,111.962 25.798,111.962L84.112,111.962L84.112,120.918L25.798,120.918C12.386,120.918 1.5,110.887 1.5,98.526Z" style="fill:rgb(105,186,201);"/>
        <g transform="matrix(1,0,0,1,-2.1446,-2.81455)">
            <path d="M40.376,102.828C40.376,102.828 40.383,133.97 40.145,134.785L59.699,123.063L79.13,134.668C79.061,131.739 79.252,102.828 79.252,102.828L40.376,102.828Z" style="fill:rgb(135,255,83);stroke:rgb(14,56,33);stroke-width:6.13px;"/>
        </g>
    </g>
    <g transform="matrix(1,0,0,1,-1,0)">
        <path d="M21.797,8.957L21.797,76.134C16.331,76.134 14.283,77.802 10.219,80.618L10.219,22.392C10.219,18.826 11.756,15.412 14.489,12.893C17.223,10.373 17.928,8.957 21.797,8.957Z" style="fill:rgb(105,186,201);"/>
    </g>
    <g transform="matrix(0.797585,0,0,0.837404,12.7624,1.38606)">
        <g transform="matrix(1.1404,0,0,1.13851,-3.06513,-21.8552)">
            <path d="M78.243,63.936C78.324,62.001 80.956,60.264 80.959,61.902C86.512,54.981 84.422,47.625 80.835,39.883C77.163,31.956 72.422,26.662 62.676,24.618C59.784,24.012 55.457,23.66 51.829,23.65C35.978,23.693 26.731,29.603 21.965,39.883C18.378,47.624 17.146,54.985 22.698,61.902C22.701,60.264 25.347,62.003 25.428,63.936C25.448,64.458 25.461,64.923 25.461,65.359L25.461,65.424C25.454,66.432 25.347,67.24 24.892,67.845C24.259,68.682 23.362,69.207 22.615,69.53L25.324,77.041C31.105,76.509 35.425,80.47 35.619,80.651C35.864,80.882 36.001,81.189 36.001,81.512L36.001,89.392C36.852,89.647 38.536,90.053 41.363,90.382L44.042,90.637C45.807,90.772 47.884,90.87 50.322,90.901L53.35,90.901C55.788,90.87 57.864,90.772 59.629,90.637L62.308,90.382C65.128,90.053 66.816,89.647 67.67,89.392L67.67,81.512C67.67,81.189 67.808,80.882 68.052,80.651C68.246,80.47 72.58,76.503 78.347,77.041L81.056,69.53C80.306,69.207 79.409,68.682 78.779,67.845C78.324,67.24 78.217,66.435 78.21,65.424L78.21,65.359C78.21,64.923 78.224,64.456 78.243,63.936Z" style="fill:none;fill-rule:nonzero;stroke:rgb(0,1,0);stroke-width:6.84px;"/>
        </g>
        <g transform="matrix(1.1404,0,0,1.13851,-3.06513,-21.8552)">
            <path d="M78.243,63.936C78.324,62.001 80.956,60.264 80.959,61.902C86.512,54.981 84.422,47.625 80.835,39.883C77.163,31.956 72.422,26.662 62.676,24.618C59.784,24.012 55.457,23.66 51.829,23.65C35.978,23.693 26.731,29.603 21.965,39.883C18.378,47.624 17.146,54.985 22.698,61.902C22.701,60.264 25.347,62.003 25.428,63.936C25.448,64.458 25.461,64.923 25.461,65.359L25.461,65.424C25.454,66.432 25.347,67.24 24.892,67.845C24.259,68.682 23.362,69.207 22.615,69.53L25.324,77.041C31.105,76.509 35.425,80.47 35.619,80.651C35.864,80.882 36.001,81.189 36.001,81.512L36.001,89.392C36.852,89.647 38.536,90.053 41.363,90.382L44.042,90.637C45.807,90.772 47.884,90.87 50.322,90.901L53.35,90.901C55.788,90.87 57.864,90.772 59.629,90.637L62.308,90.382C65.128,90.053 66.816,89.647 67.67,89.392L67.67,81.512C67.67,81.189 67.808,80.882 68.052,80.651C68.246,80.47 72.58,76.503 78.347,77.041L81.056,69.53C80.306,69.207 79.409,68.682 78.779,67.845C78.324,67.24 78.217,66.435 78.21,65.424L78.21,65.359C78.21,64.923 78.224,64.456 78.243,63.936Z" style="fill:rgb(0,1,0);fill-rule:nonzero;stroke:rgb(0,1,0);stroke-width:1.07px;"/>
        </g>
        <g transform="matrix(1.1404,0,0,1.13851,-3.06513,-21.8552)">
            <path d="M80.226,56.349C80.821,58.365 80.956,60.264 80.959,61.902C86.512,54.981 84.422,47.625 80.835,39.883C77.163,31.956 72.422,26.662 62.676,24.618C59.784,24.012 55.457,23.66 51.829,23.65C35.978,23.693 26.731,29.603 21.965,39.883C18.378,47.624 17.146,54.985 22.698,61.902C22.701,60.264 22.836,58.365 23.432,56.346C24.678,52.123 28.285,50.248 30.047,49.566L30.047,45.457C30.047,44.778 30.646,44.228 31.386,44.228C32.126,44.228 32.726,44.778 32.726,45.457L32.726,50.427C32.726,50.98 32.32,51.465 31.741,51.613C31.563,51.659 27.246,52.824 26.018,56.991C25.247,59.597 25.347,62.003 25.428,63.936C25.448,64.458 25.461,64.923 25.461,65.359L25.461,65.424C25.454,66.432 25.347,67.24 24.892,67.845C24.259,68.682 23.362,69.207 22.615,69.53L25.324,77.041C31.105,76.509 35.425,80.47 35.619,80.651C35.864,80.882 36.001,81.189 36.001,81.512L36.001,89.392C36.852,89.647 38.536,90.053 41.363,90.382L41.363,84.505C41.363,83.827 41.962,83.277 42.703,83.277C43.443,83.277 44.042,83.827 44.042,84.505L44.042,90.637C45.807,90.772 47.884,90.87 50.322,90.901L50.322,84.952C50.322,84.272 50.922,83.722 51.662,83.722C51.722,83.722 51.776,83.746 51.836,83.753C51.896,83.746 51.946,83.722 52.01,83.722C52.75,83.722 53.35,84.272 53.35,84.952L53.35,90.901C55.788,90.87 57.864,90.772 59.629,90.637L59.629,84.505C59.629,83.827 60.228,83.277 60.968,83.277C61.709,83.277 62.308,83.827 62.308,84.505L62.308,90.382C65.128,90.053 66.816,89.647 67.67,89.392L67.67,81.512C67.67,81.189 67.808,80.882 68.052,80.651C68.246,80.47 72.58,76.503 78.347,77.041L81.056,69.53C80.306,69.207 79.409,68.682 78.779,67.845C78.324,67.24 78.217,66.435 78.21,65.424L78.21,65.359C78.21,64.923 78.224,64.456 78.243,63.936C78.324,62.001 78.424,59.594 77.654,56.988C76.409,52.778 71.974,51.622 71.931,51.61C71.348,51.462 70.945,50.977 70.945,50.424L70.945,45.454C70.945,44.775 71.546,44.225 72.286,44.225C73.025,44.225 73.625,44.775 73.625,45.454L73.625,49.563C75.387,50.245 78.997,52.12 80.243,56.342L80.226,56.349ZM36.597,72.296L36.46,72.296C35.086,72.296 32.357,72.241 30.428,70.477C29.118,69.278 28.455,67.548 28.455,65.335C28.455,58.537 33.466,55.442 38.124,55.442C42.782,55.442 48.208,57.499 48.208,63.298C48.208,70.403 40.907,72.297 36.593,72.297L36.597,72.296ZM56.613,79.818C55.89,80.309 54.969,80.583 54.011,80.583C53.077,80.583 52.706,80.316 51.829,79.744C50.951,80.316 50.584,80.583 49.646,80.583C48.685,80.583 47.767,80.309 47.044,79.818C45.437,78.726 45.168,77.443 46.387,75.903C47.911,73.983 50.502,70.095 51.109,69.846C51.346,69.751 52.311,69.751 52.546,69.846C53.155,70.091 55.742,73.983 57.267,75.903C58.488,77.443 58.218,78.726 56.61,79.818L56.613,79.818ZM75.205,65.336C75.205,67.548 74.542,69.279 73.232,70.477C71.303,72.244 68.571,72.297 67.288,72.297L67.164,72.297C62.75,72.297 55.449,70.4 55.449,63.298C55.449,57.501 60.881,55.442 65.533,55.442C70.185,55.442 75.201,58.537 75.201,65.335L75.205,65.336ZM52.683,36.243C51.396,36.314 50.058,36.329 48.695,36.526C48.189,36.646 47.733,36.887 47.369,37.225C46.724,37.742 46.746,37.764 46.144,38.311C45.835,38.589 45.471,38.808 45.068,38.957C44.769,39.017 43.114,39.309 42.88,39.109C42.774,38.851 43.208,38.191 43.376,37.977C44.472,36.975 44.975,35.599 46.168,34.699C46.692,34.37 47.304,34.172 47.948,34.125C49.127,33.987 50.328,33.966 51.484,33.9C51.56,33.811 51.617,33.709 51.651,33.599C51.709,31.209 53.117,31.551 55.59,31.003C57.214,30.639 57.357,30.713 58.976,30.339C60.75,29.944 60.928,29.662 60.421,27.997C60.149,27.101 60.022,26.461 60.302,25.595C60.372,25.38 60.344,25.245 60.494,24.903C60.51,24.865 60.644,24.282 60.789,24.286C60.805,24.287 62.365,24.553 62.676,24.618C62.851,24.655 62.986,24.684 62.983,24.683C62.972,24.68 62.862,25.201 62.853,25.235C62.508,26.447 62.632,27.167 63.009,28.407C63.49,30.017 61.966,31.855 60.237,32.327C58.745,32.735 58.722,32.692 57.146,32.962C53.943,33.627 54.499,33.003 55.24,36.027C55.43,36.803 55.436,39.218 55.238,39.609C54.888,40.304 53.425,40.595 53.121,40.785C52.874,40.94 51.751,41.413 51.88,41.219C52.378,40.474 52.562,40.204 52.914,39.35C53.142,38.798 53.217,38.136 53.086,37.397C53.019,37.02 52.886,36.629 52.683,36.243Z" style="fill:rgb(247,233,199);fill-rule:nonzero;"/>
        </g>
    </g>
</svg>
