<svg xmlns="http://www.w3.org/2000/svg" width="100%" height="100%" viewBox="0 0 110 135" fill-rule="evenodd" stroke-linejoin="round" stroke-miterlimit="2" xmlns:v="https://vecta.io/nano"><path d="M108.257 16.895l-.644 96.217-96.406-1.087-1.519-94.271 98.57-.858z" fill="#e8e0d0"/><use href="#B" fill="#0e3821" stroke="#0e3821" stroke-width=".999"/><use href="#B" fill="#9d271e"/><use href="#B" fill="#fff" stroke="#fff" stroke-width=".999"/><path d="M34.607 11.835h73.795v57.627H34.607z" fill="#69bac9"/><path d="M108.409 63.527v48.435c0 4.948-4.349 8.956-9.719 8.956l-17.006-.139v-8.956l17.006.139V85.091H23.798c-8.049 0-12.579 6.018-12.579 13.435s6.53 13.436 14.579 13.436l11.731.069v8.956l-11.731-.069c-13.412 0-24.298-10.031-24.298-22.392V22.393c0-5.94 2.563-11.633 7.113-15.838C13.169 2.357 17.352 0 23.798 0h79.752c2.685 0 4.859 2.004 4.859 4.478v8.601l-32.481-.001c-6.828 0-21.404 20.035-21.404 25.224S69.1 63.527 75.928 63.527h32.481z" fill="#0b8ca9"/><path d="M1.5 98.526v-1.133c0-5.94 2.563-11.633 7.113-15.838C13.169 77.357 17.352 75 23.798 75h79.752c2.685 0 4.859 2.004 4.859 4.478v32.484c0 4.948-4.349 8.956-9.719 8.956H84.112v-8.956H98.69V85.091H23.798c-8.049 0-12.579 6.018-12.579 13.435s6.53 13.436 14.579 13.436h58.314v8.956H25.798c-13.412 0-24.298-10.031-24.298-22.392z" fill="#69bac9"/><path d="M38.231 100.013L38 131.97l19.554-11.722 19.431 11.605c-.069-2.929.122-31.84.122-31.84H38.231z" fill="#87ff53" stroke="#0e3821" stroke-width="6.13"/><path d="M20.797 8.957v67.177c-5.466 0-7.514 1.668-11.578 4.484V22.392c0-3.566 1.537-6.98 4.27-9.499s3.439-3.936 7.308-3.936z" fill="#69bac9"/><path d="M109.728 23.195v30.213a5.37 5.37 0 0 1-3.189 1.055H77.29c-3.128 0-12.268-13.383-12.268-16.161s9.14-16.161 12.268-16.161h29.249c1.183 0 2.281.389 3.189 1.054z" fill="#87ffaf" stroke="#0e3821" stroke-width="5.33"/><path d="M83.564 45.88c3.796 0 6.869-3.39 6.869-7.578s-3.073-7.577-6.869-7.577-6.87 3.39-6.87 7.577 3.073 7.578 6.87 7.578z" fill="#0e3821"/><defs ><path id="B" d="M90.93 102.27H32.026c-4.363 0-7.084-1.272-8.439-4.107.129-3.462 2.172-4.487 13.501-4.487h53.733l.109 8.594z"/></defs></svg>