<?xml version="1.0" encoding="UTF-8" standalone="no"?>
<!DOCTYPE svg PUBLIC "-//W3C//DTD SVG 1.1//EN" "http://www.w3.org/Graphics/SVG/1.1/DTD/svg11.dtd">
<svg width="100%" height="100%" viewBox="0 0 100 125" version="1.1" xmlns="http://www.w3.org/2000/svg" xmlns:xlink="http://www.w3.org/1999/xlink" xml:space="preserve" xmlns:serif="http://www.serif.com/" style="fill-rule:evenodd;clip-rule:evenodd;stroke-linejoin:round;stroke-miterlimit:2;">
    <g transform="matrix(2.68824,0,0,2.68824,-84.533,-72.9402)">
        <path d="M57.64,39.194L59.8,35.504C60.07,35.034 59.91,34.424 59.44,34.144C58.96,33.864 58.35,34.024 58.07,34.494L55.86,38.274C54.06,37.504 52.08,37.064 50,37.064C47.91,37.064 45.93,37.504 44.14,38.274L41.92,34.494C41.64,34.024 41.03,33.864 40.55,34.144C40.08,34.424 39.92,35.034 40.2,35.504L42.36,39.194C38.3,41.654 35.59,45.994 35.59,50.934L35.59,60.994C35.59,62.474 36.37,63.804 37.69,64.544C39.06,65.314 40.74,65.284 42.08,64.474C42.81,64.024 43.77,64.024 44.5,64.474C46.17,65.484 48.08,65.994 50,65.994C51.91,65.994 53.82,65.484 55.49,64.474C56.22,64.024 57.18,64.024 57.92,64.474C59.25,65.284 60.93,65.314 62.3,64.544C63.62,63.804 64.41,62.474 64.41,60.994L64.41,50.934C64.41,45.994 61.69,41.654 57.64,39.194ZM52.37,55.934C53.05,55.334 53.48,54.464 53.48,53.504C53.48,51.664 51.92,50.164 50,50.164C48.07,50.164 46.51,51.664 46.51,53.504C46.51,54.464 46.94,55.324 47.62,55.934C45.53,55.064 44.07,53.074 44.07,50.764C44.07,47.654 46.73,45.114 50,45.114C53.27,45.114 55.93,47.654 55.93,50.764C55.93,53.074 54.46,55.064 52.37,55.934Z" style="fill:none;fill-rule:nonzero;stroke:rgb(0,117,0);stroke-width:2.99px;"/>
        <path d="M57.64,39.194L59.8,35.504C60.07,35.034 59.91,34.424 59.44,34.144C58.96,33.864 58.35,34.024 58.07,34.494L55.86,38.274C54.06,37.504 52.08,37.064 50,37.064C47.91,37.064 45.93,37.504 44.14,38.274L41.92,34.494C41.64,34.024 41.03,33.864 40.55,34.144C40.08,34.424 39.92,35.034 40.2,35.504L42.36,39.194C38.3,41.654 35.59,45.994 35.59,50.934L35.59,60.994C35.59,62.474 36.37,63.804 37.69,64.544C39.06,65.314 40.74,65.284 42.08,64.474C42.81,64.024 43.77,64.024 44.5,64.474C46.17,65.484 48.08,65.994 50,65.994C51.91,65.994 53.82,65.484 55.49,64.474C56.22,64.024 57.18,64.024 57.92,64.474C59.25,65.284 60.93,65.314 62.3,64.544C63.62,63.804 64.41,62.474 64.41,60.994L64.41,50.934C64.41,45.994 61.69,41.654 57.64,39.194ZM52.37,55.934C53.05,55.334 53.48,54.464 53.48,53.504C53.48,51.664 51.92,50.164 50,50.164C48.07,50.164 46.51,51.664 46.51,53.504C46.51,54.464 46.94,55.324 47.62,55.934C45.53,55.064 44.07,53.074 44.07,50.764C44.07,47.654 46.73,45.114 50,45.114C53.27,45.114 55.93,47.654 55.93,50.764C55.93,53.074 54.46,55.064 52.37,55.934Z" style="fill:rgb(156,218,124);fill-rule:nonzero;"/>
    </g>
    <g transform="matrix(0.869994,3.42161e-34,0,0.826033,5.83999,8.67185)">
        <ellipse cx="50.441" cy="66.381" rx="19.44" ry="20.146" style="fill:rgb(235,235,235);stroke:rgb(0,1,0);stroke-width:3.35px;"/>
    </g>
    <g transform="matrix(0.806326,0,0,0.806326,10.9194,10.5386)">
        <circle cx="48.459" cy="74.193" r="11.938" style="fill:rgb(0,0,16);"/>
    </g>
</svg>
