<svg xmlns="http://www.w3.org/2000/svg" width="100%" height="100%" viewBox="0 0 14 16" fill-rule="evenodd" stroke-linejoin="round" stroke-miterlimit="2" xmlns:v="https://vecta.io/nano"><g fill-rule="nonzero"><path d="M2.851.606l.117 13.383v1.036l-2.102.046L.901.662l1.95-.056zm7.243.33v1.152L.898 2.1V.947l9.196-.011zm3.143 13.052v1.134H9.012v-1.134h4.225zm-.252-11.992l.032 6.012-2.019-.011-.251-6.001h2.238zm.198 8.007l.02 5.205H12l-.019-5.205h1.202z" fill="#ebebeb"/><path d="M0 0h10v1H1v14h1v1H0V0zm10 4h4v3h-1V5h-3V4zm4 12v-6h-1v5H8v1h6z" fill="#000100"/><path d="M12 14v-3h-1v2H9v1h3z" fill="#bcbcc3"/><path d="M10 0h1v1h1v1h1v1h1v1h-1V3h-1V2h-1v2h-1V0z" fill="#878787"/><path d="M2 2h8v3h2v2H8v5H6v1H4v1H2V2z" fill="#bcbcc3"/><path d="M5 3h2v3H4V4h1v1h1V4H5V3z" fill="#00891e"/></g><path d="M5 4h1v1H5z" fill="#00f248"/><g fill-rule="nonzero"><path d="M7 4h1v2H7v1H5V6h2V4z" fill="#000100"/><path d="M8 7h3v2h-1V8H9v1h1v1H8V7z" fill="#0064fb"/></g><path d="M9 8h1v1H9z" fill="#00fbfe"/><path d="M10 9h1v1h-1z" fill="#003293"/><path d="M11 7h1v2h-1zm-3 3h2v1H8z" fill="#000100"/><g fill-rule="nonzero"><path d="M3 8h1v1h1v1h1v1h1v1H6v-1H5v-1H4V9H3V8z" fill="#ff3900"/><path d="M3 9h1v1h1v1h1v1H3V9z" fill="#f73ae1"/></g><path d="M3 12h3v1H3z" fill="#000100"/></svg>