<svg xmlns="http://www.w3.org/2000/svg" width="100%" height="100%" viewBox="0 0 110 135" fill-rule="evenodd" stroke-linecap="round" stroke-linejoin="round" stroke-miterlimit="1.5" xmlns:v="https://vecta.io/nano"><path d="M19.989 19.49h53.41v64.885h-53.41z" fill="#d3c587" stroke="#201240" stroke-width="4.96" transform="matrix(-.586972 -.406683 .637215 -.919701 44.7607 138.266)"/><g fill-rule="nonzero"><path d="M41.124 126.934c-4.687 5.282-35.025-13.597-40.037-27.149l22.877-32.751c1.364-1.968 5.868-3.528 10.495-.215 3.353 2.401 3.792 6.394 2.429 8.362l-2.828 4.082c-.402.793-2.352 5.024.004 6.571 2.883 1.891 4.576-.387 6.527-1.277l2.909-3.058c1.363-1.968 6.468-1.462 8.343-.163s3.445 4.322 2.082 6.289l5.077-5.067c2.048-2.906 12.576 1.696 5.294 11.803l-23.172 32.573zM64.741 8.196c4.686-5.283 35.025 13.597 40.037 27.148L79.989 70.855c-1.363 1.967-5.868 3.528-10.495.214-3.353-2.401-3.792-6.394-2.429-8.361l4.74-6.841c.402-.794.542-4.161-1.815-5.708-2.882-1.891-5.294-.585-5.768-.08L53.095 65.964c-1.363 1.968-5.275 1.173-7.15-.126s-4.117-5.375-2.753-7.342l12.361-18.151c-2.048 2.906-12.576-1.696-5.294-11.803L64.741 8.196z" fill="#201240"/><path d="M39.531 122.819c1.422-3.524-19.562-23.9-33.084-22.949l19.715-28.455c1.217-1.757 3.587-2.247 5.261-1.088s2.048 3.552.831 5.309l-4.009 5.786c-2.57 3.709-1.791 8.696 1.74 11.142s8.475 1.424 11.044-2.284l2.88-3.332c1.217-1.756 2.862-2.779 4.983-1.883 2.638 1.115 1.679 4.648.846 5.853-4.666 6.742.975 5.39 5.817-1.569 2.953-4.243 7.766-.742 5.225 2.917l-21.249 30.553zM66.334 12.311c-1.422 3.523 19.562 23.9 33.084 22.949L77.791 66.474c-1.217 1.756-3.587 2.247-5.261 1.088s-2.048-3.552-.831-5.309l5.921-8.546c2.57-3.708 1.791-8.695-1.74-11.142s-8.475-1.424-11.044 2.285L53.639 61.01c-1.217 1.757-3.588 2.247-5.262 1.087s-2.047-3.551-.83-5.307L62.19 35.655c4.665-6.742 1.652-9.06-3.19-2.1-2.953 4.242-7.766.742-5.225-2.918l12.559-18.326z" fill="#f8e499"/><path d="M3.309 121.547c-.458-.425-.52-1.025-.352-1.414.125-.789.461-1.562.586-2.351.975-3.612 1.836-7.334 4.559-10.043 1.977-1.964 4.885-2.877 8.014-2.683 3.545.222 7.146 1.937 10.012 4.597l.345.321c4.373 4.245 5.695 9.991 3.5 14.816-2.98 6.271-8.134 6.547-12.64 7.057-3.387.286-6.478.493-9.149 2.709-.282.281-.793.35-1.324.216s-.989-.557-1.147-1.064c-2.476-5.916.468-9.508 3.163-11.525-1.458-.09-2.917-.18-4.243.036-.431-.02-.963-.153-1.324-.672zm99.247-107.964c.458.425.52 1.025.352 1.414-.125.788-.461 1.562-.586 2.351-.975 3.612-1.836 7.334-4.559 10.042-1.977 1.965-4.885 2.878-8.014 2.683-3.545-.221-7.146-1.936-10.012-4.597l-.345-.32c-4.373-4.245-5.695-9.992-3.5-14.817 2.98-6.27 8.134-6.546 12.639-7.057 3.388-.286 6.479-.493 9.15-2.709.282-.28.793-.35 1.324-.215s.989.557 1.147 1.063c2.476 5.917-.468 9.508-3.163 11.525 1.458.09 2.917.181 4.242-.036.432.02.964.153 1.325.673z" fill="#ff2000" stroke="#201240" stroke-width="1.68" stroke-miterlimit="2"/><path d="M22.227 111.7c-1.277-.791-2.736-1.087-4.004-.814a3.01 3.01 0 0 0-2.227 2.866c.056 1.164.235 2.346.53 3.528.505 1.645.613 3.295.313 4.816-.163.497-.407.954-.724 1.356 2.973.04 5.65-.894 7.594-2.655.814-.786 2.969-2.875 2.134-5.319-.239-.628-.612-1.227-1.093-1.755-.55-.54-1.133-1.048-1.746-1.521l-.777-.502zm61.41-88.27c1.278.79 2.737 1.086 4.005.814a3.01 3.01 0 0 0 2.227-2.867 18.21 18.21 0 0 0-.53-3.528c-.505-1.645-.613-3.295-.313-4.815a4.42 4.42 0 0 1 .723-1.357c-2.972-.04-5.649.895-7.593 2.656-.814.786-2.969 2.875-2.134 5.319a5.56 5.56 0 0 0 1.093 1.754c.55.54 1.133 1.048 1.746 1.521.251.181.509.348.776.503z" fill="#f7ee4f"/></g></svg>