<?xml version="1.0" encoding="UTF-8" standalone="no"?>
<!DOCTYPE svg PUBLIC "-//W3C//DTD SVG 1.1//EN" "http://www.w3.org/Graphics/SVG/1.1/DTD/svg11.dtd">
<svg width="100%" height="100%" viewBox="0 0 110 135" version="1.1" xmlns="http://www.w3.org/2000/svg" xmlns:xlink="http://www.w3.org/1999/xlink" xml:space="preserve" xmlns:serif="http://www.serif.com/" style="fill-rule:evenodd;clip-rule:evenodd;stroke-linecap:round;stroke-linejoin:round;stroke-miterlimit:1.5;">
    <g transform="matrix(0.961798,0,0,0.961798,5.12265,2.53634)">
        <path d="M66.716,86.601C67.101,88.618 66.556,91.224 64.296,94.361L41.124,126.934C36.437,132.216 6.099,113.337 1.087,99.785L23.964,67.034C24.663,66.026 26.187,65.124 28.13,64.931L47.868,36.442C47.43,34.407 47.946,31.752 50.259,28.542L64.741,8.196C69.427,2.913 107.731,28.121 103.745,36.808L79.989,70.855C79.336,71.797 77.963,72.646 76.201,72.911L66.716,86.601Z" style="fill:rgb(224,182,15);stroke:rgb(32,18,64);stroke-width:5.74px;"/>
    </g>
    <g transform="matrix(0.889279,0,0,0.889279,8.80268,7.5876)">
        <path d="M38.429,129.213C37.85,115.115 22.275,94.768 0.598,102.519L23.24,69.73C24.645,67.703 27.465,66.957 29.397,68.295C31.329,69.634 32.026,72.162 30.621,74.189L26.882,79.948C23.916,84.229 24.815,89.986 28.891,92.809C32.968,95.634 38.674,94.453 41.639,90.172L44.964,86.327C46.369,84.3 48.268,83.118 50.715,84.153C53.76,85.44 52.654,89.518 51.692,90.909C46.307,98.692 52.817,97.131 58.407,89.098C61.815,84.2 67.371,88.241 64.439,92.465L38.429,129.213ZM65.996,9.133C64.157,13.335 87.207,37.802 102.274,37.555L79.555,70.107C78.075,72.167 75.41,72.606 73.64,71.078C71.869,69.551 71.632,66.607 73.112,64.546L80.313,54.521C82.322,48.598 79.609,44.651 76.652,42.649C72.566,39.883 63.918,45.501 60.793,49.852L50.175,64.811C48.695,66.871 46.029,67.309 44.259,65.781C42.49,64.255 42.252,61.311 43.732,59.25L58.542,38.456C64.216,30.546 61.047,27.515 55.16,35.678C51.57,40.655 46.493,36.059 49.582,31.766L65.996,9.133Z" style="fill:rgb(248,228,153);fill-rule:nonzero;"/>
    </g>
    <g transform="matrix(0.961798,0,0,0.961798,5.12265,2.53634)">
        <path d="M0.93,121.032C0.472,120.608 0.411,120.007 0.578,119.618C0.703,118.83 1.039,118.056 1.164,117.268C2.14,113.656 3,109.934 5.723,107.225C7.7,105.261 10.609,104.347 13.737,104.542C17.282,104.764 20.884,106.478 23.75,109.139L24.094,109.459C28.467,113.704 29.789,119.451 27.594,124.276C24.614,130.546 19.461,130.822 14.955,131.333C11.567,131.619 8.476,131.826 5.806,134.042C5.524,134.323 5.013,134.392 4.481,134.257C3.949,134.124 3.492,133.7 3.335,133.194C0.859,127.277 3.803,123.686 6.497,121.669C5.039,121.579 3.58,121.488 2.255,121.705C1.824,121.685 1.291,121.552 0.93,121.032ZM104.496,15.011C104.987,15.467 105.053,16.111 104.873,16.529C104.739,17.375 104.378,18.205 104.244,19.052C103.197,22.929 102.274,26.924 99.351,29.831C97.229,31.939 94.107,32.92 90.749,32.711C86.944,32.473 83.079,30.632 80.002,27.777L79.633,27.433C74.939,22.876 73.52,16.708 75.876,11.529C79.075,4.8 84.606,4.503 89.442,3.955C93.078,3.648 96.396,3.426 99.263,1.047C99.565,0.746 100.114,0.672 100.684,0.816C101.256,0.959 101.746,1.414 101.915,1.958C104.572,8.308 101.412,12.163 98.52,14.328C100.085,14.424 101.651,14.522 103.074,14.289C103.536,14.31 104.108,14.454 104.496,15.011Z" style="fill:none;fill-rule:nonzero;stroke:rgb(32,18,64);stroke-width:6.57px;stroke-linecap:butt;stroke-miterlimit:2;"/>
        <path d="M0.93,121.032C0.472,120.608 0.411,120.007 0.578,119.618C0.703,118.83 1.039,118.056 1.164,117.268C2.14,113.656 3,109.934 5.723,107.225C7.7,105.261 10.609,104.347 13.737,104.542C17.282,104.764 20.884,106.478 23.75,109.139L24.094,109.459C28.467,113.704 29.789,119.451 27.594,124.276C24.614,130.546 19.461,130.822 14.955,131.333C11.567,131.619 8.476,131.826 5.806,134.042C5.524,134.323 5.013,134.392 4.481,134.257C3.949,134.124 3.492,133.7 3.335,133.194C0.859,127.277 3.803,123.686 6.497,121.669C5.039,121.579 3.58,121.488 2.255,121.705C1.824,121.685 1.291,121.552 0.93,121.032ZM104.496,15.011C104.987,15.467 105.053,16.111 104.873,16.529C104.739,17.375 104.378,18.205 104.244,19.052C103.197,22.929 102.274,26.924 99.351,29.831C97.229,31.939 94.107,32.92 90.749,32.711C86.944,32.473 83.079,30.632 80.002,27.777L79.633,27.433C74.939,22.876 73.52,16.708 75.876,11.529C79.075,4.8 84.606,4.503 89.442,3.955C93.078,3.648 96.396,3.426 99.263,1.047C99.565,0.746 100.114,0.672 100.684,0.816C101.256,0.959 101.746,1.414 101.915,1.958C104.572,8.308 101.412,12.163 98.52,14.328C100.085,14.424 101.651,14.522 103.074,14.289C103.536,14.31 104.108,14.454 104.496,15.011Z" style="fill:rgb(255,32,0);fill-rule:nonzero;"/>
    </g>
    <g transform="matrix(0.961798,0,0,0.961798,5.12265,2.53634)">
        <path d="M19.849,111.186C18.571,110.395 17.113,110.099 15.845,110.372C14.52,110.755 13.67,111.849 13.617,113.238C13.674,114.402 13.852,115.584 14.148,116.766C14.652,118.411 14.76,120.061 14.461,121.581C14.297,122.079 14.054,122.535 13.737,122.938C16.71,122.978 19.386,122.043 21.331,120.283C22.144,119.497 24.3,117.408 23.465,114.963C23.226,114.336 22.853,113.736 22.372,113.209C21.821,112.669 21.238,112.161 20.625,111.688C20.374,111.508 20.116,111.34 19.849,111.186ZM84.189,25.58C85.561,26.429 87.126,26.746 88.487,26.454C89.909,26.042 90.822,24.868 90.878,23.377C90.818,22.128 90.626,20.859 90.309,19.59C89.767,17.825 89.651,16.053 89.973,14.422C90.148,13.888 90.409,13.398 90.75,12.966C87.559,12.923 84.686,13.926 82.599,15.816C81.726,16.66 79.412,18.902 80.308,21.525C80.565,22.198 80.965,22.842 81.481,23.408C82.072,23.988 82.698,24.533 83.356,25.041C83.626,25.234 83.903,25.414 84.189,25.58Z" style="fill:rgb(247,238,79);fill-rule:nonzero;"/>
    </g>
</svg>
