<svg xmlns="http://www.w3.org/2000/svg" width="100%" height="100%" viewBox="0 0 24 30" fill-rule="evenodd" stroke-linejoin="round" stroke-miterlimit="2" xmlns:v="https://vecta.io/nano"><path d="M2.842 8.245v1.659H1.299V8.245h1.543zm19.93 0v1.659h-1.687V8.245h1.687z" fill="#a4d2ec"/><g fill-rule="nonzero"><path d="M22.985 12.031l-.99-1.14h.426c.737 0 1.336-.599 1.336-1.336v-.438c0-.737-.599-1.336-1.336-1.336h-.38a.57.57 0 0 0-.576.576.57.57 0 0 0 .576.576h.38c.104 0 .184.081.184.184v.438c0 .104-.081.184-.184.184h-.806l-.864-2.821C20.186 5.099 18.54 3.89 16.64 3.89H7.312c-1.9 0-3.547 1.221-4.111 3.029L2.338 9.74h-.806c-.104 0-.184-.081-.184-.184v-.438c0-.104.081-.184.184-.184h.38a.57.57 0 0 0 .576-.576.57.57 0 0 0-.576-.576h-.38c-.737 0-1.336.599-1.336 1.336v.438c0 .737.599 1.336 1.336 1.336h.426l-.99 1.14C.345 12.745 0 13.666 0 14.622v3.305c0 .702.392 1.313.979 1.635v1.301c0 .956.772 1.727 1.727 1.727h1.981c.956 0 1.727-.772 1.727-1.727v-1.059h11.124v1.059c0 .956.772 1.727 1.727 1.727h1.981c.956 0 1.727-.772 1.727-1.727v-1.301c.576-.322.979-.921.979-1.635v-3.305c0-.956-.345-1.877-.967-2.591z" fill="#000010"/><path d="M1.842 12.791l1.105-1.267a.46.46 0 0 0 .115-.207l.23-.748.035-.104.99-3.201c.415-1.324 1.624-2.222 3.005-2.222h9.316c1.393 0 2.602.887 3.005 2.222l.99 3.201a.34.34 0 0 0 .035.104l.23.748a.46.46 0 0 0 .115.207l1.105 1.267c.438.507.621 1.115.621 1.794-.109-.5-.477-.419-1.15-.424a.57.57 0 1 0 0-1.152h-1.405c-1.025 0-1.854.829-1.854 1.854v.737c0 1.025.829 1.854 1.854 1.854h2.625v.484a.72.72 0 0 1-.714.714h-5.919v-1.969a.57.57 0 0 0-.576-.576H8.372a.57.57 0 0 0-.576.576v1.969H1.877a.72.72 0 0 1-.714-.714v-.484h2.625c1.025 0 1.854-.829 1.854-1.854v-.737c0-1.025-.829-1.854-1.854-1.854H2.384a.57.57 0 1 0 0 1.152c-.763-.078-1.118.074-1.175.394.041-.919.196-1.246.645-1.764h-.012z" fill="#fff" fill-opacity=".83"/></g><path d="M4.336 14.688v1.071c0 .296-.24.535-.535.535H1.707c-.296 0-.535-.24-.535-.535v-.869c-.017-.317.063-.783.164-1.268l.476.005.003.024c.006.219.229.476.511.476l1.475.026c.296 0 .535.24.535.535zm15.258 0v1.071c0 .296.24.535.535.535h2.093c.296 0 .535-.24.535-.535v-.869c.017-.317-.063-.783-.164-1.268-.088.003-.373-.005-.476.005 0 0-.002.013-.002.024-.007.219-.229.476-.512.476l-1.475.026c-.296 0-.535.24-.535.535z" fill="#5f2121"/><path d="M17.65 6.323l1.371 4.126-13.991-.178 1.467-4.008 11.153.061z" fill="#a4d2ec"/><path d="M8.936 17.248h6.08v1.393h-6.08z" fill="#57585a"/><g fill-rule="nonzero"><path d="M5.263 20.852a.57.57 0 0 1-.576.576H2.706a.57.57 0 0 1-.576-.576v-1.059h3.132v1.059zm16.559 0a.57.57 0 0 1-.576.576h-1.981a.57.57 0 0 1-.576-.576v-1.059h3.132v1.059z" fill="#222"/><path d="M5.055 10.88h13.841a.57.57 0 0 0 .576-.576.57.57 0 0 0-.576-.576H5.055a.57.57 0 0 0-.576.576.57.57 0 0 0 .576.576zm11.63 2.119h-9.42a.57.57 0 1 0 0 1.152h9.42a.57.57 0 1 0 0-1.152zm.848-7.046H8.777c-.286 0-.516.23-.516.516s.23.517.516.517h8.756c.287 0 .517-.231.517-.517s-.23-.516-.517-.516zm-10.645.01h-.423c-.283 0-.516.23-.516.516s.233.517.516.517h.423c.283 0 .516-.23.516-.517s-.233-.516-.516-.516z" fill="#000100"/></g></svg>