<svg xmlns="http://www.w3.org/2000/svg" width="100%" height="100%" viewBox="0 0 170 213" fill-rule="nonzero" stroke-linejoin="round" stroke-miterlimit="2" xmlns:v="https://vecta.io/nano"><path d="M159.648 25.58H82.23c-5.585 0-10.152 4.472-10.289 10.024l-31.748 6.422c-5.563 1.123-9.176 6.57-8.053 12.133l.477 2.331L6.73 67.669A10.3 10.3 0 0 0 1.357 81.19l45.035 104.365a10.25 10.25 0 0 0 5.648 5.489c1.229.488 2.522.732 3.804.732a10.36 10.36 0 0 0 4.08-.848l69.386-29.957 5.616-1.133h24.722c5.679 0 10.3-4.62 10.3-10.29V35.88c0-5.68-4.621-10.3-10.3-10.3zM64.989 163.176L42.588 52.347l29.342-5.934v103.135a10.31 10.31 0 0 0 9.664 10.268l-16.605 3.36z" fill="#fff"/><path d="M120.939 133.196L93.137 94.777l27.802-38.419 27.801 38.419-27.801 38.419z" fill="#ff0765"/></svg>