<?xml version="1.0" encoding="UTF-8" standalone="no"?>
<!DOCTYPE svg PUBLIC "-//W3C//DTD SVG 1.1//EN" "http://www.w3.org/Graphics/SVG/1.1/DTD/svg11.dtd">
<svg width="100%" height="100%" viewBox="0 0 100 125" version="1.1" xmlns="http://www.w3.org/2000/svg" xmlns:xlink="http://www.w3.org/1999/xlink" xml:space="preserve" xmlns:serif="http://www.serif.com/" style="fill-rule:evenodd;clip-rule:evenodd;stroke-linejoin:round;stroke-miterlimit:2;">
    <g transform="matrix(1.13656,0,0,1.15272,-6.82472,0.940325)">
        <path d="M42.508,50.008C42.508,45.873 45.873,42.508 50.008,42.508C54.144,42.508 57.508,45.873 57.508,50.008C57.508,54.144 54.144,57.508 50.008,57.508C45.873,57.508 42.508,54.144 42.508,50.008ZM82.648,59.658L92.37,49.935L82.648,40.213L79.113,43.748L82.8,47.435L62.241,47.435C61.905,45.834 61.262,44.344 60.375,43.031L74.941,28.465L74.941,33.679L79.941,33.679L79.941,19.929L66.191,19.929L66.191,24.929L71.406,24.929L56.808,39.528C55.498,38.675 54.021,38.06 52.435,37.747L52.435,17.071L56.123,20.758L59.658,17.223L49.935,7.5L40.213,17.223L43.748,20.758L47.435,17.071L47.435,37.776C45.87,38.105 44.411,38.728 43.12,39.585L28.465,24.929L33.679,24.929L33.679,19.929L19.929,19.929L19.929,33.679L24.929,33.679L24.929,28.465L39.585,43.12C38.728,44.411 38.105,45.87 37.776,47.435L17.071,47.435L20.758,43.748L17.223,40.213L7.5,49.935L17.223,59.658L20.758,56.123L17.071,52.435L37.747,52.435C38.06,54.021 38.675,55.498 39.528,56.808L24.929,71.406L24.929,66.192L19.929,66.192L19.929,79.942L33.679,79.942L33.679,74.942L28.465,74.942L43.031,60.375C44.344,61.261 45.834,61.904 47.435,62.241L47.435,82.8L43.748,79.112L40.213,82.648L49.935,92.371L59.658,82.648L56.123,79.112L52.435,82.8L52.435,62.27C54.056,61.95 55.565,61.315 56.896,60.432L71.406,74.942L66.191,74.942L66.191,79.942L79.941,79.942L79.941,66.192L74.941,66.192L74.941,71.406L60.432,56.897C61.315,55.565 61.95,54.056 62.27,52.435L82.8,52.435L79.113,56.123L82.648,59.658Z" style="fill:none;fill-rule:nonzero;stroke:rgb(0,1,0);stroke-width:2.91px;"/>
        <path d="M42.508,50.008C42.508,45.873 45.873,42.508 50.008,42.508C54.144,42.508 57.508,45.873 57.508,50.008C57.508,54.144 54.144,57.508 50.008,57.508C45.873,57.508 42.508,54.144 42.508,50.008ZM82.648,59.658L92.37,49.935L82.648,40.213L79.113,43.748L82.8,47.435L62.241,47.435C61.905,45.834 61.262,44.344 60.375,43.031L74.941,28.465L74.941,33.679L79.941,33.679L79.941,19.929L66.191,19.929L66.191,24.929L71.406,24.929L56.808,39.528C55.498,38.675 54.021,38.06 52.435,37.747L52.435,17.071L56.123,20.758L59.658,17.223L49.935,7.5L40.213,17.223L43.748,20.758L47.435,17.071L47.435,37.776C45.87,38.105 44.411,38.728 43.12,39.585L28.465,24.929L33.679,24.929L33.679,19.929L19.929,19.929L19.929,33.679L24.929,33.679L24.929,28.465L39.585,43.12C38.728,44.411 38.105,45.87 37.776,47.435L17.071,47.435L20.758,43.748L17.223,40.213L7.5,49.935L17.223,59.658L20.758,56.123L17.071,52.435L37.747,52.435C38.06,54.021 38.675,55.498 39.528,56.808L24.929,71.406L24.929,66.192L19.929,66.192L19.929,79.942L33.679,79.942L33.679,74.942L28.465,74.942L43.031,60.375C44.344,61.261 45.834,61.904 47.435,62.241L47.435,82.8L43.748,79.112L40.213,82.648L49.935,92.371L59.658,82.648L56.123,79.112L52.435,82.8L52.435,62.27C54.056,61.95 55.565,61.315 56.896,60.432L71.406,74.942L66.191,74.942L66.191,79.942L79.941,79.942L79.941,66.192L74.941,66.192L74.941,71.406L60.432,56.897C61.315,55.565 61.95,54.056 62.27,52.435L82.8,52.435L79.113,56.123L82.648,59.658Z" style="fill-rule:nonzero;"/>
    </g>
</svg>
