<svg xmlns="http://www.w3.org/2000/svg" width="100%" height="100%" viewBox="0 0 110 135" fill-rule="nonzero" stroke-linejoin="round" stroke-miterlimit="2" xmlns:v="https://vecta.io/nano"><path d="M66.478 90.681h-34.05c-6.216 0-11.271-5.61-11.271-12.556V38.132c0-6.94 5.055-12.583 11.271-12.583h64.951c6.191 0 11.246 5.643 11.246 12.583v39.993c0 6.94-5.055 12.556-11.246 12.556h-7.723l-.214.327.915 8.523c.265 3.378 1.097 7.445-1.23 7.368-.739 0-2.567-1.153-3.202-1.652L68.25 91.335c-.531-.416-1.136-.648-1.771-.648l-.001-.006zM44.979 81.23h34.05c6.216 0 12.924-7.437 12.924-14.383l.257-41.298h-30.4c-35.138-.312-34.943 63.5-34.943 63.5 1.634 1.159 4.047 1.625 5.561 1.632.319.002-.275.19 0 0 2.325-1.609 12.222-9.445 12.55-9.445l.001-.006z" fill="#87ff3f"/><path d="M42.479 77.484h34.05c6.216 0 11.271-5.61 11.271-12.556V24.935c0-6.94-5.055-12.583-11.271-12.583H11.578C5.387 12.352.332 17.995.332 24.935v39.993c0 6.94 5.055 12.556 11.246 12.556h7.723l.214.327-2.198 9.864c-.615 2.503-1.683 7.45.644 7.373a3.41 3.41 0 0 0 2.118-.737l20.628-16.173c.531-.416 1.136-.648 1.771-.648l.001-.006z" fill="#877ff3"/></svg>