<?xml version="1.0" encoding="UTF-8" standalone="no"?>
<!DOCTYPE svg PUBLIC "-//W3C//DTD SVG 1.1//EN" "http://www.w3.org/Graphics/SVG/1.1/DTD/svg11.dtd">
<svg width="100%" height="100%" viewBox="0 0 48 60" version="1.1" xmlns="http://www.w3.org/2000/svg" xmlns:xlink="http://www.w3.org/1999/xlink" xml:space="preserve" xmlns:serif="http://www.serif.com/" style="fill-rule:evenodd;clip-rule:evenodd;stroke-linejoin:round;stroke-miterlimit:2;">
    <g transform="matrix(1.3722,0,0,1.48046,-9.05594,-0.203785)">
        <g transform="matrix(0.799782,0,0,0.799782,5.00002,0.600665)">
            <path d="M44.263,8.001L41.261,8.001L41.261,6.751C41.261,6.065 40.697,5.501 40.011,5.501L37.51,5.501L37.51,13.003L40.011,13.003C40.697,13.003 41.261,12.439 41.261,11.752L41.261,10.502L44.263,10.502C44.949,10.502 45.513,9.938 45.513,9.252C45.513,8.565 44.949,8.001 44.263,8.001ZM44.263,28.007L41.261,28.007L41.261,26.756C41.261,26.07 40.697,25.506 40.011,25.506L37.51,25.506L37.51,33.008L40.011,33.008C40.697,33.008 41.261,32.444 41.261,31.758L41.261,30.507L44.263,30.507C44.949,30.507 45.513,29.944 45.513,29.257C45.513,28.571 44.949,28.007 44.263,28.007ZM7.502,35.509C6.816,35.509 6.252,36.073 6.252,36.759L6.252,38.01L3.25,38.01C2.564,38.01 2,38.573 2,39.26C2,39.946 2.564,40.51 3.25,40.51L6.252,40.51L6.252,41.761C6.252,42.447 6.816,43.011 7.502,43.011L10.003,43.011L10.003,35.509L7.502,35.509ZM7.502,15.503C6.816,15.503 6.252,16.067 6.252,16.754L6.252,18.004L3.25,18.004C2.564,18.004 2,18.568 2,19.254C2,19.941 2.564,20.505 3.25,20.505L6.252,20.505L6.252,21.755C6.252,22.442 6.816,23.005 7.502,23.005L10.003,23.005L10.003,15.503L7.502,15.503ZM7.502,5.501C6.816,5.501 6.252,6.065 6.252,6.751L6.252,8.001L3.25,8.001C2.564,8.001 2,8.565 2,9.252C2,9.938 2.564,10.502 3.25,10.502L6.252,10.502L6.252,11.752C6.252,12.439 6.816,13.003 7.502,13.003L10.003,13.003L10.003,5.501L7.502,5.501ZM7.502,25.506C6.816,25.506 6.252,26.07 6.252,26.756L6.252,28.007L3.25,28.007C2.564,28.007 2,28.571 2,29.257C2,29.944 2.564,30.507 3.25,30.507L6.252,30.507L6.252,31.758C6.252,32.444 6.816,33.008 7.502,33.008L10.003,33.008L10.003,25.506L7.502,25.506ZM44.263,38.01L41.261,38.01L41.261,36.759C41.261,36.073 40.697,35.509 40.011,35.509L37.51,35.509L37.51,43.011L40.011,43.011C40.697,43.011 41.261,42.447 41.261,41.761L41.261,40.51L44.263,40.51C44.949,40.51 45.513,39.946 45.513,39.26C45.513,38.573 44.949,38.01 44.263,38.01ZM44.263,18.004L41.261,18.004L41.261,16.754C41.261,16.067 40.697,15.503 40.011,15.503L37.51,15.503L37.51,23.005L40.011,23.005C40.697,23.005 41.261,22.442 41.261,21.755L41.261,20.505L44.263,20.505C44.949,20.505 45.513,19.941 45.513,19.254C45.513,18.568 44.949,18.004 44.263,18.004Z" style="fill:rgb(211,212,214);fill-rule:nonzero;"/>
        </g>
        <g transform="matrix(0.728758,0,0,0.675468,6.59958,0.13765)">
            <path d="M36.227,4.238L27.993,4.238C27.24,4.238 26.621,4.905 26.621,5.718C26.621,7.342 25.382,8.679 23.876,8.679C22.372,8.679 21.133,7.342 21.133,5.718C21.133,4.905 20.514,4.238 19.76,4.238L11.527,4.238C10.774,4.238 10.155,4.905 10.155,5.718L10.155,53.096C10.155,53.908 10.774,54.576 11.527,54.576L19.76,54.576C20.514,54.576 21.133,53.908 21.133,53.096C21.133,51.471 22.372,50.135 23.876,50.135C25.382,50.135 26.621,51.471 26.621,53.096C26.621,53.908 27.24,54.576 27.993,54.576L36.227,54.576C36.98,54.576 37.599,53.908 37.599,53.096L37.599,5.718C37.599,4.905 36.98,4.238 36.227,4.238Z" style="fill:none;fill-rule:nonzero;stroke:rgb(55,40,89);stroke-width:4.2px;"/>
            <path d="M36.227,4.238L27.993,4.238C27.24,4.238 26.621,4.905 26.621,5.718C26.621,7.342 25.382,8.679 23.876,8.679C22.372,8.679 21.133,7.342 21.133,5.718C21.133,4.905 20.514,4.238 19.76,4.238L11.527,4.238C10.774,4.238 10.155,4.905 10.155,5.718L10.155,53.096C10.155,53.908 10.774,54.576 11.527,54.576L19.76,54.576C20.514,54.576 21.133,53.908 21.133,53.096C21.133,51.471 22.372,50.135 23.876,50.135C25.382,50.135 26.621,51.471 26.621,53.096C26.621,53.908 27.24,54.576 27.993,54.576L36.227,54.576C36.98,54.576 37.599,53.908 37.599,53.096L37.599,5.718C37.599,4.905 36.98,4.238 36.227,4.238Z" style="fill:rgb(135,95,243);fill-rule:nonzero;"/>
        </g>
        <g transform="matrix(0.728758,0,0,0.675468,6.59958,0.13765)">
            <path d="M25.249,38.289C25.249,39.103 24.63,39.771 23.876,39.771C23.123,39.771 22.505,39.103 22.505,38.289L22.505,20.524C22.505,19.712 23.123,19.044 23.876,19.044C24.63,19.044 25.249,19.712 25.249,20.524L25.249,38.289Z" style="fill:none;fill-rule:nonzero;stroke:rgb(152,255,63);stroke-width:4.2px;"/>
            <path d="M25.249,38.289C25.249,39.103 24.63,39.771 23.876,39.771C23.123,39.771 22.505,39.103 22.505,38.289L22.505,20.524C22.505,19.712 23.123,19.044 23.876,19.044C24.63,19.044 25.249,19.712 25.249,20.524L25.249,38.289Z" style="fill:rgb(55,40,89);fill-rule:nonzero;"/>
        </g>
    </g>
</svg>
