<svg xmlns="http://www.w3.org/2000/svg" width="100%" height="100%" viewBox="0 0 110 135" fill-rule="evenodd" stroke-linejoin="round" stroke-miterlimit="2" xmlns:v="https://vecta.io/nano"><path d="M88.269 106.494c1.515-4.278 5.596-7.345 10.389-7.345 6.082 0 11.017 4.935 11.017 11.018s-4.935 11.018-11.017 11.018c-4.793 0-8.879-3.067-10.389-7.346H73.277c-2.029 0-3.673-1.643-3.673-3.672V82.476h7.346v24.018h11.319zm10.389 0c-2.029 0-3.673 1.644-3.673 3.673s1.644 3.672 3.673 3.672a3.67 3.67 0 0 0 3.672-3.672c0-2.029-1.643-3.673-3.672-3.673zM30.139 82.08h7.074l-.024 14.114c0 .987-.425 1.878-1.107 2.505l-14.578 15.31c.84 1.549 1.316 3.316 1.316 5.193 0 6.142-5.098 11.121-11.384 11.121S.052 125.344.052 119.202s5.096-11.122 11.384-11.122c1.802 0 3.505.409 5.02 1.138l13.683-14.367V82.08zm-18.703 32.889c-2.393 0-4.335 1.894-4.335 4.233s1.942 4.234 4.335 4.234 4.333-1.896 4.333-4.234-1.941-4.233-4.333-4.233zm26.659-5.023c1.992 0 3.864.499 5.493 1.379l7.351-7.721V82.08h7.051v22.868c0 .986-.424 1.877-1.106 2.503l-8.477 8.901c.688 1.432 1.073 3.031 1.073 4.714 0 6.143-5.098 11.123-11.385 11.123s-11.385-4.98-11.385-11.123 5.098-11.12 11.385-11.12zm0 6.887c-2.393 0-4.333 1.896-4.333 4.233s1.94 4.235 4.333 4.235 4.334-1.895 4.334-4.235-1.941-4.233-4.334-4.233z" fill="#a4d2ec"/><path d="M20.171 40.256c-.348-1.924-.525-3.898-.525-5.918 0-18.355 14.898-33.26 33.255-33.26 16.427 0 30.093 11.937 32.779 27.604 13.5 1.689 23.953 13.221 23.953 27.172 0 15.116-12.274 27.389-27.388 27.389H21.597A21.53 21.53 0 0 1 .08 61.726c0-11.4 8.879-20.734 20.091-21.47zm31.242 7.84C53.065 39.5 61.696 33.35 71.334 34.183c2.079.179 3.94-1.2 4.138-3.143-.079-6.53-11.528-3.469-15.463-2.211-7.098 2.754-12.729 8.039-15.16 14.645l-.142.061c-1.254-.644-2.57-1.215-3.936-1.706-4.25-1.258-16.617-4.319-16.703 2.211.214 1.943 2.224 3.322 4.47 3.143 10.954-.876 20.704 5.979 21.735 15.28h.008c.53 4.524 8.646 3.887 8.171-.655-.521-5.184-3.081-9.846-6.984-13.534l-.055-.178z" fill="#fff"/></svg>