<svg xmlns="http://www.w3.org/2000/svg" width="100%" height="100%" viewBox="0 0 100 125" fill-rule="evenodd" stroke-linejoin="round" stroke-miterlimit="2" xmlns:v="https://vecta.io/nano"><path d="M13.155 105.273h73.951a4.78 4.78 0 0 1 4.779 4.779v6.162a4.78 4.78 0 0 1-4.779 4.779H13.155a4.78 4.78 0 0 1-4.779-4.779v-6.162a4.78 4.78 0 0 1 4.779-4.779zm0 4.779v6.162h73.951v-6.162H13.155z" fill="#3d1c7a"/><path d="M13.155 110.052h73.951v6.162H13.155z" fill="#9f50e1"/><path d="M14.538 103.889v-6.162a4.78 4.78 0 0 1 4.779-4.779h61.626a4.78 4.78 0 0 1 4.779 4.779v6.162a4.78 4.78 0 0 1-4.779 4.779H19.317a4.78 4.78 0 0 1-4.779-4.779zm4.779 0h61.626v-6.162H19.317v6.162z" fill="#3d1c7a"/><g fill="#9f50e1"><path d="M19.317 97.727h61.626v6.162H19.317z"/><path d="M18.368 93.563h63.234C91.91 84.496 99.43 69.219 99.43 54.445c0-7.322-1.605-14.274-4.474-20.53l-4.77 8.348-7.842-13.727-13.726-7.841 10.634-6.074C71.051 8.578 60.929 5 49.986 5 22.724 5 .541 27.183.541 54.445c0 14.773 7.519 30.051 17.827 39.118z" fill-rule="nonzero"/></g><path d="M58.67 12.677l-1.43 5.995c-18.258-4.357-36.653 6.954-41.008 25.209l-5.994-1.43C15.382 20.888 37.111 7.533 58.67 12.677z" fill="#fff" fill-rule="nonzero"/><path d="M95.552 55.304c-.216-.738-.809-1.331-1.588-1.588-.404-.134-5.39-1.752-13.27-3.352-8.02-1.628-19.041-3.235-31.301-3.235-13.562 0-25.609 1.967-33.753 3.752-6.452 1.415-10.457 2.715-10.819 2.835-.779.257-1.372.85-1.588 1.588s-.024 1.524.512 2.108c.207.227 5.182 5.608 13.243 11.044 10.788 7.273 21.993 11.118 32.405 11.118s21.617-3.844 32.406-11.118C89.86 63.02 94.833 57.638 95.04 57.412c.535-.584.725-1.371.512-2.108z" fill="#3d1c7a"/><path d="M18.729 65.476c-4.464-3.251-8.011-6.533-10.279-8.803 3.488-1.016 9.116-2.481 16.114-3.703a24.94 24.94 0 0 0-.122 2.442c0 6.839 2.758 13.044 7.216 17.568-5.019-2.193-9.439-4.963-12.929-7.504zm30.76 9.692c-10.893 0-19.755-8.862-19.755-19.756 0-1.123.099-2.224.28-3.295a150.89 150.89 0 0 1 7.871-.886c-.471 1.308-.74 2.711-.74 4.181 0 6.818 5.527 12.345 12.344 12.345 2.397 0 4.627-.694 6.52-1.876-1.951-.604-3.368-2.422-3.368-4.572 0-2.643 2.142-4.785 4.785-4.785a4.78 4.78 0 0 1 3.969 2.11c.278-1.028.439-2.105.439-3.222 0-1.469-.269-2.871-.74-4.178 2.733.234 5.364.537 7.871.885.181 1.072.28 2.171.28 3.293 0 10.894-8.862 19.756-19.756 19.756zm30.761-9.692c-3.49 2.541-7.91 5.31-12.929 7.503 4.458-4.525 7.216-10.728 7.216-17.567a24.89 24.89 0 0 0-.122-2.438c6.993 1.222 12.622 2.686 16.111 3.7-2.267 2.27-5.815 5.552-10.276 8.802zM23.685 8.623l-5.011 2.859-2.86 5.012-2.861-5.012-5.01-2.859 5.01-2.86L15.814.752l2.86 5.011 5.011 2.86zm73.583 85.291l-3.924 2.239-2.238 3.923-2.24-3.923-3.923-2.239 3.923-2.239 2.24-3.923 2.238 3.923 3.924 2.239zM63.609 23.776l3.503 6.139 6.139 3.503-6.139 3.504-3.503 6.139-3.502-6.139-6.139-3.504 6.139-3.503 3.502-6.139zm24.255.244l-5.825-3.325 5.825-3.325 3.321-5.819 3.323 5.819 5.824 3.325-5.824 3.325-3.323 5.82-3.321-5.82z" fill-rule="nonzero" fill="#e1d6f8"/></svg>