<?xml version="1.0" encoding="UTF-8" standalone="no"?>
<!DOCTYPE svg PUBLIC "-//W3C//DTD SVG 1.1//EN" "http://www.w3.org/Graphics/SVG/1.1/DTD/svg11.dtd">
<svg width="100%" height="100%" viewBox="0 0 110 135" version="1.1" xmlns="http://www.w3.org/2000/svg" xmlns:xlink="http://www.w3.org/1999/xlink" xml:space="preserve" xmlns:serif="http://www.serif.com/" style="fill-rule:evenodd;clip-rule:evenodd;stroke-linejoin:round;stroke-miterlimit:2;">
    <g transform="matrix(1.17082,0,0,1.17082,-2.85405,9.17409)">
        <g transform="matrix(0.831138,0,0,0.831138,4.99994,-7.47426)">
            <path d="M31.469,23.332L57.132,48.995L33.259,72.868L-3.566,36.044L20.313,12.171L31.471,23.329L31.469,23.332ZM29.368,44.629C29.365,44.626 29.363,44.623 29.36,44.62C29.023,44.283 28.838,43.827 28.838,43.351C28.841,42.876 29.037,42.42 29.375,42.091L38.019,33.448L30.42,25.849L25.932,30.338C25.239,31.032 24.111,31.032 23.416,30.333C22.723,29.639 22.723,28.512 23.416,27.818L27.905,23.329L20.313,15.737L0,36.044L33.259,69.303L53.566,48.995L50.647,46.076L46.158,50.564C45.46,51.258 44.337,51.258 43.639,50.564C42.944,49.87 42.944,48.743 43.639,48.049L48.131,43.56L40.534,35.963L31.889,44.607L31.889,44.602C31.557,44.944 31.105,45.139 30.629,45.139C30.184,45.144 29.754,44.981 29.424,44.681L29.368,44.602L29.368,44.629Z" style="fill:rgb(0,1,0);"/>
            <path d="M33.259,69.303L53.566,48.995L50.647,46.076L46.158,50.564C45.46,51.258 44.337,51.258 43.639,50.564C42.944,49.87 42.944,48.743 43.639,48.049L48.131,43.56L40.534,35.963L31.889,44.607L31.889,44.602C31.557,44.944 31.105,45.139 30.629,45.139C30.155,45.144 29.698,44.959 29.36,44.62C29.023,44.283 28.838,43.827 28.838,43.351C28.841,42.876 29.037,42.42 29.375,42.091L38.019,33.448L30.42,25.849L25.932,30.338C25.239,31.032 24.111,31.032 23.416,30.333C22.723,29.639 22.723,28.512 23.416,27.818L27.905,23.329L20.313,15.737L0,36.044L33.259,69.303Z" style="fill:rgb(170,172,175);"/>
        </g>
        <g transform="matrix(0.840712,0,0,0.840712,2.91641,-9.70835)">
            <path d="M80.986,72.889L81.995,73.898L90.346,82.25L91.1,83.004L91.108,82.997L102.231,94.12L102.228,94.122L112.339,104.234L88.502,128.071L51.718,91.288L75.551,67.455L80.232,72.136L80.986,72.889ZM55.243,91.288L88.502,124.546L108.814,104.234L101.217,96.636L92.572,105.279L92.577,105.279C91.878,105.96 90.766,105.95 90.076,105.266C89.392,104.576 89.382,103.463 90.062,102.764L98.706,94.12L91.108,86.522L86.615,91.016C85.92,91.71 84.794,91.71 84.099,91.016C83.406,90.321 83.406,89.194 84.099,88.5L88.584,84.012L80.986,76.413L72.341,85.058L72.346,85.058C71.648,85.724 70.54,85.709 69.859,85.03C69.174,84.345 69.161,83.242 69.827,82.543L78.47,73.899L75.551,70.98L55.243,91.288Z" style="fill:rgb(0,1,0);"/>
            <path d="M55.243,91.288L88.502,124.546L108.814,104.234L101.217,96.636L92.572,105.279L92.577,105.279C91.878,105.96 90.766,105.95 90.076,105.266C89.392,104.576 89.382,103.463 90.062,102.764L98.706,94.12L91.108,86.522L86.615,91.016C85.92,91.71 84.794,91.71 84.099,91.016C83.406,90.321 83.406,89.194 84.099,88.5L88.584,84.012L80.986,76.413L72.341,85.058L72.346,85.058C71.648,85.724 70.54,85.709 69.859,85.03C69.174,84.345 69.161,83.242 69.827,82.543L78.47,73.899L75.551,70.98L55.243,91.288Z" style="fill:rgb(170,172,175);"/>
        </g>
        <g transform="matrix(0.870309,0,0,0.870309,5.09268,-13.7078)">
            <path d="M6.749,98.481C6.665,98.439 8.01,96.119 9.578,96.922C19.357,99.239 25.301,105.183 27.618,114.962C27.903,116.163 27.232,117.385 26.066,117.791L1.156,126.455C0.284,126.758 -0.684,126.536 -1.337,125.884C-1.99,125.231 -2.212,124.262 -1.909,123.39L6.749,98.481C6.749,98.481 8.53,99.264 9.234,99.522L0.365,124.181L25.275,115.517C23.377,107.508 13.892,99.404 8.972,99.422C8.964,99.422 7.041,98.629 6.749,98.481ZM10.916,99.78L7.833,98.483L10.917,99.781C10.917,99.78 10.916,99.78 10.916,99.78Z" style="fill:rgb(0,1,0);"/>
            <path d="M9.023,99.271L0.365,124.181L25.275,115.517C23.188,106.707 17.833,101.352 9.023,99.265L9.023,99.271Z" style="fill:rgb(248,228,153);"/>
        </g>
        <g transform="matrix(0.460339,0,0,0.460339,5.24241,37.2026)">
            <path d="M9.023,99.271L0.365,124.181L25.275,115.517C23.188,106.707 17.833,101.352 9.023,99.265L9.023,99.271Z" style="fill:rgb(0,1,0);"/>
        </g>
        <g transform="matrix(0.821564,0,0,0.821564,4.99994,-7.3236)">
            <path d="M103.447,41.657L29.115,115.784L26.782,112.678C25.862,109.042 23.033,106.813 20.381,104.165L20.38,104.164C17.724,101.504 15.089,98.663 11.442,97.74L8.649,94.954L82.895,21.105L103.447,41.657ZM82.892,24.708L12.067,95.267C16.162,96.303 19.204,99.376 22.185,102.362C25.17,105.342 28.218,107.957 29.255,112.051L99.838,41.654L82.892,24.708Z" style="fill:rgb(0,1,0);"/>
            <path d="M82.892,24.708L99.838,41.654L29.255,112.051C28.218,107.957 25.17,105.342 22.185,102.362C19.204,99.376 16.162,96.303 12.067,95.267L82.892,24.708Z" style="fill:rgb(255,182,0);"/>
        </g>
        <g transform="matrix(0.821564,0,0,0.821564,4.19185,-6.62325)">
            <path d="M88.388,15.604L88.469,15.516C92.11,11.6 99.027,11.431 103.061,15.448L109.101,21.487C113.096,25.501 113.096,31.993 109.099,36.009L102.354,42.755L81.796,22.198L88.388,15.604ZM90.342,17.257L85.403,22.197L102.354,39.148L107.293,34.207C110.298,31.189 110.298,26.305 107.293,23.287L101.259,17.253C98.241,14.248 93.063,14.322 90.337,17.253L90.342,17.257Z" style="fill:rgb(0,1,0);"/>
            <path d="M90.342,17.257L85.403,22.197L102.354,39.148L107.293,34.207C110.298,31.189 110.298,26.305 107.293,23.287L101.259,17.253C98.241,14.248 93.063,14.322 90.337,17.253L90.342,17.257Z" style="fill:rgb(243,103,72);"/>
        </g>
        <g transform="matrix(0.159002,0.159968,-0.586913,0.583372,86.5484,13.0784)">
            <rect x="-25.33" y="14.923" width="16.101" height="89.114" style="fill:rgb(248,228,153);"/>
        </g>
    </g>
</svg>
