<svg xmlns="http://www.w3.org/2000/svg" width="100%" height="100%" viewBox="0 0 110 135" fill-rule="evenodd" stroke-linejoin="round" stroke-miterlimit="2" xmlns:v="https://vecta.io/nano"><g transform="matrix(.065257 0 0 .085087 -.875856 -25.0898)"><g fill="#f70010"><path d="M1474.629 1424.383l-.274-296.912-44.113 165.871-44.047-165.119-.274 225.397-143.828-116.109 10.903-8.791-.5-577.919 136.716.384 40.972 154.497 41.048-154.704 205.683-83.171-3.433 83.877-66.363 53.372-.123 826.748-132.368-107.42zM111.15 704.919l-67.152-54.137-2.033-78.287 380.537 78.839 43.322 35.618.036 541.575 11.477 8.943-366.101 295.654-.087-828.204zm222.141 422.511l-.144-312.547-10.147-8.918-78.708.41-.173 393.027 89.172-71.972zm158.713 84.032l-.068-524.566 44.399-35.81 265.696-.015 44.311 35.958.163 607.004-125.656 101.715-228.846-184.285zm210.454-405.805l-67.012.499-10.469 8.656.15 312.761 88.019 71.048.236-383.637-10.924-9.327zM872.877 1294.6l-.322-607.852 44.254-35.772 266.043.274 44.538 35.812-.302 523.353-227.631 185.209-126.58-101.025zm221.324-167.231l-.028-312.687-11.196-9.21-66.91.237-10.752 8.915.66 383.033 88.227-70.287z" fill-rule="nonzero"/><path d="M478.952 660.481l33.366-26.911c6.256-5.046 14.936-7.903 24.016-7.904l265.695-.015c9.115-.001 17.828 2.878 24.089 7.959l33.18 26.925 33.468-27.054c6.268-5.066 14.98-7.932 24.087-7.923l266.045.274c9.045.009 17.694 2.855 23.938 7.875l13.525 10.872c1.453-4.423 4.452-8.504 8.734-11.779 6.244-4.773 14.704-7.443 23.523-7.417l136.707.383c15.714.044 29.23 8.543 32.361 20.351l8.508 32.066 8.555-32.274c1.981-7.469 8.234-13.861 17.025-17.416l205.683-83.171c10.432-4.22 23.014-3.867 33.021.929s15.931 13.308 15.563 22.353l-3.433 83.877c-.255 6.255-3.509 12.218-9.14 16.746l-57.214 46.007-.113 816.57c0 10.405-8.281 19.764-20.892 23.612s-27.013 1.411-36.341-6.152l-132.368-107.42c-5.81-4.71-9.045-10.953-9.055-17.44l-.094-107.115c-3.499.954-7.253 1.472-11.139 1.472s-7.64-.518-11.139-1.472l-.047 36.351c-.009 10.395-8.272 19.734-20.863 23.581-12.592 3.857-26.966 1.441-36.304-6.101l-143.837-116.099-.123-.102-194.364 158.146c-6.225 5.065-14.884 7.948-23.957 7.979-9.072.041-17.767-2.781-24.055-7.806l-116.147-92.701-114.507 92.691c-6.249 5.055-14.93 7.928-24.016 7.938s-17.776-2.842-24.042-7.887l-196.032-157.861-365.549 295.207c-9.339 7.542-23.724 9.968-36.319 6.111s-20.856-13.207-20.857-23.612l-.086-818.044-58.023-46.778c-5.704-4.598-8.958-10.668-9.124-17.013L8.829 573c-.208-7.998 4.508-15.605 12.726-20.533s18.983-6.598 29.054-4.512l380.537 78.84c5.971 1.236 11.373 3.731 15.592 7.2l32.214 26.485zM872.877 1294.6l126.58 101.025 227.631-185.209.302-523.353-44.538-35.812-266.043-.274-44.254 35.772.322 607.852zm221.324-167.231l-88.227 70.287-.66-383.033 10.752-8.915 66.91-.237 11.196 9.21.028 312.687zm-55.724-296.321l.528 303.64 22.052-17.572-.028-286.148-22.552.08zm-546.473 380.413l228.846 184.285 125.656-101.715-.163-607.004-44.311-35.958-265.696.015-44.399 35.81.068 524.566zm210.454-405.805l10.924 9.327-.236 383.637-88.019-71.048-.15-312.761 10.469-8.656 67.012-.499zm-44.33 25.751l.138 286.014 21.777 17.582.187-303.761-22.102.165zM111.15 704.919l.087 828.204 366.101-295.654-11.477-8.943-.036-541.575-43.322-35.618-380.537-78.839 2.033 78.287 67.152 54.137zm222.141 422.511l-89.172 71.972.173-393.027 78.708-.41 10.147 8.918.144 312.547zm-33.28-295.926l-22.588.118-.133 304.102 22.853-18.445-.132-285.775zm1174.619 592.879l132.368 107.42.123-826.748 66.363-53.372 3.433-83.877-205.683 83.171-41.048 154.704-40.972-154.497-136.716-.384.5 577.919-10.903 8.791 143.828 116.109.274-225.397 44.047 165.119 44.113-165.871.274 296.912z"/></g><path d="M1474.629 1215.199l-.274-296.284-44.113 139.261-44.047-138.625-.274 236.24-143.828-97.478 10.903-7.38-.5-485.185 136.716.322 40.972 129.706 41.048-129.88 202.25.593-66.363 44.808-.123 694.087-132.368-90.183zM111.15 611.181l-67.152-45.45 378.505.464 43.322 29.902.036 454.673 11.477 7.508-366.101 248.213-.087-695.309zm222.141 354.714l-.144-262.395-10.147-7.487-78.708.344-.173 329.961 89.172-60.423zm158.713 70.548l-.068-440.393 44.399-30.064 265.696-.013 44.311 30.188.163 509.603-125.656 85.394-228.846-154.714zm210.454-340.689l-67.012.419-10.469 7.267.15 262.574 88.019 59.648.236-322.078-10.924-7.83zm170.419 410.487l-.322-510.315 44.254-30.032 266.043.23 44.538 30.066-.302 439.375-227.631 155.49-126.58-84.814zm221.324-140.397l-.028-262.513-11.196-7.732-66.91.199-10.752 7.484.66 321.571 88.227-59.009z" fill="#fff" fill-rule="nonzero"/><path d="M478.932 570.947l35.468-24.016c6.055-4.101 13.856-6.364 21.933-6.364l265.695-.014c8.114-.001 15.947 2.282 22.012 6.415l35.253 24.016 35.553-24.127c6.069-4.119 13.896-6.389 22-6.382l266.052.23c8.045.007 15.817 2.26 21.854 6.339l16.185 10.927c1.603-3.821 4.376-7.333 8.149-10.22 6.235-4.773 14.695-7.445 23.514-7.424l136.707.321c15.261.036 28.522 8.058 32.106 19.433l8.781 27.765 8.828-27.94c3.612-11.438 16.987-19.477 32.333-19.432l202.259.594c13.761.04 26.061 6.603 30.899 16.487s1.198 21.034-9.13 28.01l-55.13 37.218-.113 682.597c0 10.005-7.659 19.081-19.562 23.181s-25.834 2.463-35.587-4.184l-132.378-90.175c-7.074-4.815-11.12-11.727-11.13-18.988l-.123-133.093c-3.49.954-7.234 1.466-11.101 1.474-3.877 0-7.621-.511-11.111-1.466l-.085 73.675c-.009 9.997-7.649 19.056-19.534 23.155-11.875 4.108-25.787 2.489-35.549-4.125l-143.837-97.478a28.71 28.71 0 0 1-2.113-1.568l-196.534 134.252c-12.469 8.514-31.265 8.59-43.845.153L859.4 1130.964l-116.571 79.215c-12.521 8.514-31.346 8.531-43.895.043l-198.165-133.971c-.478.366-.971.724-1.48 1.074l-366.101 248.213c-9.766 6.622-23.685 8.233-35.568 4.125s-19.524-13.176-19.526-23.172l-.085-683.839-55.941-37.862c-10.34-6.999-13.949-18.177-9.061-28.068s17.253-16.425 31.044-16.409l378.505.464c8.169.01 16.046 2.334 22.118 6.526l34.258 23.646zm393.945 535.294l126.58 84.814 227.631-155.49.302-439.375-44.538-30.066-266.043-.23-44.254 30.032.322 510.315zm221.324-140.397l-88.227 59.009-.66-321.571 10.752-7.484 66.91-.199 11.196 7.732.028 262.513zm-55.715-244.695l.519 247.882 22.052-14.752-.028-233.196-22.542.066zm-546.482 315.293l228.846 154.714 125.656-85.394-.163-509.603-44.311-30.188-265.696.013-44.399 30.064.068 440.393zm210.454-340.689l10.924 7.83-.236 322.078-88.019-59.648-.15-262.574 10.469-7.267 67.012-.419zm-44.327 25.696l.133 233.102 21.781 14.761.181-248-22.095.138zM111.15 611.181l.087 695.309 366.101-248.213-11.477-7.508-.036-454.673-43.322-29.902-378.505-.464 67.152 45.45zm222.141 354.714l-89.172 60.423.173-329.961 78.708-.344 10.147 7.487.144 262.395zm-33.277-244.362l-22.592.099-.13 248.294 22.85-15.485-.127-232.908zm1174.616 493.666l132.368 90.183.123-694.087 66.363-44.808-202.25-.593-41.048 129.88-40.972-129.706-136.716-.322.5 485.185-10.903 7.38 143.828 97.478.274-236.24 44.047 138.625 44.113-139.261.274 296.284z" fill="#f70010"/></g></svg>