<svg xmlns="http://www.w3.org/2000/svg" width="100%" height="100%" viewBox="0 0 100 125" fill-rule="nonzero" stroke-linejoin="round" stroke-miterlimit="2" xmlns:v="https://vecta.io/nano"><path d="M49.963 106.934C23.517 106.934 2 85.415 2 58.965S23.517 11 49.963 11s47.966 21.517 47.966 47.965-21.518 47.969-47.966 47.969z" fill="#fff" stroke="#000" stroke-width="3.785"/><path d="M87.671 49.166c-.091-1.168-.23-2.321-.457-3.446-.172-.864-.394-1.712-.643-2.547l-.855-2.439-.876-1.957-1.046-1.96-1.004-1.641-1.192-1.593-1.121-1.34-1.275-1.388-1.215-1.105-1.368-1.149-1.277-.953-1.452-.935-1.336-.808-1.532-.739-1.403-.627-1.593-.585-1.479-.451-1.655-.426-1.547-.268-1.726-.254-1.623-.081-1.237-.063-.575.028-1.689.086-1.912.221-1.767.28-2.035.525-1.902.627-2.177.888-2.068 1.036-2.432 1.526c-.835.582-1.632 1.213-2.401 1.879a29.14 29.14 0 0 0-3.031 3.039c-4.094 4.759-6.656 10.85-6.968 17.531-.021.455-.069.902-.069 1.362 0 1.017.056 2.021.158 3.008.104 1.012.267 2.001.472 2.978a28.69 28.69 0 0 0 .727 2.767c.234.736.506 1.454.795 2.165.296.725.632 1.429.981 2.123a30.85 30.85 0 0 0 .962 1.744c.358.602.725 1.194 1.123 1.765.343.495.708.976 1.081 1.447.398.502.82.981 1.248 1.452.381.422.758.843 1.161 1.241a29.65 29.65 0 0 0 1.34 1.218 31.63 31.63 0 0 0 1.251 1.021c.462.36.922.721 1.406 1.052.429.294.883.552 1.328.822.488.296.974.594 1.484.862.452.239.922.455 1.389.671a30.56 30.56 0 0 0 1.559.668 29.4 29.4 0 0 0 1.445.529c.536.18 1.087.329 1.635.479.501.132.993.279 1.502.386.564.119 1.14.192 1.715.278.522.076 1.04.161 1.571.213.59.055 1.189.072 1.789.09.303.012.6.047.907.047.251 0 .494-.033.742-.04.626-.017 1.247-.038 1.863-.092.59-.052 1.168-.144 1.747-.232.661-.099 1.32-.204 1.966-.351.62-.137 1.236-.296 1.843-.477a27.77 27.77 0 0 0 2.113-.723c.676-.261 1.339-.537 1.989-.843.787-.368 1.556-.768 2.304-1.203.765-.448 1.508-.924 2.227-1.436a29.18 29.18 0 0 0 2.692-2.18c.99-.902 1.94-1.855 2.8-2.883 3.834-4.594 6.248-10.391 6.647-16.731.039-.609.093-1.215.093-1.837 0-.768-.056-1.521-.115-2.272zm-17.693-21.37c.514.244 1.024.489 1.52.765l-4.065 10.229c.569-.235 1.188-.365 1.827-.432l3.57-8.985a27.08 27.08 0 0 1 1.433.991l-3.195 8.037c.517.09 1.015.227 1.485.429l2.979-7.499c.465.387.905.801 1.342 1.218l-2.857 7.187c.442.352.838.751 1.175 1.203l2.854-7.179c.431.471.852.95 1.249 1.451l-3.086 7.763c.182.602.308 1.226.308 1.886 0 2.439-1.34 4.542-3.312 5.676l-.522 1.312c.004-.139.021-.275.021-.415 0-.204-.028-.403-.038-.604-.832.38-1.747.604-2.721.604-3.633 0-6.576-2.942-6.576-6.573 0-2.17 1.063-4.078 2.684-5.277-.204-.127-.395-.274-.609-.389l4.532-11.401zm-2.997-1.218a25.47 25.47 0 0 1 1.594.585l-4.522 11.376a13.96 13.96 0 0 0-1.612-.539l4.54-11.422zm-3.147-.838c.564.112 1.111.261 1.663.406l-4.582 11.529c-.577-.089-1.162-.147-1.76-.163l4.679-11.772zm-3.316-.414c.591.04 1.175.097 1.755.175l-4.789 12.056c-.668.061-1.32.176-1.957.328l4.99-12.558zm-3.479-.002c.571-.038 1.139-.087 1.72-.087.046 0 .092.007.136.007l-5.258 13.233a13.87 13.87 0 0 0-2.287 1.162l5.689-14.315zM36.645 37.45l-3.609 9.077a26.02 26.02 0 0 1 3.609-9.077zm-4.064 14.394l7.407-18.647c.877-.9 1.821-1.727 2.817-2.496l-9.885 24.88c-.195-1.222-.319-2.467-.338-3.737zm1.741 8.968a25.59 25.59 0 0 1-.822-2.521l11.586-29.16c.753-.463 1.533-.888 2.333-1.275L34.322 60.811zm.865 1.985l14.228-35.807c.691-.264 1.391-.507 2.109-.713L36.236 64.754a25.01 25.01 0 0 1-1.049-1.958zm2.065 3.564l16.12-40.559c.637-.135 1.291-.226 1.947-.311L48.94 41.54c-2.547 2.527-4.124 6.027-4.124 9.898 0 .144.017.284.022.429l-6.393 16.087c-.42-.518-.813-1.048-1.194-1.595zm3.641 4.186c-.45-.422-.884-.858-1.304-1.31l5.687-14.305a13.85 13.85 0 0 0 .866 2.409l-5.249 13.206zm2.623 2.158c-.474-.341-.955-.683-1.406-1.054l4.995-12.568a14.08 14.08 0 0 0 1.203 1.566l-4.793 12.056zm2.777 1.77c-.506-.273-.986-.585-1.471-.89l4.67-11.749c.44.393.899.768 1.386 1.101l-4.585 11.538zm2.945 1.346a26.9 26.9 0 0 1-1.558-.673l4.531-11.4a13.47 13.47 0 0 0 1.548.696L49.237 75.82zm3.088.985c-.552-.139-1.104-.279-1.644-.455l4.544-11.436a14.27 14.27 0 0 0 1.693.336l-4.594 11.555zm3.236.619c-.581-.074-1.154-.159-1.722-.266l4.683-11.789c.08.005.158.015.235.015.551 0 1.092-.04 1.627-.102l-4.823 12.142zm3.399.204c-.069 0-.135.012-.203.012-.537 0-1.066-.05-1.595-.082l5.012-12.611c.724-.182 1.43-.41 2.105-.701l-5.319 13.382zm3.597-.298c-.631.095-1.264.166-1.909.213l5.738-14.437a14.08 14.08 0 0 0 2.783-2.409l-6.611 16.633zm3.809-.825c-.666.201-1.345.372-2.033.522l16.04-40.366c.399.58.762 1.184 1.112 1.795L66.366 76.504zm4.15-1.687a24.46 24.46 0 0 1-2.22.995l14.126-35.548c.347.73.657 1.476.935 2.24L70.516 74.817zm4.673-3.001c-.805.651-1.658 1.243-2.539 1.794l11.435-28.77a26.12 26.12 0 0 1 .608 3.064l-9.504 23.912zm9.229-15.2l-3.449 8.678a26.73 26.73 0 0 1-3.145 4.061l7.133-17.951c0 .012.002.024.002.035.001 1.775-.194 3.502-.541 5.177z"/></svg>