<svg xmlns="http://www.w3.org/2000/svg" width="100%" height="100%" viewBox="0 0 110 135" fill-rule="evenodd" stroke-linejoin="round" stroke-miterlimit="2" xmlns:v="https://vecta.io/nano"><path d="M35.522 133.766c-9.74-4.036-16.278-9.46-21.154-16.978-13.223-19.9-9.186-45.645 9.88-63.318 5.849-5.424 12.108-10.434 17.952-16.004 9.325-8.766 13.082-19.761 10.854-32.563-.141-.974-.141-2.089-.28-4.59 26.299 20.874 28.107 47.593 23.237 76.674 8.625-4.316 10.854-9.186 13.082-28.247 18.787 26.858 19.341 74.726-17.119 85.86 9.186-16.698 7.377-31.029-7.238-43.418-7.932-6.538-15.171-13.223-13.082-25.325-14.186 10.575-14.6 25.185-12.517 40.909-5.984-3.616-6.818-8.486-7.653-13.776-5.703 13.636-7.653 27.133 4.036 40.775v.001z" fill-rule="nonzero"/></svg>