<svg xmlns="http://www.w3.org/2000/svg" width="100%" height="100%" viewBox="0 0 100 125" fill-rule="evenodd" stroke-linejoin="round" stroke-miterlimit="2" xmlns:v="https://vecta.io/nano"><path d="M97.924 110.186V15.953H2.435v94.232h95.489zm-47.536-33.28c-7.638 0-13.828-6.128-13.828-13.685s6.191-13.685 13.828-13.685 13.827 6.126 13.827 13.685-6.189 13.685-13.827 13.685z" fill="#fff" fill-rule="nonzero"/><g fill="#c0c1c4"><path d="M97.924 112.058H2.435c-1.033 0-1.872-.839-1.872-1.873V15.953c0-1.034.838-1.873 1.872-1.873h95.489c1.033 0 1.872.839 1.872 1.873v94.232c0 1.034-.838 1.873-1.872 1.873zm0-1.873V15.953H2.435v94.232h95.489zm-47.536-33.28c-7.638 0-13.828-6.128-13.828-13.685s6.191-13.685 13.828-13.685 13.827 6.126 13.827 13.685-6.189 13.685-13.827 13.685zm0-1.873c6.598 0 11.955-5.285 11.955-11.812s-5.357-11.812-11.955-11.812-11.956 5.283-11.956 11.812 5.358 11.812 11.956 11.812z"/><path d="M50.388 78.805c-8.692 0-15.728-6.984-15.728-15.585s7.036-15.585 15.728-15.585 15.727 6.982 15.727 15.585-7.035 15.585-15.727 15.585zm0-1.9c7.638 0 13.827-6.128 13.827-13.685s-6.189-13.685-13.827-13.685S36.56 55.662 36.56 63.221s6.191 13.685 13.828 13.685zm0-4.425c-5.168 0-9.357-4.147-9.357-9.26s4.189-9.26 9.357-9.26 9.356 4.145 9.356 9.26-4.188 9.26-9.356 9.26zm0-1.9c4.113 0 7.456-3.291 7.456-7.36s-3.342-7.36-7.456-7.36-7.457 3.289-7.457 7.36 3.343 7.36 7.457 7.36z"/></g><path d="M50.388 76.906c-7.638 0-13.828-6.128-13.828-13.685s6.191-13.685 13.828-13.685 13.827 6.126 13.827 13.685-6.189 13.685-13.827 13.685zm0-4.425c5.168 0 9.356-4.147 9.356-9.26s-4.188-9.26-9.356-9.26-9.357 4.145-9.357 9.26 4.189 9.26 9.357 9.26z" fill="#fff"/><path d="M97.924 37.511V15.953H2.435v94.232h36.088c0-.966.792-1.748 1.768-1.748s1.767.782 1.767 1.748h15.913c0-.966.792-1.748 1.769-1.748s1.768.782 1.768 1.748h36.416V42.132h-2.517v-4.621h2.517zM50.388 76.905c-7.638 0-13.828-6.128-13.828-13.684s6.19-13.685 13.828-13.685 13.827 6.126 13.827 13.685-6.19 13.684-13.827 13.684zM9.527 39.208V22.631c0-.595.487-1.077 1.089-1.077H47.18c.6 0 1.088.481 1.088 1.077v16.577c0 .594-.487 1.076-1.088 1.076H10.615c-.601 0-1.088-.482-1.088-1.076zm45.167 64.357c0 2.468-2.021 4.469-4.515 4.469s-4.514-2.001-4.514-4.469V87.673c0-2.467 2.021-4.467 4.514-4.467s4.515 2 4.515 4.467v15.892zm12.968-33.21c-1.302 0-2.358-1.045-2.358-2.333s1.056-2.333 2.358-2.333 2.356 1.044 2.356 2.333-1.055 2.333-2.356 2.333zM15.429 24.682c-.709.001-1.288.53-1.287 1.177s.583 1.172 1.292 1.171l25.437-.053c.71-.001 1.289-.53 1.287-1.177s-.582-1.172-1.291-1.171l-25.438.053zm.011 5.322c-.709.001-1.288.53-1.287 1.177s.583 1.173 1.292 1.171l25.437-.052c.71-.002 1.289-.531 1.287-1.177s-.582-1.173-1.291-1.172l-25.438.053zm.011 5.321c-.709.002-1.288.53-1.287 1.177s.583 1.173 1.292 1.171l9.319-.019c.71-.001 1.288-.53 1.287-1.177s-.582-1.173-1.292-1.171l-9.319.019z" fill="#000100" fill-rule="nonzero"/></svg>