<svg xmlns="http://www.w3.org/2000/svg" width="100%" height="100%" viewBox="0 0 100 125" fill-rule="evenodd" stroke-linejoin="round" stroke-miterlimit="2" xmlns:v="https://vecta.io/nano"><path d="M24.785 111.831h48.811V76.515H24.785z" fill="#7d7d7d"/><g fill-rule="nonzero"><path d="M87.216 110.026c-1.112 1.154-2.62 1.804-4.193 1.804h-9.478V79.025c0-.907-.719-1.655-1.594-1.655H26.718c-.875 0-1.594.747-1.594 1.655v32.804H6.735c-3.252 0-5.928-2.781-5.928-6.16V17.16c0-3.381 2.676-6.161 5.929-6.161h85.195c3.254 0 5.93 2.78 5.93 6.161v79.254c0 1.634-.625 3.201-1.738 4.356l-8.908 9.256z"/><path d="M85.691 24.786c0-2.245-1.62-4.093-3.589-4.093H16.567c-1.969 0-3.589 1.847-3.589 4.093v36.453c0 2.245 1.62 4.093 3.589 4.093h65.535c1.969 0 3.589-1.847 3.589-4.093V24.786z" fill="#fff"/></g><g fill="#161616"><path d="M71.375 52.639v-2.693c0-.649-.445-1.174-.993-1.174H28.309c-.548 0-.993.525-.993 1.174v2.693c0 .648.445 1.174.993 1.174h42.073c.548 0 .993-.527.993-1.174zm0-16.559v-2.694c0-.648-.445-1.174-.993-1.174H28.309c-.548 0-.993.527-.993 1.174v2.694c0 .648.445 1.173.993 1.173h42.073c.548 0 .993-.525.993-1.173z"/><path d="M50.802 107.778h11.492c.875 0 1.595-.742 1.595-1.644V84.066c0-.902-.72-1.644-1.595-1.644H50.802c-.875 0-1.595.742-1.595 1.644v22.068c0 .902.72 1.644 1.595 1.644z" fill-rule="nonzero"/></g></svg>