<?xml version="1.0" encoding="UTF-8" standalone="no"?>
<!DOCTYPE svg PUBLIC "-//W3C//DTD SVG 1.1//EN" "http://www.w3.org/Graphics/SVG/1.1/DTD/svg11.dtd">
<svg width="100%" height="100%" viewBox="0 0 113 157" version="1.1" xmlns="http://www.w3.org/2000/svg" xmlns:xlink="http://www.w3.org/1999/xlink" xml:space="preserve" xmlns:serif="http://www.serif.com/" style="fill-rule:evenodd;clip-rule:evenodd;stroke-linejoin:round;stroke-miterlimit:2;">
    <g transform="matrix(1.61254,0,0,1.61254,5.05416,15.4013)">
        <path d="M33.773,34.649L29.501,34.649L29.501,28.243C29.501,27.069 28.538,26.107 27.364,26.107L15.703,26.107C13.685,26.131 11.738,25.364 10.277,23.97C8.661,22.348 7.874,20.691 8.141,18.417C8.691,14.548 12.095,11.671 16.002,11.776L48.724,11.776C49.895,11.776 50.86,10.811 50.86,9.639C50.86,8.466 49.895,7.503 48.724,7.503L37.146,7.503C35.975,7.503 35.012,6.539 35.012,5.367C35.012,4.196 35.975,3.231 37.146,3.231L48.467,3.231C51.574,3.175 54.318,5.327 55.004,8.358C55.09,8.779 55.132,9.208 55.132,9.639C55.132,13.154 52.24,16.046 48.726,16.046L15.853,16.046C14.163,15.994 12.68,17.217 12.413,18.888C12.295,19.891 12.65,20.276 13.374,20.98C14.004,21.553 14.83,21.86 15.683,21.834L27.364,21.834C30.88,21.834 33.773,24.727 33.773,28.243L33.773,34.649Z" style="fill:none;stroke:rgb(32,19,64);stroke-width:6.2px;"/>
        <path d="M33.773,34.649L29.501,34.649L29.501,28.243C29.501,27.069 28.538,26.107 27.364,26.107L15.703,26.107C13.685,26.131 11.738,25.364 10.277,23.97C8.661,22.348 7.874,20.691 8.141,18.417C8.691,14.548 12.095,11.671 16.002,11.776L48.724,11.776C49.895,11.776 50.86,10.811 50.86,9.639C50.86,8.466 49.895,7.503 48.724,7.503L37.146,7.503C35.975,7.503 35.012,6.539 35.012,5.367C35.012,4.196 35.975,3.231 37.146,3.231L48.467,3.231C51.574,3.175 54.318,5.327 55.004,8.358C55.09,8.779 55.132,9.208 55.132,9.639C55.132,13.154 52.24,16.046 48.726,16.046L15.853,16.046C14.163,15.994 12.68,17.217 12.413,18.888C12.295,19.891 12.65,20.276 13.374,20.98C14.004,21.553 14.83,21.86 15.683,21.834L27.364,21.834C30.88,21.834 33.773,24.727 33.773,28.243L33.773,34.649Z" style="fill:rgb(255,182,0);"/>
    </g>
    <g transform="matrix(1.61254,0,0,1.61254,5.05416,15.4013)">
        <path d="M46.805,34.649L16.831,34.649C7.524,34.698 -0.103,42.378 -0.087,51.684C-0.264,65.425 16.088,73.676 26.995,65.321L36.64,65.321C47.548,73.676 63.9,65.425 63.722,51.684C63.739,42.378 56.112,34.698 46.805,34.649Z" style="fill:none;stroke:rgb(32,19,64);stroke-width:6.2px;"/>
        <path d="M46.805,34.649L16.831,34.649C7.524,34.698 -0.103,42.378 -0.087,51.684C-0.264,65.425 16.088,73.676 26.995,65.321L36.64,65.321C47.548,73.676 63.9,65.425 63.722,51.684C63.739,42.378 56.112,34.698 46.805,34.649Z" style="fill:rgb(170,172,175);"/>
    </g>
    <g transform="matrix(1,0,0,1,23.457,-37.6876)">
        <circle cx="57.012" cy="136.195" r="23.066" style="fill:rgb(119,121,124);"/>
    </g>
    <g transform="matrix(1.61254,0,0,1.61254,5.05416,15.4013)">
        <path d="M23.986,54.864L20.3,54.864L20.3,58.576C20.3,60.668 18.579,62.39 16.487,62.39C14.395,62.39 12.674,60.668 12.674,58.576L12.674,54.864L8.961,54.864C6.869,54.864 5.148,53.143 5.148,51.051C5.148,48.958 6.869,47.237 8.961,47.237L12.674,47.237L12.674,43.601C12.674,41.509 14.395,39.788 16.487,39.788C18.579,39.788 20.3,41.509 20.3,43.601L20.3,47.237L23.986,47.237C26.078,47.237 27.799,48.958 27.799,51.051C27.799,53.143 26.078,54.864 23.986,54.864Z" style="fill:rgb(0,1,0);"/>
    </g>
    <g transform="matrix(1.54115,0,0,1.54115,-39.471,-19.1513)">
        <circle cx="78.295" cy="67.822" r="4.475" style="fill:none;stroke:black;stroke-width:1.3px;stroke-linecap:round;stroke-miterlimit:1.5;"/>
        <circle cx="78.295" cy="67.822" r="4.475" style="fill:rgb(0,211,255);"/>
    </g>
    <g transform="matrix(1.54115,0,0,1.54115,-39.471,6.45085)">
        <circle cx="78.295" cy="67.822" r="4.475" style="fill:none;stroke:rgb(32,19,64);stroke-width:1.3px;stroke-linecap:round;stroke-miterlimit:1.5;"/>
        <circle cx="78.295" cy="67.822" r="4.475" style="fill:rgb(255,230,0);"/>
    </g>
    <g transform="matrix(1.54115,0,0,1.54115,-52.5817,-6.47189)">
        <circle cx="78.295" cy="67.822" r="4.475" style="fill:none;stroke:rgb(32,19,64);stroke-width:1.3px;stroke-linecap:round;stroke-miterlimit:1.5;"/>
        <circle cx="78.295" cy="67.822" r="4.475" style="fill:rgb(135,255,95);"/>
    </g>
    <g transform="matrix(1.54115,0,0,1.54115,-26.766,-6.47189)">
        <circle cx="78.295" cy="67.822" r="4.475" style="fill:none;stroke:rgb(32,19,64);stroke-width:1.3px;stroke-linecap:round;stroke-miterlimit:1.5;"/>
        <circle cx="78.295" cy="67.822" r="4.475" style="fill:rgb(255,0,92);"/>
    </g>
</svg>
