<svg xmlns="http://www.w3.org/2000/svg" width="100%" height="100%" viewBox="0 0 100 125" fill-rule="nonzero" stroke-linejoin="round" stroke-miterlimit="2" xmlns:v="https://vecta.io/nano"><path d="M86.197 46.071V17.35h3.69c2.04 0 3.69-1.56 3.69-3.482l.047-20.715-88.639.18c.123 2.529.027 20.535.027 20.535 0 1.922 1.65 3.482 3.69 3.482h3.69v28.721c0 1.09.543 2.12 1.466 2.778l19.299 13.758-19.296 13.758c-.926.659-1.469 1.688-1.469 2.778v28.721h-3.69c-2.04 0-3.69 1.56-3.69 3.482l-.122 20.917 88.641.161c-.066-.46.046-21.078.046-21.078 0-1.922-1.65-3.482-3.69-3.482h-3.69V79.144c0-1.09-.543-2.119-1.466-2.778L65.432 62.608 84.728 48.85c.926-.658 1.469-1.688 1.469-2.778z" fill="#9f5ef0"/><path d="M57.085 59.83c-.923.658-1.465 1.685-1.465 2.778s.542 2.12 1.465 2.778l21.732 15.492v26.988H19.774V80.878l21.732-15.492c.923-.658 1.465-1.685 1.465-2.778s-.542-2.12-1.465-2.778L19.774 44.338V17.35h59.044v26.988L57.085 59.83z" fill="#8abac9"/><path d="M51.539 70.869L69.99 84.213c.911.662 1.447 1.682 1.447 2.765v10.444c0 1.921-1.65 3.481-3.69 3.481H30.844c-2.04 0-3.69-1.56-3.69-3.481V86.978c0-1.083.535-2.103 1.446-2.762l18.451-13.343a3.86 3.86 0 0 1 4.488-.004zm19.137-34.747c1.24 1.525.934 3.711-.686 4.881L51.539 54.347c-.664.481-1.454.721-2.244.721s-1.583-.24-2.244-.721L28.6 41.003c-1.616-1.17-1.922-3.352-.685-4.881 1.243-1.525 3.556-1.813 5.174-.644l16.206 11.718 16.207-11.721c1.624-1.166 3.934-.878 5.174.647z" fill="#9fff00"/></svg>