<svg xmlns="http://www.w3.org/2000/svg" width="100%" height="100%" viewBox="0 0 100 125" fill-rule="evenodd" stroke-linejoin="round" stroke-miterlimit="2" xmlns:v="https://vecta.io/nano"><path d="M99 60h-9.8v-9.8h-9.8v-9.8h-9.8v-9.8h-9.8v9.8H40.3v-9.8h-9.8v9.8h-9.8v9.8h-9.8V60H1.1v29.4h9.8V69.8h9.8v19.6h9.8v-9.8h39.2v9.8h9.8V69.8h9.7v19.6H99V60zm-58.7 0h-9.8v-9.8h9.8V60zm29.3 0h-9.8v-9.8h9.8V60z" fill-rule="nonzero"/><path d="M30.5 89.4h9.8v9.8h-9.8zm29.3 0h9.8v9.8h-9.8zM20.7 20.8h9.8v9.8h-9.8zm48.9 0h9.8v9.8h-9.8z"/></svg>