<svg xmlns="http://www.w3.org/2000/svg" width="100%" height="100%" viewBox="0 0 16 16" fill-rule="evenodd" xmlns:v="https://vecta.io/nano"><path d="M12.554 7.1c-.008.008.415.757.607.959 1.146 1.193 2.141 1.012 2.151 1.01s.014-.002.021-.002c.093 0 .249-.233.249-.088 0 .018-.082.388-.084.406-.222 1.643-1.637 1.651-2.234 1.578-.151-.022-.303.036-.43.166-.132.142-.231.348-.282.585a3.45 3.45 0 0 1 .855-.092c.623.014 1.162.252 1.715.7.206.161.426.274.652.334.083.018.242-.107.242.025 0 .053-.106.342-.125.386-.554 1.264-1.243 1.057-1.568.769-.545-.469-.959-.102-1.033-.028-.167.282-.184.576-.236.837-.109.54.51.867.594.861.075-.006-.349.268-.421.301-.325.139-.661.207-.997.201-.871 0-1.436-.304-1.799-.461-.585-.254-1.944-.885-3.156-.885h-.114c-.092 0-.247-.62-.517-.958-.099.229-.197.624-.197.738 0 .139-.071.256-.16.264-.965.078-2.075.259-2.773.528-2.245.864-3.37.037-3.413 0-.061-.052-.082-.159-.086-.268C-.049 13.543 0 1.533 0 1.522c0-.134.065-.247.15-.262.008-.001.87-.34 2.082-.928C3.5-.283 5.065.141 5.131.16c.08.022.139.132.139.26a.39.39 0 0 1-.017.114l-.2.653.68-.558c.259-.212.546-.323.838-.322 1.232.008 3.067.731 3.144.761 2.223.982 4.771-.231 4.796-.243.736-.325 1.394-.027 1.432-.065.023-.023-.337.367-.39.507a3.61 3.61 0 0 0-.131.441 7.56 7.56 0 0 1-.137.475c-.266.801-.725 1.403-1.275 1.673-.397.205-.776.484-1.13.832.102.024.202.063.3.115.217.107.589.158.817.15.002 0 .175-.025.177-.025.093 0-.002.321-.004.337-.006.049-.296 1.207-1.175 1.602-.128.056-.253.127-.375.211-.021.015-.044.022-.068.022z" fill="#000100" fill-rule="nonzero"/><path d="M6.803 2.568c-.38.001-.761.065-1.12.188-.527.182-1.12.255-1.565.604-.396.521-.502 1.175-.681 1.782-.192.439-.118.919-.14 1.381-.062.327.077.675.389.834.267.168.626.161.867.364l.022.025.016.039c.054.397-.054.796-.039 1.195.065.273.545.218.785.197.234-.306.059-.818.224-1.188.047.37.019.742.033 1.113.033.291.576.214.787.134.07-.387.04-.802.116-1.195.052.127.064.644.086.911-.098.447.52.432.8.29.045-.336-.01-.702 0-1.048-.026-.356.054.025.07.185.082.268-.055.658.162.843.333.077.828-.002.696-.435.039-.373-.139-.874.217-1.137.29-.106.606-.144.89-.273.352-.092.415-.464.472-.759.122-.55-.003-1.105-.111-1.645-.098-.397-.112-.821-.29-1.194-.366-.444-.905-.724-1.432-.956a3.1 3.1 0 0 0-1.255-.254zm-.818 1.777a.55.55 0 0 1 .327.076c.101.086.096.233.11.353.008.133.003.27-.064.39-.124.271-.315.507-.495.745-.242.248-.562.405-.845.603-.151.065-.33.083-.488.032-.23-.118-.375-.347-.421-.59-.064-.193-.049-.406.039-.59.041-.152.16-.265.253-.389.377-.26.779-.511 1.238-.608.111.001.229-.018.344-.021zm1.438 0c.129-.002.262.022.388.021.459.097.861.348 1.238.608.093.124.212.237.253.389.088.184.103.397.039.59-.046.243-.19.472-.421.59-.158.051-.337.034-.488-.032-.283-.197-.603-.354-.845-.603-.18-.238-.371-.474-.495-.745-.067-.12-.072-.257-.064-.39.015-.12.009-.267.11-.353.087-.057.184-.075.284-.076zm-.727 1.752c.091-.001.17.065.222.133l.686.757c.049.122-.032.258-.151.309-.07.047-.151.008-.217-.027-.177-.09-.333-.224-.529-.275-.074-.001-.143.045-.21.074-.151.08-.281.193-.436.268-.144.001-.314-.089-.321-.241a.25.25 0 0 1 .018-.097 8.09 8.09 0 0 1 .72-.762c.057-.048.096-.123.178-.135.013-.003.027-.005.04-.005zM3.187 8.136c-.265 0-.903.173-.452.433.381.199.259.714-.195.673-.416-.047-.484.42-.101.503.218.101.607.154.858-.087.303-.169.616.088.877.222.484.267 1.388.78 1.351.891.036.224-.603.454-.884.683-.341.239-.778.563-1.136.15-.298-.29-.685.091-.583.389.021.131.744.153.59.599-.269.286-.02.9.406.61.289-.158.704-.374.529-.763-.127-.388.429-.483.667-.673.381-.2.982-.533 1.154-.543.163-.004 1.894 1.09 1.829 1.155-.081.374.069.866.549.792.234-.003.569-.125.323-.386-.245-.323.103-.582.42-.406.269.06.649-.201.317-.421-.257-.397-.698-.058-1.035-.029-.553-.068-.964-.469-1.419-.741-.188-.125-.343-.245-.164-.445.074-.08 1.452-.96 1.927-1.106.226-.035.789.421 1.217.207.328-.078.488-.551.055-.614-.471-.107-.621-.532-.454-.93.03-.39-.783-.268-.759-.188-.234.08.04.721-.267.992L6.71 10.322c-.354.208-.704.128-.99-.115L3.644 8.8c-.083-.115.124-.589-.283-.656-.057-.012-.116-.007-.174-.008z" stroke-opacity=".98" fill="#fff" stroke="#000" stroke-width=".046"/></svg>