<svg xmlns="http://www.w3.org/2000/svg" width="100%" height="100%" viewBox="0 0 110 135" fill-rule="evenodd" stroke-linejoin="round" stroke-miterlimit="2" xmlns:v="https://vecta.io/nano"><g transform="matrix(0 1.29647 -1.29647 0 119.706 .236842)"><path d="M91.5 11.707a1.99 1.99 0 0 0-1.125-1.125c-.5-.207-1.082-.207-1.582 0a2.15 2.15 0 0 0-.687.438L55.608 43.518a2.33 2.33 0 0 1-3.293 0c-.911-.911-.183-2.383.728-3.293L83.745 10.25c.224-.654-11.955.306-13.14 2.135L42.9 40.108c-2.907-1.227-3.05-1.18-6.238-1.246-13.211-.278-25.388 10.966-26.197 24.158-.887 14.496 10.641 26.562 24.953 26.562 13.793 0 25-11.207 25-25a25.2 25.2 0 0 0-.207-3.082l3.372-3.372c.188-.188.332-.438.438-.688s.168-.519.168-.793l-.004-7.075h7.079a2.09 2.09 0 0 0 2.082-2.082v-7.079h7.079a2.09 2.09 0 0 0 2.082-2.082V31.25h7.079a2.09 2.09 0 0 0 2.082-2.082V12.5c0-.269-.063-.543-.168-.793zM26.582 52.793l20.625 20.625a2.1 2.1 0 0 1 0 2.957c-3.25 3.25-7.52 4.875-11.793 4.875s-8.543-1.625-11.793-4.875c-6.5-6.5-6.5-17.082 0-23.582.797-.773 2.172-.773 2.961 0z" fill="none" stroke="#000100" stroke-width="5.26"/><g fill-rule="nonzero"><path d="M91.5 11.707a1.99 1.99 0 0 0-1.125-1.125c-.5-.207-1.082-.207-1.582 0a2.15 2.15 0 0 0-.687.438L57.922 41.204c-.911.91-1.728 1.392-2.638.482s-.067-2.094.844-3.004l29.171-28.376c-.12.065-8.767-1.65-13.224.893L42.9 40.108c-2.907-1.227-3.05-1.18-6.238-1.246-13.211-.278-25.388 10.966-26.197 24.158-.887 14.496 10.641 26.562 24.953 26.562 13.793 0 25-11.207 25-25a25.2 25.2 0 0 0-.207-3.082l3.372-3.372c.188-.188.332-.438.438-.688s.168-.519.168-.793l-.004-7.075h7.079a2.09 2.09 0 0 0 2.082-2.082v-7.079h7.079a2.09 2.09 0 0 0 2.082-2.082V31.25h7.079a2.09 2.09 0 0 0 2.082-2.082V12.5c0-.269-.063-.543-.168-.793zM26.582 52.793l20.625 20.625a2.1 2.1 0 0 1 0 2.957c-3.25 3.25-7.52 4.875-11.793 4.875s-8.543-1.625-11.793-4.875c-6.5-6.5-6.5-17.082 0-23.582.797-.773 2.172-.773 2.961 0z" fill="#888"/><path d="M56.187 59.453c-.811-.05-1.427-.753-1.377-1.571s.749-1.44 1.56-1.389 1.427.753 1.376 1.571-.748 1.439-1.556 1.39h-.003zm-.723-5.443c-.783-.049-1.216-.736-1.415-1.465-.337-1.236-1.53-4.414-1.53-4.414-2.174-4.211-4.827-6.242-9.848-8.115 0 0-.434-.895-.396-1.513.052-.837-.111-1.3.718-1.249.219.013.425.077.61.172l.01.004c5.141 1.881 9.129 4.745 11.679 10.335.573 1.255 1.087 2.3 1.392 3.826 0 0 .061.342.051.519v.003c-.051.836-.437 1.947-1.269 1.896z" fill="#000100"/></g><path d="M72.349 13.508l3.758-.93-25.402 26.427-1.606-1.23 23.25-24.267z" fill="#fff"/></g></svg>