<?xml version="1.0" encoding="UTF-8" standalone="no"?>
<!DOCTYPE svg PUBLIC "-//W3C//DTD SVG 1.1//EN" "http://www.w3.org/Graphics/SVG/1.1/DTD/svg11.dtd">
<svg width="100%" height="100%" viewBox="0 0 110 135" version="1.1" xmlns="http://www.w3.org/2000/svg" xmlns:xlink="http://www.w3.org/1999/xlink" xml:space="preserve" xmlns:serif="http://www.serif.com/" style="fill-rule:evenodd;clip-rule:evenodd;stroke-linejoin:round;stroke-miterlimit:2;">
    <g transform="matrix(-1.26444,0,0,1.26444,119.534,1.57354)">
        <g transform="matrix(-0.755053,0,0,0.755053,92.1057,1.33524)">
            <path d="M53.611,105.479L66.632,92.457L89.008,114.832L75.987,127.855C74.967,128.874 73.601,129.386 72.241,129.386C70.88,129.386 69.514,128.874 68.496,127.855C66.452,125.776 66.452,122.439 68.496,120.364L69.685,119.174C71.764,117.13 71.764,113.794 69.685,111.751C67.642,109.67 64.305,109.67 62.262,111.751L61.035,112.94C60.016,113.96 58.686,114.471 57.32,114.471C55.96,114.471 54.63,113.96 53.605,112.94C51.567,110.891 51.567,107.555 53.611,105.479Z" style="fill:none;fill-rule:nonzero;stroke:rgb(32,19,65);stroke-width:5.66px;"/>
            <path d="M53.611,105.479L66.632,92.457L89.008,114.832L75.987,127.855C74.967,128.874 73.601,129.386 72.241,129.386C70.88,129.386 69.514,128.874 68.496,127.855C66.452,125.776 66.452,122.439 68.496,120.364L69.685,119.174C71.764,117.13 71.764,113.794 69.685,111.751C67.642,109.67 64.305,109.67 62.262,111.751L61.035,112.94C60.016,113.96 58.686,114.471 57.32,114.471C55.96,114.471 54.63,113.96 53.605,112.94C51.567,110.891 51.567,107.555 53.611,105.479Z" style="fill:rgb(158,161,167);fill-rule:nonzero;"/>
        </g>
        <g transform="matrix(-0.790865,0,0,0.790865,94.5352,-1.24446)">
            <path d="M69.07,59.025L105.679,95.605C109.157,99.082 107.218,104.678 103.77,108.12C100.386,111.504 93.969,114.432 90.526,111.147L90.492,111.181L53.72,74.375L69.07,59.025ZM11.662,28.088L24.376,15.374C29.354,10.399 35.855,7.896 42.36,7.896C48.865,7.896 55.365,10.399 60.339,15.374C70.258,25.292 70.287,41.383 60.339,51.336L44.797,66.913C39.823,71.888 33.254,74.357 26.753,74.357C20.248,74.357 13.749,71.852 8.805,66.913C-1.148,56.961 1.716,38.035 11.663,28.088L11.662,28.088ZM19.758,55.953C21.611,57.84 24.08,58.878 26.718,58.878C29.415,58.878 31.953,57.835 33.84,55.953L49.383,40.411C53.285,36.509 53.285,30.202 49.383,26.334C47.496,24.417 45.026,23.375 42.393,23.375C39.697,23.375 35.678,25.829 33.761,27.746L22.627,39.012C18.72,42.914 15.856,52.085 19.758,55.953Z" style="fill:none;fill-rule:nonzero;stroke:rgb(32,19,64);stroke-width:5.4px;"/>
            <path d="M69.07,59.025L105.679,95.605C109.157,99.082 107.218,104.678 103.77,108.12C100.386,111.504 93.969,114.432 90.526,111.147L90.492,111.181L53.72,74.375L69.07,59.025ZM11.662,28.088L24.376,15.374C29.354,10.399 35.855,7.896 42.36,7.896C48.865,7.896 55.365,10.399 60.339,15.374C70.258,25.292 70.287,41.383 60.339,51.336L44.797,66.913C39.823,71.888 33.254,74.357 26.753,74.357C20.248,74.357 13.749,71.852 8.805,66.913C-1.148,56.961 1.716,38.035 11.663,28.088L11.662,28.088ZM19.758,55.953C21.611,57.84 24.08,58.878 26.718,58.878C29.415,58.878 31.953,57.835 33.84,55.953L49.383,40.411C53.285,36.509 53.285,30.202 49.383,26.334C47.496,24.417 45.026,23.375 42.393,23.375C39.697,23.375 35.678,25.829 33.761,27.746L22.627,39.012C18.72,42.914 15.856,52.085 19.758,55.953Z" style="fill:rgb(136,136,136);fill-rule:nonzero;"/>
        </g>
        <g transform="matrix(-0.755053,0,0,0.755053,92.1185,2.17896)">
            <path d="M46.239,67.423L62.55,51.106C64.423,49.233 65.991,47.154 67.284,44.975C70.182,47.939 70.145,52.74 67.181,55.705L50.833,72.053C47.869,75.017 43.068,75.047 40.103,72.156C42.323,70.862 44.398,69.258 46.239,67.423Z" style="fill:none;fill-rule:nonzero;stroke:rgb(32,19,64);stroke-width:5.66px;"/>
            <path d="M46.239,67.423L62.55,51.106C64.423,49.233 65.991,47.154 67.284,44.975C70.182,47.939 70.145,52.74 67.181,55.705L50.833,72.053C47.869,75.017 43.068,75.047 40.103,72.156C42.323,70.862 44.398,69.258 46.239,67.423Z" style="fill:rgb(102,105,110);fill-rule:nonzero;"/>
        </g>
        <g transform="matrix(-0.790865,0,0,0.790865,94.5352,-1.24446)">
            <path d="M69.716,62.867L102.653,95.881C104.36,97.265 104.217,98.651 103.365,99.482C102.434,100.389 100.917,100.263 100.021,99.507L66.285,66.11L69.716,62.867ZM60.774,22.164C62.519,25.448 58.235,26.089 58.076,25.189C53.504,15.971 42.6,14.085 35.873,16.836C35.269,17.328 32.878,13.711 34.576,12.827C34.918,12.649 34.963,12.604 34.963,12.604C45.581,9.259 55.556,12.344 60.774,22.164Z" style="fill:white;fill-rule:nonzero;"/>
        </g>
    </g>
</svg>
