<svg xmlns="http://www.w3.org/2000/svg" width="100%" height="100%" viewBox="0 0 13 16" fill-rule="evenodd" stroke-linejoin="round" stroke-miterlimit="2" xmlns:v="https://vecta.io/nano"><path d="M6.258 6.054h-.68v-.877c0-.217-.153-.396-.34-.396H3.383c-.321.004-.631-.138-.863-.396-.257-.3-.382-.607-.34-1.028.088-.716.629-1.249 1.251-1.23h5.206c.186 0 .34-.179.34-.396s-.154-.396-.34-.396H6.795c-.186 0-.34-.179-.34-.396s.153-.396.34-.396h1.801c.494-.01.931.388 1.04.949a1.37 1.37 0 0 1 .02.237c0 .651-.46 1.186-1.019 1.186h-5.23c-.269-.01-.505.217-.547.526-.019.186.038.257.153.387a.48.48 0 0 0 .367.158h1.859c.559 0 1.02.536 1.02 1.187v.877z" fill="#252525" stroke="#252525" stroke-width="1.069"/><path d="M6.235 6.054h-.68v-.877c0-.217-.153-.396-.34-.396H3.36c-.321.004-.631-.138-.863-.396-.257-.3-.382-.607-.34-1.028.088-.716.629-1.249 1.251-1.23h5.206c.186 0 .34-.179.34-.396s-.154-.396-.34-.396H6.772c-.186 0-.34-.179-.34-.396s.153-.396.34-.396h1.801c.494-.01.931.388 1.04.949a1.37 1.37 0 0 1 .02.237c0 .651-.46 1.186-1.019 1.186h-5.23c-.269-.01-.505.217-.547.526-.019.186.038.257.153.387a.48.48 0 0 0 .367.158h1.859c.559 0 1.02.536 1.02 1.187v.877z" fill="#ffb600"/><path d="M11.732 15.991H1.063a1.05 1.05 0 0 1-.734-.298c-.195-.191-.304-.449-.304-.718V8.051c0-.27.11-.528.304-.718a1.05 1.05 0 0 1 .734-.298h10.67a1.05 1.05 0 0 1 .734.298c.195.191.304.449.304.718v6.924c0 .27-.11.528-.304.718a1.05 1.05 0 0 1-.734.298z" fill="#a62ff4" fill-rule="nonzero"/><path d="M7.075 6.334v.849H4.846v-.849h2.229zM2.455 9.667v1.654H.435V9.667h2.02zm.686 1.602v1.654H.435v-1.654h2.707zm9.259-1.602v1.724h-1.942V9.667h1.942zm-2.149 4.442v1.587H2.226v-1.587h8.026zm2.116-2.84v1.596H9.791v-1.596h2.577zm0 1.531v1.293H8.354V12.8h4.014zm-8.276 0v1.293H.448V12.8h3.643z" fill="#8edf5f"/><path d="M7.14 7.604H4.631c-.074 0-.145-.03-.197-.083s-.082-.126-.082-.201V6.72c0-.185.072-.362.2-.493s.301-.204.481-.204h1.704c.181 0 .354.074.481.204s.2.308.2.493v.599c0 .076-.029.148-.082.201s-.123.083-.197.083zm-2.3-.57h2.161v-.528c0-.034-.013-.066-.036-.09s-.055-.037-.088-.037H4.964c-.033 0-.065.013-.088.037s-.036.056-.036.09v.528zm7.604 2.887H.316c-.077 0-.151-.03-.206-.083s-.085-.126-.085-.201V8.051c0-.27.11-.528.305-.718s.459-.298.735-.298h10.63c.276 0 .54.107.735.298s.305.449.305.718v1.585a.28.28 0 0 1-.022.109c-.015.035-.036.066-.063.092s-.059.047-.095.062-.073.022-.112.022zM.607 9.352h11.545V8.051c0-.118-.048-.232-.134-.316s-.202-.131-.323-.131H1.065c-.121 0-.237.047-.323.131s-.134.197-.134.316v1.301zm11.836 2.087H.316c-.077 0-.151-.03-.206-.083s-.085-.126-.085-.201V9.636c0-.076.031-.148.085-.201s.129-.083.206-.083h12.127c.077 0 .151.03.206.083s.085.126.085.201v1.518c0 .076-.031.148-.085.201s-.129.083-.206.083zm-11.836-.57h11.545v-.948H.607v.948zm11.836 2.087H.316c-.077 0-.151-.03-.206-.083s-.085-.126-.085-.201v-1.518c0-.076.031-.148.085-.201s.129-.083.206-.083h12.127c.077 0 .151.03.206.083s.085.126.085.201v1.518c0 .076-.031.148-.085.201s-.129.083-.206.083zm-11.836-.57h11.545v-.948H.607v.948zm11.836 2.087H.316c-.077 0-.151-.03-.206-.083s-.085-.126-.085-.201v-1.518c0-.076.031-.148.085-.201s.129-.083.206-.083h12.127c.077 0 .151.03.206.083s.085.126.085.201v1.518c0 .076-.031.148-.085.201s-.129.083-.206.083zm-11.836-.57h11.545v-.948H.607v.948zm11.087 2.087H1.065c-.276 0-.54-.108-.735-.298s-.305-.449-.305-.718v-.786c0-.076.031-.148.085-.201s.129-.083.206-.083h12.127c.077 0 .151.03.206.083s.085.126.085.201v.786c0 .27-.11.528-.305.718s-.459.298-.735.298zM.607 14.474v.501c0 .118.048.232.134.316s.202.131.323.131h10.63c.121 0 .237-.047.323-.131s.134-.197.134-.316v-.501H.607zm9.523 1.518H2.456c-.154 0-.302-.03-.411-.083s-.17-.126-.17-.201v-1.518c0-.076.061-.148.17-.201s.257-.083.411-.083h7.675c.154 0 .302.03.411.083s.17.126.17.201v1.518c0 .076-.061.148-.17.201s-.257.083-.411.083zm-7.678-.57h7.498v-.948H2.453v.948zm-.116-6.659h-.781c-.077 0-.151-.03-.206-.083s-.085-.126-.085-.201.031-.148.085-.201.129-.083.206-.083h.781c.077 0 .151.03.206.083s.085.126.085.201-.031.148-.085.201-.129.083-.206.083zm7.53.088c.211 0 .381-.167.381-.373s-.171-.373-.381-.373-.381.167-.381.373.171.373.381.373zm1.387 0c.211 0 .381-.167.381-.373s-.171-.373-.381-.373-.381.167-.381.373.171.373.381.373zm-8.917 2.588c-.077 0-.151-.03-.206-.083s-.085-.126-.085-.201V9.636c0-.076.031-.148.085-.201s.129-.083.206-.083.151.03.206.083.085.126.085.201v1.518c0 .076-.031.148-.085.201s-.129.083-.206.083zm2.067 0c-.077 0-.151-.03-.206-.083s-.085-.126-.085-.201V9.636c0-.076.031-.148.085-.201s.129-.083.206-.083.151.03.206.083.085.126.085.201v1.518c0 .076-.031.148-.085.201s-.129.083-.206.083zm2.031 0c-.077 0-.151-.03-.206-.083s-.085-.126-.085-.201V9.636c0-.076.031-.148.085-.201s.129-.083.206-.083.151.03.206.083.085.126.085.201v1.518c0 .076-.031.148-.085.201s-.129.083-.206.083zm1.958 0c-.077 0-.151-.03-.206-.083s-.085-.126-.085-.201V9.636c0-.076.031-.148.085-.201s.129-.083.206-.083.151.03.206.083.085.126.085.201v1.518c0 .076-.031.148-.085.201s-.129.083-.206.083zm2.149 0c-.077 0-.151-.03-.206-.083s-.085-.126-.085-.201V9.636c0-.076.031-.148.085-.201s.129-.083.206-.083.151.03.206.083.085.126.085.201v1.518c0 .076-.031.148-.085.201s-.129.083-.206.083zM4.15 14.474c-.077 0-.151-.03-.206-.083s-.085-.126-.085-.201v-1.518c0-.076.031-.148.085-.201s.129-.083.206-.083.151.03.206.083.085.126.085.201v1.518c0 .076-.031.148-.085.201s-.129.083-.206.083zm2.14 0c-.077 0-.151-.03-.206-.083s-.085-.126-.085-.201v-1.518c0-.076.031-.148.085-.201s.129-.083.206-.083.151.03.206.083.085.126.085.201v1.518c0 .076-.031.148-.085.201s-.129.083-.206.083zm1.967 0c-.077 0-.151-.03-.206-.083s-.085-.126-.085-.201v-1.518c0-.076.031-.148.085-.201s.129-.083.206-.083.151.03.206.083.085.126.085.201v1.518c0 .076-.031.148-.085.201s-.129.083-.206.083zm-5.054-1.518c-.077 0-.151-.03-.206-.083s-.085-.126-.085-.201v-1.518c0-.076.031-.148.085-.201s.129-.083.206-.083.151.03.206.083.085.126.085.201v1.518c0 .076-.031.148-.085.201s-.129.083-.206.083zm2.02 0c-.077 0-.151-.03-.206-.083s-.085-.126-.085-.201v-1.518c0-.076.031-.148.085-.201s.129-.083.206-.083.151.03.206.083.085.126.085.201v1.518c0 .076-.031.148-.085.201s-.129.083-.206.083zm2.166 0c-.077 0-.151-.03-.206-.083s-.085-.126-.085-.201v-1.518c0-.076.031-.148.085-.201s.129-.083.206-.083.151.03.206.083.085.126.085.201v1.518c0 .076-.031.148-.085.201s-.129.083-.206.083zm2.243 0c-.077 0-.151-.03-.206-.083s-.085-.126-.085-.201v-1.518c0-.076.031-.148.085-.201s.129-.083.206-.083.151.03.206.083.085.126.085.201v1.518c0 .076-.031.148-.085.201s-.129.083-.206.083zm.636 3.035c-.077 0-.151-.03-.206-.083s-.085-.126-.085-.201v-1.518c0-.076.031-.148.085-.201s.129-.083.206-.083.151.03.206.083.085.126.085.201v1.518c0 .076-.031.148-.085.201s-.129.083-.206.083zm-8.088 0c-.077 0-.151-.03-.206-.083s-.085-.126-.085-.201v-1.518c0-.076.031-.148.085-.201s.129-.083.206-.083.151.03.206.083.085.126.085.201v1.518c0 .076-.031.148-.085.201s-.129.083-.206.083z" fill="#252525" fill-rule="nonzero"/></svg>