<?xml version="1.0" encoding="UTF-8" standalone="no"?>
<!DOCTYPE svg PUBLIC "-//W3C//DTD SVG 1.1//EN" "http://www.w3.org/Graphics/SVG/1.1/DTD/svg11.dtd">
<svg width="100%" height="100%" viewBox="0 0 110 135" version="1.1" xmlns="http://www.w3.org/2000/svg" xmlns:xlink="http://www.w3.org/1999/xlink" xml:space="preserve" xmlns:serif="http://www.serif.com/" style="fill-rule:evenodd;clip-rule:evenodd;stroke-linejoin:round;stroke-miterlimit:2;">
    <g transform="matrix(8.06998e-17,1.31793,-1.38497,8.48048e-17,121.519,-0.578186)">
        <g transform="matrix(4.45599e-17,-0.727717,0.727717,4.45599e-17,2.71358,89.9393)">
            <path d="M34.466,134.31C34.138,134.173 33.827,133.975 33.58,133.724L18.266,118.154C17.214,117.084 17.23,115.347 18.298,114.296L24.911,107.793L18.407,101.18C17.355,100.111 17.37,98.374 18.439,97.323L25.051,90.819L18.548,84.207C17.496,83.137 17.511,81.4 18.579,80.349L25.192,73.845L18.688,67.24C18.436,66.984 18.248,66.675 18.116,66.345C17.986,66.014 17.891,65.648 17.893,65.3L17.945,59.051C16.892,58.214 15.879,57.337 14.92,56.363C2.248,43.479 2.42,22.714 15.304,10.041C28.673,-3.108 50.527,-2.428 63.016,11.927C74.381,24.993 73.337,46.683 60.741,58.561C57.703,61.429 57.613,61.605 53.77,63.129L53.361,114.48C53.488,115.978 43.235,129.797 43.072,125.687L44.223,68.051C44.236,66.588 44.494,65.069 43.335,64.667C43.306,64.657 43.248,64.578 43.227,64.602C43.188,64.646 42.256,66.777 41.048,67.262C39.659,67.82 38.632,67.946 38.632,67.946L38.267,131.833C38.265,132.181 38.165,132.546 38.028,132.874C37.751,133.527 37.207,134.061 36.55,134.327C35.874,134.612 35.137,134.606 34.466,134.31ZM38.25,2.125C21.802,11.496 16.514,27.646 19.007,41.15C21.151,52.763 45.94,60.791 43.219,64.592C43.196,64.623 42.425,66.784 40.76,67.366C40.722,67.38 40.379,67.518 39.94,67.648C39.501,67.778 38.949,68.064 38.632,67.946C34.666,66.474 16.841,57.982 14.026,41.789C10.772,23.07 20.878,5.332 38.25,2.125ZM68.098,23.413L36.276,44.574C35.022,45.407 33.311,45.063 32.478,43.81C29.143,38.796 28.159,32.891 29.264,27.403C30.367,21.918 33.559,16.849 38.573,13.515C48.602,6.846 62.194,9.58 68.864,19.609C69.651,20.833 69.295,22.599 68.098,23.413Z" style="fill:none;stroke:rgb(0,1,0);stroke-width:5.74px;"/>
            <path d="M34.466,134.31C34.138,134.173 33.827,133.975 33.58,133.724L18.266,118.154C17.214,117.084 17.23,115.347 18.298,114.296L24.911,107.793L18.407,101.18C17.355,100.111 17.37,98.374 18.439,97.323L25.051,90.819L18.548,84.207C17.496,83.137 17.511,81.4 18.579,80.349L25.192,73.845L18.688,67.24C18.436,66.984 18.248,66.675 18.116,66.345C17.986,66.014 17.891,65.648 17.893,65.3L17.945,59.051C16.892,58.214 15.879,57.337 14.92,56.363C2.248,43.479 2.42,22.714 15.304,10.041C28.673,-3.108 50.527,-2.428 63.016,11.927C74.381,24.993 73.337,46.683 60.741,58.561C57.703,61.429 57.613,61.605 53.77,63.129L53.361,114.48C53.488,115.978 43.235,129.797 43.072,125.687L44.223,68.051C44.236,66.588 44.494,65.069 43.335,64.667C43.306,64.657 43.248,64.578 43.227,64.602C43.188,64.646 42.256,66.777 41.048,67.262C39.659,67.82 38.632,67.946 38.632,67.946L38.267,131.833C38.265,132.181 38.165,132.546 38.028,132.874C37.751,133.527 37.207,134.061 36.55,134.327C35.874,134.612 35.137,134.606 34.466,134.31ZM38.25,2.125C21.802,11.496 16.514,27.646 19.007,41.15C21.151,52.763 45.94,60.791 43.219,64.592C43.196,64.623 42.425,66.784 40.76,67.366C40.722,67.38 40.379,67.518 39.94,67.648C39.501,67.778 38.949,68.064 38.632,67.946C34.666,66.474 16.841,57.982 14.026,41.789C10.772,23.07 20.878,5.332 38.25,2.125ZM68.098,23.413L36.276,44.574C35.022,45.407 33.311,45.063 32.478,43.81C29.143,38.796 28.159,32.891 29.264,27.403C30.367,21.918 33.559,16.849 38.573,13.515C48.602,6.846 62.194,9.58 68.864,19.609C69.651,20.833 69.295,22.599 68.098,23.413Z" style="fill:rgb(102,105,110);"/>
        </g>
        <g transform="matrix(4.45599e-17,-0.727717,0.727717,4.45599e-17,2.71358,89.9393)">
            <path d="M26.751,28.549C31.448,73.972 103.517,9.909 53.885,6.462C48.415,6.082 25.527,16.718 26.751,28.549ZM45.187,13.64C51.532,13.64 56.683,18.68 56.683,24.887C56.683,31.095 51.532,36.135 45.187,36.135C38.843,36.135 33.692,31.095 33.692,24.887C33.692,18.68 38.843,13.64 45.187,13.64Z" style="fill:none;fill-rule:nonzero;stroke:rgb(0,1,0);stroke-width:5.74px;"/>
            <path d="M50.764,51.629C52.104,51.899 75.863,5.516 59.127,1.068C40.737,-3.818 22.259,7.871 18.56,26.254C14.996,43.971 33.047,48.064 50.764,51.629ZM45.187,13.64C51.532,13.64 56.683,18.68 56.683,24.887C56.683,31.095 51.532,36.135 45.187,36.135C38.843,36.135 33.692,31.095 33.692,24.887C33.692,18.68 38.843,13.64 45.187,13.64Z" style="fill:rgb(136,136,136);fill-rule:nonzero;"/>
        </g>
    </g>
    <g transform="matrix(-0.209686,1.2794,-1.2794,-0.209686,136.561,1.52767)">
        <path d="M91.5,11.707C91.293,11.187 90.895,10.789 90.375,10.582C89.875,10.375 89.293,10.375 88.793,10.582C88.543,10.687 88.293,10.832 88.106,11.02L55.608,43.518C54.697,44.428 53.225,44.428 52.315,43.518C51.404,42.607 52.132,41.135 53.043,40.225L83.745,10.25C83.969,9.596 71.79,10.556 70.605,12.385L42.9,40.108C39.993,38.881 39.85,38.928 36.662,38.862C23.451,38.584 11.274,49.828 10.465,63.02C9.578,77.516 21.106,89.582 35.418,89.582C49.211,89.582 60.418,78.375 60.418,64.582C60.418,63.539 60.336,62.519 60.211,61.5L63.583,58.128C63.771,57.94 63.915,57.69 64.021,57.44C64.126,57.19 64.189,56.921 64.189,56.647L64.185,49.572L71.264,49.572C72.408,49.572 73.346,48.635 73.346,47.49L73.346,40.411L80.425,40.411C81.569,40.411 82.507,39.474 82.507,38.329L82.507,31.25L89.586,31.25C90.73,31.25 91.668,30.313 91.668,29.168L91.668,12.5C91.668,12.231 91.605,11.957 91.5,11.707Z" style="fill:none;fill-rule:nonzero;stroke:rgb(0,1,0);stroke-width:5.26px;"/>
        <path d="M91.5,11.707C91.293,11.187 90.895,10.789 90.375,10.582C89.875,10.375 89.293,10.375 88.793,10.582C88.543,10.687 88.293,10.832 88.106,11.02L57.922,41.204C57.011,42.114 56.194,42.596 55.284,41.686C54.373,40.775 55.217,39.592 56.128,38.682L85.299,10.306C85.179,10.371 76.532,8.656 72.075,11.199L42.9,40.108C39.993,38.881 39.85,38.928 36.662,38.862C23.451,38.584 11.274,49.828 10.465,63.02C9.578,77.516 21.106,89.582 35.418,89.582C49.211,89.582 60.418,78.375 60.418,64.582C60.418,63.539 60.336,62.519 60.211,61.5L63.583,58.128C63.771,57.94 63.915,57.69 64.021,57.44C64.126,57.19 64.189,56.921 64.189,56.647L64.185,49.572L71.264,49.572C72.408,49.572 73.346,48.635 73.346,47.49L73.346,40.411L80.425,40.411C81.569,40.411 82.507,39.474 82.507,38.329L82.507,31.25L89.586,31.25C90.73,31.25 91.668,30.313 91.668,29.168L91.668,12.5C91.668,12.231 91.605,11.957 91.5,11.707ZM29.558,55.444C38.04,60.359 41.785,64.771 47.207,73.418C48.019,74.231 48.019,75.563 47.207,76.375C43.957,79.625 39.687,81.25 35.414,81.25C31.144,81.25 26.871,79.625 23.621,76.375C17.121,69.875 16.35,64.156 22.85,57.656C23.647,56.883 28.769,54.671 29.558,55.444Z" style="fill:rgb(136,136,136);fill-rule:nonzero;"/>
        <g transform="matrix(-0.163339,-0.610225,0.610225,-0.163339,5.08074,106.684)">
            <path d="M51.306,97.483C51.715,96.263 53.042,95.609 54.272,96.021C55.502,96.433 56.167,97.755 55.758,98.975C55.35,100.195 54.022,100.848 52.792,100.436C51.562,100.024 50.897,98.703 51.304,97.488L51.306,97.483ZM59.925,98.606C60.32,97.429 61.548,97.047 62.744,97.041C64.772,97.032 70.12,96.508 70.12,96.508C77.449,94.907 81.641,91.682 86.56,84.77C86.56,84.77 88.106,84.472 89.036,84.783C90.294,85.205 91.07,85.145 90.652,86.392C90.542,86.722 90.361,87.01 90.14,87.254L90.129,87.268C85.149,94.359 79.136,99.285 69.545,100.897C67.391,101.259 65.583,101.617 63.124,101.46C63.124,101.46 62.576,101.414 62.309,101.325L62.304,101.323C61.046,100.902 59.506,99.858 59.925,98.606Z" style="fill:rgb(0,1,0);fill-rule:nonzero;"/>
        </g>
        <g transform="matrix(0.312785,-0.326466,0.0634906,0.0608301,46.7119,40.6585)">
            <path d="M82.59,-3.088L89.826,20.458L8.752,19.781L8.258,-3.088L82.59,-3.088Z" style="fill:white;"/>
        </g>
    </g>
</svg>
