<svg xmlns="http://www.w3.org/2000/svg" width="100%" height="100%" viewBox="0 0 14 16" fill-rule="evenodd" stroke-linejoin="round" stroke-miterlimit="2" xmlns:v="https://vecta.io/nano"><g transform="scale(.118519)"><g fill-rule="nonzero"><path d="M109.115 104.143l-2.132-4.963-8.391-19.602c-.627-1.45-1.824-2.514-3.252-3.042 2.724-1.935 4.513-5.096 4.513-8.687l.004-44.394a10.69 10.69 0 0 0-10.674-10.674H20.65A10.69 10.69 0 0 0 9.976 23.455v44.394c0 3.591 1.789 6.744 4.513 8.687-1.429.528-2.625 1.592-3.252 3.042L.714 104.143c-1.176 2.745-.901 5.877.746 8.37s4.415 3.985 7.401 3.985h92.091c2.986 0 5.753-1.493 7.401-3.985s1.939-5.625.763-8.37h-.001z" fill="#000100"/><path d="M62.962 107.866H46.556l.811-4.371c.035-.21.232-.361.438-.361h13.917c.21 0 .395.155.438.374l.802 4.358z" fill="#d3d3d3"/><path d="M12.344 67.849V23.455a8.31 8.31 0 0 1 8.301-8.301h68.53a8.31 8.31 0 0 1 8.301 8.301v44.394a8.31 8.31 0 0 1-8.301 8.301H20.649c-4.582 0-8.306-3.723-8.306-8.301h.001zm94.034 43.355c-1.21 1.823-3.231 2.922-5.427 2.922H8.864c-2.184 0-4.217-1.086-5.427-2.922-1.163-1.759-1.373-3.955-.614-5.907.198.472.395.943.682 1.385 1.472 2.231 3.956 3.57 6.633 3.57h89.543c2.681 0 5.152-1.33 6.632-3.57.288-.437.485-.909.683-1.385.755 1.956.549 4.152-.618 5.907z" fill="#7d7d7d"/><path d="M13.421 80.509a3.27 3.27 0 0 1 3.007-1.987h76.964c1.317 0 2.493.781 3.008 1.987l8.391 19.606c.746 1.759.583 3.668-.472 5.26a5.49 5.49 0 0 1-4.646 2.505H65.37l-.888-4.801c-.241-1.338-1.407-2.316-2.767-2.316H47.811c-1.36 0-2.527.978-2.767 2.308l-.889 4.8-34.007-.004a5.45 5.45 0 0 1-4.646-2.505c-1.056-1.592-1.219-3.505-.472-5.26l8.391-19.593zm77.451-58.69v47.989H18.248V21.819h72.624z" fill="#a2a2a2"/><path d="M88.345 83.606l5.666 12.626H15.746l5.261-12.707 67.338.081z" fill="#7d7d7d"/><path d="M15.938 96.974h77.681a1.18 1.18 0 1 0 0-2.368l-18.079-.005-.956-3.569H91.19a1.2 1.2 0 0 0 1.013-.562 1.17 1.17 0 0 0 .043-1.154l-3.033-5.997a1.19 1.19 0 0 0-1.056-.648H63.665l-42.236.004c-.45 0-.858.253-1.055.648l-3.033 5.997a1.2 1.2 0 0 0 .043 1.154c.218.352.592.562 1.012.562l16.636-.004-1.119 3.569H15.938a1.18 1.18 0 0 0-1.185 1.184c-.004.661.537 1.189 1.185 1.189zm73.31-8.306H66.819l-1.45-3.634h22.042l1.837 3.634zm-26.427-3.634l1.45 3.634H45.819l.978-3.634h16.024zm-40.665 0H44.34l-.978 3.634H20.32l1.836-3.634zm15.362 6.007h34.596l.956 3.569H36.391l1.127-3.569zM17.013 36.197c0-.987.274-1.472 1.232-1.472s1.237.485 1.237 1.472v2.447c0 .987-.239 1.487-1.196 1.487s-1.273-.5-1.273-1.487v-2.447zm0 8.83c0-.987.302-1.801 1.259-1.801s1.21.814 1.21 1.801v23.076h70.869V22.76H19.482v7.055c0 .987-.252 1.774-1.21 1.774s-1.259-.787-1.259-1.774v-7.843c0-.988.777-1.788 1.734-1.788h72.339c.957 0 1.734.8 1.734 1.788v46.919c0 .988-.777 1.788-1.734 1.788H18.747c-.957 0-1.734-.8-1.734-1.788V45.027z" fill="#080808"/></g><path d="M72.115 29.488l7.703 7.147-1.173 16.897-6.231 7.625H40.568l-6.66-5.579V35.016l5.745-5.528h32.462zm13.536 12.995L73.776 30.576a3.95 3.95 0 0 0-2.71-1.079c-2.17 0-3.956 1.793-3.956 3.972a3.98 3.98 0 0 0 1.075 2.721l9.068 9.125-9.068 9.069c-.74.744-1.155 1.753-1.155 2.804a3.98 3.98 0 0 0 3.952 3.967c1.048 0 2.055-.419 2.796-1.164L85.651 48.09c1.528-1.539 1.528-4.067 0-5.607zM42.317 30.576c-1.534-1.539-4.058-1.539-5.592 0L24.85 42.483c-1.533 1.541-1.533 4.074 0 5.614l11.875 11.894c.741.745 1.747 1.164 2.796 1.164a3.98 3.98 0 0 0 3.952-3.967c0-1.051-.415-2.06-1.155-2.804l-9.068-9.069 9.068-9.125c1.533-1.541 1.533-4.074 0-5.614zM62.45 19.772a4 4 0 0 0-5.084 2.393l-11.699 43.56a4.04 4.04 0 0 0-.135 1.035 4.02 4.02 0 0 0 3.991 4.007c1.544 0 2.954-.899 3.612-2.302l11.699-43.56c.16-.44.242-.904.242-1.373 0-1.679-1.053-3.187-2.626-3.76z" fill="#5c00ad"/><path d="M40.451 26.488h12.647l1.37-5.101.079-.248c1.309-3.597 5.326-5.48 8.917-4.19l.013.004c2.752 1.003 4.599 3.64 4.599 6.579a7.01 7.01 0 0 1-.374 2.259l-.187.697h4.6a3 3 0 0 1 1.868.652 6.94 6.94 0 0 1 1.852 1.254l.065.063 11.875 11.908.005.005c2.68 2.7 2.68 7.134 0 9.834l-.005.005-11.872 11.898c-.354.355-.741.668-1.155.936l-.01.012a3 3 0 0 1-2.323 1.102H57.398l-1.366 5.086c-.046.17-.107.336-.181.495a7 7 0 0 1-6.328 4.029c-3.832 0-6.992-3.16-6.992-7.007a7.04 7.04 0 0 1 .236-1.806l.002-.007.212-.79h-2.414c-.142 0-.284-.01-.424-.03l-.623.028c-1.846 0-3.619-.737-4.919-2.044L22.727 50.217l-.004-.003c-2.688-2.702-2.688-7.145 0-9.847l.002-.002L34.6 28.457c1.586-1.589 3.77-2.246 5.851-1.969zm-.203 3c-1.24-.229-2.572.133-3.523 1.088L24.85 42.483c-1.533 1.541-1.533 4.074 0 5.614l11.875 11.894c.741.745 1.747 1.164 2.796 1.164a3.9 3.9 0 0 0 .915-.109l-6.528-5.468v-9.603l-.659-.66.659-.664v-9.635l5.745-5.528h.595zm6.646 31.669l8.505-31.669H40.248a3.91 3.91 0 0 1 2.069 1.088c1.533 1.54 1.533 4.073 0 5.614l-8.409 8.461v1.324l8.409 8.409c.74.744 1.155 1.753 1.155 2.804a3.99 3.99 0 0 1-3.036 3.858l.131.111h6.326zm0 0l-1.227 4.568a4.04 4.04 0 0 0-.135 1.035 4.02 4.02 0 0 0 3.991 4.007c1.544 0 2.954-.899 3.612-2.302l1.963-7.308h-8.204zm25.872-.431a3.94 3.94 0 0 1-1.786.429 3.98 3.98 0 0 1-3.952-3.967c0-1.051.415-2.06 1.155-2.804l9.068-9.069-9.068-9.125a3.98 3.98 0 0 1-1.075-2.721c0-2.179 1.786-3.972 3.956-3.972.445 0 .884.076 1.297.22l-.247-.229h-8.513l-8.505 31.669h17.316l.352-.431zm0 0c.371-.188.711-.435 1.01-.735L85.651 48.09c1.528-1.539 1.528-4.067 0-5.607l-5.833-5.848-1.173 16.897-5.879 7.194zm7.052-24.091l-6.042-6.059a3.94 3.94 0 0 0-1.413-.859l7.456 6.918zm-16.215-7.147l1.231-4.583c.16-.44.242-.904.242-1.373 0-1.679-1.053-3.187-2.626-3.76a4 4 0 0 0-5.084 2.393l-1.967 7.323h8.204zM52.797 58.157l6.894-25.669H57.7l-6.894 25.669h1.991zm18.196-.002l4.725-5.783.096-1.376-5.508 5.509c-.178.182-.278.427-.278.683 0 .527.426.967.952.967h.013zm5.56-17.8l.173-2.497-5.771-5.354c-.475.056-.846.472-.846.965 0 .238.087.468.245.649l6.199 6.237zm-36.176-7.4l-3.468 3.338v1.084l3.282-3.303c.299-.301.362-.755.186-1.119zm-3.468 20.263v.96l3.564 2.985a.97.97 0 0 0-.281-.662l-3.283-3.283z" fill="#7b7c7c"/><path d="M70.23 29.488l6.965 5.724v20.155l-6.682 5.791H40.273l-6.325-5.579V35.016l5.456-5.528H70.23z" fill="#5c00ad"/><path d="M85.894 42.483L73.972 30.576a3.97 3.97 0 0 0-2.721-1.078c-2.179 0-3.972 1.793-3.972 3.972a3.97 3.97 0 0 0 1.078 2.721l9.104 9.126-9.104 9.069a3.97 3.97 0 0 0-1.16 2.803 3.99 3.99 0 0 0 3.967 3.967 3.97 3.97 0 0 0 2.807-1.164L85.894 48.09c1.534-1.54 1.534-4.067 0-5.607zM42.39 30.576c-1.541-1.539-4.074-1.539-5.614 0L24.854 42.483c-1.539 1.541-1.539 4.074 0 5.614l11.922 11.894a3.97 3.97 0 0 0 2.807 1.164 3.99 3.99 0 0 0 3.967-3.967 3.97 3.97 0 0 0-1.16-2.803l-9.104-9.069 9.104-9.126c1.539-1.541 1.539-4.074 0-5.614zm20.212-10.803a4.02 4.02 0 0 0-5.104 2.393l-11.745 43.56a4.02 4.02 0 0 0-.136 1.034 4.03 4.03 0 0 0 4.007 4.007c1.55 0 2.966-.899 3.626-2.302l11.745-43.56c.161-.44.243-.904.243-1.373 0-1.679-1.057-3.187-2.636-3.76z" fill="#fff"/></g></svg>