<?xml version="1.0" encoding="UTF-8" standalone="no"?>
<!DOCTYPE svg PUBLIC "-//W3C//DTD SVG 1.1//EN" "http://www.w3.org/Graphics/SVG/1.1/DTD/svg11.dtd">
<svg width="100%" height="100%" viewBox="0 0 110 135" version="1.1" xmlns="http://www.w3.org/2000/svg" xmlns:xlink="http://www.w3.org/1999/xlink" xml:space="preserve" xmlns:serif="http://www.serif.com/" style="fill-rule:evenodd;clip-rule:evenodd;stroke-linejoin:round;stroke-miterlimit:2;">
    <g>
        <path d="M109.115,104.143L106.983,99.18L98.592,79.578C97.965,78.128 96.768,77.064 95.34,76.536C98.064,74.601 99.853,71.44 99.853,67.849L99.857,23.455C99.857,17.569 95.07,12.781 89.183,12.781L20.65,12.781C14.764,12.781 9.976,17.569 9.976,23.455L9.976,67.849C9.976,71.44 11.765,74.593 14.489,76.536C13.06,77.064 11.864,78.128 11.237,79.578L0.714,104.143C-0.462,106.888 -0.187,110.02 1.46,112.513C3.108,115.005 5.875,116.498 8.861,116.498L100.952,116.498C103.938,116.498 106.705,115.005 108.353,112.513C110.004,110.02 110.292,106.888 109.116,104.143L109.115,104.143Z" style="fill:rgb(0,1,0);fill-rule:nonzero;"/>
        <path d="M12.344,67.849L12.344,23.455C12.344,18.873 16.068,15.154 20.645,15.154L89.175,15.154C93.757,15.154 97.476,18.877 97.476,23.455L97.476,67.849C97.476,72.431 93.752,76.15 89.175,76.15L20.649,76.15C16.067,76.15 12.343,72.427 12.343,67.849L12.344,67.849Z" style="fill:rgb(125,125,125);fill-rule:nonzero;"/>
        <path d="M13.421,80.509C13.936,79.299 15.124,78.522 16.428,78.522L93.392,78.522C94.709,78.522 95.885,79.303 96.4,80.509L104.791,100.115C105.537,101.874 105.374,103.783 104.319,105.375C103.264,106.966 101.573,107.88 99.673,107.88L65.37,107.88L64.482,103.079C64.241,101.741 63.075,100.763 61.715,100.763L47.811,100.763C46.451,100.763 45.284,101.741 45.044,103.071L44.155,107.871L10.148,107.867C8.239,107.867 6.544,106.958 5.502,105.362C4.446,103.77 4.283,101.857 5.03,100.102L13.421,80.509Z" style="fill:rgb(162,162,162);fill-rule:nonzero;"/>
        <path d="M62.962,107.866L46.556,107.866L47.367,103.495C47.402,103.285 47.599,103.134 47.805,103.134L61.722,103.134C61.932,103.134 62.117,103.289 62.16,103.508L62.962,107.866Z" style="fill:rgb(211,211,211);fill-rule:nonzero;"/>
        <path d="M106.378,111.204C105.168,113.027 103.147,114.126 100.951,114.126L8.864,114.126C6.68,114.126 4.647,113.04 3.437,111.204C2.274,109.445 2.064,107.249 2.823,105.297C3.021,105.769 3.218,106.24 3.505,106.682C4.977,108.913 7.461,110.252 10.138,110.252L99.681,110.252C102.362,110.252 104.833,108.922 106.313,106.682C106.601,106.245 106.798,105.773 106.996,105.297C107.751,107.253 107.545,109.449 106.378,111.204Z" style="fill:rgb(125,125,125);fill-rule:nonzero;"/>
        <g transform="matrix(1.19383,0,0,1,20.6205,0.728417)">
            <path d="M56.729,82.878L61.475,95.504L-4.083,95.504L0.324,82.797L56.729,82.878Z" style="fill:rgb(125,125,125);"/>
        </g>
        <path d="M15.938,96.974L93.619,96.974C94.279,96.974 94.803,96.446 94.803,95.79C94.803,95.129 94.275,94.606 93.619,94.606L75.54,94.601L74.584,91.032L91.19,91.032C91.598,91.032 91.98,90.822 92.203,90.47C92.422,90.118 92.434,89.681 92.246,89.316L89.213,83.319C89.015,82.924 88.599,82.671 88.157,82.671L63.665,82.671L21.429,82.675C20.979,82.675 20.571,82.928 20.374,83.323L17.341,89.32C17.152,89.681 17.178,90.123 17.384,90.474C17.602,90.826 17.976,91.036 18.396,91.036L35.032,91.032L33.913,94.601L15.938,94.601C15.277,94.601 14.753,95.129 14.753,95.785C14.749,96.446 15.29,96.974 15.938,96.974ZM89.248,88.668L66.819,88.668L65.369,85.034L87.411,85.034L89.248,88.668ZM62.821,85.034L64.271,88.668L45.819,88.668L46.797,85.034L62.821,85.034ZM22.156,85.034L44.34,85.034L43.362,88.668L20.32,88.668L22.156,85.034ZM37.518,91.041L72.114,91.041L73.07,94.61L36.391,94.61L37.518,91.041Z" style="fill:rgb(8,8,8);fill-rule:nonzero;"/>
        <g transform="matrix(1.04169,0,0,0.950878,-2.45269,3.42911)">
            <rect x="19.872" y="19.34" width="69.718" height="50.468" style="fill:rgb(162,162,162);"/>
        </g>
    </g>
    <path d="M17.013,36.197C17.013,35.21 17.287,34.725 18.245,34.725C19.202,34.725 19.482,35.21 19.482,36.197L19.482,38.644C19.482,39.631 19.243,40.131 18.286,40.131C17.328,40.131 17.013,39.631 17.013,38.644L17.013,36.197Z" style="fill:rgb(0,1,0);fill-rule:nonzero;"/>
    <path d="M17.013,45.027C17.013,44.04 17.315,43.226 18.272,43.226C19.23,43.226 19.482,44.04 19.482,45.027L19.482,68.103L90.351,68.103L90.351,22.76L19.482,22.76L19.482,29.815C19.482,30.802 19.23,31.589 18.272,31.589C17.315,31.589 17.013,30.802 17.013,29.815L17.013,21.972C17.013,20.984 17.79,20.184 18.747,20.184L91.086,20.184C92.043,20.184 92.82,20.984 92.82,21.972L92.82,68.891C92.82,69.879 92.043,70.679 91.086,70.679L18.747,70.679C17.79,70.679 17.013,69.879 17.013,68.891L17.013,45.027Z" style="fill:rgb(0,1,0);fill-rule:nonzero;"/>
    <g transform="matrix(0.774658,0,0,0.764815,11.5748,11.9869)">
        <g transform="matrix(1.29089,0,0,1.29089,-14.9418,-14.9158)">
            <path d="M42.654,18.984C42.093,18.984 36.537,20.575 36.537,22.529L36.537,68.912C36.537,70.861 41.897,72.527 42.458,72.527L68.754,72.353C69.315,72.353 73.26,70.549 73.26,68.6L73.26,22.213C73.26,20.263 68.77,18.625 68.209,18.625L37.555,18.984L42.654,18.984ZM49.153,25.691L49.153,20.098L43.583,20.098C40.73,20.098 38.495,20.917 36.88,22.557C35.139,24.34 34.268,26.88 34.268,30.177L34.268,33.987C34.268,36.977 33.775,39.139 32.789,40.472C31.677,41.823 29.757,42.499 27.03,42.499L25.74,42.499L25.74,48.768L27.03,48.768C29.757,48.768 31.677,49.444 32.789,50.795C33.775,51.984 34.268,54.073 34.268,57.064L34.268,61.09C34.268,64.369 35.139,66.837 36.88,68.494C38.495,70.278 40.73,71.169 43.583,71.169L49.153,71.169L49.153,65.333L44.495,65.116C43.761,64.972 43.142,64.675 42.639,64.225C42.135,63.774 41.768,63.099 41.537,62.198C41.285,61.315 41.16,60.198 41.16,58.847L41.16,55.929C41.16,53.389 40.604,51.299 39.492,49.66C38.254,48.02 36.649,46.75 34.677,45.85L34.677,45.174C36.649,44.435 38.254,43.246 39.492,41.607C40.604,39.806 41.16,37.707 41.16,35.311L41.16,32.176C41.16,30.843 41.285,29.726 41.537,28.826C41.768,28.087 42.135,27.412 42.639,26.799C43.142,26.511 43.761,26.214 44.495,25.907L49.153,25.691M85.254,42.329L83.775,42.329C81.152,42.329 79.285,41.653 78.173,40.302C77.061,38.969 76.505,36.808 76.505,33.817L76.505,30.007C76.505,26.71 75.708,24.17 74.114,22.387C72.498,20.747 70.264,19.928 67.411,19.928L61.652,19.928L61.652,25.521L66.498,25.737C67.107,26.044 67.663,26.341 68.166,26.629C68.649,27.242 69.016,27.917 69.268,28.656C69.519,29.557 69.645,30.674 69.645,32.007L69.645,35.141C69.645,37.537 70.264,39.636 71.502,41.437C72.614,43.077 74.166,44.266 76.159,45.004L76.159,45.68C74.166,46.581 72.614,47.851 71.502,49.49C70.264,51.129 69.645,53.219 69.645,55.759L69.645,58.677C69.645,60.029 69.519,61.145 69.268,62.028C69.016,62.929 68.649,63.604 68.166,64.055C67.663,64.505 67.107,64.802 66.498,64.947L61.652,65.163L61.652,70.999L67.411,70.999C70.264,70.999 72.498,70.108 74.114,68.324C75.708,66.667 76.505,64.199 76.505,60.92L76.505,56.894C76.505,53.903 77.061,51.814 78.173,50.625C79.285,49.274 81.152,48.598 83.775,48.598L85.254,48.598L85.254,42.329Z" style="fill:rgb(92,0,173);fill-rule:nonzero;stroke:rgb(123,124,124);stroke-width:8.05px;"/>
        </g>
        <g transform="matrix(1.37857,0,0,4.65467,-36.037,-90.153)">
            <path d="M55.244,21.429C54.719,21.429 49.516,21.87 49.516,22.412L49.516,35.275C49.516,35.816 54.535,36.278 55.06,36.278L79.683,36.23C80.209,36.23 83.903,35.729 83.903,35.189L83.903,22.324C83.903,21.783 79.699,21.329 79.174,21.329L50.469,21.429L55.244,21.429Z" style="fill:rgb(92,0,173);fill-rule:nonzero;"/>
        </g>
        <g transform="matrix(0.759478,0,0,0.697652,20.0005,8.8902)">
            <path d="M38.24,13.414L38.24,3.064L29.39,3.064C24.857,3.064 21.307,4.581 18.74,7.614C15.973,10.914 14.59,15.614 14.59,21.714L14.59,28.764C14.59,34.298 13.807,38.298 12.24,40.764C10.473,43.264 7.423,44.514 3.09,44.514L1.04,44.514L1.04,56.114L3.09,56.114C7.423,56.114 10.473,57.364 12.24,59.864C13.807,62.064 14.59,65.931 14.59,71.464L14.59,78.914C14.59,84.981 15.973,89.548 18.74,92.614C21.307,95.914 24.857,97.564 29.39,97.564L38.24,97.564L38.24,86.764L30.84,86.364C29.673,86.098 28.69,85.548 27.89,84.714C27.09,83.881 26.507,82.631 26.14,80.964C25.74,79.331 25.54,77.264 25.54,74.764L25.54,69.364C25.54,64.664 24.657,60.798 22.89,57.764C20.923,54.731 18.373,52.381 15.24,50.714L15.24,49.464C18.373,48.098 20.923,45.898 22.89,42.864C24.657,39.531 25.54,35.648 25.54,31.214L25.54,25.414C25.54,22.948 25.74,20.881 26.14,19.214C26.507,17.848 27.09,16.598 27.89,15.464C28.69,14.931 29.673,14.381 30.84,13.814L38.24,13.414M95.6,44.2L93.25,44.2C89.083,44.2 86.117,42.95 84.35,40.45C82.583,37.983 81.7,33.983 81.7,28.45L81.7,21.4C81.7,15.3 80.433,10.6 77.9,7.3C75.333,4.267 71.783,2.75 67.25,2.75L58.1,2.75L58.1,13.1L65.8,13.5C66.767,14.067 67.65,14.617 68.45,15.15C69.217,16.283 69.8,17.533 70.2,18.9C70.6,20.567 70.8,22.633 70.8,25.1L70.8,30.9C70.8,35.333 71.783,39.217 73.75,42.55C75.517,45.583 77.983,47.783 81.15,49.15L81.15,50.4C77.983,52.067 75.517,54.417 73.75,57.45C71.783,60.483 70.8,64.35 70.8,69.05L70.8,74.45C70.8,76.95 70.6,79.017 70.2,80.65C69.8,82.317 69.217,83.567 68.45,84.4C67.65,85.233 66.767,85.783 65.8,86.05L58.1,86.45L58.1,97.25L67.25,97.25C71.783,97.25 75.333,95.6 77.9,92.3C80.433,89.233 81.7,84.667 81.7,78.6L81.7,71.15C81.7,65.617 82.583,61.75 84.35,59.55C86.117,57.05 89.083,55.8 93.25,55.8L95.6,55.8L95.6,44.2Z" style="fill:white;fill-rule:nonzero;stroke:white;stroke-width:5.34px;stroke-linecap:round;stroke-linejoin:miter;stroke-miterlimit:2.97417;"/>
        </g>
    </g>
</svg>
