<?xml version="1.0" encoding="UTF-8" standalone="no"?>
<!DOCTYPE svg PUBLIC "-//W3C//DTD SVG 1.1//EN" "http://www.w3.org/Graphics/SVG/1.1/DTD/svg11.dtd">
<svg width="100%" height="100%" viewBox="0 0 110 135" version="1.1" xmlns="http://www.w3.org/2000/svg" xmlns:xlink="http://www.w3.org/1999/xlink" xml:space="preserve" xmlns:serif="http://www.serif.com/" style="fill-rule:evenodd;clip-rule:evenodd;stroke-linejoin:round;stroke-miterlimit:2;">
    <g>
        <path d="M109.115,104.143L106.983,99.18L98.592,79.578C97.965,78.128 96.768,77.064 95.34,76.536C98.064,74.601 99.853,71.44 99.853,67.849L99.857,23.455C99.857,17.569 95.07,12.781 89.183,12.781L20.65,12.781C14.764,12.781 9.976,17.569 9.976,23.455L9.976,67.849C9.976,71.44 11.765,74.593 14.489,76.536C13.06,77.064 11.864,78.128 11.237,79.578L0.714,104.143C-0.462,106.888 -0.187,110.02 1.46,112.513C3.108,115.005 5.875,116.498 8.861,116.498L100.952,116.498C103.938,116.498 106.705,115.005 108.353,112.513C110.004,110.02 110.292,106.888 109.116,104.143L109.115,104.143Z" style="fill:rgb(0,1,0);fill-rule:nonzero;"/>
        <path d="M12.344,67.849L12.344,23.455C12.344,18.873 16.068,15.154 20.645,15.154L89.175,15.154C93.757,15.154 97.476,18.877 97.476,23.455L97.476,67.849C97.476,72.431 93.752,76.15 89.175,76.15L20.649,76.15C16.067,76.15 12.343,72.427 12.343,67.849L12.344,67.849Z" style="fill:rgb(125,125,125);fill-rule:nonzero;"/>
        <path d="M13.421,80.509C13.936,79.299 15.124,78.522 16.428,78.522L93.392,78.522C94.709,78.522 95.885,79.303 96.4,80.509L104.791,100.115C105.537,101.874 105.374,103.783 104.319,105.375C103.264,106.966 101.573,107.88 99.673,107.88L65.37,107.88L64.482,103.079C64.241,101.741 63.075,100.763 61.715,100.763L47.811,100.763C46.451,100.763 45.284,101.741 45.044,103.071L44.155,107.871L10.148,107.867C8.239,107.867 6.544,106.958 5.502,105.362C4.446,103.77 4.283,101.857 5.03,100.102L13.421,80.509Z" style="fill:rgb(162,162,162);fill-rule:nonzero;"/>
        <path d="M62.962,107.866L46.556,107.866L47.367,103.495C47.402,103.285 47.599,103.134 47.805,103.134L61.722,103.134C61.932,103.134 62.117,103.289 62.16,103.508L62.962,107.866Z" style="fill:rgb(211,211,211);fill-rule:nonzero;"/>
        <path d="M106.378,111.204C105.168,113.027 103.147,114.126 100.951,114.126L8.864,114.126C6.68,114.126 4.647,113.04 3.437,111.204C2.274,109.445 2.064,107.249 2.823,105.297C3.021,105.769 3.218,106.24 3.505,106.682C4.977,108.913 7.461,110.252 10.138,110.252L99.681,110.252C102.362,110.252 104.833,108.922 106.313,106.682C106.601,106.245 106.798,105.773 106.996,105.297C107.751,107.253 107.545,109.449 106.378,111.204Z" style="fill:rgb(125,125,125);fill-rule:nonzero;"/>
        <g transform="matrix(1.19383,0,0,1,20.6205,0.728417)">
            <path d="M56.729,82.878L61.475,95.504L-4.083,95.504L0.324,82.797L56.729,82.878Z" style="fill:rgb(125,125,125);"/>
        </g>
        <path d="M15.938,96.974L93.619,96.974C94.279,96.974 94.803,96.446 94.803,95.79C94.803,95.129 94.275,94.606 93.619,94.606L75.54,94.601L74.584,91.032L91.19,91.032C91.598,91.032 91.98,90.822 92.203,90.47C92.422,90.118 92.434,89.681 92.246,89.316L89.213,83.319C89.015,82.924 88.599,82.671 88.157,82.671L63.665,82.671L21.429,82.675C20.979,82.675 20.571,82.928 20.374,83.323L17.341,89.32C17.152,89.681 17.178,90.123 17.384,90.474C17.602,90.826 17.976,91.036 18.396,91.036L35.032,91.032L33.913,94.601L15.938,94.601C15.277,94.601 14.753,95.129 14.753,95.785C14.749,96.446 15.29,96.974 15.938,96.974ZM89.248,88.668L66.819,88.668L65.369,85.034L87.411,85.034L89.248,88.668ZM62.821,85.034L64.271,88.668L45.819,88.668L46.797,85.034L62.821,85.034ZM22.156,85.034L44.34,85.034L43.362,88.668L20.32,88.668L22.156,85.034ZM37.518,91.041L72.114,91.041L73.07,94.61L36.391,94.61L37.518,91.041Z" style="fill:rgb(8,8,8);fill-rule:nonzero;"/>
        <g transform="matrix(1.04169,0,0,0.950878,-2.45269,3.42911)">
            <rect x="19.872" y="19.34" width="69.718" height="50.468" style="fill:rgb(162,162,162);"/>
        </g>
    </g>
    <path d="M17.013,36.197C17.013,35.21 17.287,34.725 18.245,34.725C19.202,34.725 19.482,35.21 19.482,36.197L19.482,38.644C19.482,39.631 19.243,40.131 18.286,40.131C17.328,40.131 17.013,39.631 17.013,38.644L17.013,36.197Z" style="fill:rgb(0,1,0);fill-rule:nonzero;"/>
    <path d="M17.013,45.027C17.013,44.04 17.315,43.226 18.272,43.226C19.23,43.226 19.482,44.04 19.482,45.027L19.482,68.103L90.351,68.103L90.351,22.76L19.482,22.76L19.482,29.815C19.482,30.802 19.23,31.589 18.272,31.589C17.315,31.589 17.013,30.802 17.013,29.815L17.013,21.972C17.013,20.984 17.79,20.184 18.747,20.184L91.086,20.184C92.043,20.184 92.82,20.984 92.82,21.972L92.82,68.891C92.82,69.879 92.043,70.679 91.086,70.679L18.747,70.679C17.79,70.679 17.013,69.879 17.013,68.891L17.013,45.027Z" style="fill:rgb(0,1,0);fill-rule:nonzero;"/>
    <g transform="matrix(0.707953,0,0,0.707953,14.6946,16.3153)">
        <path d="M57.867,5.455L57.874,5.455C67.479,5.478 76.689,9.331 83.47,16.163C90.251,22.987 94.046,32.24 94.031,41.872C94.015,51.512 90.189,60.75 83.385,67.559C76.581,74.368 67.363,78.19 57.752,78.182C48.148,78.174 38.93,74.344 32.133,67.528C25.344,60.712 21.526,51.474 21.518,41.833C21.526,32.177 25.36,22.916 32.179,16.092C38.998,9.268 48.24,5.446 57.875,5.469L57.867,5.455Z" style="fill:none;stroke:rgb(123,124,124);stroke-width:8.48px;"/>
        <path d="M57.867,5.455L57.874,5.455C67.479,5.478 76.689,9.331 83.47,16.163C90.251,22.987 94.046,32.24 94.031,41.872C94.015,51.512 90.189,60.75 83.385,67.559C76.581,74.368 67.363,78.19 57.752,78.182C48.148,78.174 38.93,74.344 32.133,67.528C25.344,60.712 21.526,51.474 21.518,41.833C21.526,32.177 25.36,22.916 32.179,16.092C38.998,9.268 48.24,5.446 57.875,5.469L57.867,5.455Z" style="fill:white;"/>
        <path d="M57.874,14.956C55.683,17.092 51.95,24.721 51.217,37.316L64.547,37.316C63.799,24.72 60.08,17.092 57.874,14.956Z" style="fill:rgb(92,0,173);"/>
        <path d="M84.688,37.324C83.192,28.589 77.545,21.131 69.561,17.339C71.96,23.738 73.294,30.484 73.51,37.324L84.688,37.324Z" style="fill:rgb(92,0,173);"/>
        <path d="M84.75,46.415L73.572,46.415C73.325,53.239 71.991,59.986 69.623,66.4C77.591,62.578 83.223,55.135 84.75,46.415Z" style="fill:rgb(92,0,173);"/>
        <path d="M64.547,46.415L51.217,46.415C52.004,58.995 55.683,66.616 57.874,68.759C60.088,66.624 63.799,58.995 64.547,46.415Z" style="fill:rgb(92,0,173);"/>
        <path d="M46.18,17.339C38.226,21.169 32.595,28.604 31.052,37.324L42.176,37.324C42.446,30.492 43.78,23.753 46.126,17.339L46.18,17.339Z" style="fill:rgb(92,0,173);"/>
        <path d="M46.18,66.398C43.85,59.976 42.523,53.237 42.23,46.413L31.052,46.413C32.603,55.125 38.226,62.56 46.18,66.398Z" style="fill:rgb(92,0,173);"/>
    </g>
</svg>
