<?xml version="1.0" encoding="UTF-8" standalone="no"?>
<!DOCTYPE svg PUBLIC "-//W3C//DTD SVG 1.1//EN" "http://www.w3.org/Graphics/SVG/1.1/DTD/svg11.dtd">
<svg width="100%" height="100%" viewBox="0 0 110 135" version="1.1" xmlns="http://www.w3.org/2000/svg" xmlns:xlink="http://www.w3.org/1999/xlink" xml:space="preserve" xmlns:serif="http://www.serif.com/" style="fill-rule:evenodd;clip-rule:evenodd;stroke-linejoin:round;stroke-miterlimit:2;">
    <path d="M109.115,104.143L106.983,99.18L98.592,79.578C97.965,78.128 96.768,77.064 95.34,76.536C98.064,74.601 99.853,71.44 99.853,67.849L99.857,23.455C99.857,17.569 95.07,12.781 89.183,12.781L20.65,12.781C14.764,12.781 9.976,17.569 9.976,23.455L9.976,67.849C9.976,71.44 11.765,74.593 14.489,76.536C13.06,77.064 11.864,78.128 11.237,79.578L0.714,104.143C-0.462,106.888 -0.187,110.02 1.46,112.513C3.108,115.005 5.875,116.498 8.861,116.498L100.952,116.498C103.938,116.498 106.705,115.005 108.353,112.513C110.004,110.02 110.292,106.888 109.116,104.143L109.115,104.143Z" style="fill:rgb(0,1,0);fill-rule:nonzero;"/>
    <path d="M12.344,67.849L12.344,23.455C12.344,18.873 16.068,15.154 20.645,15.154L89.175,15.154C93.757,15.154 97.476,18.877 97.476,23.455L97.476,67.849C97.476,72.431 93.752,76.15 89.175,76.15L20.649,76.15C16.067,76.15 12.343,72.427 12.343,67.849L12.344,67.849Z" style="fill:rgb(125,125,125);fill-rule:nonzero;"/>
    <path d="M13.421,80.509C13.936,79.299 15.124,78.522 16.428,78.522L93.392,78.522C94.709,78.522 95.885,79.303 96.4,80.509L104.791,100.115C105.537,101.874 105.374,103.783 104.319,105.375C103.264,106.966 101.573,107.88 99.673,107.88L65.37,107.88L64.482,103.079C64.241,101.741 63.075,100.763 61.715,100.763L47.811,100.763C46.451,100.763 45.284,101.741 45.044,103.071L44.155,107.871L10.148,107.867C8.239,107.867 6.544,106.958 5.502,105.362C4.446,103.77 4.283,101.857 5.03,100.102L13.421,80.509Z" style="fill:rgb(162,162,162);fill-rule:nonzero;"/>
    <path d="M62.962,107.866L46.556,107.866L47.367,103.495C47.402,103.285 47.599,103.134 47.805,103.134L61.722,103.134C61.932,103.134 62.117,103.289 62.16,103.508L62.962,107.866Z" style="fill:rgb(211,211,211);fill-rule:nonzero;"/>
    <path d="M106.378,111.204C105.168,113.027 103.147,114.126 100.951,114.126L8.864,114.126C6.68,114.126 4.647,113.04 3.437,111.204C2.274,109.445 2.064,107.249 2.823,105.297C3.021,105.769 3.218,106.24 3.505,106.682C4.977,108.913 7.461,110.252 10.138,110.252L99.681,110.252C102.362,110.252 104.833,108.922 106.313,106.682C106.601,106.245 106.798,105.773 106.996,105.297C107.751,107.253 107.545,109.449 106.378,111.204Z" style="fill:rgb(125,125,125);fill-rule:nonzero;"/>
    <g transform="matrix(1.19383,0,0,1,20.6205,0.728417)">
        <path d="M56.729,82.878L61.475,95.504L-4.083,95.504L0.324,82.797L56.729,82.878Z" style="fill:rgb(125,125,125);"/>
    </g>
    <path d="M15.938,96.974L93.619,96.974C94.279,96.974 94.803,96.446 94.803,95.79C94.803,95.129 94.275,94.606 93.619,94.606L75.54,94.601L74.584,91.032L91.19,91.032C91.598,91.032 91.98,90.822 92.203,90.47C92.422,90.118 92.434,89.681 92.246,89.316L89.213,83.319C89.015,82.924 88.599,82.671 88.157,82.671L63.665,82.671L21.429,82.675C20.979,82.675 20.571,82.928 20.374,83.323L17.341,89.32C17.152,89.681 17.178,90.123 17.384,90.474C17.602,90.826 17.976,91.036 18.396,91.036L35.032,91.032L33.913,94.601L15.938,94.601C15.277,94.601 14.753,95.129 14.753,95.785C14.749,96.446 15.29,96.974 15.938,96.974ZM89.248,88.668L66.819,88.668L65.369,85.034L87.411,85.034L89.248,88.668ZM62.821,85.034L64.271,88.668L45.819,88.668L46.797,85.034L62.821,85.034ZM22.156,85.034L44.34,85.034L43.362,88.668L20.32,88.668L22.156,85.034ZM37.518,91.041L72.114,91.041L73.07,94.61L36.391,94.61L37.518,91.041Z" style="fill:rgb(8,8,8);fill-rule:nonzero;"/>
    <g transform="matrix(1.04169,0,0,0.950878,-2.45269,3.42911)">
        <rect x="19.872" y="19.34" width="69.718" height="50.468" style="fill:rgb(162,162,162);"/>
    </g>
    <path d="M17.013,36.197C17.013,35.21 17.287,34.725 18.245,34.725C19.202,34.725 19.482,35.21 19.482,36.197L19.482,38.644C19.482,39.631 19.243,40.131 18.286,40.131C17.328,40.131 17.013,39.631 17.013,38.644L17.013,36.197Z" style="fill:rgb(0,1,0);fill-rule:nonzero;"/>
    <path d="M17.013,45.027C17.013,44.04 17.315,43.226 18.272,43.226C19.23,43.226 19.482,44.04 19.482,45.027L19.482,68.103L90.351,68.103L90.351,22.76L19.482,22.76L19.482,29.815C19.482,30.802 19.23,31.589 18.272,31.589C17.315,31.589 17.013,30.802 17.013,29.815L17.013,21.972C17.013,20.984 17.79,20.184 18.747,20.184L91.086,20.184C92.043,20.184 92.82,20.984 92.82,21.972L92.82,68.891C92.82,69.879 92.043,70.679 91.086,70.679L18.747,70.679C17.79,70.679 17.013,69.879 17.013,68.891L17.013,45.027Z" style="fill:rgb(0,1,0);fill-rule:nonzero;"/>
    <g transform="matrix(0.604625,0.114872,-0.120524,0.634371,30.1586,10.4595)">
        <g transform="matrix(1.73524,0,0,1.65387,-40.9041,-28.8533)">
            <path d="M42.005,36.648C41.367,35.628 40.615,34.489 40.231,33.338L39.89,31.942L39.809,30.28L40.139,28.477C40.139,28.477 40.89,26.821 40.892,26.818C41.475,26.002 44.853,22.346 44.853,22.346C45.085,22.087 45.342,21.851 45.623,21.642C46.451,21.026 47.41,20.484 48.399,20.125L51.047,19.6L53.78,20.013L55.148,20.656L56.364,21.566L56.216,21.435L58.109,23.042C65.991,21.231 74.561,23.776 80.339,30.512C88.714,40.275 87.94,55.389 78.634,64.176C78.582,64.225 78.529,64.273 78.476,64.32C66.658,74.586 53.45,71.084 45.932,62.318C40.227,55.667 37.808,45.851 42.005,36.648ZM48.696,25.775C48.651,25.85 45.588,28.959 45.316,29.442C44.156,31.353 46.014,33.258 46.901,34.792C47.879,33.162 49.067,31.719 50.47,30.403C51.88,29.098 53.368,28.018 55.034,27.187L52.883,25.361C51.624,24.207 49.911,24.871 48.696,25.775ZM76.43,33.865C69.811,26.149 58.452,25.533 51.109,32.467C34.081,49.911 56.759,76.363 75.098,60.432C82.441,53.497 83.039,41.57 76.43,33.865Z" style="fill:rgb(162,162,162);"/>
            <path d="M48.696,25.775C49.911,24.871 51.624,24.207 52.883,25.361L55.034,27.187C53.368,28.018 51.88,29.098 50.47,30.403C49.067,31.719 47.879,33.162 46.901,34.792C46.014,33.258 44.156,31.353 45.316,29.442C45.588,28.959 48.651,25.85 48.696,25.775ZM76.43,33.865C83.039,41.57 82.441,53.497 75.098,60.432C56.759,76.363 34.081,49.911 51.109,32.467C58.452,25.533 69.811,26.149 76.43,33.865Z" style="fill:rgb(32,19,64);"/>
        </g>
        <g transform="matrix(0.996706,0.0772973,-0.0850901,0.996706,-0.33045,-3.37231)">
            <path d="M37.867,15.989C35.615,12.899 31.189,11.899 28.213,14.602C25.664,16.875 25.461,20.783 27.761,23.311C31.476,27.4 31.957,33.472 28.924,38.068C28.661,38.409 27.616,40.188 27.244,40.446C26.312,41.274 24.9,41.417 23.8,40.704C22.49,39.855 22.121,38.114 22.975,36.817L24.178,34.991L24.186,34.991C25.814,32.521 25.557,29.261 23.56,27.063C19.168,22.229 19.556,14.768 24.423,10.427C29.709,5.664 37.62,6.437 41.851,12.033C41.866,12.022 37.959,15.854 37.867,15.989Z" style="fill:none;stroke:black;stroke-width:4.76px;"/>
            <path d="M37.867,15.989C35.615,12.899 31.189,11.899 28.213,14.602C25.664,16.875 25.461,20.783 27.761,23.311C31.476,27.4 31.957,33.472 28.924,38.068C28.661,38.409 27.616,40.188 27.244,40.446C26.312,41.274 24.9,41.417 23.8,40.704C22.49,39.855 22.121,38.114 22.975,36.817L24.178,34.991L24.186,34.991C25.814,32.521 25.557,29.261 23.56,27.063C19.168,22.229 19.556,14.768 24.423,10.427C29.709,5.664 37.62,6.437 41.851,12.033C41.866,12.022 37.959,15.854 37.867,15.989Z" style="fill:rgb(248,228,153);"/>
        </g>
        <g transform="matrix(1.38319,0.562587,-0.573703,1.38673,6.25227,-33.6159)">
            <path d="M29.997,59.469L23.479,55.252L16.323,56.186C15.977,56.2 15.627,56.031 15.411,55.751C15.195,55.469 15.147,55.12 15.292,54.844L18.881,49.269L16.843,42.355L16.84,42.35C16.778,42.032 16.906,41.727 17.175,41.565C17.444,41.403 17.811,41.409 18.124,41.577L24.667,45.779L31.819,44.887L31.821,44.891C32.164,44.874 32.515,45.042 32.731,45.322C32.947,45.604 32.994,45.954 32.853,46.233L29.269,51.766L31.281,58.696C31.343,59.015 31.215,59.319 30.945,59.482C30.676,59.644 30.309,59.637 29.997,59.469Z" style="fill:none;stroke:rgb(255,200,0);stroke-width:2.09px;"/>
            <path d="M29.997,59.469L23.479,55.252L16.323,56.186C15.977,56.2 15.627,56.031 15.411,55.751C15.195,55.469 15.147,55.12 15.292,54.844L18.881,49.269L16.843,42.355L16.84,42.35C16.778,42.032 16.906,41.727 17.175,41.565C17.444,41.403 17.811,41.409 18.124,41.577L24.667,45.779L31.819,44.887L31.821,44.891C32.164,44.874 32.515,45.042 32.731,45.322C32.947,45.604 32.994,45.954 32.853,46.233L29.269,51.766L31.281,58.696C31.343,59.015 31.215,59.319 30.945,59.482C30.676,59.644 30.309,59.637 29.997,59.469Z" style="fill:rgb(226,255,2);"/>
        </g>
        <path d="M91.72,27.155C103.189,39.897 102.151,59.624 89.409,71.093C57.587,97.441 18.235,53.694 47.782,24.843C60.525,13.376 80.235,14.393 91.72,27.155Z" style="fill:none;stroke:rgb(0,0,16);stroke-width:7.93px;stroke-linecap:round;"/>
        <path d="M91.72,27.155C103.189,39.897 102.151,59.624 89.409,71.093C57.587,97.441 18.235,53.694 47.782,24.843C60.525,13.376 80.235,14.393 91.72,27.155Z" style="fill:rgb(32,19,64);"/>
        <g transform="matrix(1,0,0,1,1.38461,1.44537)">
            <path d="M42.21,12.33C44.32,10.835 47.291,9.736 49.475,11.646L53.208,14.666C50.317,16.04 47.736,17.825 45.289,19.983C42.854,22.161 40.793,24.547 39.096,27.242C37.556,24.706 34.332,21.555 36.345,18.394C36.817,17.595 42.133,12.453 42.21,12.33Z" style="fill:none;stroke:rgb(0,0,16);stroke-width:8.4px;"/>
            <path d="M42.21,12.33C44.32,10.835 47.291,9.736 49.475,11.646L53.208,14.666C50.317,16.04 47.736,17.825 45.289,19.983C42.854,22.161 40.793,24.547 39.096,27.242C37.556,24.706 34.332,21.555 36.345,18.394C36.817,17.595 42.133,12.453 42.21,12.33Z" style="fill:rgb(32,19,64);"/>
        </g>
        <path d="M60.399,64.388C64.174,65.233 62.929,70.988 59.134,70.181C51.564,68.599 45.885,62.717 43.801,55.449C43.11,52.272 41.602,43.089 47.125,43.697C48.748,44.051 49.737,45.634 49.389,47.226C47.694,54.992 52.634,62.688 60.4,64.383L60.399,64.388Z" style="fill:rgb(226,226,226);"/>
    </g>
</svg>
