<svg xmlns="http://www.w3.org/2000/svg" width="100%" height="100%" viewBox="0 0 110 135" fill-rule="evenodd" stroke-linejoin="round" stroke-miterlimit="2" xmlns:v="https://vecta.io/nano"><g fill-rule="nonzero"><path d="M109.115 104.143l-2.132-4.963-8.391-19.602c-.627-1.45-1.824-2.514-3.252-3.042 2.724-1.935 4.513-5.096 4.513-8.687l.004-44.394a10.69 10.69 0 0 0-10.674-10.674H20.65A10.69 10.69 0 0 0 9.976 23.455v44.394c0 3.591 1.789 6.744 4.513 8.687-1.429.528-2.625 1.592-3.252 3.042L.714 104.143c-1.176 2.745-.901 5.877.746 8.37s4.415 3.985 7.401 3.985h92.091c2.986 0 5.753-1.493 7.401-3.985s1.939-5.625.763-8.37h-.001z" fill="#000100"/><path d="M12.344 67.849V23.455a8.31 8.31 0 0 1 8.301-8.301h68.53a8.31 8.31 0 0 1 8.301 8.301v44.394a8.31 8.31 0 0 1-8.301 8.301H20.649c-4.582 0-8.306-3.723-8.306-8.301h.001z" fill="#7d7d7d"/><path d="M13.421 80.509a3.27 3.27 0 0 1 3.007-1.987h76.964c1.317 0 2.493.781 3.008 1.987l8.391 19.606c.746 1.759.583 3.668-.472 5.26a5.49 5.49 0 0 1-4.646 2.505H65.37l-.888-4.801c-.241-1.338-1.407-2.316-2.767-2.316H47.811c-1.36 0-2.527.978-2.767 2.308l-.889 4.8-34.007-.004a5.45 5.45 0 0 1-4.646-2.505c-1.056-1.592-1.219-3.505-.472-5.26l8.391-19.593z" fill="#a2a2a2"/><path d="M62.962 107.866H46.556l.811-4.371c.035-.21.232-.361.438-.361h13.917c.21 0 .395.155.438.374l.802 4.358z" fill="#d3d3d3"/><path d="M106.378 111.204c-1.21 1.823-3.231 2.922-5.427 2.922H8.864c-2.184 0-4.217-1.086-5.427-2.922-1.163-1.759-1.373-3.955-.614-5.907.198.472.395.943.682 1.385 1.472 2.231 3.956 3.57 6.633 3.57h89.543c2.681 0 5.152-1.33 6.632-3.57.288-.437.485-.909.683-1.385.755 1.956.549 4.152-.618 5.907z" fill="#7d7d7d"/></g><path d="M88.345 83.606l5.666 12.626H15.746l5.261-12.707 67.338.081z" fill="#7d7d7d"/><path d="M15.938 96.974h77.681a1.18 1.18 0 1 0 0-2.368l-18.079-.005-.956-3.569H91.19a1.2 1.2 0 0 0 1.013-.562 1.17 1.17 0 0 0 .043-1.154l-3.033-5.997a1.19 1.19 0 0 0-1.056-.648H63.665l-42.236.004c-.45 0-.858.253-1.055.648l-3.033 5.997a1.2 1.2 0 0 0 .043 1.154c.218.352.592.562 1.012.562l16.636-.004-1.119 3.569H15.938a1.18 1.18 0 0 0-1.185 1.184c-.004.661.537 1.189 1.185 1.189zm73.31-8.306H66.819l-1.45-3.634h22.042l1.837 3.634zm-26.427-3.634l1.45 3.634H45.819l.978-3.634h16.024zm-40.665 0H44.34l-.978 3.634H20.32l1.836-3.634zm15.362 6.007h34.596l.956 3.569H36.391l1.127-3.569z" fill="#080808" fill-rule="nonzero"/><path d="M18.248 21.819h72.625v47.989H18.248z" fill="#a2a2a2"/><g transform="matrix(-.533255 0 0 .533255 53.0989 21.6506)"><path d="M65.366 1.746l-.29 86.545s-33.734 1.519-35.973-.228L29.417.138c1.235 2.099 5.625 1.727 5.625 1.727l30.324-.118z" fill="#0e3821"/><path d="M38.394 47.468c2.63 0 4.765 2.075 4.765 4.633s-2.135 4.633-4.765 4.633-4.765-2.075-4.765-4.633 2.135-4.633 4.765-4.633zM53.15 72.235c2.63 0 4.765 2.075 4.765 4.633S55.78 81.5 53.15 81.5s-4.765-2.075-4.765-4.633 2.135-4.633 4.765-4.633zm12.269-.491l-.021 15.053.021-15.053zm-1.409 11.767a1.58 1.58 0 0 0 .937.309l2.347 3.675-1.903-86.348-30.345.556-1.372-.176-.046 25.868a1.49 1.49 0 0 0 .397 1.004l4.765 6.204a4.61 4.61 0 0 1 1.191 3.073v6.859c3.683.73 6.353 3.91 6.353 7.565 0 4.236-3.585 7.721-7.941 7.721s-7.941-3.485-7.941-7.721c0-3.655 2.67-6.834 6.353-7.565v-6.859a1.53 1.53 0 0 0-.397-1.019l-4.749-6.204c-.772-.835-1.202-1.919-1.207-3.042l-.067-25.723-1.169-1.893c-.276.473-3.793 1.853-3.793 1.853l-.119 74.506-.065 10.771c.772.639 4.604-.164 5.073.187l-.129-15.514c0-1.692 1.434-3.087 3.175-3.087h8.61l10.117-9.864v-7.069c.008-.817.345-1.598.937-2.177l7.401-4.196c.597-.582 2.973-.602 3.82-.602l1.175.235v43.873l-.472-1.801c-1.012.002-.122 1.563-.937.979l-5.572-5.275c-1.448 1.275-3.335 1.98-5.289 1.977-4.35-.005-7.925-3.485-7.925-7.713s3.58-7.713 7.933-7.713 7.933 3.481 7.933 7.713a7.52 7.52 0 0 1-.746 3.266l3.666 3.369zM62.68 47.38l-7.417 4.196v7.069a3.07 3.07 0 0 1-.921 2.177l-10.133 9.88a3.25 3.25 0 0 1-2.239.896h-8.608l-.235 15.92 32.4-.71-.106-36.807-.033-2.792-2.706.171zm2.74 5.709v18.655-18.655z" fill="#29bc0b"/></g><g transform="matrix(.533255 0 0 -.533255 23.6943 68.8421)"><path d="M125.376-.13l.029 86.957c.292-.438-93.592 1.296-96.164.047L29.417.138c1.235 2.099 5.625-.149 5.625-.149l90.333-.118z" fill="#0e3821"/><path d="M38.394 38.092c2.63 0 4.765 2.075 4.765 4.633s-2.135 4.633-4.765 4.633-4.765-2.075-4.765-4.633 2.135-4.633 4.765-4.633zm12.881-27.741c2.63 0 4.765 2.075 4.765 4.633s-2.135 4.633-4.765 4.633-4.765-2.075-4.765-4.633 2.135-4.633 4.765-4.633zm40.182 64.556v11.876l33.952.014.019-15.053-11.678.025-6.224 3.101-16.068.037zM69.223 47.269c2.63 0 4.765 2.075 4.765 4.633s-2.135 4.633-4.765 4.633-4.765-2.075-4.765-4.633 2.135-4.633 4.765-4.633zm-3.338-21.892a1.58 1.58 0 0 0 .937.309l58.606-.074-.027-15.09-11.929.02-5.824 3.098-32.624.045c-1.741-.005-3.172-1.396-3.176-3.088l.095-10.771L33.686-.18l-.057 16.323a1.49 1.49 0 0 0 .397 1.004l4.765 6.204a4.61 4.61 0 0 1 1.191 3.073v8.734c3.683.73 6.353 3.91 6.353 7.565 0 4.236-3.585 7.721-7.941 7.721s-7.941-3.485-7.941-7.721c0-3.655 2.67-6.834 6.353-7.565v-8.734a1.53 1.53 0 0 0-.397-1.019l-4.749-6.204c-.772-.835-1.202-1.919-1.207-3.042L30.386-.188 25.424-.23l-.119 87.635c.297.644 4.493-.096 4.962.255l-.083-25.44c0-1.692 1.434-3.087 3.175-3.087h8.61l10.117-9.864V42.2c.008-.817.345-1.598.937-2.177l7.401-4.196c.597-.582 2.973-.602 3.82-.602l61.184.235V28.7l-58.606.074c-1.012.002-1.996-.312-2.811-.896l-7.447-7.151c-1.448 1.275-3.335 1.98-5.289 1.977-4.35-.005-7.925-3.485-7.925-7.713s3.58-7.713 7.933-7.713 7.933 3.481 7.933 7.713a7.52 7.52 0 0 1-.746 3.266l7.415 7.12zm59.516-14.855l.075-10.65-50.357-.046-.095 10.771 32.426-.045 17.952-.029zM62.68 38.004L55.263 42.2v7.069a3.07 3.07 0 0 1-.921 2.177l-10.133 9.88a3.25 3.25 0 0 1-2.239.896h-8.608l-.006 25.114 4.044-.528 11.399-.025V72.539c0-1.638.669-3.21 1.858-4.37l11.739-12.33a7.61 7.61 0 0 1-1.136-3.993c0-4.267 3.612-7.778 8-7.778s7.998 3.511 7.998 7.778-3.612 7.776-7.998 7.776c-1.698 0-3.351-.525-4.72-1.498L52.911 70.362c-.604.571-.942 1.359-.937 2.177v14.243h15.674V71.008c0-1.688 1.429-3.078 3.165-3.078h6.62l17.455-22.57c.602-.576 1.41-.903 2.255-.911l28.285-.074-.032-6.543-62.716.171zm34.463 9.534l-17.471 22.57c-.596.576-1.399.903-2.239.911h-6.609v15.764h17.456V74.907c.005-1.692 1.436-3.084 3.176-3.088l15.903-.036 18.068-.039V47.464l-28.285.074z" fill="#29bc0b"/><g transform="matrix(1 0 0 -1 17 85.7861)"><ellipse cx="96.096" cy="12.491" rx="7.915" ry="7.708" fill="#0e3821"/><ellipse cx="96.142" cy="12.536" rx="4.712" ry="4.589" fill="#29bc0b"/></g><g transform="matrix(1 0 0 -1 -91.7659 74.5344)"><ellipse cx="96.096" cy="12.491" rx="7.915" ry="7.708" fill="#0e3821"/><ellipse cx="96.142" cy="12.536" rx="4.712" ry="4.589" fill="#29bc0b"/></g><g fill="#0e3821"><path d="M2.886 86.976h3.207V67.129H2.886z"/><ellipse cx="96.096" cy="12.491" rx="7.915" ry="7.708" transform="matrix(1 0 0 -1 17 24.7861)"/></g><ellipse cx="96.142" cy="12.536" rx="4.712" ry="4.589" fill="#29bc0b" transform="matrix(1 0 0 -1 17 24.7861)"/></g><path d="M17.013 36.197c0-.987.274-1.472 1.232-1.472s1.237.485 1.237 1.472v2.447c0 .987-.239 1.487-1.196 1.487s-1.273-.5-1.273-1.487v-2.447zm0 8.83c0-.987.302-1.801 1.259-1.801s1.21.814 1.21 1.801v23.076h70.869V22.76H19.482v7.055c0 .987-.252 1.774-1.21 1.774s-1.259-.787-1.259-1.774v-7.843c0-.988.777-1.788 1.734-1.788h72.339c.957 0 1.734.8 1.734 1.788v46.919c0 .988-.777 1.788-1.734 1.788H18.747c-.957 0-1.734-.8-1.734-1.788V45.027z" fill="#000100" fill-rule="nonzero"/></svg>