<?xml version="1.0" encoding="UTF-8" standalone="no"?>
<!DOCTYPE svg PUBLIC "-//W3C//DTD SVG 1.1//EN" "http://www.w3.org/Graphics/SVG/1.1/DTD/svg11.dtd">
<svg width="100%" height="100%" viewBox="0 0 110 135" version="1.1" xmlns="http://www.w3.org/2000/svg" xmlns:xlink="http://www.w3.org/1999/xlink" xml:space="preserve" xmlns:serif="http://www.serif.com/" style="fill-rule:evenodd;clip-rule:evenodd;stroke-linejoin:round;stroke-miterlimit:2;">
    <g>
        <path d="M109.115,104.143L106.983,99.18L98.592,79.578C97.965,78.128 96.768,77.064 95.34,76.536C98.064,74.601 99.853,71.44 99.853,67.849L99.857,23.455C99.857,17.569 95.07,12.781 89.183,12.781L20.65,12.781C14.764,12.781 9.976,17.569 9.976,23.455L9.976,67.849C9.976,71.44 11.765,74.593 14.489,76.536C13.06,77.064 11.864,78.128 11.237,79.578L0.714,104.143C-0.462,106.888 -0.187,110.02 1.46,112.513C3.108,115.005 5.875,116.498 8.861,116.498L100.952,116.498C103.938,116.498 106.705,115.005 108.353,112.513C110.004,110.02 110.292,106.888 109.116,104.143L109.115,104.143Z" style="fill:rgb(0,1,0);fill-rule:nonzero;"/>
        <path d="M12.344,67.849L12.344,23.455C12.344,18.873 16.068,15.154 20.645,15.154L89.175,15.154C93.757,15.154 97.476,18.877 97.476,23.455L97.476,67.849C97.476,72.431 93.752,76.15 89.175,76.15L20.649,76.15C16.067,76.15 12.343,72.427 12.343,67.849L12.344,67.849Z" style="fill:rgb(123,124,124);fill-rule:nonzero;"/>
        <path d="M13.421,80.509C13.936,79.299 15.124,78.522 16.428,78.522L93.392,78.522C94.709,78.522 95.885,79.303 96.4,80.509L104.791,100.115C105.537,101.874 105.374,103.783 104.319,105.375C103.264,106.966 101.573,107.88 99.673,107.88L65.37,107.88L64.482,103.079C64.241,101.741 63.075,100.763 61.715,100.763L47.811,100.763C46.451,100.763 45.284,101.741 45.044,103.071L44.155,107.871L10.148,107.867C8.239,107.867 6.544,106.958 5.502,105.362C4.446,103.77 4.283,101.857 5.03,100.102L13.421,80.509Z" style="fill:rgb(123,124,124);fill-rule:nonzero;"/>
        <path d="M62.962,107.866L46.556,107.866L47.367,103.495C47.402,103.285 47.599,103.134 47.805,103.134L61.722,103.134C61.932,103.134 62.117,103.289 62.16,103.508L62.962,107.866Z" style="fill:rgb(8,8,8);fill-rule:nonzero;"/>
        <path d="M106.378,111.204C105.168,113.027 103.147,114.126 100.951,114.126L8.864,114.126C6.68,114.126 4.647,113.04 3.437,111.204C2.274,109.445 2.064,107.249 2.823,105.297C3.021,105.769 3.218,106.24 3.505,106.682C4.977,108.913 7.461,110.252 10.138,110.252L99.681,110.252C102.362,110.252 104.833,108.922 106.313,106.682C106.601,106.245 106.798,105.773 106.996,105.297C107.751,107.253 107.545,109.449 106.378,111.204L106.378,111.204Z" style="fill:rgb(78,78,80);fill-rule:nonzero;"/>
        <path d="M15.939,96.974L93.619,96.974C94.279,96.974 94.803,96.446 94.803,95.79C94.803,95.129 94.275,94.606 93.619,94.606L75.54,94.601L74.584,91.032L91.19,91.032C91.598,91.032 91.98,90.822 92.203,90.47C92.422,90.118 92.434,89.681 92.246,89.316L89.213,83.319C89.015,82.924 88.599,82.671 88.157,82.671L63.665,82.671L21.429,82.675C20.979,82.675 20.571,82.928 20.374,83.323L17.341,89.32C17.152,89.681 17.178,90.123 17.384,90.474C17.602,90.826 17.976,91.036 18.396,91.036L35.032,91.032L33.913,94.601L15.938,94.601C15.277,94.601 14.753,95.129 14.753,95.785C14.749,96.446 15.29,96.974 15.938,96.974L15.939,96.974ZM89.248,88.668L66.819,88.668L65.369,85.034L87.411,85.034L89.248,88.668ZM62.821,85.034L64.271,88.668L45.819,88.668L46.797,85.034L62.821,85.034ZM22.156,85.034L44.34,85.034L43.362,88.668L20.32,88.668L22.156,85.034ZM37.518,91.041L72.114,91.041L73.07,94.61L36.391,94.61L37.518,91.041Z" style="fill:rgb(8,8,8);fill-rule:nonzero;"/>
        <g transform="matrix(1.02758,0,0,0.90495,11.8367,10.2361)">
            <rect x="5.921" y="13.005" width="71.749" height="52.588" style="fill:rgb(78,78,80);"/>
        </g>
    </g>
    <g>
        <path d="M109.115,104.143L106.983,99.18L98.592,79.578C97.965,78.128 96.768,77.064 95.34,76.536C98.064,74.601 99.853,71.44 99.853,67.849L99.857,23.455C99.857,17.569 95.07,12.781 89.183,12.781L20.65,12.781C14.764,12.781 9.976,17.569 9.976,23.455L9.976,67.849C9.976,71.44 11.765,74.593 14.489,76.536C13.06,77.064 11.864,78.128 11.237,79.578L0.714,104.143C-0.462,106.888 -0.187,110.02 1.46,112.513C3.108,115.005 5.875,116.498 8.861,116.498L100.952,116.498C103.938,116.498 106.705,115.005 108.353,112.513C110.004,110.02 110.292,106.888 109.116,104.143L109.115,104.143Z" style="fill:rgb(0,1,0);fill-rule:nonzero;"/>
        <path d="M12.344,67.849L12.344,23.455C12.344,18.873 16.068,15.154 20.645,15.154L89.175,15.154C93.757,15.154 97.476,18.877 97.476,23.455L97.476,67.849C97.476,72.431 93.752,76.15 89.175,76.15L20.649,76.15C16.067,76.15 12.343,72.427 12.343,67.849L12.344,67.849Z" style="fill:rgb(125,125,125);fill-rule:nonzero;"/>
        <path d="M13.421,80.509C13.936,79.299 15.124,78.522 16.428,78.522L93.392,78.522C94.709,78.522 95.885,79.303 96.4,80.509L104.791,100.115C105.537,101.874 105.374,103.783 104.319,105.375C103.264,106.966 101.573,107.88 99.673,107.88L65.37,107.88L64.482,103.079C64.241,101.741 63.075,100.763 61.715,100.763L47.811,100.763C46.451,100.763 45.284,101.741 45.044,103.071L44.155,107.871L10.148,107.867C8.239,107.867 6.544,106.958 5.502,105.362C4.446,103.77 4.283,101.857 5.03,100.102L13.421,80.509Z" style="fill:rgb(162,162,162);fill-rule:nonzero;"/>
        <path d="M62.962,107.866L46.556,107.866L47.367,103.495C47.402,103.285 47.599,103.134 47.805,103.134L61.722,103.134C61.932,103.134 62.117,103.289 62.16,103.508L62.962,107.866Z" style="fill:rgb(211,211,211);fill-rule:nonzero;"/>
        <path d="M106.378,111.204C105.168,113.027 103.147,114.126 100.951,114.126L8.864,114.126C6.68,114.126 4.647,113.04 3.437,111.204C2.274,109.445 2.064,107.249 2.823,105.297C3.021,105.769 3.218,106.24 3.505,106.682C4.977,108.913 7.461,110.252 10.138,110.252L99.681,110.252C102.362,110.252 104.833,108.922 106.313,106.682C106.601,106.245 106.798,105.773 106.996,105.297C107.751,107.253 107.545,109.449 106.378,111.204Z" style="fill:rgb(125,125,125);fill-rule:nonzero;"/>
        <g transform="matrix(1.19383,0,0,1,20.6205,0.728417)">
            <path d="M56.729,82.878L61.475,95.504L-4.083,95.504L0.324,82.797L56.729,82.878Z" style="fill:rgb(125,125,125);"/>
        </g>
        <path d="M15.938,96.974L93.619,96.974C94.279,96.974 94.803,96.446 94.803,95.79C94.803,95.129 94.275,94.606 93.619,94.606L75.54,94.601L74.584,91.032L91.19,91.032C91.598,91.032 91.98,90.822 92.203,90.47C92.422,90.118 92.434,89.681 92.246,89.316L89.213,83.319C89.015,82.924 88.599,82.671 88.157,82.671L63.665,82.671L21.429,82.675C20.979,82.675 20.571,82.928 20.374,83.323L17.341,89.32C17.152,89.681 17.178,90.123 17.384,90.474C17.602,90.826 17.976,91.036 18.396,91.036L35.032,91.032L33.913,94.601L15.938,94.601C15.277,94.601 14.753,95.129 14.753,95.785C14.749,96.446 15.29,96.974 15.938,96.974ZM89.248,88.668L66.819,88.668L65.369,85.034L87.411,85.034L89.248,88.668ZM62.821,85.034L64.271,88.668L45.819,88.668L46.797,85.034L62.821,85.034ZM22.156,85.034L44.34,85.034L43.362,88.668L20.32,88.668L22.156,85.034ZM37.518,91.041L72.114,91.041L73.07,94.61L36.391,94.61L37.518,91.041Z" style="fill:rgb(8,8,8);fill-rule:nonzero;"/>
        <g transform="matrix(1.04169,0,0,0.950878,-2.45269,3.42911)">
            <rect x="19.872" y="19.34" width="69.718" height="50.468" style="fill:rgb(162,162,162);"/>
        </g>
    </g>
    <path d="M17.013,36.197C17.013,35.21 17.287,34.725 18.245,34.725C19.202,34.725 19.482,35.21 19.482,36.197L19.482,38.644C19.482,39.631 19.243,40.131 18.286,40.131C17.328,40.131 17.013,39.631 17.013,38.644L17.013,36.197Z" style="fill:rgb(0,1,0);fill-rule:nonzero;"/>
    <path d="M17.013,45.027C17.013,44.04 17.315,43.226 18.272,43.226C19.23,43.226 19.482,44.04 19.482,45.027L19.482,68.103L90.351,68.103L90.351,22.76L19.482,22.76L19.482,29.815C19.482,30.802 19.23,31.589 18.272,31.589C17.315,31.589 17.013,30.802 17.013,29.815L17.013,21.972C17.013,20.984 17.79,20.184 18.747,20.184L91.086,20.184C92.043,20.184 92.82,20.984 92.82,21.972L92.82,68.891C92.82,69.879 92.043,70.679 91.086,70.679L18.747,70.679C17.79,70.679 17.013,69.879 17.013,68.891L17.013,45.027Z" style="fill:rgb(0,1,0);fill-rule:nonzero;"/>
    <g transform="matrix(0.670333,0,0,0.720856,17.7738,16.1124)">
        <g transform="matrix(0.291978,0,0,0.911272,20.0754,3.9121)">
            <path d="M15.525,-0.954L56.76,15.52C57.939,17.438 58.853,19.388 59.509,21.364C62.109,29.19 138.093,54.286 147.665,52.878C162.137,50.749 197.919,48.11 224.334,45.201C241.882,43.269 238.737,41.363 239.289,44.665C239.421,45.455 241.254,45.735 243.985,45.781C244.7,45.793 253.26,45.772 253.259,45.811C253.182,53.882 265.101,68.131 265.45,74.866C265.458,75.007 108.946,74.965 100.879,75.077C97.514,75.124 97.274,74.94 94.155,74.974C90.038,75.02 88.85,78.867 93.579,78.896C112.469,79.011 32.626,80.25 30.66,81.445C26.701,83.853 19.825,79.643 12.878,79.592L-27.644,68.165L-27.698,13.282L15.525,-0.954Z" style="fill:rgb(123,124,124);"/>
        </g>
        <g transform="matrix(8.22804e-17,1.34374,-1.3066,8.00063e-17,87.8741,49.6347)">
            <path d="M17.013,36.197C17.013,35.21 17.287,34.725 18.245,34.725C19.202,34.725 19.482,35.21 19.482,36.197L19.482,38.644C19.482,39.631 19.243,40.131 18.286,40.131C17.328,40.131 17.013,39.631 17.013,38.644L17.013,36.197Z" style="fill:rgb(0,1,0);fill-rule:nonzero;"/>
        </g>
        <g transform="matrix(1.54623,0,0,0.302748,-62.5499,47.2748)">
            <rect x="58.831" y="-16.588" width="44.619" height="91.21" style="fill:rgb(92,0,173);"/>
        </g>
        <g transform="matrix(0.291978,0,0,0.854583,25.3019,6.96422)">
            <path d="M11.106,1.28L56.76,15.52C69.253,35.842 50.37,55.365 11.203,75.125L-27.644,63.732L-27.698,13.282L11.106,1.28Z" style="fill:rgb(92,0,173);"/>
        </g>
        <g transform="matrix(1.28095,0,0,1.14814,5.47019,-16.5662)">
            <path d="M41.176,53.282L17.855,76.606L9.16,67.91L28.134,48.936L9.16,29.959L17.855,21.265L41.176,44.588C43.579,46.99 43.572,50.882 41.176,53.282Z" style="fill:white;fill-rule:nonzero;"/>
        </g>
        <g transform="matrix(1.23002,0,0,1.18808,9.18884,-20.7322)">
            <rect x="43.668" y="63.781" width="28.186" height="12.298" style="fill:white;fill-rule:nonzero;"/>
        </g>
    </g>
</svg>
