<svg xmlns="http://www.w3.org/2000/svg" width="100%" height="100%" viewBox="0 0 110 135" fill-rule="evenodd" stroke-linejoin="round" stroke-miterlimit="2" xmlns:v="https://vecta.io/nano"><g fill-rule="nonzero"><path d="M109.115 104.143l-2.132-4.963-8.391-19.602c-.627-1.45-1.824-2.514-3.252-3.042 2.724-1.935 4.513-5.096 4.513-8.687l.004-44.394a10.69 10.69 0 0 0-10.674-10.674H20.65A10.69 10.69 0 0 0 9.976 23.455v44.394c0 3.591 1.789 6.744 4.513 8.687-1.429.528-2.625 1.592-3.252 3.042L.714 104.143c-1.176 2.745-.901 5.877.746 8.37s4.415 3.985 7.401 3.985h92.091c2.986 0 5.753-1.493 7.401-3.985s1.939-5.625.763-8.37h-.001z" fill="#000100"/><path d="M12.344 67.849V23.455a8.31 8.31 0 0 1 8.301-8.301h68.53a8.31 8.31 0 0 1 8.301 8.301v44.394a8.31 8.31 0 0 1-8.301 8.301H20.649c-4.582 0-8.306-3.723-8.306-8.301h.001z" fill="#7d7d7d"/><path d="M13.421 80.509a3.27 3.27 0 0 1 3.007-1.987h76.964c1.317 0 2.493.781 3.008 1.987l8.391 19.606c.746 1.759.583 3.668-.472 5.26a5.49 5.49 0 0 1-4.646 2.505H65.37l-.888-4.801c-.241-1.338-1.407-2.316-2.767-2.316H47.811c-1.36 0-2.527.978-2.767 2.308l-.889 4.8-34.007-.004a5.45 5.45 0 0 1-4.646-2.505c-1.056-1.592-1.219-3.505-.472-5.26l8.391-19.593z" fill="#a2a2a2"/><path d="M62.962 107.866H46.556l.811-4.371c.035-.21.232-.361.438-.361h13.917c.21 0 .395.155.438.374l.802 4.358z" fill="#d3d3d3"/><path d="M106.378 111.204c-1.21 1.823-3.231 2.922-5.427 2.922H8.864c-2.184 0-4.217-1.086-5.427-2.922-1.163-1.759-1.373-3.955-.614-5.907.198.472.395.943.682 1.385 1.472 2.231 3.956 3.57 6.633 3.57h89.543c2.681 0 5.152-1.33 6.632-3.57.288-.437.485-.909.683-1.385.755 1.956.549 4.152-.618 5.907z" fill="#7d7d7d"/></g><path d="M88.345 83.606l5.666 12.626H15.746l5.261-12.707 67.338.081z" fill="#7d7d7d"/><path d="M15.938 96.974h77.681a1.18 1.18 0 1 0 0-2.368l-18.079-.005-.956-3.569H91.19a1.2 1.2 0 0 0 1.013-.562 1.17 1.17 0 0 0 .043-1.154l-3.033-5.997a1.19 1.19 0 0 0-1.056-.648H63.665l-42.236.004c-.45 0-.858.253-1.055.648l-3.033 5.997a1.2 1.2 0 0 0 .043 1.154c.218.352.592.562 1.012.562l16.636-.004-1.119 3.569H15.938a1.18 1.18 0 0 0-1.185 1.184c-.004.661.537 1.189 1.185 1.189zm73.31-8.306H66.819l-1.45-3.634h22.042l1.837 3.634zm-26.427-3.634l1.45 3.634H45.819l.978-3.634h16.024zm-40.665 0H44.34l-.978 3.634H20.32l1.836-3.634zm15.362 6.007h34.596l.956 3.569H36.391l1.127-3.569z" fill="#080808" fill-rule="nonzero"/><path d="M18.248 21.819h72.625v47.989H18.248z" fill="#a2a2a2"/><path d="M17.013 36.197c0-.987.274-1.472 1.232-1.472s1.237.485 1.237 1.472v2.447c0 .987-.239 1.487-1.196 1.487s-1.273-.5-1.273-1.487v-2.447zm0 8.83c0-.987.302-1.801 1.259-1.801s1.21.814 1.21 1.801v23.076h70.869V22.76H19.482v7.055c0 .987-.252 1.774-1.21 1.774s-1.259-.787-1.259-1.774v-7.843c0-.988.777-1.788 1.734-1.788h72.339c.957 0 1.734.8 1.734 1.788v46.919c0 .988-.777 1.788-1.734 1.788H18.747c-.957 0-1.734-.8-1.734-1.788V45.027z" fill="#000100" fill-rule="nonzero"/><path d="M66.485 32.601c.89.948.89 2.474 0 3.41L45.247 58.862c-.435.464-1.022.711-1.594.711s-1.16-.24-1.595-.711c-.89-.948-.89-2.475 0-3.409l21.238-22.852a2.14 2.14 0 0 1 3.189 0zM40.154 45.097c-.889-.948-.889-2.474 0-3.409l9.039-9.646c.89-.948 2.319-.948 3.196 0 .889.949.889 2.474 0 3.41l-9.039 9.645c-.437.464-1.024.711-1.595.711-.577 0-1.166-.24-1.601-.711zm29.505.71c.889.949.889 2.474 0 3.41l-9.039 9.645c-.437.464-1.024.711-1.595.711s-1.16-.24-1.596-.711c-.889-.948-.889-2.474 0-3.409l9.041-9.646a2.14 2.14 0 0 1 3.189 0z" fill="#fff"/></svg>