<svg xmlns="http://www.w3.org/2000/svg" width="100%" height="100%" viewBox="0 0 513 513" fill-rule="evenodd" stroke-linejoin="round" stroke-miterlimit="2" xmlns:v="https://vecta.io/nano"><path d="M258.526 345.395l-79.148 79.149c-12.233 12.234-28.355 18.354-44.471 18.354s-32.237-6.12-44.471-18.354l-.073-.078c-12.184-12.225-18.281-28.315-18.281-44.393 0-16.111 6.119-32.234 18.351-44.468l81.96-81.962c7.461-7.461 16.85-12.831 26.951-15.824 10.112-2.993 20.989-3.583 31.391-1.478 13.802 2.794 22.417 9.934 30.986 17.037 17.743 18.44 46.952 20.061 66.943.07l.081-.081c-4.768-14.427-14.227-28.494-26.051-40.464-12.555-12.707-27.65-22.942-42.552-28.67-21.344-8.203-44.677-9.964-66.906-5.289-21.453 4.515-41.883 15.08-58.49 31.687l-84.114 84.113c-22.807 22.807-34.213 52.884-34.213 82.962 0 30.059 11.391 60.114 34.167 82.916l.047.045c22.808 22.808 52.883 34.213 82.961 34.213s60.154-11.405 82.961-34.211l84.114-84.115c6.045-6.045 11.268-12.554 15.664-19.395 2.097-3.26 4.03-6.623 5.792-10.075a134.07 134.07 0 0 1-28.34 3.026c-11.868 0-23.735-1.574-35.258-4.717z" fill="#757575"/><path d="M300.535 210.769l-40.891 40.892c-7.916-6.51-16.22-12.749-28.908-15.319-10.402-2.105-21.279-1.515-31.391 1.478-10.1 2.992-19.49 8.363-26.951 15.824l-81.96 81.962c-12.232 12.234-18.351 28.356-18.351 44.468 0 15.3 5.52 30.613 16.556 42.593l-38.006 38.003-.047-.045c-22.775-22.802-34.167-52.857-34.167-82.916 0-30.078 11.407-60.155 34.213-82.962l84.114-84.113c16.607-16.607 37.037-27.172 58.49-31.687 22.229-4.676 45.562-2.914 66.906 5.289 14.059 5.403 28.287 14.817 40.393 26.534z" fill="#b7b5b9"/><path d="M465.963 45.35h-.001c-48.671-48.672-128.314-48.672-176.985 0l-82.549 82.549c-13.976 13.953-24.418 31.044-30.456 49.847 32.229-5.199 64.882-5.481 82.013-.513l81.265-81.264c21.994-21.995 57.99-21.998 79.989 0s21.995 57.99-.001 79.988l-80.14 80.139c-21.997 21.998-57.99 21.998-79.987.001-2.149-2.148-7.269-5.269-13.329-8.344-24.039-12.194-46.919-8.163-68.762 10.396a124.01 124.01 0 0 0 29.408 46.737c48.671 48.671 128.315 48.671 176.986 0l82.549-82.549c48.671-48.671 48.671-128.315 0-176.986z" fill="#d6d8dc"/><path d="M419.649 91.656l41.212-41.212-.002-.002c-22.805-22.807-52.882-34.212-82.962-34.212s-60.154 11.405-82.962 34.212l-84.113 84.113c-6.254 6.254-11.618 12.986-16.086 20.042a114.93 114.93 0 0 0-5.375 9.451l.739-.16a134.11 134.11 0 0 1 68.509 3.54l73.974-73.972c12.234-12.234 28.356-18.354 44.472-18.354 15.3 0 30.614 5.522 42.593 16.555zM210.825 300.48l37.871-37.871c-6.118-4.954-12.557-9.506-20.972-11.208-7.906-1.6-16.24-1.134-24.043 1.176-6.688 1.981-12.964 5.341-18.212 9.938a115.67 115.67 0 0 0 9.51 18.319c4.404 6.892 9.686 13.486 15.843 19.644l.002.001z" fill="#afadb1"/><path d="M341.475 341.336a131.52 131.52 0 0 1-12.193 24.14c-5.101 7.94-11.039 15.31-17.71 21.985l-84.113 84.113c-25.818 25.818-59.848 38.729-93.866 38.729A132.25 132.25 0 0 1 .999 377.707c0-34.02 12.912-68.048 38.729-93.866l84.114-84.113c13.097-13.113 28.819-23.31 46.132-29.921a131.68 131.68 0 0 1 11.755-23.402 132.01 132.01 0 0 1 18.19-22.755l84.113-84.113c51.385-51.385 136.349-51.387 187.731 0s51.385 136.346 0 187.731l-84.113 84.113a131.58 131.58 0 0 1-46.175 29.954zm-82.865-173.909l73.974-73.972c24.35-24.35 64.591-24.35 88.941 0 24.453 24.454 24.451 64.485.002 88.942l-81.959 81.956a63.03 63.03 0 0 1-34.994 17.82c-27.106 4.257-39.846-6.299-52.673-16.929-7.121-5.904-14.284-11.841-24.177-13.843-7.906-1.6-16.24-1.134-24.043 1.176-6.688 1.981-12.964 5.341-18.212 9.938 17.954 43.647 60.656 72.177 108.315 72.177 30.08 0 60.156-11.405 82.962-34.213l84.113-84.113c45.396-45.396 45.397-120.53 0-165.925s-120.528-45.395-165.923 0l-84.113 84.113c-6.254 6.254-11.618 12.986-16.086 20.042a114.93 114.93 0 0 0-5.375 9.451l.739-.16a134.11 134.11 0 0 1 68.509 3.54zM173.755 274.09l-72.414 72.415c-9.224 9.227-13.838 21.396-13.838 33.568v.152c0 25.923 21.33 47.253 47.253 47.253h.152c12.172 0 24.345-4.614 33.568-13.838l73.819-73.821c-30.272-12.651-54.622-36.125-68.54-65.728zm84.772 71.305l-79.148 79.149c-12.233 12.234-28.355 18.354-44.471 18.354-34.816 0-62.825-28.01-62.825-62.825 0-16.111 6.119-32.234 18.351-44.468l81.96-81.962c7.461-7.461 16.85-12.831 26.951-15.824 10.112-2.993 20.989-3.583 31.391-1.478 13.802 2.794 22.417 9.934 30.986 17.037 10.168 8.427 20.269 16.794 40.505 13.617 10.115-1.587 19.293-6.402 26.519-13.627-4.768-14.427-14.227-28.494-26.051-40.464-12.555-12.707-27.65-22.942-42.552-28.67-21.344-8.203-44.677-9.964-66.906-5.289-21.453 4.515-41.883 15.08-58.49 31.687l-84.114 84.113c-22.807 22.807-34.213 52.884-34.213 82.962v.348c0 64.09 52.736 116.826 116.826 116.826h.348c30.079 0 60.154-11.405 82.961-34.211l84.114-84.115c6.045-6.045 11.268-12.554 15.664-19.395 2.097-3.26 4.03-6.623 5.792-10.075a134.07 134.07 0 0 1-28.34 3.026c-11.868 0-23.735-1.574-35.258-4.717zm82.158-103.966l69.938-69.936c18.466-18.469 18.467-48.665-.002-67.134-18.36-18.362-48.771-18.362-67.133 0l-69.266 69.264c14.044 6.764 27.777 16.7 39.436 28.501 11.482 11.621 21.043 25.131 27.027 39.305z" fill="#1a1a1a" fill-rule="nonzero"/></svg>