<?xml version="1.0" encoding="UTF-8" standalone="no"?>
<!DOCTYPE svg PUBLIC "-//W3C//DTD SVG 1.1//EN" "http://www.w3.org/Graphics/SVG/1.1/DTD/svg11.dtd">
<svg width="100%" height="100%" viewBox="0 0 110 135" version="1.1" xmlns="http://www.w3.org/2000/svg" xmlns:xlink="http://www.w3.org/1999/xlink" xml:space="preserve" xmlns:serif="http://www.serif.com/" style="fill-rule:evenodd;clip-rule:evenodd;stroke-linejoin:round;stroke-miterlimit:2;">
    <g transform="matrix(0.0434205,0.857557,-0.863352,0.0437137,115.782,29.7576)">
        <g transform="matrix(0.198634,-1.05004,1.06428,0.198635,-35.2429,116.256)">
            <g transform="matrix(1.58984,0.0589884,-0.0659496,1.55451,-32.8814,-41.8448)">
                <path d="M81.991,102.866L79.551,91.705C77.349,94.263 74.738,96.412 71.821,98.066L81.991,102.866Z" style="fill:none;fill-rule:nonzero;stroke:rgb(65,63,67);stroke-width:2.96px;"/>
                <path d="M81.991,102.866L79.551,91.705C77.349,94.263 74.738,96.412 71.821,98.066L81.991,102.866Z" style="fill:rgb(154,163,169);fill-rule:nonzero;"/>
            </g>
            <g transform="matrix(1.57385,0.231039,-0.236414,1.53807,-17.8628,-51.7042)">
                <path d="M37.875,94.151C36.634,93.016 35.446,91.804 34.373,90.447C33.301,89.089 32.384,87.657 31.571,86.17L27.002,96.514L37.875,94.151Z" style="fill:none;fill-rule:nonzero;stroke:rgb(65,63,67);stroke-width:2.96px;"/>
                <path d="M37.875,94.151C36.634,93.016 35.446,91.804 34.373,90.447C33.301,89.089 32.384,87.657 31.571,86.17L27.002,96.514L37.875,94.151Z" style="fill:rgb(154,163,169);fill-rule:nonzero;"/>
            </g>
            <g transform="matrix(1.57385,0.231039,-0.236414,1.53807,-19.2694,-49.9485)">
                <path d="M76.705,49.041C77.946,50.175 79.133,51.387 80.206,52.745C81.278,54.103 82.197,55.536 83.009,57.022L87.577,46.678L76.705,49.041Z" style="fill:none;fill-rule:nonzero;stroke:rgb(65,63,67);stroke-width:2.96px;"/>
                <path d="M76.705,49.041C77.946,50.175 79.133,51.387 80.206,52.745C81.278,54.103 82.197,55.536 83.009,57.022L87.577,46.678L76.705,49.041Z" style="fill:rgb(154,163,169);fill-rule:nonzero;"/>
            </g>
            <g transform="matrix(1.57385,0.231039,-0.236414,1.53807,-18.1668,-50.1322)">
                <path d="M82.562,83.321L78.694,84.773C78.419,84.881 78.114,84.911 77.815,84.886C76.386,84.721 75.141,83.998 74.182,82.784C71.265,79.092 71.647,71.481 73.944,67.146C75.398,64.389 77.545,63.029 79.961,63.297C80.251,63.331 80.55,63.441 80.799,63.61L84.293,65.91C83.359,61.503 81.433,57.419 78.711,53.974C75.99,50.53 72.489,47.742 68.468,45.875L69.93,49.848C70.038,50.132 70.071,50.445 70.049,50.751C69.785,53.412 67.861,55.471 64.77,56.386C60.304,57.703 53.247,56.552 50.282,52.799C49.243,51.483 48.775,49.933 48.935,48.325C48.964,48.028 49.068,47.723 49.23,47.47L51.439,43.921C42.844,45.733 35.602,51.694 32.044,59.883L35.911,58.431C36.187,58.324 36.491,58.293 36.791,58.318C38.256,58.488 39.546,59.225 40.528,60.469C43.436,64.152 43.07,71.699 40.806,75.99C39.32,78.791 37.132,80.184 34.654,79.898C34.365,79.865 34.065,79.755 33.816,79.586L30.322,77.286C31.256,81.693 33.183,85.776 35.904,89.222C38.626,92.666 42.126,95.454 46.148,97.321L44.687,93.347C44.577,93.064 44.544,92.751 44.566,92.446C44.878,89.303 47.017,86.914 50.43,85.905C55.254,84.48 61.393,86.114 64.115,89.559C65.334,91.102 65.873,92.949 65.68,94.89C65.65,95.186 65.546,95.491 65.385,95.744L63.175,99.294C71.769,97.481 79.012,91.52 82.57,83.331L82.562,83.321Z" style="fill:none;fill-rule:nonzero;stroke:rgb(65,63,67);stroke-width:2.96px;"/>
                <path d="M82.562,83.321L78.694,84.773C78.419,84.881 78.114,84.911 77.815,84.886C76.386,84.721 75.141,83.998 74.182,82.784C71.265,79.092 71.647,71.481 73.944,67.146C75.398,64.389 77.545,63.029 79.961,63.297C80.251,63.331 80.55,63.441 80.799,63.61L84.293,65.91C83.359,61.503 81.433,57.419 78.711,53.974C75.99,50.53 72.489,47.742 68.468,45.875L69.93,49.848C70.038,50.132 70.071,50.445 70.049,50.751C69.785,53.412 67.861,55.471 64.77,56.386C60.304,57.703 53.247,56.552 50.282,52.799C49.243,51.483 48.775,49.933 48.935,48.325C48.964,48.028 49.068,47.723 49.23,47.47L51.439,43.921C42.844,45.733 35.602,51.694 32.044,59.883L35.911,58.431C36.187,58.324 36.491,58.293 36.791,58.318C38.256,58.488 39.546,59.225 40.528,60.469C43.436,64.152 43.07,71.699 40.806,75.99C39.32,78.791 37.132,80.184 34.654,79.898C34.365,79.865 34.065,79.755 33.816,79.586L30.322,77.286C31.256,81.693 33.183,85.776 35.904,89.222C38.626,92.666 42.126,95.454 46.148,97.321L44.687,93.347C44.577,93.064 44.544,92.751 44.566,92.446C44.878,89.303 47.017,86.914 50.43,85.905C55.254,84.48 61.393,86.114 64.115,89.559C65.334,91.102 65.873,92.949 65.68,94.89C65.65,95.186 65.546,95.491 65.385,95.744L63.175,99.294C71.769,97.481 79.012,91.52 82.57,83.331L82.562,83.321Z" style="fill:rgb(184,189,192);fill-rule:nonzero;"/>
            </g>
            <g transform="matrix(1.78098,0.261446,-0.282197,1.83593,-33.7512,-74.8619)">
                <path d="M79.767,65.257C74.377,64.635 72.297,77.277 75.676,81.555C76.278,82.316 77.051,82.816 78.009,82.927L96.168,76.094L79.765,65.275L79.767,65.257Z" style="fill:none;fill-rule:nonzero;stroke:rgb(65,63,67);stroke-width:2.96px;"/>
                <path d="M79.767,65.257C74.377,64.635 72.297,77.277 75.676,81.555C76.278,82.316 77.051,82.816 78.009,82.927L96.168,76.094L79.765,65.275L79.767,65.257Z" style="fill:rgb(167,172,176);fill-rule:nonzero;"/>
                <g transform="matrix(0.481555,0.312684,-0.444389,0.684387,70.4345,26.111)">
                    <path d="M81.26,34.892L50.045,38.352C49.857,36.951 50.686,35.89 52.578,35.186L81.26,34.892Z" style="fill:white;"/>
                </g>
            </g>
            <g transform="matrix(1.7185,0.252273,-0.274601,1.78651,-19.402,-68.2316)">
                <path d="M34.813,77.935C40.311,78.568 42.427,66.035 38.998,61.695C38.373,60.904 37.573,60.39 36.56,60.273L18.402,67.106L34.806,77.924L34.813,77.935Z" style="fill:none;fill-rule:nonzero;stroke:rgb(65,63,67);stroke-width:2.96px;"/>
                <path d="M34.813,77.935C40.311,78.568 42.427,66.035 38.998,61.695C38.373,60.904 37.573,60.39 36.56,60.273L18.402,67.106L34.806,77.924L34.813,77.935Z" style="fill:rgb(167,172,176);fill-rule:nonzero;"/>
                <g transform="matrix(-0.533363,0.212582,0.302123,0.758013,53.2108,23.3325)">
                    <path d="M81.26,34.892L50.045,38.352C49.857,36.951 50.686,35.89 52.578,35.186L81.26,34.892Z" style="fill:white;"/>
                </g>
            </g>
            <g transform="matrix(1.78645,0.262248,-0.257544,1.67554,-27.3402,-66.7053)">
                <path d="M53.352,111.331L63.744,94.667C63.896,93.151 63.447,91.856 62.602,90.786C58.817,85.994 47.137,85.9 46.464,92.664L53.344,111.321L53.352,111.331Z" style="fill:none;fill-rule:nonzero;stroke:rgb(65,63,67);stroke-width:2.96px;"/>
                <path d="M53.352,111.331L63.744,94.667C63.896,93.151 63.447,91.856 62.602,90.786C58.817,85.994 47.137,85.9 46.464,92.664L53.344,111.321L53.352,111.331Z" style="fill:rgb(167,172,176);fill-rule:nonzero;"/>
                <g transform="matrix(0.20879,0.534858,0.760141,-0.296732,9.87653,74.9748)">
                    <path d="M81.26,34.892L50.045,38.352C49.857,36.951 50.686,35.89 52.578,35.186L81.26,34.892Z" style="fill:white;"/>
                </g>
            </g>
            <g transform="matrix(1.87188,0.27479,-0.265268,1.72579,-35.4045,-59.9501)">
                <path d="M61.246,31.863L50.853,48.527C50.739,49.673 51.095,50.686 51.778,51.549C55.311,56.024 67.544,56.463 68.125,50.519L61.246,31.863Z" style="fill:none;fill-rule:nonzero;stroke:rgb(65,63,67);stroke-width:2.96px;"/>
                <path d="M61.246,31.863L50.853,48.527C50.739,49.673 51.095,50.686 51.778,51.549C55.311,56.024 67.544,56.463 68.125,50.519L61.246,31.863Z" style="fill:rgb(167,172,176);fill-rule:nonzero;"/>
                <g transform="matrix(0.312685,-0.481554,0.684388,0.444388,11.243,58.198)">
                    <path d="M81.26,34.892L50.045,38.352C49.857,36.951 50.686,35.89 52.578,35.186L81.26,34.892Z" style="fill:white;"/>
                </g>
            </g>
        </g>
        <g transform="matrix(0.0303207,-0.992831,1.00629,0.0303212,-27.107,115.438)">
            <g transform="matrix(1.57385,0.231039,-0.236414,1.53807,-18.1668,-50.1322)">
                <path d="M45.651,44.685L41.52,39.974C39.48,37.674 36.501,36.92 33.93,37.758L36.933,41.146C37.719,41.333 38.47,41.775 39.081,42.463L41.852,45.563C42.161,45.609 45.87,44.667 45.651,44.685Z" style="fill:none;fill-rule:nonzero;stroke:rgb(65,63,67);stroke-width:2.96px;"/>
                <path d="M45.651,44.685L41.52,39.974C39.48,37.674 36.501,36.92 33.93,37.758L36.933,41.146C37.719,41.333 38.47,41.775 39.081,42.463L41.852,45.563C42.161,45.609 45.87,44.667 45.651,44.685Z" style="fill:rgb(154,163,169);fill-rule:nonzero;"/>
            </g>
            <g transform="matrix(1.57385,0.231039,-0.236414,1.53807,-18.1668,-50.1322)">
                <path d="M29.234,25.509L26.202,22.09C24.161,19.791 21.183,19.025 18.611,19.876L21.613,23.262C22.4,23.452 23.151,23.893 23.762,24.581L26.793,27.998C27.405,28.686 27.777,29.513 27.917,30.367L30.919,33.762C31.834,31.031 31.274,27.808 29.234,25.509Z" style="fill:none;fill-rule:nonzero;stroke:rgb(65,63,67);stroke-width:2.96px;"/>
                <path d="M29.234,25.509L26.202,22.09C24.161,19.791 21.183,19.025 18.611,19.876L21.613,23.262C22.4,23.452 23.151,23.893 23.762,24.581L26.793,27.998C27.405,28.686 27.777,29.513 27.917,30.367L30.919,33.762C31.834,31.031 31.274,27.808 29.234,25.509Z" style="fill:rgb(154,163,169);fill-rule:nonzero;"/>
            </g>
            <g transform="matrix(1.57385,0.231039,-0.236414,1.53807,-18.1668,-50.1322)">
                <path d="M24.272,38.679L21.269,35.293C20.482,35.104 19.731,34.663 19.12,33.975L16.087,30.557C15.478,29.869 15.105,29.041 14.965,28.189L11.963,24.803C11.049,27.522 11.608,30.756 13.657,33.056L16.69,36.475C18.72,38.775 21.689,39.528 24.272,38.679Z" style="fill:none;fill-rule:nonzero;stroke:rgb(65,63,67);stroke-width:2.96px;"/>
                <path d="M24.272,38.679L21.269,35.293C20.482,35.104 19.731,34.663 19.12,33.975L16.087,30.557C15.478,29.869 15.105,29.041 14.965,28.189L11.963,24.803C11.049,27.522 11.608,30.756 13.657,33.056L16.69,36.475C18.72,38.775 21.689,39.528 24.272,38.679Z" style="fill:rgb(184,189,192);fill-rule:nonzero;"/>
            </g>
            <g transform="matrix(1.57385,0.231039,-0.236414,1.53807,-18.1668,-50.1322)">
                <path d="M33.835,56.294C33.877,56.632 36.507,53.776 36.265,53.795L31.518,49.189C30.907,48.502 30.533,47.674 30.395,46.821L27.392,43.436C26.478,46.156 27.037,49.388 29.088,51.69L33.835,56.294Z" style="fill:none;fill-rule:nonzero;stroke:rgb(65,63,67);stroke-width:2.96px;"/>
                <path d="M33.835,56.294C33.877,56.632 36.507,53.776 36.265,53.795L31.518,49.189C30.907,48.502 30.533,47.674 30.395,46.821L27.392,43.436C26.478,46.156 27.037,49.388 29.088,51.69L33.835,56.294Z" style="fill:rgb(184,189,192);fill-rule:nonzero;"/>
            </g>
            <g transform="matrix(1.57385,0.231039,-0.236414,1.53807,-18.1668,-50.1322)">
                <path d="M36.296,46.182C37.222,45.233 37.255,43.64 36.368,42.64L26.032,30.99C25.145,29.99 23.664,29.948 22.737,30.897C21.812,31.846 21.779,33.438 22.666,34.438L33.002,46.089C33.889,47.088 35.369,47.13 36.296,46.182Z" style="fill:none;fill-rule:nonzero;stroke:rgb(65,63,67);stroke-width:2.96px;"/>
                <path d="M36.296,46.182C37.222,45.233 37.255,43.64 36.368,42.64L26.032,30.99C25.145,29.99 23.664,29.948 22.737,30.897C21.812,31.846 21.779,33.438 22.666,34.438L33.002,46.089C33.889,47.088 35.369,47.13 36.296,46.182Z" style="fill:rgb(167,172,176);fill-rule:nonzero;"/>
            </g>
            <g transform="matrix(1.57385,0.231039,-0.236414,1.53807,-20.3495,-53.0194)">
                <path d="M21.078,29.027C22.005,28.078 22.037,26.486 21.15,25.487L10.815,13.834C9.928,12.835 8.446,12.793 7.52,13.743C6.593,14.691 6.562,16.283 7.449,17.282L17.784,28.934C18.671,29.945 20.152,29.986 21.078,29.027Z" style="fill:none;fill-rule:nonzero;stroke:rgb(65,63,67);stroke-width:2.96px;"/>
                <path d="M21.078,29.027C22.005,28.078 22.037,26.486 21.15,25.487L10.815,13.834C9.928,12.835 8.446,12.793 7.52,13.743C6.593,14.691 6.562,16.283 7.449,17.282L17.784,28.934C18.671,29.945 20.152,29.986 21.078,29.027Z" style="fill:rgb(167,172,176);fill-rule:nonzero;"/>
            </g>
            <g transform="matrix(0.320251,-0.207993,0.870694,1.28036,-12.6061,-1.94252)">
                <path d="M49.99,12.284L49.99,28.73C50.077,29.608 45.757,29.606 45.621,28.73L45.621,12.284C45.672,11.465 50.046,11.406 49.99,12.284Z" style="fill:white;"/>
            </g>
            <g transform="matrix(0.320251,-0.207993,0.870694,1.28036,-35.1388,-34.7683)">
                <path d="M49.99,12.284L49.99,28.73C50.077,29.608 45.757,29.606 45.621,28.73L45.621,12.284C45.672,11.465 50.046,11.406 49.99,12.284Z" style="fill:white;"/>
            </g>
        </g>
    </g>
</svg>
