<svg xmlns="http://www.w3.org/2000/svg" width="100%" height="100%" viewBox="0 0 110 135" fill-rule="evenodd" stroke-linecap="round" stroke-linejoin="round" stroke-miterlimit="2" xmlns:v="https://vecta.io/nano"><g transform="matrix(1.20505 0 0 1.15115 -21.0312 -4.33173)"><g fill-rule="nonzero" fill="#ff0064"><path d="M67.348 73.411c3.075 1.543 6.382 2.572 9.79 3.042a16.11 16.11 0 0 0 3.31.396 14.47 14.47 0 0 0 2.229-.188c3.067-.176 6.076-.904 8.884-2.149 11.703-5.215 17.117-13.415 17.558-26.602.344-12.127-8.817-24.976-10.143-26.431-.706-.772.647 5.681-1.277 5.391l-.17-.54C93.284 11.61 80.108 1.123 64.811.288c-1.292-.069-8.399.282-9.052 1.4-.052.089 4.034.365 5.284.94.805.37 1.443.731 1.942 1.016.771.438 1.49.876 1.809 1.1 3.998 2.811 5.284 7.32 6.721 11.891.12.401.226.798.316 1.189-1.974-1.235-7.13-2.56-7.275-2.59-1.218-.25-8.508-.431-6.999-.006.642.18 3.633.33 5.031 4.035.78 2.069 1.626 4.111 1.363 6.306-.824 3.378-2.393 6.529-4.594 9.222l-1.135 1.636c-4.261 6.12-5.921 13.689-4.612 21.03 1.441 6.449 6.321 12.113 13.738 15.954z" stroke="#6b0000" stroke-width="4.53" transform="matrix(.894662 0 0 .894662 8.84925 6.31615)"/><path d="M69.103 71.994c2.751 1.38 5.71 2.301 8.759 2.722a14.41 14.41 0 0 0 2.961.354c.668-.004 1.335-.061 1.994-.168 2.744-.157 5.436-.809 7.948-1.923 10.47-4.666 15.314-12.002 15.708-23.8.308-10.85-7.888-22.345-9.075-23.647-.632-.691.579 5.083-1.142 4.823l-.152-.483C92.307 16.703 80.519 7.321 66.833 6.574c-1.156-.062-7.514.252-8.098 1.253-.047.08 3.609.327 4.727.841a21.3 21.3 0 0 1 1.737.909c.69.392 1.333.784 1.618.984 3.577 2.515 4.727 6.549 6.013 10.638.107.359.202.714.283 1.064-1.766-1.105-6.379-2.29-6.509-2.317-1.09-.224-7.612-.386-6.262-.005.574.161 3.25.295 4.501 3.61.698 1.851 1.455 3.678 1.219 5.642a20.84 20.84 0 0 1-4.11 8.251l-1.015 1.464a25.2 25.2 0 0 0-4.126 18.815c1.289 5.77 5.655 10.837 12.291 14.273z"/></g><path d="M69.103 71.994c-6.636-3.436-11.002-8.504-12.291-14.273a25.2 25.2 0 0 1 4.126-18.815l1.015-1.464a20.84 20.84 0 0 0 4.11-8.251c.235-1.964-.522-3.791-1.219-5.642-1.251-3.315-3.927-3.449-4.501-3.61-1.35-.38 5.172-.218 6.262.005.13.027 4.743 1.212 6.509 2.317-.081-.35-.175-.705-.283-1.064-1.286-4.09-2.436-8.124-6.013-10.638-.285-.2-.929-.592-1.618-.984a21.3 21.3 0 0 0-1.737-.909c-1.118-.514-4.774-.761-4.727-.841.584-1 6.943-1.314 8.098-1.253 13.686.747 25.474 10.129 29.272 23.299l.152.483c1.721.259.511-5.514 1.142-4.823 1.186 1.302 9.382 12.797 9.075 23.647-.395 11.798-5.238 19.134-15.708 23.8-2.512 1.114-5.204 1.765-7.948 1.923-.659.107-1.326.164-1.994.168a14.41 14.41 0 0 1-2.961-.354c-3.049-.42-6.008-1.341-8.759-2.722zm28.52-45.516c.028 1.067.105 2.677-.237 3.517-.231.569-.624.862-1.192.776a.42.42 0 0 1-.337-.289l-.152-.483A31.95 31.95 0 0 0 66.811 6.993c-.796-.042-4.098.098-6.204.522-.146.03-.286.06-.419.092 1.173.145 2.77.367 3.45.68a21.48 21.48 0 0 1 1.77.926c.704.4 1.361.801 1.652 1.005 3.655 2.57 4.858 6.677 6.171 10.856.112.373.209.737.292 1.096.038.166-.027.337-.166.436a.42.42 0 0 1-.466.014c-1.727-1.081-6.239-2.235-6.371-2.263-.549-.113-2.508-.208-4.097-.225.992.484 2.111 1.409 2.814 3.27.722 1.915 1.487 3.809 1.244 5.84-.003.016-.005.033-.009.049a21.26 21.26 0 0 1-4.183 8.404l-1.006 1.451a24.78 24.78 0 0 0-4.058 18.497c1.269 5.654 5.565 10.608 12.069 13.977a27.65 27.65 0 0 0 8.625 2.68c.012.002.023.004.036.007a14.02 14.02 0 0 0 2.87.344 12.51 12.51 0 0 0 1.925-.163c.014-.003.029-.004.043-.004 2.694-.155 5.336-.794 7.801-1.888 10.307-4.592 15.071-11.816 15.46-23.429.274-9.659-6.278-19.834-8.431-22.689z" fill="#b40000" stroke="#6b0000" stroke-width=".85"/><path d="M77.021 71.193c-2.133-.532-3.939-1.951-4.959-3.899-.968-2.165-.711-4.69.672-6.617 1.261-1.491 2.666-2.854 4.194-4.071 2.22-1.578 4.036-3.657 5.302-6.068a9.89 9.89 0 0 0 .658-2.72c3.101 3.647 6.191 10.779 6.371 15.563.023 2.066.024 4.539-3.363 6.776-.893.545-3.149 1.356-4.189 1.463-1.125.038-2.25-.008-3.369-.135-.444-.072-.884-.169-1.317-.292z" fill="#ffff52" fill-rule="nonzero" transform="matrix(.844718 -.166037 .194707 .990574 2.61024 5.08142)"/></g><path d="M62.153 101.617l4.331 3.003 31.97-2.963h.075c.266-1.409.15-2.928-.456-4.331-1.218-2.738-3.875-4.412-6.728-4.412a7.5 7.5 0 0 0-2.206.341l-26.986 8.362zm2.05-25.848l.953.04c2.853.381 5.244 2.471 5.816 5.359.762 3.459-1.219 6.959-4.637 7.981l-20.679 5.625 19.807 13.762 33.53-3.119c.266-.04.456-.04.681-.04 3.459 0 6.463 2.432 7.225 5.891.837 3.875-1.594 7.68-5.474 8.628l-35.811 8.436c-3.193.798-6.502.798-9.696.15l-35.884-7.489-17.713-4.699.245-35.975 17.467-3.788 44.172-.762h-.001z" fill="#f2ccb7" fill-rule="nonzero"/><path d="M64.203 72.769l1.3.061.05.007c4.103.548 7.52 3.572 8.352 7.703 1.089 4.985-1.786 10.012-6.711 11.485-.024.007-.048.014-.072.02L52.65 95.981l6.674 4.637a3 3 0 0 1 1.941-1.867l26.98-8.36c1.014-.317 2.085-.477 3.099-.477 4.012 0 7.756 2.343 9.469 6.193.005.01.009.019.013.029.851 1.969 1.023 4.1.65 6.078-.02.105-.045.208-.076.309 4.102.696 7.486 3.833 8.426 8.099l.002.013c1.181 5.462-2.224 10.839-7.694 12.176l-35.809 8.435c-3.625.904-7.381.911-11.007.176l-35.901-7.492c-.052-.012-.105-.023-.156-.038L1.55 119.193a3 3 0 0 1-2.232-2.92l.245-35.975a3 3 0 0 1 2.364-2.912L19.396 73.6c.194-.041.392-.064.59-.067l44.218-.763zm0 3c-6.122 0-31.738.572-44.171.762L2.565 80.319l-.245 35.975 17.713 4.699 35.884 7.489c3.194.648 6.503.648 9.696-.15l35.811-8.436c3.881-.948 6.312-4.753 5.474-8.628-.762-3.459-3.765-5.891-7.225-5.891-.225 0-.416 0-.681.04l-33.53 3.119-19.807-13.762 20.679-5.625c3.418-1.022 5.399-4.522 4.637-7.981-.572-2.888-2.963-4.978-5.816-5.359-.346-.04-.687-.04-.953-.04zm31.338 26.159l2.913-.27h.075c.266-1.409.15-2.928-.456-4.331-1.218-2.738-3.875-4.412-6.728-4.412a7.5 7.5 0 0 0-2.206.341l-26.986 8.362 4.331 3.003 28.983-2.686a3.01 3.01 0 0 0 .179.781l.073-.007a2.99 2.99 0 0 1-.178-.781z" fill="#000100"/></svg>