<?xml version="1.0" encoding="UTF-8" standalone="no"?>
<!DOCTYPE svg PUBLIC "-//W3C//DTD SVG 1.1//EN" "http://www.w3.org/Graphics/SVG/1.1/DTD/svg11.dtd">
<svg width="100%" height="100%" viewBox="0 0 110 135" version="1.1" xmlns="http://www.w3.org/2000/svg" xmlns:xlink="http://www.w3.org/1999/xlink" xml:space="preserve" xmlns:serif="http://www.serif.com/" style="fill-rule:evenodd;clip-rule:evenodd;stroke-linejoin:round;stroke-miterlimit:2;">
    <g>
        <g transform="matrix(0.945466,0,0,0.726746,3.82859,31.7966)">
            <path d="M110.452,-20.504L109.771,111.89L7.804,110.394L6.197,-19.323L110.452,-20.504Z" style="fill:rgb(232,224,208);"/>
        </g>
        <path d="M1.5,98.526L1.5,22.393C1.5,16.453 4.063,10.76 8.613,6.555C13.169,2.357 17.352,0 23.798,0L103.55,0C106.235,0 108.409,2.004 108.409,4.478L108.409,111.962C108.409,116.91 104.06,120.918 98.69,120.918L84.112,120.918L84.112,111.962L98.69,111.962L98.69,85.091L23.798,85.091C15.749,85.091 11.219,91.109 11.219,98.526C11.219,105.944 17.749,111.962 25.798,111.962L84.112,111.962L84.112,120.918L25.798,120.918C12.386,120.918 1.5,110.887 1.5,98.526Z" style="fill:rgb(217,145,69);"/>
        <g transform="matrix(1.32765,0,0,1,-29.7944,-1)">
            <path d="M90.931,103.27L46.564,103.27C43.278,103.27 41.228,101.998 40.208,99.163C40.305,95.701 41.844,94.676 50.377,94.676L90.849,94.676C90.858,96.495 90.947,101.986 90.931,103.27Z" style="fill:rgb(14,56,33);stroke:rgb(14,56,33);stroke-width:0.85px;"/>
        </g>
        <g transform="matrix(1.32765,0,0,1,-29.7944,-1)">
            <path d="M90.931,103.27L46.564,103.27C43.278,103.27 41.228,101.998 40.208,99.163C40.305,95.701 41.844,94.676 50.377,94.676L90.849,94.676C90.858,96.495 90.947,101.986 90.931,103.27Z" style="fill:white;stroke:white;stroke-width:0.85px;"/>
        </g>
        <path d="M1.5,98.526L1.5,97.393C1.5,91.453 4.063,85.76 8.613,81.555C13.169,77.357 17.352,75 23.798,75L103.55,75C106.235,75 108.409,77.004 108.409,79.478L108.409,111.962C108.409,116.91 104.06,120.918 98.69,120.918L84.112,120.918L84.112,111.962L98.69,111.962L98.69,85.091L23.798,85.091C15.749,85.091 11.219,91.109 11.219,98.526C11.219,105.944 17.749,111.962 25.798,111.962L84.112,111.962L84.112,120.918L25.798,120.918C12.386,120.918 1.5,110.887 1.5,98.526Z" style="fill:rgb(230,187,133);"/>
        <g transform="matrix(1,0,0,1.02067,-2.1446,-5.60037)">
            <path d="M40.376,99.828C40.376,99.828 40.383,133.97 40.145,134.785L59.699,123.063L79.13,134.668C79.061,131.739 79.252,99.828 79.252,99.828L40.376,99.828Z" style="fill:rgb(255,0,0);stroke:rgb(157,39,30);stroke-width:6.07px;"/>
        </g>
    </g>
    <g transform="matrix(1,0,0,1,-1,0)">
        <path d="M21.797,8.957L21.797,76.134C16.331,76.134 14.283,77.802 10.219,80.618L10.219,22.392C10.219,18.826 11.756,15.412 14.489,12.893C17.223,10.373 17.928,8.957 21.797,8.957Z" style="fill:rgb(230,187,133);"/>
    </g>
    <g>
        <g transform="matrix(1,0,0,0.759887,0,16.6161)">
            <path d="M80.1,19.889L80.075,69.229L40.118,69.155L40.087,20.927L60.321,30.938L80.1,19.889Z" style="fill:rgb(230,187,133);"/>
        </g>
        <g transform="matrix(0.9539,0,0,0.883273,4.86836,0.880833)">
            <path d="M29.063,75.864L29.063,9.772L41.44,9.772L57.984,44.768L58.237,44.768L74.657,9.772L87.158,9.772L87.158,75.864L74.277,75.864L74.277,35.671L74.024,35.671L61.268,64.074L54.825,64.074L42.196,35.671L41.944,35.671L41.944,75.864L29.063,75.864Z" style="fill:rgb(0,1,0);stroke:rgb(0,1,0);stroke-width:2.85px;stroke-linecap:round;"/>
        </g>
    </g>
</svg>
