<svg xmlns="http://www.w3.org/2000/svg" width="100%" height="100%" viewBox="0 0 110 135" fill-rule="evenodd" stroke-linejoin="round" stroke-miterlimit="2" xmlns:v="https://vecta.io/nano"><path d="M3.968 55.75l2.868 9.55 3.546 11.829 3.791 12.696 2.491 8.27 5.002 16.671c2.453 8.175 9.964 13.449 18.074 13.449 1.793 0 3.602-.245 5.415-.791 9.983-2.996 15.663-13.488 12.663-23.452L37.252 35.387c-2.981-9.965-13.491-15.616-23.489-12.639a18.83 18.83 0 0 0-8.962 5.857C.799 33.296-.802 39.851 1.105 46.199l2.868 9.551h-.005zm35.772 62.104c.847 0 1.638-.113 2.425-.353a1.88 1.88 0 1 1 1.083 3.607 11.99 11.99 0 0 1-3.513.514 12.35 12.35 0 0 1-11.745-8.75L14.447 70.701c-.297-.999.245-2.148 1.262-2.345 1.055-.208 2.1.447 2.345 1.262l13.543 42.171c1.074 3.57 4.417 6.06 8.138 6.06l.005.005z" fill="#e40000"/><path d="M25.789 38.406l-2.628-8.265-13.775 4.382 2.63 8.265-8.264 2.628L8.132 59.19l8.265-2.628 2.628 8.264 13.774-4.382-2.628-8.264 8.264-2.63-4.381-13.774-8.265 2.63z" fill="#fff"/><g fill-rule="nonzero"><path d="M50.435 46.197l14.279 2.072c1.092.151 2.189-.41 2.684-1.408a2.52 2.52 0 0 0 .273-1.154c0-1.2-.815-2.237-1.982-2.524l-14.514-2.091a2.61 2.61 0 0 0-2.699 1.394c-.188.386-.287.776-.287 1.149 0 1.111.768 2.345 2.238 2.562h.008zm4.229-8.421l14.274 2.072a2.6 2.6 0 0 0 2.698-1.398c.184-.378.288-.783.288-1.145 0-1.187-.839-2.256-1.998-2.538l-14.513-2.095a2.57 2.57 0 0 0-2.703 1.398c-.169.358-.268.753-.268 1.144 0 1.112.762 2.35 2.222 2.562zm4.003-8.439l14.513 2.09c1.102.166 2.194-.395 2.698-1.393.175-.358.269-.754.269-1.144 0-1.112-.763-2.35-2.223-2.562l-14.664-2.1c-.974 0-1.865.536-2.298 1.413a2.49 2.49 0 0 0-.292 1.176c0 1.178.838 2.238 2.001 2.525l-.004-.005zm15.804-6.743c.89.132 1.695.452 2.416.89 3.254-1.05 6.056-3.348 7.671-6.541l4.249-8.439s-6.734-3.371-10.135 3.354c-1.187 2.354-3.734 3.673-6.338 3.296l-7.907-1.13c-1.964-.301-4.022.583-4.926 2.354-.697 1.375-.589 2.882.061 4.102.208.009 14.909 2.114 14.909 2.114zM60.47 56.689a2.63 2.63 0 0 0 2.68-1.404c.203-.39.297-.772.297-1.163a2.62 2.62 0 0 0-2.152-2.547l-14.368-2.068c-.499-.076-.985.038-1.432.245l1.497 4.973 13.478 1.964zm-3.871 3.244l-8.406-1.225 2.868 9.602 5.538-8.377z" fill="#a8a8a8"/><path d="M93.746 55.125c4.699-.052 8.807 1.445 11.806 4.342l4.007-4.719s-15.094-15.07-33.963 1.883L54.659 80.324l6.772 22.562c.74 2.463 1.008 4.978.904 7.46l40.744-47.978c-1.752-1.771-4.025-2.92-6.743-3.315a6.31 6.31 0 0 1 .013.4c0 3.635-2.962 6.592-6.602 6.592a6.6 6.6 0 0 1-5.6-3.079c-.41.319-.81.655-1.206.993L65.01 84.246a1.87 1.87 0 0 1-1.413.635 1.89 1.89 0 0 1-1.248-.47c-.781-.688-.852-1.879-.165-2.661L80.196 61.37c.052-.061 2.549-2.119 3.796-2.954.551-.366 1.248-.418 1.846-.146.593.278 1.008.848 1.079 1.497.159 1.432 1.374 2.506 2.825 2.506 1.564 0 2.835-1.267 2.835-2.826 0-.533-.136-1.017-.405-1.442-.368-.574-.391-1.308-.066-1.907a1.87 1.87 0 0 1 1.635-.984l.005.01z" fill="#fff"/></g><path d="M21.281 33.772l2.629 8.264 8.264-2.629 2.629 8.264-8.264 2.629 2.629 8.264-8.264 2.629-2.629-8.264-8.264 2.629-2.629-8.264 8.264-2.629-2.629-8.264 8.264-2.629z" fill="#000100"/></svg>