<?xml version="1.0" encoding="UTF-8" standalone="no"?>
<!DOCTYPE svg PUBLIC "-//W3C//DTD SVG 1.1//EN" "http://www.w3.org/Graphics/SVG/1.1/DTD/svg11.dtd">
<svg width="100%" height="100%" viewBox="0 0 100 125" version="1.1" xmlns="http://www.w3.org/2000/svg" xmlns:xlink="http://www.w3.org/1999/xlink" xml:space="preserve" xmlns:serif="http://www.serif.com/" style="fill-rule:evenodd;clip-rule:evenodd;stroke-linejoin:round;stroke-miterlimit:2;">
    <g transform="matrix(1.06067,0,0,1.06067,0.0301111,-7.57196)">
        <g transform="matrix(-0.274285,0.902024,-0.902024,-0.274285,104.446,16.824)">
            <path d="M56.324,20.5L57.804,14.973C58.023,14.16 58.855,13.684 59.668,13.899C60.476,14.117 60.961,14.949 60.742,15.762L59.262,21.289C59.078,21.969 58.465,22.418 57.793,22.418C57.664,22.418 57.531,22.402 57.398,22.367C56.586,22.148 56.105,21.316 56.324,20.504L56.324,20.5ZM50,21.387C50.84,21.387 51.519,20.707 51.519,19.867L51.519,3.406C51.519,2.684 51.015,2.078 50.336,1.922L49.66,1.922C48.98,2.074 48.476,2.68 48.476,3.406L48.476,19.871C48.476,20.711 49.156,21.391 49.996,21.391L50,21.387ZM70.219,27.609C69.625,28.203 69.625,29.168 70.219,29.762C70.516,30.059 70.906,30.207 71.293,30.207C71.684,30.207 72.07,30.059 72.367,29.762L76.414,25.715C77.008,25.121 77.008,24.16 76.414,23.566C75.82,22.973 74.859,22.973 74.266,23.566L70.219,27.613L70.219,27.609ZM64.297,25.215C64.535,25.352 64.801,25.418 65.055,25.418C65.582,25.418 66.094,25.145 66.375,24.656L74.606,10.398C75.027,9.672 74.777,8.742 74.047,8.32C73.32,7.898 72.391,8.148 71.969,8.879L63.738,23.137C63.316,23.863 63.566,24.793 64.297,25.215L64.297,25.215ZM74.762,35.68C75.043,36.168 75.555,36.442 76.082,36.442C76.34,36.442 76.602,36.375 76.84,36.239L91.098,28.008C91.825,27.586 92.075,26.656 91.653,25.93C91.231,25.203 90.301,24.953 89.575,25.375L75.317,33.606C74.586,34.028 74.34,34.957 74.758,35.684L74.762,35.68ZM79.481,43.653L85.008,42.172C85.821,41.953 86.301,41.121 86.082,40.309C85.863,39.496 85.031,39.016 84.219,39.235L78.692,40.715C77.883,40.934 77.399,41.766 77.617,42.578C77.797,43.258 78.414,43.707 79.086,43.707C79.215,43.707 79.348,43.692 79.481,43.657L79.481,43.653ZM96.579,48.457L80.114,48.457C79.274,48.457 78.59,49.137 78.59,49.981C78.59,50.821 79.27,51.5 80.114,51.5L96.579,51.5C97.419,51.5 98.098,50.821 98.098,49.981C98.098,49.141 97.419,48.457 96.579,48.457ZM78.696,59.242L84.223,60.723C84.356,60.758 84.489,60.774 84.618,60.774C85.289,60.774 85.903,60.324 86.086,59.645C86.305,58.832 85.821,58 85.012,57.781L79.485,56.301C78.676,56.086 77.84,56.567 77.622,57.375C77.403,58.188 77.887,59.02 78.696,59.238L78.696,59.242ZM91.102,71.949L76.844,63.719C76.117,63.297 75.188,63.547 74.766,64.277C74.344,65.004 74.594,65.934 75.324,66.356L89.582,74.586C89.82,74.723 90.082,74.789 90.34,74.789C90.863,74.789 91.375,74.516 91.66,74.027C92.078,73.301 91.832,72.371 91.106,71.949L91.102,71.949ZM72.372,70.195C71.778,69.602 70.813,69.602 70.223,70.195C69.63,70.789 69.63,71.754 70.223,72.348L74.27,76.395C74.567,76.691 74.958,76.84 75.344,76.84C75.731,76.84 76.126,76.691 76.419,76.395C77.012,75.801 77.012,74.836 76.419,74.242L72.372,70.195ZM66.38,75.297C65.958,74.57 65.028,74.32 64.301,74.742C63.575,75.164 63.325,76.094 63.743,76.82L71.973,91.078C72.255,91.567 72.766,91.84 73.294,91.84C73.551,91.84 73.813,91.774 74.051,91.637C74.782,91.215 75.028,90.285 74.61,89.559L66.38,75.301L66.38,75.297ZM59.27,78.672C59.051,77.863 58.219,77.383 57.407,77.598C56.594,77.817 56.114,78.649 56.333,79.461L57.813,84.988C57.997,85.668 58.61,86.117 59.282,86.117C59.415,86.117 59.544,86.102 59.676,86.067C60.485,85.848 60.969,85.016 60.751,84.203L59.27,78.676L59.27,78.672ZM42.606,77.598C41.798,77.383 40.962,77.863 40.743,78.672L39.262,84.195C39.044,85.008 39.528,85.84 40.337,86.059C40.469,86.094 40.598,86.11 40.731,86.11C41.403,86.11 42.02,85.66 42.2,84.981L43.68,79.453C43.895,78.641 43.415,77.809 42.606,77.59L42.606,77.598ZM50.005,78.57C49.165,78.57 48.485,79.25 48.485,80.09L48.485,96.555C48.485,97.395 49.165,98.074 50.005,98.074C50.844,98.074 51.524,97.395 51.524,96.555L51.524,80.09C51.524,79.25 50.844,78.57 50.005,78.57ZM29.786,72.348C30.379,71.754 30.379,70.789 29.786,70.195C29.192,69.602 28.227,69.602 27.637,70.195L23.59,74.242C22.996,74.836 22.996,75.801 23.59,76.395C23.887,76.692 24.278,76.84 24.664,76.84C25.051,76.84 25.442,76.692 25.739,76.395L29.786,72.348ZM35.707,74.742C34.981,74.32 34.051,74.57 33.629,75.297L25.399,89.555C24.977,90.282 25.227,91.211 25.957,91.633C26.196,91.77 26.461,91.836 26.715,91.836C27.243,91.836 27.754,91.563 28.036,91.074L36.266,76.816C36.688,76.09 36.438,75.16 35.707,74.738L35.707,74.742ZM20.523,56.304L14.996,57.785C14.184,58.004 13.703,58.836 13.922,59.648C14.105,60.328 14.719,60.777 15.391,60.777C15.52,60.777 15.652,60.761 15.785,60.726L21.313,59.246C22.121,59.027 22.606,58.195 22.387,57.382C22.168,56.57 21.336,56.089 20.523,56.308L20.523,56.304ZM25.242,64.277C24.82,63.55 23.895,63.3 23.164,63.718L12.733,70.785C12.007,71.207 11.757,72.137 12.178,72.863C12.46,73.352 12.971,73.625 13.495,73.625C13.753,73.625 14.014,73.559 14.253,73.422L24.684,66.355C25.414,65.933 25.66,65.007 25.242,64.277L25.242,64.277ZM21.414,49.98C21.414,49.14 20.734,48.457 19.895,48.457L7.544,48.254C6.704,48.254 6.024,48.933 6.024,49.777C6.024,50.617 6.704,51.296 7.544,51.296L19.891,51.503C20.73,51.503 21.41,50.824 21.41,49.984L21.414,49.98ZM21.313,40.718L15.785,39.238C14.973,39.023 14.141,39.503 13.922,40.312C13.703,41.124 14.188,41.956 14.996,42.175L20.523,43.656C20.656,43.691 20.789,43.707 20.918,43.707C21.59,43.707 22.207,43.257 22.387,42.578C22.606,41.765 22.121,40.933 21.313,40.714L21.313,40.718ZM8.911,28.011L23.169,36.242C23.407,36.378 23.672,36.445 23.926,36.445C24.454,36.445 24.965,36.171 25.247,35.683C25.669,34.957 25.419,34.027 24.688,33.605L10.43,25.375C9.704,24.953 8.774,25.203 8.356,25.929C7.934,26.656 8.184,27.585 8.911,28.007L8.911,28.011ZM27.638,29.765C27.934,30.062 28.325,30.21 28.712,30.21C29.098,30.21 29.489,30.062 29.786,29.765C30.38,29.171 30.38,28.207 29.786,27.613L25.739,23.566C25.145,22.972 24.18,22.972 23.591,23.566C22.997,24.16 22.997,25.125 23.591,25.714L27.638,29.761L27.638,29.765ZM33.63,24.664C33.911,25.152 34.423,25.425 34.95,25.425C35.208,25.425 35.47,25.359 35.708,25.222C36.434,24.8 36.684,23.871 36.266,23.144L28.036,8.886C27.614,8.16 26.684,7.91 25.958,8.327C25.227,8.749 24.981,9.679 25.399,10.406L33.63,24.664ZM40.743,21.289C40.923,21.968 41.54,22.417 42.212,22.417C42.341,22.417 42.474,22.402 42.606,22.367C43.419,22.148 43.899,21.316 43.681,20.503L42.2,14.976C41.981,14.164 41.149,13.683 40.337,13.902C39.528,14.121 39.044,14.953 39.263,15.765L40.743,21.292L40.743,21.289ZM75.098,50C75.098,63.82 63.825,75.094 50.004,75.094C36.184,75.094 24.91,63.821 24.91,50C24.91,36.179 36.183,24.906 50.004,24.906C63.824,24.906 75.098,36.179 75.098,50Z" style="fill:rgb(162,255,21);"/>
        </g>
        <g transform="matrix(0.945868,0,0,1.07662,-0.217772,-2.77981)">
            <path d="M20.519,118.561C8.463,119.611 4.126,105.75 0.896,97.168C-3.406,85.745 3.129,78.911 8.709,71.549C20.703,56.944 32.165,41.88 44.816,27.835C47.822,24.498 51.453,26.032 52.937,28.447C65.832,49.418 77.189,71.263 90.499,92C93.013,96.051 95.612,100.052 98.168,104.078C100.862,106.919 99.673,111.975 95.596,112.531C70.549,114.353 45.471,115.554 20.519,118.561Z" style="fill:rgb(140,100,18);fill-rule:nonzero;"/>
            <path d="M19.898,112.11C43.985,109.631 68.108,108.246 92.264,106.436C76.757,83.433 64.557,58.464 49.699,35.113C38.039,60.075 28.714,86.032 19.898,112.11Z" style="fill:rgb(195,131,19);fill-rule:nonzero;"/>
            <path d="M14.231,108.102C14.339,108.096 14.446,108.088 14.552,108.082C21.831,87.109 29.16,66.119 38.063,45.77C27.035,58.26 16.661,71.588 6.374,84.767C5.281,86.486 3.402,88.457 4.419,90.607C7.751,96.405 11.226,102.099 14.231,108.102Z" style="fill:rgb(221,158,48);fill-rule:nonzero;"/>
        </g>
        <g transform="matrix(1.07962,0,0,1.07962,-7.82578,-6.62722)">
            <path d="M88.609,75.488C88.436,74.847 87.961,74.332 87.336,74.109C87.012,73.993 83.016,72.587 76.7,71.198C70.272,69.784 61.439,68.388 51.613,68.388C40.743,68.388 31.088,70.096 24.561,71.647C19.39,72.876 16.18,74.005 15.89,74.109C15.266,74.332 14.79,74.847 14.617,75.488C14.446,76.128 14.598,76.812 15.027,77.319C15.193,77.516 19.18,82.19 25.641,86.911C34.287,93.228 43.268,96.567 51.613,96.567C59.959,96.567 68.939,93.228 77.586,86.911C84.047,82.19 88.033,77.515 88.199,77.319C88.628,76.812 88.78,76.128 88.609,75.488Z" style="fill:rgb(0,0,16);"/>
            <path d="M28.105,83.704C24.693,81.219 21.982,78.711 20.249,76.976C22.915,76.2 27.216,75.08 32.564,74.146C32.504,74.76 32.471,75.383 32.471,76.012C32.471,81.239 34.579,85.981 37.986,89.439C34.15,87.763 30.772,85.646 28.105,83.704Z" style="fill:rgb(235,255,180);"/>
            <path d="M51.613,91.111C43.288,91.111 36.515,84.338 36.515,76.012C36.515,75.154 36.591,74.313 36.729,73.494C38.645,73.228 40.656,72.996 42.745,72.817C42.385,73.817 42.179,74.889 42.179,76.012C42.179,81.223 46.403,85.447 51.613,85.447C53.445,85.447 55.149,84.917 56.596,84.013C55.105,83.552 54.022,82.162 54.022,80.519C54.022,78.499 55.659,76.862 57.679,76.862C58.942,76.862 60.055,77.502 60.712,78.475C60.925,77.689 61.048,76.866 61.048,76.012C61.048,74.89 60.842,73.818 60.482,72.819C62.571,72.998 64.582,73.23 66.498,73.496C66.636,74.315 66.712,75.155 66.712,76.012C66.712,84.338 59.939,91.111 51.613,91.111Z" style="fill:rgb(0,0,16);"/>
            <path d="M51.613,91.111C43.288,91.111 36.515,84.338 36.515,76.012C36.515,75.154 36.591,74.313 36.729,73.494C38.645,73.228 40.656,72.996 42.745,72.817C42.385,73.817 42.179,74.889 42.179,76.012C42.179,81.223 46.403,85.447 51.613,85.447C53.445,85.447 55.149,84.917 56.596,84.013C55.105,83.552 54.022,82.162 54.022,80.519C54.022,78.499 55.659,76.862 57.679,76.862C58.942,76.862 60.055,77.502 60.712,78.475C60.925,77.689 61.048,76.866 61.048,76.012C61.048,74.89 60.842,73.818 60.482,72.819C62.571,72.998 64.582,73.23 66.498,73.496C66.636,74.315 66.712,75.155 66.712,76.012C66.712,84.338 59.939,91.111 51.613,91.111Z" style="fill:rgb(162,255,21);"/>
            <path d="M75.122,83.704C72.455,85.646 69.077,87.762 65.241,89.438C68.648,85.98 70.756,81.239 70.756,76.012C70.756,75.384 70.723,74.763 70.663,74.149C76.007,75.083 80.309,76.202 82.976,76.977C81.243,78.712 78.532,81.22 75.122,83.704Z" style="fill:rgb(235,255,180);"/>
        </g>
    </g>
</svg>
