<svg xmlns="http://www.w3.org/2000/svg" width="100%" height="100%" viewBox="0 0 110 135" fill-rule="evenodd" stroke-linecap="round" stroke-linejoin="round" stroke-miterlimit="1.5" xmlns:v="https://vecta.io/nano"><path d="M82.56 19.21l19.985 47.004-31.892 40.18-51.237-7.304L-.279 52.777l31.705-40.051L82.56 19.21z" fill="none" stroke="#620783" stroke-width="6.65" transform="matrix(.904065 -.696031 .713167 .926323 -33.748717 47.237661)"/><path d="M54.591 7.568l51.589 29.631-.177 59.417-51.531 28.897L3.638 96.32l.1-59.168L54.591 7.568z" fill="#620783"/><path d="M57.45 68.151v55.345l47.905-27.657V40.494L57.45 68.151z" fill="#d99145"/><path d="M22.997 51.471V63.29l9.881 5.702V57.173l-9.881-5.702z" fill="#e1d6f8"/><path d="M38.433 60.382l13.457 7.769v55.345L3.986 95.839V40.494l13.463 7.769v16.615a2.78 2.78 0 0 0 1.623 2.53l15.209 8.783c1.85 1.067 4.148-.296 4.143-2.397h.01l-.001-13.412zm50.694-32.475l13.472 7.78-47.93 27.672-13.471-7.779 47.929-27.673zM20.222 43.466L6.746 35.683 54.67 8.014l13.477 7.785-47.925 27.667z" fill="#d99145"/><path d="M83.577 24.709L35.653 52.377l-9.891-5.708 47.925-27.667 9.89 5.707z" fill="#e1d6f8"/></svg>