<svg xmlns="http://www.w3.org/2000/svg" width="100%" height="100%" viewBox="0 0 110 135" fill-rule="evenodd" stroke-linejoin="round" stroke-miterlimit="2" xmlns:v="https://vecta.io/nano"><g transform="matrix(0 1.53516 -1.53516 0 130.911 -9.32698)"><g transform="matrix(0 -.651398 .651398 0 6.07558 85.2752)"><path d="M4.088 110.493c3.946.875 6.78 4.432 6.838 8.575s-2.676 7.777-6.592 8.774a4.2 4.2 0 0 0 .929 1.492c.748.767 1.771 1.207 2.829 1.207h92.103a3.97 3.97 0 0 0 2.829-1.207c.409-.425.731-.935.928-1.492-3.916-.997-6.65-4.63-6.592-8.774s2.894-7.7 6.839-8.575V8.436c-.006-2.268-1.795-4.102-4.004-4.114H8.092c-2.21.012-3.998 1.846-4.004 4.114v102.057z" fill="#29bc0b"/><path d="M-.11 110.493V8.425c.003-1.132.231-2.21.636-3.191l.744-1.403.986-1.227 1.204-1.02 1.394-.78 1.553-.5 1.662-.18h92.149l1.662.181 1.552.499 1.395.78 1.203 1.02.987 1.227.743 1.403c.406.981.634 2.059.637 3.191v102.068a4.2 4.2 0 0 1-3.289 4.098c-2.072.46-3.52 2.36-3.551 4.536-.031 2.181 1.37 4.122 3.431 4.647a4.2 4.2 0 0 1 2.668 2.092c.556 1.042.647 2.269.252 3.381l-.78 1.614c-.311.498-.674.963-1.081 1.385-.006.007-.013.013-.019.02l-1.241 1.043-1.411.776-1.544.485-1.637.169H8.092l-1.637-.169-1.544-.485-1.411-.775-1.242-1.044-.022-.024a8.47 8.47 0 0 1-1.077-1.381l-.779-1.608c-.397-1.113-.307-2.341.249-3.384s1.524-1.803 2.669-2.095c2.061-.525 3.462-2.466 3.431-4.647-.031-2.175-1.477-4.076-3.55-4.536a4.2 4.2 0 0 1-3.289-4.098zm4.198 0c3.946.875 6.78 4.432 6.838 8.575s-2.676 7.777-6.592 8.774a4.2 4.2 0 0 0 .929 1.492c.748.767 1.771 1.207 2.829 1.207h92.103a3.97 3.97 0 0 0 2.829-1.207c.409-.425.731-.935.928-1.492-3.916-.997-6.65-4.63-6.592-8.774s2.894-7.7 6.839-8.575V8.436c-.006-2.268-1.795-4.102-4.004-4.114H8.092c-2.21.012-3.998 1.846-4.004 4.114v102.057z" fill="#010"/></g><path d="M22.497 22.755c1.84 1.795 2.124 4.615.688 6.718-1.446 2.116-4.228 2.93-6.635 1.963s-3.763-3.46-3.266-5.951c.509-2.49 2.757-4.283 5.358-4.283 1.448 0 2.837.56 3.854 1.551v.002z" fill="#201340" stroke="#010" stroke-opacity=".91" stroke-width="2.731"/><path d="M32.244 72.538v.004c-.919 0-1.659-.635-1.659-1.418s.74-1.414 1.659-1.414h11.558c.919 0 1.659.634 1.659 1.414s-.74 1.418-1.659 1.418l-11.558-.004zm0 5.823v.005c-.919 0-1.659-.636-1.659-1.414s.74-1.418 1.659-1.418h11.558c.919 0 1.659.635 1.659 1.418s-.74 1.414-1.659 1.414l-11.558-.005z" fill="#000010"/><path d="M64.406 63.039v-3.48h-4.601c-.712 0-1.29-.597-1.29-1.329s.578-1.334 1.29-1.334h4.605l-.004-3.094h-4.601a1.28 1.28 0 0 1-.937-.377 1.35 1.35 0 0 1-.389-.957 1.34 1.34 0 0 1 .389-.952 1.25 1.25 0 0 1 .937-.377h4.605l-.004-3.099h-4.601c-.712 0-1.29-.597-1.29-1.329s.578-1.334 1.29-1.334h4.605l-.004-3.094h-4.601c-.712 0-1.29-.593-1.29-1.33s.578-1.333 1.29-1.333h4.605l-.004-3.1h-4.601c-.348.013-.688-.122-.937-.376s-.389-.593-.389-.953a1.35 1.35 0 0 1 .389-.957 1.29 1.29 0 0 1 .937-.378h4.605V31.58l-.004.004c0-.737.578-1.334 1.29-1.334h15.897c.713 0 1.291.597 1.291 1.334v2.277h4.605v-.005a1.28 1.28 0 0 1 .934.378c.25.25.389.597.389.957a1.35 1.35 0 0 1-.389.953 1.24 1.24 0 0 1-.934.376h-4.601v3.1h4.604-.003c.713 0 1.291.597 1.291 1.329 0 .737-.578 1.334-1.291 1.334h-4.601v3.094h4.604-.003c.713 0 1.291.597 1.291 1.334s-.578 1.329-1.291 1.329h-4.601v3.095h4.604l-.003.004a1.25 1.25 0 0 1 .938.377c.249.249.389.592.389.952s-.139.708-.389.957a1.29 1.29 0 0 1-.938.377h-4.601v3.094h4.604-.003c.713 0 1.291.597 1.291 1.334s-.578 1.329-1.291 1.329h-4.601v3.48a1.34 1.34 0 0 1-.381.944 1.27 1.27 0 0 1-.914.389H65.695c-.712 0-1.29-.597-1.29-1.333zm15.901-30.138V61.71H66.983v-28.8l13.324-.009zM22.533 68.177v.003c1.795 0 3.434 1.021 4.224 2.63a4.71 4.71 0 0 1-.494 4.949c-1.096 1.422-2.904 2.095-4.66 1.74a4.71 4.71 0 0 1-3.62-3.412h-5.31a1.33 1.33 0 0 1-1.333-1.335V44.38c0-.737.597-1.333 1.333-1.333h10.551l-.005-1.779a1.33 1.33 0 0 1 1.333-1.328h1.778v-4.759a1.332 1.332 0 1 1 2.663 0v4.759h3.095V26.274l.025-.102.025-.089.077-.178.051-.089.067-.102.084-.102.022-.02.02-.027.042-.042.128-.106.05-.034.031-.016.025-.018.06-.033.177-.077.094-.025.055-.005.033-.008h.068l.035-.004h16.645a4.71 4.71 0 0 1 5.427-2.916c2.281.512 3.843 2.624 3.661 4.952a4.71 4.71 0 0 1-4.377 4.34c-2.333.158-4.429-1.426-4.915-3.712H34.755V39.94h3.096v-4.758a1.3 1.3 0 0 1 .375-.965c.253-.257.593-.403.953-.403s.707.145.957.403.384.606.378.965v4.758h1.776a1.33 1.33 0 0 1 1.33 1.33v1.778l4.755.003a1.33 1.33 0 0 1 1.333 1.33c0 .737-.597 1.334-1.333 1.334H43.62v3.094l10.004-.029c.735 0 1.328.593 1.333 1.33v22.822h13.851c.563-2.265 2.705-3.772 5.026-3.539a4.7 4.7 0 1 1-4.912 6.202H53.623c-.736 0-1.333-.597-1.333-1.33V51.443l-8.669.029v3.095h4.753a1.33 1.33 0 0 1 1.335 1.328c0 .737-.597 1.334-1.335 1.334H43.62v1.778c0 .737-.593 1.33-1.33 1.33h-1.776v4.758c.007.359-.129.707-.378.965a1.33 1.33 0 0 1-.957.402c-.36 0-.702-.144-.953-.402s-.389-.606-.375-.965v-4.758h-3.096v4.758a1.33 1.33 0 0 1-1.333 1.329c-.737 0-1.33-.592-1.33-1.329v-4.758h-3.095v4.758a1.334 1.334 0 1 1-2.667 0v-4.758h-1.778a1.33 1.33 0 0 1-1.33-1.33V57.23H18.46c-.733 0-1.33-.597-1.33-1.334a1.33 1.33 0 0 1 1.33-1.328h4.758v-3.095H18.46c-.733 0-1.33-.597-1.33-1.333s.597-1.334 1.33-1.334h4.758v-3.094h-9.212v25.715h4.057c.63-1.936 2.438-3.244 4.47-3.244v-.005z" fill="#6bff3f"/><path d="M55.896 25.131c.546.547.782 1.327.633 2.084a2.32 2.32 0 0 1-3.556 1.472 2.31 2.31 0 0 1-1.025-1.922l.01-.235v-.005c.09-.887.685-1.644 1.528-1.941a2.31 2.31 0 0 1 2.41.546zM24.403 71.165c.776.782.896 2.004.282 2.918s-1.787 1.275-2.803.849a2.31 2.31 0 0 1 .882-4.444 2.3 2.3 0 0 1 1.639.676zm50.711 1.381v-.005c.782.782.901 2.003.288 2.923s-1.793 1.275-2.808.853a2.31 2.31 0 0 1-1.386-2.587c.216-1.083 1.164-1.864 2.267-1.864.614 0 1.202.245 1.639.675v.005zm5.192-39.645V61.71H66.983v-28.8l13.324-.009zm-39.349 9.697v15.075H25.887V42.603h15.071v-.005z" fill="#000010"/></g></svg>