<svg xmlns="http://www.w3.org/2000/svg" width="100%" height="100%" viewBox="0 0 64 80" fill-rule="evenodd" stroke-linejoin="round" stroke-miterlimit="2" xmlns:v="https://vecta.io/nano"><path d="M13.884 38.375h.086c7.689 0 14.013-6.369 14.013-14.113S21.659 10.15 13.97 10.15-.043 16.522-.043 24.262a14.17 14.17 0 0 0 4.11 9.985c2.607 2.62 6.136 4.106 9.817 4.128z" fill="#a3a3a3"/><path d="M21.654 24.537c.06 2.305 3.568 2.239 3.533-.073-.055-4.608-2.841-8.605-6.85-10.658-1.779-.771-6.975-2.708-7.254.591a1.76 1.76 0 0 0 1.803 1.73 8.6 8.6 0 0 1 8.765 8.41h.003z" fill="#fff"/><path d="M59.236 22.599c-5.953-6.373-15.728-6.373-21.681 0-5.883 7.246-11.199 15.003-15.892 23.191-10.646 18.265-9.343 23.099-7.43 25.135.949.909 2.202 1.367 3.469 1.272 11.137 0 38.301-22.845 41.534-26.316 5.935-6.392 5.935-16.89 0-23.282zm-5.67 17.23c-1.373 1.472-3.236 2.299-5.177 2.299-4.02 0-7.329-3.553-7.329-7.87s3.309-7.869 7.329-7.869c1.941 0 3.804.827 5.177 2.299 1.386 1.47 2.166 3.478 2.166 5.57s-.78 4.1-2.166 5.571z" fill="#e1c598" stroke="#000" stroke-width="2.91"/></svg>