<svg xmlns="http://www.w3.org/2000/svg" width="100%" height="100%" viewBox="0 0 110 135" fill-rule="evenodd" stroke-linejoin="round" stroke-miterlimit="2" xmlns:v="https://vecta.io/nano"><g fill-rule="nonzero"><path d="M91.008 106.392v-80.47c0-6.398-5.402-10.884-12.161-10.884l-64.279.421c-7.019-.246-12.738 5.168-12.738 11.566v4.43l18.72-.079-.252 50.901v28.792c0 6.644 5.719 12.058 12.738 11.812h65.511c6.239 0 10.919-4.676 10.919-11.074v-5.414H91.008z" fill="#000100"/><path d="M20.413 28.734H5.02v-.839c0-5.032 3.395-9.504 7.696-9.504 4.075 0 7.696 4.193 7.696 9.504v.839zm85.153 83.072c0 4.183-3.12 7.383-7.019 7.383H41.874c2.08-2.215 3.64-5.168 3.64-8.367v-.738h60.052v1.723z" fill="#d99145"/><path d="M86.848 106.638H43.434l-2.6.246.52 1.969c.26.492.26 1.477.26 2.215 0 4.43-3.899 8.367-8.839 8.367-4.679 0-8.839-3.691-8.839-8.367v-84.9c0-3.199-1.3-6.152-3.64-8.367h57.712c4.679 0 8.839 3.691 8.839 8.367v80.47z" fill="#ffc977"/></g><g transform="matrix(0 1.29681 1.28014 0 -8.73537 3.46487)"><path d="M61.108 62.451c-.888-.206-2.555-.915-3.836-2.049-.654-.579-1.24-1.264-1.361-2.127v-.003c-.066-.461.037-.76.197-.913.289-.27.701-.363 1.103-.433.652-.115 1.322-.102 1.862-.062.721.054 1.425-.232 1.909-.774s.694-1.282.569-2.003l-.539-3.09a2.36 2.36 0 0 0-1.784-1.898c-.888-.206-2.554-.915-3.835-2.049-.654-.578-1.24-1.264-1.361-2.127v-.002c-.066-.462.036-.761.197-.914.289-.269.701-.362 1.103-.433.652-.114 1.323-.102 1.864-.062.72.054 1.424-.232 1.908-.775s.693-1.281.568-2.002l-.539-3.089a2.36 2.36 0 0 0-1.783-1.898c-.888-.206-2.555-.915-3.836-2.049-.654-.579-1.24-1.265-1.361-2.127v-.003c-.066-.46.036-.76.196-.912.29-.271.703-.365 1.106-.436.649-.115 1.317-.103 1.855-.061.708.054 1.402-.219 1.886-.744a2.39 2.39 0 0 0 .609-1.955l-.539-3.824c-.137-.972-.851-1.758-1.796-1.976-.782-.181-2.141-.56-3.354-1.275-.844-.497-1.697-1.132-1.842-2.166v-.002c-.066-.463.037-.762.198-.915.288-.269.699-.361 1.101-.432.652-.115 1.323-.102 1.864-.062.706.053 1.398-.22 1.882-.744a2.39 2.39 0 0 0 .608-1.951l-.618-4.445a2.35 2.35 0 0 0-2.317-2.04H35.004c-1.292 0-2.34 1.062-2.34 2.371v53.256a2.37 2.37 0 0 0 1.619 2.256l26.922 8.828a2.32 2.32 0 0 0 2.265-.474 2.39 2.39 0 0 0 .757-2.214l-1.34-7.322c-.17-.93-.869-1.668-1.779-1.879zm-.522 2.311l1.34 7.322-26.922-8.828V10h17.988l.618 4.445c-1.415-.106-3.508-.027-4.731 1.121-.539.508-1.141 1.437-.922 2.988.5 3.559 5.121 4.985 6.992 5.418l.539 3.824c-1.414-.109-3.503-.027-4.73 1.122-.539.507-1.141 1.441-.922 2.988.5 3.558 5.121 5.719 6.992 6.153l.539 3.089c-1.414-.105-3.504-.027-4.73 1.121-.539.508-1.141 1.438-.922 2.988.5 3.559 5.121 5.72 6.992 6.153l.539 3.09c-1.414-.106-3.504-.028-4.73 1.121-.539.508-1.141 1.441-.922 2.988.5 3.559 5.121 5.719 6.992 6.153z" fill="#000010"/><path d="M60.586 64.762c-1.871-.434-6.492-2.594-6.992-6.153-.219-1.547.383-2.48.922-2.988 1.226-1.149 3.316-1.227 4.73-1.121l-.539-3.09c-1.871-.433-6.492-2.594-6.992-6.153-.219-1.55.383-2.48.922-2.988 1.226-1.148 3.316-1.226 4.73-1.121l-.539-3.089c-1.871-.434-6.492-2.595-6.992-6.153-.219-1.547.383-2.481.922-2.988 1.227-1.149 3.316-1.231 4.73-1.122l-.539-3.824c-1.871-.433-6.492-1.859-6.992-5.418-.219-1.551.383-2.48.922-2.988 1.223-1.148 3.316-1.227 4.731-1.121L52.992 10H35.004v53.256l26.922 8.828-1.34-7.322z" fill="#d4d4d4" fill-rule="nonzero"/></g><g transform="matrix(0 1.29681 1.28014 0 -11.2745 3.46487)"><path d="M39.378 92.371h21.243c3.714 0 6.715-3.032 6.715-6.746v-6.363a5.78 5.78 0 0 0-3.978-5.51l-27.637-9.063a2.32 2.32 0 0 0-2.098.339 2.38 2.38 0 0 0-.963 1.917v18.688c.006 3.708 3.005 6.738 6.718 6.738zm0-2.371c-2.414 0-4.374-1.96-4.378-4.371V66.945l27.637 9.063c1.41.461 2.359 1.769 2.359 3.254v6.363A4.38 4.38 0 0 1 60.621 90H39.378zm18.106-8.027l-14.977-4.91.035 5.5a.62.62 0 0 0 .618.613h14.133a.62.62 0 0 0 .617-.617c0-.266-.172-.504-.426-.586zm-11.163-1.168h-1.45l-.003-.476 1.453.476z" fill="#000010"/><path d="M39.378 90h21.243a4.38 4.38 0 0 0 4.375-4.375v-6.363c0-1.485-.949-2.793-2.359-3.254L35 66.945v18.684C35.004 88.04 36.964 90 39.378 90zm18.106-8.027c.254.082.426.32.426.586a.62.62 0 0 1-.617.617H43.16a.62.62 0 0 1-.618-.613l-.035-5.5 14.977 4.91z" fill="#87ff3f" fill-rule="nonzero"/></g></svg>