<?xml version="1.0" encoding="UTF-8" standalone="no"?>
<!DOCTYPE svg PUBLIC "-//W3C//DTD SVG 1.1//EN" "http://www.w3.org/Graphics/SVG/1.1/DTD/svg11.dtd">
<svg width="100%" height="100%" viewBox="0 0 100 125" version="1.1" xmlns="http://www.w3.org/2000/svg" xmlns:xlink="http://www.w3.org/1999/xlink" xml:space="preserve" xmlns:serif="http://www.serif.com/" style="fill-rule:evenodd;clip-rule:evenodd;stroke-linejoin:round;stroke-miterlimit:2;">
    <g transform="matrix(1.09475,0,0,1.09475,-4.47375,3.30953)">
        <g transform="matrix(0.600194,0,0,0.958115,27.1583,0.489138)">
            <rect x="-12.534" y="31.691" width="96.864" height="51.858" style="fill:rgb(0,1,0);"/>
        </g>
        <g transform="matrix(0.995418,0,0,1.14006,0.854392,-4.66742)">
            <path d="M46.265,23.351C47.975,22.57 49.929,22.5 51.691,23.159C52.094,19.289 52.094,15.813 52.094,13.201C52.092,12.595 51.803,12.025 51.316,11.664C50.831,11.305 50.204,11.195 49.626,11.367L45.046,12.74C44.233,12.981 43.672,13.734 43.672,14.581C43.672,14.872 43.738,15.158 43.864,15.419C45.07,17.924 45.88,20.599 46.265,23.351Z" style="fill:none;fill-rule:nonzero;stroke:rgb(0,1,0);stroke-width:5.57px;"/>
            <path d="M46.265,23.351C47.975,22.57 49.929,22.5 51.691,23.159C52.094,19.289 52.094,15.813 52.094,13.201C52.092,12.595 51.803,12.025 51.316,11.664C50.831,11.305 50.204,11.195 49.626,11.367L45.046,12.74C44.233,12.981 43.672,13.734 43.672,14.581C43.672,14.872 43.738,15.158 43.864,15.419C45.07,17.924 45.88,20.599 46.265,23.351Z" style="fill:rgb(12,196,11);fill-rule:nonzero;"/>
        </g>
        <g transform="matrix(0.995418,0,0,0.995418,0.854392,-3.03483)">
            <path d="M23.574,29.233C26.577,25.259 30.163,23.07 33.762,23.07C37.105,23.07 40.01,24.834 42.248,27.158C44.399,24.434 46.852,23.07 49.213,23.07C51.569,23.07 54.017,24.428 56.164,27.14C58.403,24.794 61.3,23.07 64.636,23.07C68.262,23.07 71.855,25.262 74.846,29.239C74.883,29.204 74.921,29.171 74.96,29.139C76.392,27.958 78.175,27.283 80.03,27.22C80.059,27.219 80.087,27.219 80.116,27.219C81.916,27.219 83.696,27.88 85.363,29.205C87.378,30.808 89.277,33.478 90.821,36.986L90.823,36.991C93.357,42.716 94.945,50.657 94.945,59.458C94.945,68.262 93.356,76.206 90.823,81.925C89.279,85.436 87.379,88.107 85.363,89.711C83.696,91.037 81.916,91.698 80.116,91.698C80.088,91.698 80.061,91.697 80.034,91.696C78.176,91.636 76.39,90.96 74.958,89.776C74.921,89.745 74.885,89.714 74.85,89.682C71.848,93.653 68.262,95.846 64.664,95.846C61.307,95.846 58.392,94.068 56.15,91.73C56.108,91.787 56.065,91.844 56.022,91.901C56.013,91.913 56.004,91.924 55.995,91.936C53.94,94.551 51.468,95.846 49.213,95.846C46.962,95.846 44.558,94.611 42.441,91.947C42.431,91.935 42.422,91.924 42.413,91.912C42.372,91.858 42.33,91.803 42.289,91.748C40.047,94.109 37.128,95.846 33.791,95.846C30.166,95.846 26.573,93.65 23.582,89.676C23.546,89.71 23.508,89.744 23.469,89.776C22.036,90.96 20.25,91.636 18.393,91.696C18.366,91.697 18.338,91.698 18.311,91.698C16.511,91.698 14.73,91.037 13.064,89.711C11.048,88.107 9.147,85.436 7.606,81.931C5.07,76.206 3.482,68.262 3.482,59.458C3.482,50.654 5.07,42.711 7.603,36.991C9.147,33.481 11.048,30.809 13.064,29.205C14.73,27.88 16.511,27.219 18.311,27.219C18.338,27.219 18.366,27.219 18.393,27.22C20.25,27.281 22.036,27.957 23.469,29.141C23.505,29.171 23.54,29.201 23.574,29.233ZM40.695,83.581C41.578,86.025 42.831,88.318 44.412,90.38C45.939,92.3 47.59,93.328 49.213,93.328C50.836,93.328 52.536,92.262 54.015,90.38C55.579,88.316 56.813,86.023 57.673,83.581C52.09,84.889 46.279,84.889 40.695,83.581ZM20.347,85.05C17.159,78.472 15.18,69.426 15.18,59.458C15.18,49.49 17.159,40.444 20.347,33.866C20.827,32.887 21.336,31.955 21.864,31.082C20.862,30.253 19.611,29.779 18.311,29.737C15.142,29.737 12.155,32.897 9.908,38.005C7.488,43.469 6,51.056 6,59.458C6,67.861 7.488,75.447 9.908,80.911C12.155,86.02 15.142,89.179 18.311,89.179C19.611,89.137 20.862,88.664 21.864,87.835C21.307,86.971 20.827,86.01 20.347,85.05ZM36.449,40.633C35.667,40.545 34.956,40.093 34.55,39.391L33.722,37.961L25.64,52.023L41.887,52.023L36.624,42.935C36.316,42.403 36.213,41.776 36.336,41.173C36.372,40.992 36.41,40.812 36.449,40.633ZM64.682,37.893C64.395,38.387 64.083,38.926 63.85,39.331C63.447,40.029 62.742,40.481 61.965,40.573C62.008,40.773 62.051,40.974 62.091,41.175C62.212,41.775 62.111,42.398 61.806,42.928L56.581,52.023L72.831,52.023L64.682,37.893ZM39.512,81.358C40.042,81.076 40.666,80.988 41.27,81.129C46.475,82.348 51.894,82.348 57.099,81.129C57.722,80.983 58.365,81.081 58.906,81.385C59.202,80.836 59.696,80.411 60.296,80.203C62.688,79.374 64.951,78.21 67.017,76.747C70.882,73.981 73.554,70.3 74.254,66.11C72.457,66.964 70.601,67.692 68.7,68.286C68.69,68.289 68.679,68.293 68.669,68.296C68.357,68.389 68.1,68.609 67.958,68.901C67.955,68.907 67.953,68.912 67.95,68.918C67.95,68.918 65.684,73.508 65.679,73.517L65.134,74.323L64.405,74.935L63.54,75.326L62.581,75.469L62.568,75.469L61.598,75.333L60.722,74.943L59.985,74.33C59.985,74.33 59.439,73.526 59.437,73.523L57.965,70.527C52.177,71.166 46.335,71.123 40.558,70.399L38.996,73.625L38.991,73.636L38.441,74.445L37.705,75.059L36.829,75.448L35.865,75.583L34.902,75.448L34.025,75.059L33.289,74.445C33.289,74.445 32.743,73.641 32.741,73.639L30.263,68.597C30.258,68.587 30.254,68.577 30.249,68.567C30.111,68.276 29.86,68.054 29.555,67.951C29.549,67.949 29.544,67.947 29.539,67.945C27.665,67.296 25.843,66.509 24.088,65.591C24.631,69.931 27.313,73.752 31.245,76.625C33.355,78.14 35.674,79.342 38.13,80.193C38.724,80.399 39.214,80.817 39.512,81.358ZM88.518,38.005C86.271,32.897 83.285,29.737 80.116,29.737C78.815,29.781 77.566,30.254 76.562,31.082C77.091,31.955 77.6,32.887 78.08,33.866C81.268,40.444 83.246,49.49 83.246,59.458C83.246,69.426 81.268,78.472 78.08,85.05C77.6,86.01 77.119,86.971 76.562,87.835C77.565,88.664 78.815,89.137 80.116,89.179C83.285,89.179 86.271,86.02 88.518,80.911C90.938,75.447 92.427,67.861 92.427,59.458C92.427,51.056 90.938,43.469 88.518,38.005ZM80.365,59.458C80.365,49.923 78.502,41.318 75.458,35.115C72.606,29.228 68.765,25.589 64.636,25.589C61.937,25.589 59.642,27.096 57.856,29.017C59.51,31.859 60.792,34.903 61.668,38.073C62.821,36.075 63.723,33.53 65.404,34.491C65.625,34.615 65.807,34.798 65.932,35.019L75.9,52.304C76.057,52.54 76.141,52.818 76.141,53.102C76.141,53.891 75.491,54.543 74.7,54.543C74.687,54.543 74.675,54.542 74.661,54.542L54.698,54.542C53.912,54.542 53.267,53.895 53.267,53.111C53.267,52.823 53.353,52.542 53.515,52.304L59.623,41.674C58.766,37.433 57.17,33.377 54.908,29.689C53.16,27.087 51.211,25.589 49.213,25.589C47.216,25.589 45.266,27.087 43.519,29.689C41.26,33.379 39.664,37.434 38.804,41.674L44.959,52.304C45.121,52.542 45.209,52.824 45.209,53.112C45.209,53.897 44.564,54.543 43.778,54.543C43.759,54.543 43.74,54.543 43.72,54.542L23.757,54.542C22.971,54.542 22.326,53.895 22.326,53.111C22.326,52.823 22.412,52.542 22.575,52.304L32.475,35.076C32.73,34.63 33.205,34.353 33.719,34.353C34.233,34.353 34.708,34.63 34.962,35.076L36.729,38.13C37.602,34.941 38.883,31.878 40.542,29.017C38.756,27.125 36.461,25.589 33.762,25.589C29.662,25.589 25.82,29.228 22.94,35.115C19.924,41.318 18.09,49.923 18.09,59.458C18.09,68.994 19.953,77.598 22.968,83.802C25.82,89.679 29.662,93.328 33.791,93.328C36.48,93.328 38.784,91.82 40.571,89.9C39.209,87.588 38.113,85.131 37.306,82.573C34.617,81.641 32.078,80.325 29.767,78.664C24.572,74.871 21.365,69.589 21.47,63.674C21.478,62.895 22.121,62.259 22.901,62.259C23.161,62.259 23.418,62.33 23.641,62.464C25.773,63.717 28.025,64.756 30.363,65.566C31.312,65.887 32.093,66.581 32.523,67.486L35.001,72.528C35.162,72.857 35.498,73.067 35.865,73.066C36.232,73.067 36.568,72.857 36.729,72.528L38.487,68.898C38.843,68.181 39.611,67.758 40.407,67.842C46.281,68.616 52.23,68.661 58.115,67.976C58.911,67.893 59.68,68.315 60.036,69.032L61.697,72.413C61.858,72.742 62.195,72.951 62.561,72.95C62.924,72.948 63.257,72.739 63.416,72.413L65.692,67.803C66.141,66.876 66.96,66.177 67.949,65.883C70.325,65.139 72.627,64.175 74.824,63.002C75.036,62.887 75.272,62.827 75.512,62.827C76.302,62.827 76.952,63.477 76.952,64.267C76.952,64.31 76.95,64.352 76.947,64.394C76.774,70.089 73.566,75.159 68.477,78.799C66.215,80.4 63.739,81.675 61.121,82.582C60.318,85.135 59.233,87.589 57.885,89.9C59.671,91.791 61.966,93.328 64.664,93.328C68.765,93.328 72.606,89.679 75.487,83.802C78.502,77.598 80.365,68.994 80.365,59.458ZM54.51,65.253L52.831,63.561C52.772,63.693 52.74,63.838 52.74,63.991C52.74,64.177 52.788,64.359 52.88,64.521L54.299,65.348C54.158,65.399 54.008,65.428 53.851,65.431L44.633,65.431C43.841,65.426 43.193,64.773 43.193,63.981C43.193,63.686 43.283,63.398 43.452,63.155L47.974,55.31C48.229,54.863 48.704,54.587 49.218,54.587C49.732,54.587 50.207,54.863 50.462,55.31L55.071,63.299L55.071,63.28C55.194,63.497 55.258,63.742 55.258,63.991C55.258,64.531 54.955,65.006 54.51,65.253ZM51.941,62.913L49.218,58.194L46.498,62.913L51.941,62.913Z" style="fill:rgb(0,0,16);"/>
            <path d="M20.347,85.05C20.827,86.01 21.307,86.971 21.864,87.835C20.862,88.664 19.611,89.137 18.311,89.179C15.142,89.179 12.155,86.02 9.908,80.911C7.488,75.447 6,67.861 6,59.458C6,51.056 7.488,43.469 9.908,38.005C12.155,32.897 15.142,29.737 18.311,29.737C19.611,29.779 20.862,30.253 21.864,31.082C21.336,31.955 20.827,32.887 20.347,33.866C17.159,40.444 15.18,49.49 15.18,59.458C15.18,69.426 17.159,78.472 20.347,85.05ZM40.695,83.581C41.578,86.025 42.831,88.318 44.412,90.38C45.939,92.3 47.59,93.328 49.213,93.328C50.836,93.328 52.536,92.262 54.015,90.38C55.579,88.316 56.813,86.023 57.673,83.581C52.09,84.889 46.279,84.889 40.695,83.581ZM88.518,38.005C86.271,32.897 83.285,29.737 80.116,29.737C78.815,29.781 77.566,30.254 76.562,31.082C77.091,31.955 77.6,32.887 78.08,33.866C81.268,40.444 83.246,49.49 83.246,59.458C83.246,69.426 81.268,78.472 78.08,85.05C77.6,86.01 77.119,86.971 76.562,87.835C77.565,88.664 78.815,89.137 80.116,89.179C83.285,89.179 86.271,86.02 88.518,80.911C90.938,75.447 92.427,67.861 92.427,59.458C92.427,51.056 90.938,43.469 88.518,38.005ZM80.365,59.458C80.365,68.994 78.502,77.598 75.487,83.802C72.606,89.679 68.765,93.328 64.664,93.328C61.966,93.328 59.671,91.791 57.885,89.9C59.233,87.589 60.318,85.135 61.121,82.582C63.739,81.675 66.215,80.4 68.477,78.799C73.566,75.159 76.774,70.089 76.947,64.394C76.95,64.352 76.952,64.31 76.952,64.267C76.952,63.477 76.302,62.827 75.512,62.827C75.272,62.827 75.036,62.887 74.824,63.002C72.627,64.175 70.325,65.139 67.949,65.883C66.96,66.177 66.141,66.876 65.692,67.803L63.416,72.413C63.257,72.739 62.924,72.948 62.561,72.95C62.195,72.951 61.858,72.742 61.697,72.413L60.036,69.032C59.68,68.315 58.911,67.893 58.115,67.976C52.23,68.661 46.281,68.616 40.407,67.842C39.611,67.758 38.843,68.181 38.487,68.898L36.729,72.528C36.568,72.857 36.232,73.067 35.865,73.066C35.498,73.067 35.162,72.857 35.001,72.528L32.523,67.486C32.093,66.581 31.312,65.887 30.363,65.566C28.025,64.756 25.773,63.717 23.641,62.464C23.418,62.33 23.161,62.259 22.901,62.259C22.121,62.259 21.478,62.895 21.47,63.674C21.365,69.589 24.572,74.871 29.767,78.664C32.078,80.325 34.617,81.641 37.306,82.573C38.113,85.131 39.209,87.588 40.571,89.9C38.784,91.82 36.48,93.328 33.791,93.328C29.662,93.328 25.82,89.679 22.968,83.802C19.953,77.598 18.09,68.994 18.09,59.458C18.09,49.923 19.924,41.318 22.94,35.115C25.82,29.228 29.662,25.589 33.762,25.589C36.461,25.589 38.756,27.125 40.542,29.017C38.883,31.878 37.602,34.941 36.729,38.13L34.962,35.076C34.708,34.63 34.233,34.353 33.719,34.353C33.205,34.353 32.73,34.63 32.475,35.076L22.575,52.304C22.412,52.542 22.326,52.823 22.326,53.111C22.326,53.895 22.971,54.542 23.757,54.542L43.72,54.542C43.74,54.543 43.759,54.543 43.778,54.543C44.564,54.543 45.209,53.897 45.209,53.112C45.209,52.824 45.121,52.542 44.959,52.304L38.804,41.674C39.664,37.434 41.26,33.379 43.519,29.689C45.266,27.087 47.216,25.589 49.213,25.589C51.211,25.589 53.16,27.087 54.908,29.689C57.17,33.377 58.766,37.433 59.623,41.674L53.515,52.304C53.353,52.542 53.267,52.823 53.267,53.111C53.267,53.895 53.912,54.542 54.698,54.542L74.661,54.542C74.675,54.542 74.687,54.543 74.7,54.543C75.491,54.543 76.141,53.891 76.141,53.102C76.141,52.818 76.057,52.54 75.9,52.304L65.932,35.019C65.807,34.798 65.625,34.615 65.404,34.491C63.723,33.53 62.821,36.075 61.668,38.073C60.792,34.903 59.51,31.859 57.856,29.017C59.642,27.096 61.937,25.589 64.636,25.589C68.765,25.589 72.606,29.228 75.458,35.115C78.502,41.318 80.365,49.923 80.365,59.458ZM55.071,63.299L50.462,55.31C50.207,54.863 49.732,54.587 49.218,54.587C48.704,54.587 48.229,54.863 47.974,55.31L43.452,63.155C43.283,63.398 43.193,63.686 43.193,63.981C43.193,64.773 43.841,65.426 44.633,65.431L53.851,65.431C54.629,65.413 55.258,64.769 55.258,63.991C55.258,63.742 55.194,63.497 55.071,63.28L55.071,63.299Z" style="fill:rgb(222,146,12);fill-rule:nonzero;"/>
        </g>
    </g>
</svg>
