<svg xmlns="http://www.w3.org/2000/svg" width="100%" height="100%" viewBox="0 0 110 135" fill-rule="evenodd" stroke-linejoin="round" stroke-miterlimit="2" xmlns:v="https://vecta.io/nano"><g fill-rule="nonzero"><path d="M108.175 35.349c-.303-.116-11.966-3.634-21.258-4.369 0 0-28.415 3.087-32.796 11.633-8.377-7.172-18.821-10.837-31.14-10.837-11.787 0-20.838 3.429-21.217 3.573C.705 35.759 0 36.808 0 37.981v70.111c0 .915.429 1.772 1.152 2.298s1.642.653 2.472.34c.246-.091 24.798-9.079 43.118 5.145a2.64 2.64 0 0 0 1.619.559h13.218c.584 0 1.151-.196 1.618-.559 18.263-14.179 42.875-5.234 43.12-5.143.825.307 1.75.182 2.471-.346s1.15-1.381 1.15-2.295v-70.11c.001-1.173-.703-2.222-1.763-2.632z" fill="#d99145"/><path d="M104.588 30.269c-.283-.108-6.496-2.456-15.162-3.142V11.308c0-1.446-1.128-2.617-2.522-2.617-16.571 0-28.64 20.382-32.726 28.352-7.812-6.688-17.552-10.106-29.04-10.106-10.992 0-19.433 3.198-19.786 3.332-.988.382-1.645 1.361-1.645 2.455v64.451c0 .853.4 1.653 1.074 2.143a2.44 2.44 0 0 0 2.305.317c.229-.085 23.126-8.467 40.211 4.798.436.339.967.521 1.51.521h12.327c.545 0 1.073-.183 1.509-.521 17.032-13.223 39.984-4.881 40.213-4.796.769.286 1.632.17 2.304-.323a2.65 2.65 0 0 0 1.072-2.14v-64.45c.001-1.094-.656-2.072-1.644-2.455z" fill="#000010"/><path d="M101.191 34.63v59.053c-7.123-1.735-24.53-4.7-40.588 2.483 4.837-8.375 14.518-22.002 26.301-22.002 1.393 0 2.522-1.17 2.522-2.617V32.376c5.267.459 9.55 1.575 11.765 2.254zM84.384 14.132v54.957C72.28 70.602 62.824 82.68 57.491 91.391V41.833c1.657-3.528 12.45-25.342 26.893-27.7zM8.749 34.63c2.835-.867 9.04-2.46 16.389-2.46 11.007 0 20.189 3.43 27.311 10.198v55.323c-7.479-4.039-16.251-6.082-26.149-6.082a76.47 76.47 0 0 0-17.55 2.083V34.63z" fill="#e8e0d0"/><path d="M60.696 110.822H49.244c-16.255-12.065-36.846-8.645-44.837-6.494v-5.187c3.239-.848 11.338-2.404 19.819-2.404 11.448 0 21.294 2.74 29.264 8.145.031.021.067.028.097.047a2.67 2.67 0 0 0 .458.219c.072.028.141.063.213.084.227.066.459.103.697.105l.017.002a2.73 2.73 0 0 0 .706-.105c.076-.021.146-.06.22-.088.119-.045.243-.08.357-.144.036-.021.061-.051.095-.073s.065-.026.096-.045c18.035-12.235 42.371-7.479 49.085-5.74v5.184c-7.99-2.151-28.582-5.571-44.835 6.494z" fill="#fff"/></g><path d="M37.233 33.729l-.09 28.575H22.025V32.089c5.241.05 9.79.078 15.208 1.64z" fill="#6cff05"/><path d="M20.709 30.088v35.443a2.36 2.36 0 0 0 1.335 2.126c.818.394 1.786.283 2.493-.283l4.42-3.536 4.42 3.536h.005c.707.566 1.676.677 2.493.283a2.36 2.36 0 0 0 1.335-2.126V46.674c0-1.304-1.052-2.36-2.356-2.36s-2.356 1.057-2.356 2.36v13.955l-2.064-1.649v-.005c-.862-.685-2.087-.685-2.944 0l-2.064 1.653v-30.54H20.71zm16.359 8.906c0 3.142-4.712 3.142-4.712 0s4.712-3.142 4.712 0" fill-rule="nonzero" fill="#000010"/></svg>