<svg xmlns="http://www.w3.org/2000/svg" width="100%" height="100%" viewBox="0 0 100 125" fill-rule="evenodd" stroke-linejoin="round" stroke-miterlimit="2" xmlns:v="https://vecta.io/nano"><g transform="matrix(1.25954 0 0 1.25954 -12.8911 -2.59532)"><g transform="matrix(-.802826 0 0 .802826 90 1.9717)"><path d="M.351 111.233V45.216c0-5.598-.097-15.452 7.093-24.19 6.694-8.134 20.208-15.793 48.339-16.56a5.88 5.88 0 0 1 5.696 3.904c.853 2.398.066 5.072-1.95 6.625-5.742 4.424-15.195 10.305-21.813 17.141-3.378 3.49-6.156 7.102-6.156 11.08v68.017a5.88 5.88 0 0 1-5.876 5.876H6.227c-3.246 0-5.876-2.631-5.876-5.876zm5.876 0h19.457V43.216c0-13.387 20.395-25.276 30.259-32.876C5 11.729 6.227 35.778 6.227 45.216v66.017z" fill="#001000"/><path d="M6.227 111.233V45.216c0-9.438-1.227-33.487 49.716-34.876-9.864 7.6-30.259 19.489-30.259 32.876v68.017H6.227z" fill="#757575" fill-rule="nonzero"/><path d="M93.42 117.109H26.987a5.88 5.88 0 0 1-5.876-5.876V43.216c0-21.589 17.505-39.092 39.093-39.092 21.597 0 39.092 17.503 39.092 39.092v68.017a5.88 5.88 0 0 1-5.876 5.876zm0-5.876V43.216C93.42 24.873 78.555 10 60.204 10c-18.343 0-33.217 14.873-33.217 33.216v68.017H93.42z" fill="#001000"/><path d="M93.42 111.233H26.987V43.216C26.987 24.873 41.861 10 60.204 10 78.555 10 93.42 24.873 93.42 43.216v68.017z" fill="#b7b5b9" fill-rule="nonzero"/></g><path d="M31.667 30.001l7.502.833-.834-7.499h6.663l-.83 7.499 7.498-.833v6.666l-7.498-.833.83 14.167h-6.663l.834-14.167-7.502.833v-6.666zm21.667 46.666H30v-6.666h23.333v6.666zm5-13.332H25v-6.669h33.333v6.669z" fill="#000100" fill-rule="nonzero"/></g></svg>