<svg xmlns="http://www.w3.org/2000/svg" width="100%" height="100%" viewBox="0 0 110 135" fill-rule="evenodd" stroke-linejoin="round" stroke-miterlimit="2" xmlns:v="https://vecta.io/nano"><path d="M9.526 46.266v6.896H4.839v-6.896h4.687zm90.205 0h-5.907v-4.209c0-3.386-2.94-6.138-6.558-6.138H21.769c-3.619 0-6.56 2.752-6.56 6.138V57.37c0 3.388 2.941 6.139 6.56 6.139h65.497c3.618 0 6.558-2.751 6.558-6.139v-5.653h5.907c3.175 0 4.76.418 4.76 3.39v9.909c0 2.971-1.585 4.391-4.76 4.391H81.676c-5.156 0-10.349 4.925-10.349 9.75v5.636c-2.059.156-3.688 1.767-3.688 3.735v36.865c0 2.067 1.795 3.748 4.005 3.748h5.047c2.21 0 4.005-1.681 4.005-3.748V88.524c0-1.967-1.625-3.579-3.687-3.734v-5.637c0-2.921 1.54-4.299 4.662-4.299h18.055c5.209 0 10.447-4.967 10.447-9.842v-9.909c0-4.87-5.233-8.837-10.442-8.837z" fill="#cfd0d2"/><path d="M8.521 57.373v-.759l-2.526-.004c-1.019 0-2.843-.773-2.843-1.726V44.537c0-.955 1.824-1.726 2.843-1.726h2.526v-.757c0-5.287 7.595-12.587 13.242-12.587h33.975l.005-15.25c0-4.655-4.043-8.439-9.018-8.439H9.482c-4.969 0-9.017 3.784-9.017 8.439v92.606c0 5.706 4.959 10.349 11.056 10.349 6.107 0 11.057-4.629 11.057-10.349V94.751c0-5.705 4.96-10.347 11.057-10.347 6.16 0 11.057 4.673 11.057 10.347v1.725c0 2.853 2.477 5.172 5.525 5.172 3.054 0 5.526-2.315 5.526-5.172V69.958H21.768c-5.647 0-13.247-7.3-13.247-12.585z"/></svg>