<?xml version="1.0" encoding="UTF-8" standalone="no"?>
<!DOCTYPE svg PUBLIC "-//W3C//DTD SVG 1.1//EN" "http://www.w3.org/Graphics/SVG/1.1/DTD/svg11.dtd">
<svg width="100%" height="100%" viewBox="0 0 20 25" version="1.1" xmlns="http://www.w3.org/2000/svg" xmlns:xlink="http://www.w3.org/1999/xlink" xml:space="preserve" xmlns:serif="http://www.serif.com/" style="fill-rule:evenodd;clip-rule:evenodd;stroke-linejoin:round;stroke-miterlimit:2;">
    <g transform="matrix(1.82725,0,0,1.85754,-8.33948,-6.67629)">
        <g transform="matrix(0.565696,0,0,0.565696,4.40375,3.76365)">
            <path d="M15.549,7.672L10.766,7.645L10.766,5.573C11.198,5.328 11.468,4.768 11.473,4.272C11.473,3.496 10.72,2.793 9.944,2.793C9.168,2.793 8.405,3.468 8.405,4.244C8.411,4.74 8.681,5.3 9.112,5.545L9.112,7.617L4.29,7.649C2.739,7.65 1.464,8.926 1.463,10.476L1.463,17.508C1.464,19.059 2.739,20.334 4.29,20.335L15.549,20.359C17.1,20.357 18.375,19.082 18.376,17.531L18.376,10.5C18.375,8.949 17.1,7.674 15.549,7.672Z" style="fill:none;fill-rule:nonzero;stroke:rgb(164,210,236);stroke-width:2.35px;"/>
            <path d="M15.549,7.672L10.766,7.645L10.766,5.573C11.198,5.328 11.468,4.768 11.473,4.272C11.473,3.496 10.72,2.793 9.944,2.793C9.168,2.793 8.405,3.468 8.405,4.244C8.411,4.74 8.681,5.3 9.112,5.545L9.112,7.617L4.29,7.649C2.739,7.65 1.464,8.926 1.463,10.476L1.463,17.508C1.464,19.059 2.739,20.334 4.29,20.335L15.549,20.359C17.1,20.357 18.375,19.082 18.376,17.531L18.376,10.5C18.375,8.949 17.1,7.674 15.549,7.672Z" style="fill:rgb(135,95,175);fill-rule:nonzero;"/>
        </g>
        <g transform="matrix(0.507769,0,0,0.507769,5.34281,3.84384)">
            <path d="M4.241,13.723C4.241,12.947 4.879,12.309 5.655,12.309C6.431,12.309 7.068,12.947 7.068,13.723C7.068,14.499 6.431,15.137 5.655,15.137C4.879,15.137 4.241,14.499 4.241,13.723Z" style="fill:rgb(135,255,175);fill-rule:nonzero;"/>
        </g>
        <g transform="matrix(0.586504,0,0,0.586504,4.22041,2.45649)">
            <path d="M5.998,17.944C8.391,16.499 11.4,16.499 13.793,17.944C14.007,18.071 14.138,18.302 14.138,18.551C14.138,18.938 13.819,19.257 13.431,19.257C13.303,19.257 13.177,19.222 13.066,19.156C11.113,18.002 8.678,18.002 6.725,19.156C6.615,19.222 6.489,19.257 6.36,19.257C5.973,19.257 5.653,18.938 5.653,18.551C5.653,18.302 5.785,18.071 5.998,17.944Z" style="fill:rgb(135,255,175);fill-rule:nonzero;"/>
        </g>
        <g transform="matrix(0.507769,0,0,0.507769,4.78313,3.84384)">
            <path d="M14.137,15.137C13.36,15.137 12.723,14.499 12.723,13.723C12.723,12.947 13.36,12.309 14.137,12.309C14.913,12.309 15.55,12.947 15.55,13.723C15.55,14.499 14.913,15.137 14.137,15.137Z" style="fill:rgb(135,255,175);fill-rule:nonzero;"/>
        </g>
    </g>
</svg>
