<svg xmlns="http://www.w3.org/2000/svg" width="100%" height="100%" viewBox="0 0 65 82" fill-rule="evenodd" stroke-linejoin="round" stroke-miterlimit="2" xmlns:v="https://vecta.io/nano"><g fill-rule="nonzero"><path d="M56.812 67.315V31.451c0-2.852-2.303-5.264-5.155-5.264h-9.542V13.464c0-2.852-2.303-5.264-5.155-5.264H5.813v.11h-.439C2.413 8.2 0 10.613 0 13.464v1.974h8.993v35.864c0 2.961 2.413 5.264 5.264 5.264H26.98v12.832c0 2.961 2.413 5.374 5.374 5.264h27.638c2.632 0 4.606-2.084 4.606-4.935v-2.413h-7.787z" fill="#000100"/><path d="M9.103 13.793H1.645v-.329c0-1.974 1.645-3.729 3.729-3.729 1.974 0 3.729 1.645 3.729 3.729v.329z" fill="#d99145"/><path d="M10.638 51.302V13.464c0-1.426-.548-2.742-1.535-3.729h27.638c1.974 0 3.729 1.645 3.729 3.729v12.722H23.799v.11h-.439c-2.961 0-5.264 2.413-5.264 5.264v19.742c0 1.974-1.645 3.729-3.729 3.729s-3.729-1.645-3.729-3.729z" fill="#ffc977"/><path d="M18.096 55.031c.877-.987 1.535-2.303 1.535-3.729V31.561c0-1.974 1.645-3.729 3.729-3.729s3.729 1.645 3.729 3.729v23.47h-8.993zm44.857 14.697c0 1.864-1.316 3.29-2.961 3.29H36.083c.877-.987 1.535-2.303 1.535-3.729v-.329h25.335v.768z" fill="#d99145"/><path d="M55.057 67.424H36.741l-1.097.11.219.877c.11.219.11.658.11.987 0 1.974-1.645 3.729-3.729 3.729-1.974 0-3.729-1.645-3.729-3.729V31.561c0-1.426-.548-2.742-1.535-3.729h24.348c1.974 0 3.729 1.645 3.729 3.729v35.864z" fill="#ffc977"/></g><path d="M35.773 14.89v1.645H15.135V14.89h20.638zm-2.431 4.826v1.645H15.135v-1.645h18.206zm14.508 24.829v1.602H32.683v-1.602h15.166zm3.04 4.783v1.645H32.683v-1.645h18.206zm2.29-15.793v1.645H32.542v-1.645h20.638zm-2.525 4.073v1.645H32.448v-1.645h18.206zm-7.004 19.251v1.645H32.464v-1.645h11.187zm7.526 3.729v1.645H32.464v-1.645h18.713z" fill="#000100"/></svg>