<svg xmlns="http://www.w3.org/2000/svg" width="100%" height="100%" viewBox="0 0 110 135" fill-rule="evenodd" stroke-linejoin="round" stroke-miterlimit="2" xmlns:v="https://vecta.io/nano"><path d="M54.247 15.403l-39.215 8.321v45.938c0 13.982 6.977 26.901 18.667 34.547l20.635 13.519 20.635-13.525c11.691-7.668 18.667-20.589 18.667-34.547V23.718l-39.39-8.315zm17.218 83.462l-3.157 2.071a2.68 2.68 0 0 1-1.448.433c-.866 0-1.708-.433-2.228-1.211a2.67 2.67 0 0 1 .756-3.675l3.155-2.073a29.43 29.43 0 0 0 13.29-22.47c.109-1.471 1.535-2.527 2.85-2.464 1.471.111 2.573 1.386 2.464 2.851-.836 10.871-6.543 20.554-15.683 26.538h0zm32.28-87.679L57.138 1.29a13.75 13.75 0 0 0-5.621 0L4.91 11.186c-2.464.52-4.235 2.7-4.235 5.228V69.65c0 18.753 9.441 36.279 25.146 46.561l25.821 16.942a4.93 4.93 0 0 0 5.361 0l25.821-16.942c15.707-10.283 25.146-27.807 25.146-46.561l.006-53.231a5.35 5.35 0 0 0-4.235-5.234h.003zM98.95 69.656a46.52 46.52 0 0 1-21.068 39.001L55.8 123.135c-.451.294-.947.449-1.465.449s-1.016-.149-1.471-.455L30.78 108.651C17.601 100.008 9.712 85.425 9.712 69.65l.006-48.09c0-1.253.888-2.331 2.117-2.591l41.57-8.834c.196-.041.369-.064.56-.064h.733a2.54 2.54 0 0 1 .56.064l41.57 8.834a2.66 2.66 0 0 1 2.118 2.591c.006 0 .006 48.096.006 48.096h-.001z" fill-rule="nonzero"/></svg>