<?xml version="1.0" encoding="UTF-8" standalone="no"?>
<!DOCTYPE svg PUBLIC "-//W3C//DTD SVG 1.1//EN" "http://www.w3.org/Graphics/SVG/1.1/DTD/svg11.dtd">
<svg width="100%" height="100%" viewBox="0 0 110 135" version="1.1" xmlns="http://www.w3.org/2000/svg" xmlns:xlink="http://www.w3.org/1999/xlink" xml:space="preserve" xmlns:serif="http://www.serif.com/" style="fill-rule:evenodd;clip-rule:evenodd;stroke-linejoin:round;stroke-miterlimit:2;">
    <g transform="matrix(1,0,0,1,0,2)">
        <path d="M98.95,69.656C98.95,85.427 91.062,100.014 77.882,108.657L55.8,123.135C55.349,123.429 54.853,123.584 54.334,123.584C53.814,123.584 53.318,123.435 52.863,123.129L30.78,108.651C17.601,100.008 9.712,85.425 9.712,69.65L9.718,21.56C9.718,20.307 10.606,19.229 11.835,18.969L53.405,10.135C53.602,10.094 53.774,10.072 53.965,10.072L54.698,10.072C54.894,10.072 55.067,10.094 55.257,10.135L96.827,18.969C98.056,19.229 98.946,20.307 98.946,21.56C98.952,21.56 98.952,69.656 98.952,69.656L98.95,69.656Z" style="fill:rgb(217,145,69);fill-rule:nonzero;"/>
    </g>
    <g transform="matrix(0.992204,5.55112e-17,0,0.98427,0.841763,0.0314563)">
        <path d="M103.745,12.186L57.138,2.29C55.28,1.903 53.375,1.903 51.517,2.29L4.91,12.186C2.446,12.705 0.675,14.886 0.675,17.413L0.675,70.65C0.675,89.403 10.116,106.929 25.821,117.211L51.643,134.153C53.265,135.21 55.382,135.21 57.004,134.153L82.825,117.211C98.532,106.929 107.971,89.405 107.971,70.65L107.977,17.419C107.977,14.892 106.206,12.705 103.742,12.186L103.745,12.186ZM98.95,71.656C98.95,87.427 91.062,102.014 77.882,110.657L55.8,125.135C55.349,125.429 54.853,125.584 54.334,125.584C53.814,125.584 53.318,125.435 52.863,125.129L30.78,110.651C17.601,102.008 9.712,87.425 9.712,71.65L9.718,23.56C9.718,22.307 10.606,21.229 11.835,20.969L53.405,12.135C53.602,12.094 53.774,12.072 53.965,12.072L54.698,12.072C54.894,12.072 55.067,12.094 55.257,12.135L96.827,20.969C98.056,21.229 98.946,22.307 98.946,23.56C98.952,23.56 98.952,71.656 98.952,71.656L98.95,71.656Z" style="fill:none;fill-rule:nonzero;stroke:rgb(0,1,0);stroke-width:4.05px;"/>
    </g>
    <g transform="matrix(0.992204,5.55112e-17,0,0.98427,0.841763,0.0314563)">
        <path d="M103.745,12.186L57.138,2.29C55.28,1.903 53.375,1.903 51.517,2.29L4.91,12.186C2.446,12.705 0.675,14.886 0.675,17.413L0.675,70.65C0.675,89.403 10.116,106.929 25.821,117.211L51.643,134.153C53.265,135.21 55.382,135.21 57.004,134.153L82.825,117.211C98.532,106.929 107.971,89.405 107.971,70.65L107.977,17.419C107.977,14.892 106.206,12.705 103.742,12.186L103.745,12.186ZM98.95,71.656C98.95,87.427 91.062,102.014 77.882,110.657L55.8,125.135C55.349,125.429 54.853,125.584 54.334,125.584C53.814,125.584 53.318,125.435 52.863,125.129L30.78,110.651C17.601,102.008 9.712,87.425 9.712,71.65L9.718,23.56C9.718,22.307 10.606,21.229 11.835,20.969L53.405,12.135C53.602,12.094 53.774,12.072 53.965,12.072L54.698,12.072C54.894,12.072 55.067,12.094 55.257,12.135L96.827,20.969C98.056,21.229 98.946,22.307 98.946,23.56C98.952,23.56 98.952,71.656 98.952,71.656L98.95,71.656Z" style="fill:rgb(207,100,67);fill-rule:nonzero;"/>
    </g>
    <g transform="matrix(0.624785,-0.134698,0.13427,0.622801,17.9277,32.1594)">
        <g transform="matrix(1.57385,0.231039,-0.236414,1.53807,-18.1668,-50.1322)">
            <path d="M45.05,44.098L41.52,39.974C39.48,37.674 36.501,36.92 33.93,37.758L36.933,41.146C37.719,41.333 38.47,41.775 39.081,42.463L42.113,45.882C42.422,45.928 45.269,44.08 45.05,44.098Z" style="fill:none;fill-rule:nonzero;stroke:rgb(0,0,16);stroke-width:4.05px;"/>
            <path d="M45.05,44.098L41.52,39.974C39.48,37.674 36.501,36.92 33.93,37.758L36.933,41.146C37.719,41.333 38.47,41.775 39.081,42.463L42.113,45.882C42.422,45.928 45.269,44.08 45.05,44.098Z" style="fill:rgb(126,126,126);fill-rule:nonzero;"/>
        </g>
        <g transform="matrix(1.57385,0.231039,-0.236414,1.53807,-18.1668,-50.1322)">
            <path d="M29.234,25.509L26.202,22.09C24.161,19.791 21.183,19.025 18.611,19.876L21.613,23.262C22.4,23.452 23.151,23.893 23.762,24.581L26.793,27.998C27.405,28.686 27.777,29.513 27.917,30.367L30.919,33.762C31.834,31.031 31.274,27.808 29.234,25.509Z" style="fill:none;fill-rule:nonzero;stroke:rgb(0,0,16);stroke-width:4.05px;"/>
            <path d="M29.234,25.509L26.202,22.09C24.161,19.791 21.183,19.025 18.611,19.876L21.613,23.262C22.4,23.452 23.151,23.893 23.762,24.581L26.793,27.998C27.405,28.686 27.777,29.513 27.917,30.367L30.919,33.762C31.834,31.031 31.274,27.808 29.234,25.509Z" style="fill:rgb(126,126,126);fill-rule:nonzero;"/>
        </g>
        <g transform="matrix(1.57385,0.231039,-0.236414,1.53807,-18.1668,-50.1322)">
            <path d="M24.272,38.679L21.269,35.293C20.482,35.104 19.731,34.663 19.12,33.975L16.087,30.557C15.478,29.869 15.105,29.041 14.965,28.189L11.963,24.803C11.049,27.522 11.608,30.756 13.657,33.056L16.69,36.475C18.72,38.775 21.689,39.528 24.272,38.679Z" style="fill:none;fill-rule:nonzero;stroke:rgb(0,0,16);stroke-width:4.05px;"/>
            <path d="M24.272,38.679L21.269,35.293C20.482,35.104 19.731,34.663 19.12,33.975L16.087,30.557C15.478,29.869 15.105,29.041 14.965,28.189L11.963,24.803C11.049,27.522 11.608,30.756 13.657,33.056L16.69,36.475C18.72,38.775 21.689,39.528 24.272,38.679Z" style="fill:rgb(117,117,117);fill-rule:nonzero;"/>
        </g>
        <g transform="matrix(1.57385,0.231039,-0.236414,1.53807,-18.1668,-50.1322)">
            <path d="M32.12,55.107C32.162,55.445 34.792,52.589 34.55,52.608L31.518,49.189C30.907,48.502 30.533,47.674 30.395,46.821L27.392,43.436C26.478,46.156 27.037,49.388 29.088,51.69L32.12,55.107Z" style="fill:none;fill-rule:nonzero;stroke:rgb(0,0,16);stroke-width:4.05px;"/>
            <path d="M32.12,55.107C32.162,55.445 34.792,52.589 34.55,52.608L31.518,49.189C30.907,48.502 30.533,47.674 30.395,46.821L27.392,43.436C26.478,46.156 27.037,49.388 29.088,51.69L32.12,55.107Z" style="fill:rgb(117,117,117);fill-rule:nonzero;"/>
        </g>
        <g transform="matrix(1.57385,0.231039,-0.236414,1.53807,-18.1668,-50.1322)">
            <path d="M36.296,46.182C37.222,45.233 37.255,43.64 36.368,42.64L26.032,30.99C25.145,29.99 23.664,29.948 22.737,30.897C21.812,31.846 21.779,33.438 22.666,34.438L33.002,46.089C33.889,47.088 35.369,47.13 36.296,46.182Z" style="fill:none;fill-rule:nonzero;stroke:rgb(0,0,16);stroke-width:4.05px;"/>
            <path d="M36.296,46.182C37.222,45.233 37.255,43.64 36.368,42.64L26.032,30.99C25.145,29.99 23.664,29.948 22.737,30.897C21.812,31.846 21.779,33.438 22.666,34.438L33.002,46.089C33.889,47.088 35.369,47.13 36.296,46.182Z" style="fill:rgb(171,169,173);fill-rule:nonzero;"/>
        </g>
        <g transform="matrix(1.57385,0.231039,-0.236414,1.53807,-20.3495,-53.0194)">
            <path d="M21.078,29.027C22.005,28.078 22.037,26.486 21.15,25.487L10.815,13.834C9.928,12.835 8.446,12.793 7.52,13.743C6.593,14.691 6.562,16.283 7.449,17.282L17.784,28.934C18.671,29.945 20.152,29.986 21.078,29.027Z" style="fill:none;fill-rule:nonzero;stroke:rgb(0,0,16);stroke-width:4.05px;"/>
            <path d="M21.078,29.027C22.005,28.078 22.037,26.486 21.15,25.487L17.28,21.351C16.393,20.352 14.911,20.31 13.985,21.26C13.058,22.208 13.027,23.8 13.914,24.799L17.784,28.934C18.671,29.945 20.152,29.986 21.078,29.027Z" style="fill:rgb(171,169,173);fill-rule:nonzero;"/>
        </g>
        <g transform="matrix(1.57385,0.231039,-0.236414,1.53807,-18.1668,-50.1322)">
            <path d="M81.991,102.866L79.551,91.705C77.349,94.263 74.738,96.412 71.821,98.066L81.991,102.866Z" style="fill:none;fill-rule:nonzero;stroke:rgb(0,0,16);stroke-width:4.05px;"/>
            <path d="M81.991,102.866L79.551,91.705C77.349,94.263 74.738,96.412 71.821,98.066L81.991,102.866Z" style="fill:rgb(126,126,126);fill-rule:nonzero;"/>
        </g>
        <g transform="matrix(1.57385,0.231039,-0.236414,1.53807,-18.1668,-50.1322)">
            <path d="M37.875,94.151C36.634,93.016 35.446,91.804 34.373,90.447C33.301,89.089 32.384,87.657 31.571,86.17L27.002,96.514L37.875,94.151Z" style="fill:none;fill-rule:nonzero;stroke:rgb(0,0,16);stroke-width:4.05px;"/>
            <path d="M37.875,94.151C36.634,93.016 35.446,91.804 34.373,90.447C33.301,89.089 32.384,87.657 31.571,86.17L27.002,96.514L37.875,94.151Z" style="fill:rgb(126,126,126);fill-rule:nonzero;"/>
        </g>
        <g transform="matrix(1.57385,0.231039,-0.236414,1.53807,-18.1668,-50.1322)">
            <path d="M76.705,49.041C77.946,50.175 79.133,51.387 80.206,52.745C81.278,54.103 82.197,55.536 83.009,57.022L87.577,46.678L76.705,49.041Z" style="fill:none;fill-rule:nonzero;stroke:rgb(0,0,16);stroke-width:4.05px;"/>
            <path d="M76.705,49.041C77.946,50.175 79.133,51.387 80.206,52.745C81.278,54.103 82.197,55.536 83.009,57.022L87.577,46.678L76.705,49.041Z" style="fill:rgb(126,126,126);fill-rule:nonzero;"/>
        </g>
        <g transform="matrix(1.57385,0.231039,-0.236414,1.53807,-18.1668,-50.1322)">
            <path d="M82.562,83.321L78.694,84.773C78.419,84.881 78.114,84.911 77.815,84.886C76.386,84.721 75.141,83.998 74.182,82.784C71.265,79.092 71.647,71.481 73.944,67.146C75.398,64.389 77.545,63.029 79.961,63.297C80.251,63.331 80.55,63.441 80.799,63.61L84.293,65.91C83.359,61.503 81.433,57.419 78.711,53.974C75.99,50.53 72.489,47.742 68.468,45.875L69.93,49.848C70.038,50.132 70.071,50.445 70.049,50.751C69.785,53.412 67.861,55.471 64.77,56.386C60.304,57.703 53.247,56.552 50.282,52.799C49.243,51.483 48.775,49.933 48.935,48.325C48.964,48.028 49.068,47.723 49.23,47.47L51.439,43.921C42.844,45.733 35.602,51.694 32.044,59.883L35.911,58.431C36.187,58.324 36.491,58.293 36.791,58.318C38.256,58.488 39.546,59.225 40.528,60.469C43.436,64.152 43.07,71.699 40.806,75.99C39.32,78.791 37.132,80.184 34.654,79.898C34.365,79.865 34.065,79.755 33.816,79.586L30.322,77.286C31.256,81.693 33.183,85.776 35.904,89.222C38.626,92.666 42.126,95.454 46.148,97.321L44.687,93.347C44.577,93.064 44.544,92.751 44.566,92.446C44.878,89.303 47.017,86.914 50.43,85.905C55.254,84.48 61.393,86.114 64.115,89.559C65.334,91.102 65.873,92.949 65.68,94.89C65.65,95.186 65.546,95.491 65.385,95.744L63.175,99.294C71.769,97.481 79.012,91.52 82.57,83.331L82.562,83.321Z" style="fill:none;fill-rule:nonzero;stroke:rgb(0,0,16);stroke-width:4.05px;"/>
            <path d="M82.562,83.321L78.694,84.773C78.419,84.881 78.114,84.911 77.815,84.886C76.386,84.721 75.141,83.998 74.182,82.784C71.265,79.092 71.647,71.481 73.944,67.146C75.398,64.389 77.545,63.029 79.961,63.297C80.251,63.331 80.55,63.441 80.799,63.61L84.293,65.91C83.359,61.503 81.433,57.419 78.711,53.974C75.99,50.53 72.489,47.742 68.468,45.875L69.93,49.848C70.038,50.132 70.071,50.445 70.049,50.751C69.785,53.412 67.861,55.471 64.77,56.386C60.304,57.703 53.247,56.552 50.282,52.799C49.243,51.483 48.775,49.933 48.935,48.325C48.964,48.028 49.068,47.723 49.23,47.47L51.439,43.921C42.844,45.733 35.602,51.694 32.044,59.883L35.911,58.431C36.187,58.324 36.491,58.293 36.791,58.318C38.256,58.488 39.546,59.225 40.528,60.469C43.436,64.152 43.07,71.699 40.806,75.99C39.32,78.791 37.132,80.184 34.654,79.898C34.365,79.865 34.065,79.755 33.816,79.586L30.322,77.286C31.256,81.693 33.183,85.776 35.904,89.222C38.626,92.666 42.126,95.454 46.148,97.321L44.687,93.347C44.577,93.064 44.544,92.751 44.566,92.446C44.878,89.303 47.017,86.914 50.43,85.905C55.254,84.48 61.393,86.114 64.115,89.559C65.334,91.102 65.873,92.949 65.68,94.89C65.65,95.186 65.546,95.491 65.385,95.744L63.175,99.294C71.769,97.481 79.012,91.52 82.57,83.331L82.562,83.321Z" style="fill:rgb(181,183,187);fill-rule:nonzero;"/>
        </g>
        <g transform="matrix(1.57385,0.231039,-0.236414,1.53807,-18.1668,-50.1322)">
            <path d="M79.767,65.257C74.377,64.635 72.297,77.277 75.676,81.555C76.278,82.316 77.051,82.816 78.009,82.927L96.168,76.094L79.765,65.275L79.767,65.257Z" style="fill:none;fill-rule:nonzero;stroke:rgb(0,0,16);stroke-width:4.05px;"/>
            <path d="M79.767,65.257C74.377,64.635 72.297,77.277 75.676,81.555C76.278,82.316 77.051,82.816 78.009,82.927L96.168,76.094L79.765,65.275L79.767,65.257Z" style="fill:rgb(171,169,173);fill-rule:nonzero;"/>
        </g>
        <g transform="matrix(1.57385,0.231039,-0.236414,1.53807,-18.1668,-50.1322)">
            <path d="M34.813,77.935C40.311,78.568 42.427,66.035 38.998,61.695C38.373,60.904 37.573,60.39 36.56,60.273L18.402,67.106L34.806,77.924L34.813,77.935Z" style="fill:none;fill-rule:nonzero;stroke:rgb(0,0,16);stroke-width:4.05px;"/>
            <path d="M34.813,77.935C40.311,78.568 42.427,66.035 38.998,61.695C38.373,60.904 37.573,60.39 36.56,60.273L18.402,67.106L34.806,77.924L34.813,77.935Z" style="fill:rgb(171,169,173);fill-rule:nonzero;"/>
        </g>
        <g transform="matrix(1.57385,0.231039,-0.236414,1.53807,-18.1668,-50.1322)">
            <path d="M53.352,111.331L63.744,94.667C63.896,93.151 63.447,91.856 62.602,90.786C58.817,85.994 47.137,85.9 46.464,92.664L53.344,111.321L53.352,111.331Z" style="fill:none;fill-rule:nonzero;stroke:rgb(0,0,16);stroke-width:4.05px;"/>
            <path d="M53.352,111.331L63.744,94.667C63.896,93.151 63.447,91.856 62.602,90.786C58.817,85.994 47.137,85.9 46.464,92.664L53.344,111.321L53.352,111.331Z" style="fill:rgb(171,169,173);fill-rule:nonzero;"/>
        </g>
        <g transform="matrix(1.57385,0.231039,-0.236414,1.53807,-18.1668,-50.1322)">
            <path d="M61.246,31.863L50.853,48.527C50.739,49.673 51.095,50.686 51.778,51.549C55.311,56.024 67.544,56.463 68.125,50.519L61.246,31.863Z" style="fill:none;fill-rule:nonzero;stroke:rgb(0,0,16);stroke-width:4.05px;"/>
            <path d="M61.246,31.863L50.853,48.527C50.739,49.673 51.095,50.686 51.778,51.549C55.311,56.024 67.544,56.463 68.125,50.519L61.246,31.863Z" style="fill:rgb(171,169,173);fill-rule:nonzero;"/>
        </g>
        <g transform="matrix(0.683973,0.592188,-0.8612,0.949964,86.5135,6.30148)">
            <path d="M81.26,34.892L50.045,38.352C49.857,36.951 50.686,35.89 52.578,35.186L81.26,34.892Z" style="fill:white;"/>
        </g>
        <g transform="matrix(0.605965,-0.668422,0.972065,0.84162,-14.2308,41.978)">
            <path d="M81.26,34.892L50.045,38.352C49.857,36.951 50.686,35.89 52.578,35.186L81.26,34.892Z" style="fill:white;"/>
        </g>
        <g transform="matrix(0.202156,0.870887,1.2665,-0.280772,-20.3477,67.4661)">
            <path d="M81.26,34.892L50.045,38.352C49.857,36.951 50.686,35.89 52.578,35.186L81.26,34.892Z" style="fill:white;"/>
        </g>
        <g transform="matrix(-0.889691,0.203739,0.296292,1.23568,60.0629,-1.95134)">
            <path d="M81.26,34.892L50.045,38.352C49.857,36.951 50.686,35.89 52.578,35.186L81.26,34.892Z" style="fill:white;"/>
        </g>
        <g transform="matrix(0.320251,-0.207993,0.870694,1.28036,-12.6061,-1.94252)">
            <path d="M49.99,12.284L49.99,28.73C50.077,29.608 45.757,29.606 45.621,28.73L45.621,12.284C45.672,11.465 50.046,11.406 49.99,12.284Z" style="fill:white;"/>
        </g>
        <g transform="matrix(0.320251,-0.207993,0.870694,1.28036,-35.1388,-34.7683)">
            <path d="M48.949,22.312L49.99,28.73C50.077,29.608 45.757,29.606 45.621,28.73L44.58,22.312C44.631,21.493 49.005,21.434 48.949,22.312Z" style="fill:white;"/>
        </g>
    </g>
    <g transform="matrix(0.992204,5.55112e-17,0,0.98427,0.841763,0.0314563)">
        <g transform="matrix(1.00786,-5.68414e-17,0,1.01598,-0.848377,-0.031959)">
            <path d="M55.308,132.822C54.197,132.95 53.051,132.7 52.082,132.074L26.461,115.399C10.879,105.278 1.512,88.028 1.512,69.57L1.512,17.171C1.512,14.683 3.269,12.537 5.713,12.026L51.957,2.285C52.966,2.077 53.988,1.983 55.009,2.002C54.902,5.241 54.834,8.089 54.75,11.993C54.75,11.993 54.026,11.935 53.83,11.976L12.584,20.671C11.365,20.927 10.484,21.988 10.484,23.221L10.478,70.554C10.478,86.081 18.306,100.435 31.382,108.942L53.293,123.192C53.744,123.493 54.236,123.64 54.752,123.64C54.916,123.64 55.077,123.625 55.235,123.594C55.221,126.913 55.237,129.996 55.308,132.822Z" style="fill:rgb(156,54,43);"/>
        </g>
        <g transform="matrix(1.00786,-5.68414e-17,0,1.01598,-0.848377,-0.031959)">
            <path d="M55.009,2.002C55.855,2.018 56.699,2.113 57.534,2.285L103.775,12.025L103.778,12.026C106.221,12.538 107.977,14.69 107.977,17.176L107.971,69.57C107.971,88.03 98.606,105.278 83.021,115.399L57.401,132.074C56.761,132.488 56.042,132.738 55.308,132.822C55.237,129.996 55.221,126.913 55.235,123.594C55.575,123.529 55.901,123.396 56.207,123.198L78.117,108.948C80.547,107.367 82.796,105.584 84.847,103.629C87.771,103.64 88.353,104.269 92.904,104.921C92.903,101.274 92.472,101.34 92.308,97.721C92.239,96.206 92.196,95.962 91.997,94.899C94.81,90.439 96.839,85.509 97.972,80.313C101.983,78.136 105.641,77.322 105.692,76.609C105.931,73.273 101.548,69.011 99.022,66.706C99.022,55.417 99.021,23.221 99.016,23.221C99.016,21.988 98.133,20.927 96.914,20.671L54.75,11.993C54.818,8.252 54.902,5.339 55.009,2.002Z" style="fill:rgb(207,100,67);"/>
        </g>
    </g>
</svg>
