<?xml version="1.0" encoding="UTF-8" standalone="no"?>
<!DOCTYPE svg PUBLIC "-//W3C//DTD SVG 1.1//EN" "http://www.w3.org/Graphics/SVG/1.1/DTD/svg11.dtd">
<svg width="100%" height="100%" viewBox="0 0 110 135" version="1.1" xmlns="http://www.w3.org/2000/svg" xmlns:xlink="http://www.w3.org/1999/xlink" xml:space="preserve" xmlns:serif="http://www.serif.com/" style="fill-rule:evenodd;clip-rule:evenodd;stroke-linejoin:round;stroke-miterlimit:2;">
    <path d="M54.522,0.445C54.131,0.445 53.734,0.511 53.343,0.644L3.386,17.924C1.971,18.418 1.006,19.722 0.947,21.211L0.947,21.219C-0.157,49.129 -1.439,78.431 7.334,97.681L7.356,97.725C16.335,117.416 35.495,126.15 53.02,134.282C53.513,134.51 54.036,134.621 54.552,134.621L54.559,134.621C55.075,134.621 55.59,134.51 56.084,134.282C73.608,126.15 92.745,117.466 101.717,97.776L101.747,97.717C110.52,78.477 109.26,49.129 108.155,21.219L108.155,21.212C108.096,19.723 107.131,18.418 105.717,17.924L55.76,0.644C55.362,0.512 54.964,0.445 54.574,0.445L54.522,0.445Z" style="fill:rgb(218,132,3);fill-rule:nonzero;"/>
    <path d="M0.776,25.549C0.862,25.562 0.919,25.569 0.939,25.571L0.947,25.571L0.905,25.528C0.877,25.494 0.836,25.443 0.783,25.378C0.837,23.989 0.892,22.602 0.947,21.219L0.947,21.211C1.006,19.722 1.971,18.418 3.386,17.924L53.343,0.644C53.734,0.511 54.131,0.445 54.522,0.445L54.522,4.805L54.548,0.445L54.574,0.445C54.964,0.445 55.362,0.512 55.76,0.644L105.717,17.924C107.131,18.418 108.096,19.723 108.155,21.212L108.155,21.219C108.212,22.666 108.27,24.116 108.327,25.569C108.272,25.571 108.217,25.572 108.162,25.572L108.155,25.579L108.149,25.572C106.675,25.571 105.367,24.836 104.579,23.708C104.558,23.681 104.539,23.654 104.519,23.627C104.179,23.115 103.945,22.526 103.847,21.891L103.84,21.889C103.938,22.593 104.187,23.164 104.519,23.627C105.302,24.806 106.641,25.579 108.155,25.579C108.212,25.579 108.27,25.578 108.327,25.576C109.364,52.149 110.065,79.476 101.747,97.717L101.717,97.776C101.387,98.501 101.043,99.21 100.686,99.905C99.669,97.793 98.217,95.04 97.859,95.742C97.831,95.798 97.805,95.853 97.779,95.908C106.272,77.283 104.891,48.915 103.817,21.881C98.909,20.183 57.493,5.858 54.552,4.84C51.206,5.997 10.107,20.213 5.284,21.881C4.211,48.914 2.809,77.239 11.302,95.873L8.545,100.158C8.131,99.366 7.735,98.555 7.356,97.725L7.334,97.681C-0.986,79.424 -0.263,52.126 0.776,25.549ZM8.568,100.201L11.323,95.916C19.79,114.484 38.011,122.516 54.552,130.186C71.094,122.516 89.29,114.532 97.749,95.968C97.134,97.318 97.247,98.888 98.05,100.135C98.474,100.795 99.061,101.317 99.739,101.662C90.137,118.65 72.41,126.706 56.084,134.282C55.59,134.51 55.075,134.621 54.559,134.621L54.559,130.261L54.552,130.261L54.552,134.621C54.036,134.621 53.513,134.51 53.02,134.282C36.247,126.499 17.977,118.165 8.568,100.201ZM0.782,25.4L0.905,25.528C0.922,25.548 0.932,25.562 0.939,25.571L0.782,25.407L0.782,25.4ZM99.771,101.604C99.092,101.259 98.505,100.737 98.079,100.076C97.579,99.298 97.347,98.395 97.392,97.498C97.374,99.237 98.77,100.474 99.985,101.22C99.915,101.349 99.843,101.477 99.771,101.604ZM54.555,134.621L54.557,130.261L54.559,134.621L54.555,134.621ZM0.947,25.579L5.304,21.391L5.304,21.384L1.144,25.382L0.947,25.579ZM97.392,97.498C97.397,97.008 97.514,96.478 97.779,95.908C97.547,96.416 97.419,96.956 97.392,97.498Z" style="fill:rgb(165,90,60);stroke:rgb(165,90,60);stroke-width:3.2px;"/>
    <g transform="matrix(0.99772,0.0674948,-0.0674948,0.99772,-2.5932,-3.29918)">
        <path d="M73.525,14.705C73.818,14.711 74.093,14.757 74.361,14.835L99.729,21.698C101.286,21.99 102.182,23.368 102.433,24.937C104.52,37.974 104.888,51.505 104.409,64.253L104.409,64.269C104.372,66.109 102.846,67.57 101.007,67.534C99.167,67.498 97.708,65.978 97.744,64.138L97.748,63.926C98.178,52.448 97.802,40.044 95.8,27.731L95.816,27.723L72.751,21.296C71.227,20.965 70.098,19.59 70.13,17.97C70.166,16.129 71.684,14.676 73.524,14.713L73.525,14.705Z" style="fill:rgb(254,197,2);fill-rule:nonzero;"/>
    </g>
    <g transform="matrix(1,0,0,1,39.1965,47.1021)">
        <path d="M10.702,66.681C12.542,66.681 14.031,68.171 14.031,70.012C14.031,71.853 12.542,73.344 10.702,73.344C8.863,73.344 7.374,71.853 7.374,70.012C7.374,68.171 8.863,66.681 10.694,66.681L10.702,66.681Z" style="fill:rgb(254,197,2);fill-rule:nonzero;"/>
    </g>
    <g transform="matrix(0.997222,0.0744882,-0.0744882,0.997222,9.24609,-3.49556)">
        <path d="M13.095,78.784C14.87,78.784 16.107,80.218 16.497,81.871C17.287,84.779 18.239,87.427 19.338,89.813L19.346,89.829C23.529,98.903 30.651,104.556 41.167,109.671L41.175,109.679C42.363,110.208 43.194,111.398 43.194,112.79C43.194,114.672 41.672,116.195 39.792,116.195C39.295,116.195 38.823,116.081 38.392,115.894L38.367,115.886C26.997,110.379 18.264,103.725 13.16,92.672C11.866,89.853 10.776,86.742 9.872,83.362L9.864,83.345C9.75,82.987 9.685,82.604 9.685,82.205L9.685,82.197C9.685,80.315 11.207,78.784 13.095,78.784Z" style="fill:rgb(254,197,2);fill-rule:nonzero;"/>
    </g>
    <g transform="matrix(1,0,0,1,-0.147536,-1.65564)">
        <path d="M31.243,48.173L39.692,39.725C41.124,38.292 43.443,38.299 44.877,39.732L54.692,49.548L64.495,39.734C65.182,39.047 66.12,38.662 67.089,38.662C68.069,38.662 68.997,39.048 69.685,39.736L78.14,48.191C79.568,49.619 79.569,51.943 78.142,53.381L68.328,63.184L78.144,72.999C79.577,74.433 79.578,76.746 78.151,78.184L69.703,86.633C69.015,87.32 68.083,87.7 67.108,87.705C66.139,87.705 65.206,87.313 64.518,86.625L54.708,76.815L44.894,86.618C43.462,88.05 41.138,88.049 39.71,86.621L31.255,78.166C30.567,77.478 30.181,76.55 30.18,75.571C30.18,74.602 30.565,73.674 31.248,72.992L31.258,72.981L41.061,63.168L31.245,53.353C30.557,52.665 30.171,51.737 30.166,50.762C30.165,49.793 30.551,48.866 31.238,48.178L31.243,48.173Z" style="fill:none;fill-rule:nonzero;stroke:rgb(0,1,0);stroke-width:10.88px;stroke-linecap:round;stroke-linejoin:bevel;stroke-miterlimit:2.08721;"/>
        <g transform="matrix(1,0,0,1,1,0)">
            <path d="M31.243,48.173L39.692,39.725C41.124,38.292 43.443,38.299 44.877,39.732L54.692,49.548L64.495,39.734C65.182,39.047 66.12,38.662 67.089,38.662C68.069,38.662 68.997,39.048 69.685,39.736L78.14,48.191C79.568,49.619 79.569,51.943 78.142,53.381L68.328,63.184L78.144,72.999C79.577,74.433 79.578,76.746 78.151,78.184L69.703,86.633C69.015,87.32 68.083,87.7 67.108,87.705C66.139,87.705 65.206,87.313 64.518,86.625L54.708,76.815L44.894,86.618C43.462,88.05 41.138,88.049 39.71,86.621L31.255,78.166C30.567,77.478 30.181,76.55 30.18,75.571C30.18,74.602 30.565,73.674 31.248,72.992L31.258,72.981L41.061,63.168L31.245,53.353C30.557,52.665 30.171,51.737 30.166,50.762C30.165,49.793 30.551,48.866 31.238,48.178L31.243,48.173Z" style="fill:rgb(107,255,63);fill-rule:nonzero;"/>
        </g>
    </g>
</svg>
