<?xml version="1.0" encoding="UTF-8" standalone="no"?>
<!DOCTYPE svg PUBLIC "-//W3C//DTD SVG 1.1//EN" "http://www.w3.org/Graphics/SVG/1.1/DTD/svg11.dtd">
<svg width="100%" height="100%" viewBox="0 0 110 135" version="1.1" xmlns="http://www.w3.org/2000/svg" xmlns:xlink="http://www.w3.org/1999/xlink" xml:space="preserve" xmlns:serif="http://www.serif.com/" style="fill-rule:evenodd;clip-rule:evenodd;stroke-linecap:round;stroke-linejoin:round;stroke-miterlimit:2;">
    <g transform="matrix(1.23858,3.79515e-20,-3.8043e-20,1.10972,-11.3294,-2.54858)">
        <path d="M55.735,5.925C55.996,5.843 56.252,5.767 56.518,5.697C58.197,5.251 59.947,5.006 61.746,5.006C67.296,5.006 71.361,7.278 75.024,10.936C78.687,14.604 80.965,19.654 80.965,25.197L80.965,32.295L81.079,32.295L81.079,121.43L10.762,121.43L10.762,32.295L20.114,32.295L20.114,55.715C20.114,57.101 20.68,58.367 21.598,59.291C22.511,60.204 24.778,60.775 26.174,60.775C27.571,60.775 29.838,60.21 30.751,59.291C31.664,58.378 32.234,57.106 32.234,55.715L32.234,32.295L54.72,32.295L54.72,55.715C54.72,57.101 55.285,58.367 56.203,59.291C57.116,60.204 59.383,60.775 60.779,60.775C62.176,60.775 64.443,60.21 65.356,59.291C66.269,58.378 66.839,57.106 66.839,55.715L66.839,32.295L75.188,32.295L75.188,25.197C75.188,21.23 73.563,17.632 70.959,15.018C68.345,12.414 65.72,10.789 61.757,10.789L61.513,10.795C61.105,10.316 60.676,9.849 60.23,9.403C58.893,8.066 57.388,6.898 55.746,5.93L55.735,5.925Z" style="fill:none;fill-rule:nonzero;stroke:rgb(32,19,64);stroke-width:4.68px;"/>
    </g>
    <g transform="matrix(1.23858,3.79515e-20,-3.8043e-20,1.10972,-11.3294,-2.54858)">
        <path d="M55.735,5.925C55.996,5.843 56.252,5.767 56.518,5.697C58.197,5.251 59.947,5.006 61.746,5.006C67.296,5.006 71.361,7.278 75.024,10.936C78.687,14.604 80.965,19.654 80.965,25.197L80.965,32.295L81.079,32.295L81.079,121.43L10.762,121.43L10.762,32.295L20.114,32.295L20.114,55.715C20.114,57.101 20.68,58.367 21.598,59.291C22.511,60.204 24.778,60.775 26.174,60.775C27.571,60.775 29.838,60.21 30.751,59.291C31.664,58.378 32.234,57.106 32.234,55.715L32.234,32.295L54.72,32.295L54.72,55.715C54.72,57.101 55.285,58.367 56.203,59.291C57.116,60.204 59.383,60.775 60.779,60.775C62.176,60.775 64.443,60.21 65.356,59.291C66.269,58.378 66.839,57.106 66.839,55.715L66.839,32.295L75.188,32.295L75.188,25.197C75.188,21.23 73.563,17.632 70.959,15.018C68.345,12.414 65.72,10.789 61.757,10.789L61.513,10.795C61.105,10.316 60.676,9.849 60.23,9.403C58.893,8.066 57.388,6.898 55.746,5.93L55.735,5.925Z" style="fill:rgb(159,80,225);fill-rule:nonzero;"/>
    </g>
    <g transform="matrix(1.21176,3.71298e-20,-3.72193e-20,1.08569,-13.7529,-2.42847)">
        <path d="M31.698,55.809C31.698,57.442 30.375,58.764 28.742,58.764C27.115,58.764 25.787,57.442 25.787,55.809L25.787,25.638C25.787,19.966 28.109,14.794 31.847,11.061L32.025,10.894C35.748,7.256 40.842,5 46.425,5C52.097,5 57.252,7.322 60.996,11.061C64.745,14.799 67.068,19.966 67.068,25.638L67.068,55.809C67.068,57.442 65.746,58.764 64.113,58.764C62.484,58.764 61.157,57.442 61.157,55.809L61.157,25.638C61.157,21.593 59.496,17.904 56.83,15.239C54.168,12.566 50.48,10.905 46.43,10.905C42.447,10.905 38.825,12.505 36.164,15.088L36.025,15.233C33.359,17.904 31.692,21.588 31.692,25.632L31.692,55.804L31.698,55.809Z" style="fill:none;fill-rule:nonzero;stroke:rgb(32,19,64);stroke-width:4.78px;stroke-linecap:square;stroke-linejoin:miter;"/>
    </g>
    <g transform="matrix(1.21176,3.71298e-20,-3.72193e-20,1.08569,-23.4471,-2.42847)">
        <path d="M87.675,123.997L96.322,123.955L96.412,32.895L87.701,32.895L87.675,123.997Z" style="fill:none;fill-rule:nonzero;stroke:rgb(32,19,64);stroke-width:4.78px;stroke-linecap:square;stroke-linejoin:miter;"/>
    </g>
    <g transform="matrix(1.21176,3.71298e-20,-3.72193e-20,1.08569,-23.4471,-2.42847)">
        <path d="M98.919,123.997L107.565,123.955L107.655,32.895L98.945,32.895L98.919,123.997Z" style="fill:none;fill-rule:nonzero;stroke:rgb(32,19,64);stroke-width:4.78px;stroke-linecap:square;stroke-linejoin:miter;"/>
    </g>
    <g transform="matrix(1.21176,3.71298e-20,-3.72193e-20,1.08569,-13.7529,-2.42847)">
        <path d="M31.698,55.809C31.698,57.442 30.375,58.764 28.742,58.764C27.115,58.764 25.787,57.442 25.787,55.809L25.787,25.638C25.787,19.966 28.109,14.794 31.847,11.061L32.025,10.894C35.748,7.256 40.842,5 46.425,5C52.097,5 57.252,7.322 60.996,11.061C64.745,14.799 67.068,19.966 67.068,25.638L67.068,55.809C67.068,57.442 65.746,58.764 64.113,58.764C62.484,58.764 61.157,57.442 61.157,55.809L61.157,25.638C61.157,21.593 59.496,17.904 56.83,15.239C54.168,12.566 50.48,10.905 46.43,10.905C42.447,10.905 38.825,12.505 36.164,15.088L36.025,15.233C33.359,17.904 31.692,21.588 31.692,25.632L31.692,55.804L31.698,55.809Z" style="fill:rgb(135,255,175);fill-rule:nonzero;"/>
    </g>
    <g transform="matrix(1.21176,3.71298e-20,-3.72193e-20,1.08569,-23.4471,-2.42847)">
        <path d="M87.675,123.997L96.322,123.955L96.412,32.895L87.701,32.895L87.675,123.997Z" style="fill:rgb(135,255,175);fill-rule:nonzero;"/>
    </g>
    <g transform="matrix(1.21176,3.71298e-20,-3.72193e-20,1.08569,-23.4471,-2.42847)">
        <path d="M98.919,123.997L107.565,123.955L107.655,32.895L98.945,32.895L98.919,123.997Z" style="fill:rgb(135,255,175);fill-rule:nonzero;"/>
    </g>
    <g transform="matrix(1.21176,3.71298e-20,-2.18393e-20,0.637055,-23.4471,57.8892)">
        <path d="M96.4,106.892L87.682,116.688L96.4,116.688L96.4,106.892ZM98.682,106.892L107.4,116.688L98.682,116.688L98.682,106.892Z" style="fill:rgb(32,19,64);"/>
    </g>
    <g transform="matrix(1.22112,3.59639e-19,-1.89072e-19,-0.640429,-24.2069,108.015)">
        <path d="M96.4,106.892L87.682,116.688L96.4,116.688L96.4,106.892ZM98.682,106.892L107.4,116.688L98.682,116.688L98.682,106.892Z" style="fill:rgb(32,19,64);"/>
    </g>
</svg>
