<svg xmlns="http://www.w3.org/2000/svg" width="100%" height="100%" viewBox="0 0 16 16" fill-rule="evenodd" stroke-linejoin="round" stroke-miterlimit="2" xmlns:v="https://vecta.io/nano"><path d="M935.638 142.434c-11.82.021-23.677 2.114-34.843 6.062-16.406 5.865-34.864 8.244-48.688 19.5-12.309 16.827-15.608 37.962-21.187 57.594-5.979 14.199-3.676 29.684-4.344 44.625-1.921 10.577 2.41 21.798 12.094 26.938 8.32 5.414 19.486 5.204 26.968 11.75l.688.812.5 1.25c1.682 12.837-1.68 25.729-1.219 38.625 2.023 8.818 16.95 7.045 24.438 6.375 7.282-9.88 1.826-26.427 6.968-38.375 1.476 11.939.598 23.983 1.032 35.969 1.037 9.402 17.919 6.913 24.5 4.344 2.184-12.501 1.248-25.914 3.625-38.625 1.618 4.103 1.99 20.82 2.687 29.437-3.048 14.452 16.167 13.954 24.906 9.375 1.406-10.845-.318-22.683 0-33.875-.8-11.503 1.674.817 2.188 5.969 2.566 8.656-1.72 21.261 5.031 27.25 10.362 2.485 25.763-.079 21.656-14.063 1.208-12.062-4.322-28.245 6.75-36.75 9.023-3.435 18.868-4.647 27.688-8.812 10.945-2.98 12.911-15.003 14.687-24.531 3.793-17.767-.079-35.689-3.468-53.157-3.065-12.823-3.475-26.524-9.032-38.593-11.384-14.342-28.171-23.386-44.562-30.875-12.308-5.616-25.666-8.244-39.063-8.219zM910.17 199.84c3.583-.097 7.082.354 10.187 2.469 3.147 2.793 2.983 7.533 3.438 11.406.245 4.289.084 8.73-2 12.594-3.873 8.76-9.808 16.372-15.407 24.062-7.523 8.018-17.474 13.093-26.281 19.469-4.703 2.115-10.281 2.686-15.187 1.031-7.173-3.822-11.659-11.212-13.094-19.062-1.988-6.241-1.53-13.13 1.219-19.063 1.283-4.915 4.973-8.569 7.875-12.562 11.741-8.402 24.232-16.518 38.531-19.656 3.463.03 7.135-.591 10.719-.688zm44.75 0c4-.058 8.166.722 12.062.688 14.299 3.138 26.79 11.254 38.531 19.656 2.901 3.993 6.591 7.647 7.875 12.562 2.749 5.933 3.207 12.822 1.219 19.063-1.435 7.85-5.921 15.24-13.094 19.062-4.906 1.655-10.485 1.084-15.187-1.031-8.807-6.376-18.758-11.451-26.281-19.469-5.6-7.69-11.534-15.302-15.407-24.062-2.084-3.864-2.245-8.305-2-12.594.455-3.873.291-8.613 3.438-11.406 2.717-1.851 5.732-2.424 8.844-2.469zm-22.625 56.625c2.836-.026 5.283 2.09 6.906 4.313 7.101 8.166 14.613 15.983 21.344 24.468 1.534 3.951-.999 8.346-4.688 9.969-2.193 1.529-4.703.244-6.75-.875-5.495-2.922-10.366-7.231-16.469-8.875-2.296-.029-4.457 1.459-6.531 2.406-4.712 2.58-8.748 6.245-13.562 8.657-4.471.03-9.765-2.873-10-7.782-.035-1.061.192-2.134.562-3.125a257.63 257.63 0 0 1 22.406-24.625c1.777-1.547 2.975-3.982 5.532-4.375a5.84 5.84 0 0 1 1.25-.156zM823.1 322.346c-8.245.008-28.106 5.599-14.067 14.004 11.856 6.427 8.064 23.08-6.063 21.736-12.938-1.524-15.062 13.574-3.156 16.244 6.781 3.253 18.9 4.969 26.701-2.804 9.443-5.46 19.163 2.838 27.285 7.182 15.07 8.639 43.2 25.191 42.032 28.787 1.105 7.223-18.766 14.679-27.521 22.07-10.62 7.728-24.223 18.183-35.364 4.831-9.274-9.365-21.329 2.942-18.153 12.568.652 4.245 23.145 4.935 18.365 19.37-8.373 9.229-.631 29.095 12.625 19.711 8.989-5.11 21.908-12.092 16.452-24.638-3.938-12.535 13.355-15.615 20.755-21.745 11.867-6.465 30.572-17.224 35.913-17.548 5.064-.138 58.954 35.22 56.916 37.316-2.511 12.074 2.144 27.99 17.078 25.591 7.272-.084 17.712-4.036 10.062-12.466-7.621-10.438 3.22-18.812 13.08-13.133 8.38 1.927 20.21-6.503 9.88-13.598-7.99-12.812-21.72-1.865-32.196-.927-17.197-2.194-30-15.145-44.155-23.939-5.841-4.026-10.669-7.93-5.099-14.383 2.299-2.581 45.171-31.027 59.98-35.745 7.03-1.133 24.56 13.607 37.88 6.673 10.21-2.534 15.2-17.8 1.71-19.828-14.65-3.443-19.33-17.2-14.14-30.054.93-12.586-24.38-8.648-23.62-6.076-7.297 2.594 1.23 23.288-8.313 32.057-22.194 12.791-61.227 36.763-65.271 39.379-11.023 6.726-21.899 4.147-30.801-3.729-21.658-15.842-61.449-40.163-64.591-45.453-2.573-3.71 3.853-19.046-8.792-21.187-1.783-.395-3.601-.238-5.412-.266z" transform="matrix(.045167 0 0 .045167 -33.6708 -6.23326)" fill="#fff"/></svg>