<svg xmlns="http://www.w3.org/2000/svg" width="100%" height="100%" viewBox="0 0 110 135" fill-rule="nonzero" stroke-linejoin="round" stroke-miterlimit="2" xmlns:v="https://vecta.io/nano"><path d="M93.299 94.417c.11-2.6 3.706-4.935 3.709-2.732 7.583-9.302 4.73-19.189-.168-29.59-1.418-3.012-3.072-5.746-5.016-8.179-6.969-8.724-17.665-13.591-34.595-13.636-21.645.057-34.273 7.999-40.78 21.815-4.9 10.402-6.581 20.293 1 29.59.006-2.203 3.619.135 3.727 2.732.029.702.046 1.325.046 1.912v.087c-.01 1.354-.155 2.44-.778 3.253-.863 1.124-2.089 1.831-3.109 2.265l3.7 10.093c7.893-.715 13.793 4.608 14.06 4.852.332.309.519.723.519 1.156v10.589c1.164.344 3.463.888 7.323 1.331l3.658.342c2.411.181 5.248.315 8.575.355h4.137c3.328-.041 6.164-.174 8.574-.355l3.659-.342c3.851-.443 6.156-.987 7.323-1.331v-10.589a1.57 1.57 0 0 1 .521-1.156c.266-.244 6.182-5.574 14.058-4.852l3.7-10.093c-1.024-.434-2.25-1.14-3.109-2.265-.622-.813-.769-1.895-.778-3.253v-.087c0-.588.019-1.213.045-1.912z" fill="#201240" stroke="#201240" stroke-width="9.707"/><path d="M96.007 84.221c.813 2.709.997 5.261 1 7.463 7.583-9.301 4.73-19.188-.168-29.59-1.419-3.012-3.072-5.745-5.016-8.178-6.969-8.724-17.665-13.591-34.595-13.636-21.645.057-34.273 7.999-40.781 21.814-4.899 10.402-6.582 20.293 1 29.59.005-2.202.189-4.754 1.002-7.468 1.701-5.673 6.627-8.193 9.033-9.11v-5.522c0-.913.819-1.652 1.829-1.652s1.829.739 1.829 1.652v6.678c0 .744-.553 1.395-1.345 1.593-.242.063-6.137 1.628-7.815 7.227-1.052 3.503-.915 6.736-.806 9.334a48.94 48.94 0 0 1 .046 1.912v.087c-.01 1.354-.155 2.44-.777 3.254-.864 1.124-2.09 1.831-3.11 2.264l3.7 10.093c7.893-.715 13.792 4.608 14.059 4.851.333.309.52.723.52 1.157v10.589c1.163.342 3.462.888 7.323 1.33v-7.897c0-.912.818-1.652 1.829-1.652s1.828.74 1.828 1.652v8.239c2.411.182 5.247.314 8.575.355v-7.994c0-.914.82-1.653 1.83-1.653.082 0 .156.032.238.041.082-.009.151-.041.238-.041 1.01 0 1.829.739 1.829 1.653v7.994c3.33-.041 6.165-.173 8.575-.355v-8.239c0-.912.819-1.652 1.828-1.652s1.83.74 1.83 1.652v7.897c3.851-.442 6.156-.987 7.322-1.33v-10.589c0-.433.187-.847.521-1.157.265-.244 6.183-5.575 14.059-4.851l3.699-10.093c-1.025-.433-2.25-1.14-3.11-2.264-.621-.813-.768-1.895-.777-3.254v-.087c0-.587.019-1.213.046-1.912.11-2.601.247-5.836-.804-9.338-1.702-5.658-7.757-7.211-7.817-7.226-.796-.199-1.345-.851-1.345-1.594V69.58c0-.913.82-1.652 1.83-1.652s1.828.739 1.828 1.652v5.522c2.406.916 7.336 3.436 9.038 9.11l-.023.009zM36.429 105.65h-.188c-1.875 0-5.602-.073-8.236-2.444-1.789-1.611-2.694-3.936-2.694-6.909 0-9.135 6.842-13.294 13.203-13.294s13.77 2.763 13.77 10.556c0 9.548-9.97 12.092-15.861 12.092l.005-.001zm27.334 10.108c-.989.66-2.246 1.028-3.554 1.028-1.276 0-1.783-.359-2.98-1.128-1.199.769-1.7 1.128-2.98 1.128-1.312 0-2.566-.368-3.554-1.028-2.195-1.467-2.561-3.192-.896-5.26 2.08-2.58 5.619-7.806 6.447-8.139.324-.128 1.642-.128 1.962 0 .832.33 4.365 5.559 6.447 8.139 1.668 2.069 1.299 3.794-.897 5.26h.005zm25.387-19.461c0 2.973-.905 5.299-2.694 6.908-2.634 2.375-6.365 2.445-8.117 2.445h-.17c-6.027 0-15.998-2.548-15.998-12.092 0-7.79 7.419-10.556 13.771-10.556s13.203 4.159 13.203 13.294l.004.001z" fill="#e4e1db"/><path d="M35.124 23.589c.725-6.266 31.379-7.839 41.547-.434L76.54 68.86c0 2.139-2.417 5.579-7.304 5.5-3.542-.057-5.805-2.767-5.805-4.906v-9.438c-.104-.788-1.653-3.332-4.074-3.27-2.96.078-4.024 2.265-4.112 2.878l-.085 18.333c0 2.139-3.151 3.547-5.11 3.547s-5.536-1.853-5.536-3.993l-.151-20.626c-.024 3.177-9.708 5.155-9.511-5.976l.272-27.319z" fill="#201240"/><path d="M38.261 25.802c.72 3.313 25.502 7.601 34.584.02v40.939c0 1.91-1.433 3.477-3.182 3.477s-3.183-1.567-3.183-3.477V55.469c0-4.032-2.989-7.3-6.679-7.3s-6.68 3.268-6.68 7.3v18.572c0 1.91-1.435 3.477-3.183 3.477s-3.182-1.567-3.182-3.477V50.061c-.005-7.328-3.265-7.497-3.28.08-.009 4.62-5.12 4.498-5.116.516l-.098-24.856z" fill="#f8e499"/><path d="M64.457 8.299c.531.079.868.489.94.86.298.643.439 1.382.736 2.025 1.078 3.15 2.292 6.322 1.694 9.698-.435 2.449-2.041 4.601-4.346 6.05-2.611 1.641-5.992 2.215-9.317 1.719l-.4-.06c-5.164-.893-8.908-4.442-9.719-9.104-.963-6.123 2.54-8.949 5.472-11.618 2.252-1.935 4.333-3.66 5.134-6.647.062-.35.389-.661.83-.833s.971-.094 1.33.198c4.642 3.086 4.32 7.223 3.405 10.076 1.073-.676 2.148-1.352 2.978-2.186.314-.205.755-.378 1.264-.18z" fill="#ff2000" stroke="#201240" stroke-width="2.068"/><path d="M55.917 25.163c1.289-.069 2.463-.595 3.225-1.44.748-.956.813-2.193.171-3.239a15.99 15.99 0 0 0-2.1-2.322c-1.161-.951-2.044-2.109-2.576-3.378a4.08 4.08 0 0 1-.153-1.365c-2.118 1.484-3.551 3.533-4.062 5.816-.19.991-.69 3.623 1.095 4.994.476.339 1.032.59 1.63.732.653.117 1.313.193 1.977.228a7.76 7.76 0 0 0 .794-.026z" fill="#f7ee4f"/></svg>