<svg xmlns="http://www.w3.org/2000/svg" width="100%" height="100%" viewBox="0 0 128 160" fill-rule="evenodd" stroke-linejoin="round" stroke-miterlimit="2" xmlns:v="https://vecta.io/nano"><use href="#B" fill="none" stroke="#000100" stroke-width="6.978"/><g fill-rule="nonzero"><use href="#B" fill="#000100"/><path d="M117.638 77.936c1.117 3.778 1.37 7.338 1.376 10.408 10.425-12.972 6.501-26.759-.233-41.269-6.894-14.857-15.794-24.779-34.091-28.61-5.429-1.136-13.553-1.796-20.364-1.814-29.758.081-47.118 11.157-56.065 30.425C1.527 61.583-.786 75.379 9.637 88.344c.006-3.07.259-6.629 1.378-10.413 2.339-7.915 9.111-11.429 12.419-12.707v-7.701c0-1.273 1.125-2.303 2.514-2.303s2.516 1.031 2.516 2.303v9.315c0 1.036-.762 1.945-1.849 2.223-.334.086-8.439 2.27-10.744 10.08-1.447 4.884-1.26 9.394-1.108 13.017a70.06 70.06 0 0 1 .062 2.667v.122c-.013 1.889-.214 3.404-1.068 4.538-1.188 1.569-2.872 2.553-4.275 3.158l5.086 14.077c10.853-.997 18.963 6.427 19.327 6.766.46.433.717 1.008.717 1.614v14.769c1.598.478 4.759 1.239 10.066 1.855v-11.015c0-1.271 1.125-2.302 2.516-2.302s2.514 1.031 2.514 2.302V142.2c3.314.253 7.213.437 11.79.495v-11.15c0-1.274 1.126-2.305 2.516-2.305.113 0 .214.045.327.058.113-.013.207-.058.327-.058 1.389 0 2.516 1.031 2.516 2.305v11.15c4.577-.058 8.474-.242 11.788-.495v-11.493c0-1.271 1.125-2.302 2.514-2.302s2.516 1.031 2.516 2.302v11.015c5.294-.617 8.463-1.378 10.066-1.855v-14.769c0-.605.259-1.181.717-1.614.364-.339 8.501-7.774 19.327-6.766l5.086-14.077c-1.408-.605-3.092-1.589-4.275-3.158-.854-1.134-1.055-2.643-1.068-4.538v-.122c0-.817.026-1.692.062-2.667.152-3.627.34-8.138-1.106-13.022-2.337-7.891-10.663-10.057-10.744-10.08-1.094-.277-1.851-1.186-1.851-2.223v-9.315c0-1.273 1.128-2.303 2.518-2.303s2.514 1.031 2.514 2.303v7.701c3.308 1.278 10.085 4.792 12.424 12.705l-.032.013zm-81.907 29.889h-.257c-2.579 0-7.703-.103-11.324-3.409-2.459-2.247-3.704-5.49-3.704-9.637 0-12.741 9.407-18.542 18.152-18.542s18.931 3.855 18.931 14.724c0 13.316-13.707 16.866-21.805 16.866l.008-.002zm37.577 14.098c-1.357.92-3.086 1.434-4.885 1.434-1.753 0-2.45-.5-4.096-1.572-1.648 1.072-2.337 1.572-4.098 1.572-1.804 0-3.528-.514-4.885-1.434-3.017-2.047-3.522-4.451-1.233-7.338 2.861-3.599 7.725-10.886 8.865-11.352.445-.178 2.257-.178 2.698 0 1.143.459 6 7.754 8.863 11.352 2.292 2.886 1.785 5.291-1.233 7.338h.006zm34.904-27.143c0 4.146-1.245 7.39-3.704 9.635-3.621 3.312-8.75 3.411-11.159 3.411h-.233c-8.287 0-21.993-3.555-21.993-16.866 0-10.865 10.198-14.724 18.931-14.724s18.15 5.801 18.15 18.542l.008.002zM65.93 40.252c-2.416.133-4.928.161-7.487.53a5.52 5.52 0 0 0-2.489 1.31c-1.211.969-1.17 1.01-2.3 2.035-.58.521-1.263.931-2.02 1.211-.561.112-3.668.66-4.108.285-.199-.484.616-1.721.931-2.122 2.058-1.878 3.002-4.457 5.242-6.144.984-.617 2.133-.988 3.342-1.076 2.213-.259 4.468-.298 6.638-.422.143-.167.25-.358.314-.564.109-4.479 2.752-3.838 7.395-4.866 3.049-.682 3.317-.544 6.357-1.244 3.33-.74 3.665-1.269 2.713-4.389-.511-1.679-.749-2.879-.223-4.502.131-.403.079-.656.36-1.297.03-.071.282-1.164.554-1.156.03.002 2.959.5 3.543.622l.576.122c-.021-.006-.227.971-.244 1.035-.648 2.272-.415 3.621.293 5.945.903 3.018-1.958 6.462-5.204 7.347-2.801.765-2.844.684-5.803 1.19-6.013 1.246-4.969.077-3.578 5.745.357 1.454.368 5.981-.004 6.714-.657 1.303-3.404 1.848-3.974 2.204-.464.291-2.572 1.177-2.33.813.935-1.396 1.28-1.902 1.941-3.503.428-1.035.569-2.275.323-3.66a7.47 7.47 0 0 0-.757-2.163z" fill="#f7e9e7"/></g><defs ><path id="B" d="M113.915 92.156c.152-3.627 5.093-6.882 5.099-3.812 10.425-12.972 6.501-26.759-.233-41.269-6.894-14.857-15.794-24.779-34.091-28.61-5.429-1.136-13.553-1.796-20.364-1.814-29.758.081-47.118 11.157-56.065 30.425C1.527 61.583-.786 75.379 9.637 88.344c.006-3.07 4.973.189 5.125 3.812a70.06 70.06 0 0 1 .062 2.667v.122c-.013 1.889-.214 3.404-1.068 4.538-1.188 1.569-2.872 2.553-4.275 3.158l5.086 14.077c10.853-.997 18.963 6.427 19.327 6.766.46.433.717 1.008.717 1.614v14.769c1.598.478 4.759 1.239 10.066 1.855l5.029.478c3.314.253 7.213.437 11.79.495h5.685c4.577-.058 8.474-.242 11.788-.495l5.029-.478c5.294-.617 8.463-1.378 10.066-1.855v-14.769c0-.605.259-1.181.717-1.614.364-.339 8.501-7.774 19.327-6.766l5.086-14.077c-1.408-.605-3.092-1.589-4.275-3.158-.854-1.134-1.055-2.643-1.068-4.538v-.122c0-.817.026-1.692.062-2.667z"/></defs></svg>