<?xml version="1.0" encoding="UTF-8" standalone="no"?>
<!DOCTYPE svg PUBLIC "-//W3C//DTD SVG 1.1//EN" "http://www.w3.org/Graphics/SVG/1.1/DTD/svg11.dtd">
<svg width="100%" height="100%" viewBox="0 0 110 135" version="1.1" xmlns="http://www.w3.org/2000/svg" xmlns:xlink="http://www.w3.org/1999/xlink" xml:space="preserve" xmlns:serif="http://www.serif.com/" style="fill-rule:evenodd;clip-rule:evenodd;stroke-linejoin:round;stroke-miterlimit:2;">
    <g transform="matrix(2.12076,0,0,1.86484,-41.692,-32.488)">
        <rect x="29.906" y="30.783" width="6.443" height="8.597" style="fill:none;stroke:black;stroke-width:2.5px;"/>
        <rect x="29.906" y="30.783" width="6.443" height="8.597" style="fill:white;"/>
    </g>
    <g transform="matrix(1.0135,0,0,1.02674,-1.40968,-5.52813)">
        <path d="M36.314,38.645L33.562,38.608C32.353,38.538 31.404,37.489 31.404,36.223C31.404,34.948 32.353,33.901 33.562,33.83L36.322,33.821L36.314,29.656L22.738,29.607L22.738,45.268L36.327,45.273L36.314,38.645Z" style="fill:rgb(105,186,201);"/>
    </g>
    <g transform="matrix(0.960694,0,0,1.02674,1.6224,-1.42118)">
        <path d="M51.816,53.766C50.698,47.114 46.81,44.316 41.044,44.286L15.783,44.286C10.019,44.316 6.131,47.114 5.013,53.766L51.816,53.766Z" style="fill:none;stroke:rgb(0,1,0);stroke-width:6.03px;"/>
        <path d="M51.816,53.766C50.698,47.114 46.81,44.316 41.044,44.286L15.783,44.286C10.019,44.316 6.131,47.114 5.013,53.766L51.816,53.766Z" style="fill:rgb(211,212,214);"/>
    </g>
    <g transform="matrix(1.1507,0,0,1.12633,-9.13708,-12.6753)">
        <path d="M56.406,107.985L56.406,80.174L42.776,80.174L42.781,107.978L56.406,107.985Z" style="fill:none;stroke:rgb(0,1,0);stroke-width:5.27px;stroke-linejoin:miter;"/>
        <path d="M56.406,107.985L56.406,80.174L42.776,80.174L42.781,107.978L56.406,107.985Z" style="fill:rgb(135,95,250);"/>
    </g>
    <g transform="matrix(0.960694,0,0,1.02674,1.6224,-2.44792)">
        <path d="M53.072,57.708C54.88,57.714 56.338,59.196 56.348,61.024L56.348,75.676L39.358,75.676C38.174,75.676 37.214,76.648 37.214,77.855L37.214,108.784C37.214,109.984 38.174,110.964 39.358,110.964L56.342,110.964L56.342,127.59L56.342,127.584C56.336,129.416 54.874,130.894 53.07,130.904L4.705,130.904C2.902,130.894 1.439,129.416 1.434,127.584L1.434,61.024C1.44,59.196 2.902,57.714 4.705,57.708L53.072,57.708Z" style="fill:none;stroke:rgb(0,1,0);stroke-width:6.03px;"/>
        <path d="M53.072,57.708C54.88,57.714 56.338,59.196 56.348,61.024L56.348,75.676L39.358,75.676C38.174,75.676 37.214,76.648 37.214,77.855L37.214,108.784C37.214,109.984 38.174,110.964 39.358,110.964L56.342,110.964L56.342,127.59L56.342,127.584C56.336,129.416 54.874,130.894 53.07,130.904L4.705,130.904C2.902,130.894 1.439,129.416 1.434,127.584L1.434,61.024C1.44,59.196 2.902,57.714 4.705,57.708L53.072,57.708Z" style="fill:rgb(171,169,173);"/>
    </g>
    <g transform="matrix(1.0135,0,0,1.02674,-1.05401,0.632293)">
        <path d="M96.121,57.57C96.13,64.051 91.086,69.337 84.78,69.452C78.478,69.562 73.256,64.453 73.051,57.977C73.027,57.096 72.501,56.314 71.711,55.975C70.921,55.635 70.012,55.798 69.386,56.393C67.87,57.733 65.74,58.043 63.923,57.194C62.105,56.345 60.936,54.483 60.924,52.432L60.924,45.343C60.924,44.435 60.394,43.609 59.574,43.264L33.344,30.215L59.71,23.094L59.704,23.088C60.447,22.712 60.914,21.936 60.914,21.08L60.914,16.992C60.925,14.929 62.103,13.066 63.929,12.219C65.762,11.375 67.906,11.703 69.416,13.068C70.046,13.638 70.95,13.784 71.723,13.437C72.496,13.097 73.008,12.321 73.039,11.461C73.268,5.001 78.484,-0.082 84.768,0.026C91.053,0.137 96.097,5.4 96.109,11.866L96.109,19.163C96.095,19.179 96.081,19.196 96.067,19.212C94.431,19.338 92.651,19.907 91.709,20.249C88.065,21.852 85.173,24.928 83.925,28.773C83.901,28.785 83.876,28.797 83.852,28.808C83.208,28.434 82.533,28.101 81.831,27.815C79.649,27.083 73.3,25.302 73.255,29.102C73.365,30.233 74.397,31.036 75.551,30.932C81.175,30.422 86.181,34.412 86.71,39.825L86.714,39.825C86.986,42.459 91.153,42.088 90.91,39.444C90.642,36.427 89.328,33.713 87.324,31.567C87.314,31.533 87.305,31.499 87.295,31.463C88.144,26.46 92.575,22.88 97.524,23.365C97.728,23.385 97.929,23.372 98.12,23.329C98.185,23.334 98.25,23.337 98.316,23.336C101.272,23.301 104.122,24.482 106.224,26.623C108.329,28.759 109.509,31.67 109.509,34.715C109.509,37.754 108.329,40.665 106.224,42.806C104.122,44.941 101.272,46.125 98.316,46.087C97.106,46.087 96.121,47.101 96.121,48.345L96.121,57.57Z" style="fill:rgb(135,255,175);"/>
    </g>
</svg>
