<svg xmlns="http://www.w3.org/2000/svg" width="100%" height="100%" viewBox="0 0 24 30" fill-rule="evenodd" stroke-linejoin="round" stroke-miterlimit="2" xmlns:v="https://vecta.io/nano"><path d="M2.705 9.478v1.65H1.172v-1.65h1.533zm20.276-.039v1.649h-1.676V9.439h1.676z" fill="#a4d2ec"/><g fill-rule="nonzero"><path d="M22.855 13.497l-.646-1.429h.423a1.33 1.33 0 0 0 1.327-1.327v-.435a1.33 1.33 0 0 0-1.327-1.327h-.378c-.32 0-.572.252-.572.572s.252.572.572.572h.378a.18.18 0 0 1 .183.183v.435a.18.18 0 0 1-.183.183h-.801l-.819-3.358c-.561-1.808-2.197-3.009-4.084-3.009l-9.742.04a4.26 4.26 0 0 0-4.084 3.009l-.898 3.357h-.801a.18.18 0 0 1-.183-.183v-.435a.18.18 0 0 1 .183-.183h.378c.32 0 .572-.252.572-.572s-.252-.572-.572-.572h-.378a1.33 1.33 0 0 0-1.327 1.327v.435a1.33 1.33 0 0 0 1.327 1.327h.423l-.845 1.39a3.92 3.92 0 0 0-.961 2.574L0 20.028c0 .698.621 1.564 1.34 1.634l.021 1.355c0 .95.767 1.716 1.716 1.716l2.303-.013c.95 0 1.716-.767 1.716-1.716l-.021-1.113 9.6.021.021 1.113c0 .95.767 1.716 1.716 1.716l2.416.051c.95 0 1.716-.767 1.716-1.716l-.021-1.353c1.011-.078 1.273-.985 1.273-1.694l.019-3.957a3.92 3.92 0 0 0-.961-2.574z" fill="#000010"/><path d="M1.85 14.252l1.303-2.465.034-.103 1.024-3.734c.412-1.316 1.613-2.208 2.986-2.208l9.73-.04c1.384 0 2.586.881 2.986 2.208l.945 3.735s.011.069.034.103l1.104 2.504c.435.503.617 1.109.617 1.784-.109-.498-.845-.451-1.515-.454.32 0 .572-.252.572-.572s-.252-.572-.572-.572h-1.396a1.84 1.84 0 0 0-1.842 1.842l-.019 1.405a1.84 1.84 0 0 0 1.842 1.842l2.98.033v.481c0 .389-.32.709-.709.709h-5.881l-.019-2.332c0-.32-.252-.572-.572-.572H8.298c-.32 0-.572.252-.572.572l.019 2.332H1.865c-.389 0-.709-.32-.709-.709v-.481l3.032.013a1.84 1.84 0 0 0 1.842-1.842l.019-1.406a1.84 1.84 0 0 0-1.842-1.842H2.811c-.32 0-.572.252-.572.572s.252.572.572.572c-.759-.077-1.534.062-1.59.38.041-.914.194-1.239.641-1.754H1.85z" fill="gray"/></g><path d="M4.751 16.149l-.021 1.738c0 .293-.238.532-.532.532h-2.08c-.293 0-.955-.251-.955-.545l.019-1.538c-.017-.315.063-.777.162-1.258l.897.016s.002.013.002.024a.53.53 0 0 0 .509.473l1.466.026c.293 0 .532.239.532.532zm14.363-.045l-.019 1.737a.53.53 0 0 0 .532.532h2.08c.294 0 .904-.205.904-.499l.021-1.538c.017-.315-.063-.777-.162-1.258-.088.002-.743-.038-.845-.029 0 0-.002.011-.002.023a.53.53 0 0 1-.509.474l-1.466.026c-.293 0-.532.238-.532.532z" fill="#5f2121"/><path d="M17.931 6.974l1.323 4.654-14.375-.137 1.496-4.539 11.556.022z" fill="#a4d2ec"/><g fill-rule="nonzero"><path d="M8.878 20.738l-.019-1.76h6.041l.019 1.76H8.878z" fill="#57585a"/><path d="M5.951 22.993c0 .32-.252.572-.572.572l-2.303.013c-.32 0-.572-.252-.572-.572l-.021-1.114 3.447-.011.021 1.113zm15.448.072c0 .32-.252.572-.572.572l-2.416-.051c-.32 0-.572-.252-.572-.572l-.021-1.113 3.56.051.021 1.113z" fill="#222"/><path d="M4.903 12.095l14.228-.039c.32 0 .572-.252.572-.572s-.252-.572-.572-.572l-14.228.039c-.32 0-.572.252-.572.572s.252.572.572.572zm11.714 1.496H7.259c-.32 0-.572.252-.572.572s.252.572.572.572h9.358c.32 0 .572-.252.572-.572s-.252-.572-.572-.572zm1.199-6.986l-9.175.039c-.284 0-.513.23-.513.514a.51.51 0 0 0 .513.513l9.175-.039c.284 0 .513-.23.513-.514a.51.51 0 0 0-.513-.513zm-11.053.05h-.419c-.283 0-.513.229-.513.513s.23.514.513.514h.419c.283 0 .514-.23.514-.514s-.231-.513-.514-.513z" fill="#000100"/></g></svg>