<?xml version="1.0" encoding="UTF-8" standalone="no"?>
<!DOCTYPE svg PUBLIC "-//W3C//DTD SVG 1.1//EN" "http://www.w3.org/Graphics/SVG/1.1/DTD/svg11.dtd">
<svg width="100%" height="100%" viewBox="0 0 100 125" version="1.1" xmlns="http://www.w3.org/2000/svg" xmlns:xlink="http://www.w3.org/1999/xlink" xml:space="preserve" xmlns:serif="http://www.serif.com/" style="fill-rule:evenodd;clip-rule:evenodd;stroke-linejoin:round;stroke-miterlimit:2;">
    <g transform="matrix(0.79571,-0.605678,0.872039,1.14564,-52.0629,10.0897)">
        <g transform="matrix(1.27333,0,0,1.27333,-12.6804,-3.65047)">
            <path d="M55.2,49.915L58.915,49.915L58.915,51.415C58.915,61.615 58.915,78.097 58.815,88.297C58.815,89.097 58.415,90.097 57.815,90.697C56.642,91.987 51.249,98.487 49.3,100.497C48.8,99.997 48.4,99.697 48,99.297C45.3,96.397 43.385,93.597 40.785,90.597C40.385,90.097 39.985,89.497 39.985,88.897C39.885,78.097 39.985,61.015 39.985,50.315C39.985,50.215 40.085,50.115 40.085,49.915L43.2,49.915C43.2,50.415 43.3,50.915 43.3,51.515L43.3,85.297C43.3,86.197 43.7,87.197 44.3,87.897C45.8,89.797 47.5,91.497 49.4,93.497C51.4,91.297 53.3,89.297 55.1,87.197C55.4,86.897 55.3,86.197 55.3,85.697L55.3,52.015C55.2,51.315 55.2,50.715 55.2,49.915Z" style="fill:none;fill-rule:nonzero;stroke:black;stroke-width:3.8px;"/>
            <path d="M55.2,49.915L58.915,49.915L58.915,51.415C58.915,61.615 58.915,78.097 58.815,88.297C58.815,89.097 58.415,90.097 57.815,90.697C56.642,91.987 51.249,98.487 49.3,100.497C48.8,99.997 48.4,99.697 48,99.297C45.3,96.397 43.385,93.597 40.785,90.597C40.385,90.097 39.985,89.497 39.985,88.897C39.885,78.097 39.985,61.015 39.985,50.315C39.985,50.215 40.085,50.115 40.085,49.915L43.2,49.915C43.2,50.415 43.3,50.915 43.3,51.515L43.3,85.297C43.3,86.197 43.7,87.197 44.3,87.897C45.8,89.797 47.5,91.497 49.4,93.497C51.4,91.297 53.3,89.297 55.1,87.197C55.4,86.897 55.3,86.197 55.3,85.697L55.3,52.015C55.2,51.315 55.2,50.715 55.2,49.915Z" style="fill:rgb(219,219,219);fill-rule:nonzero;"/>
        </g>
        <g transform="matrix(1,0,0,0.961437,0,2.31447)">
            <path d="M57.864,60.679L58.295,108.465C56.378,111.783 52.497,115.666 50.233,117.767C47.512,114.874 42.706,110.027 42.462,107.944L42.051,60.583L57.864,60.679Z" style="fill:rgb(151,151,151);"/>
        </g>
        <g transform="matrix(1.27333,0,0,1.27333,-14.2251,-2.85812)">
            <path d="M50.777,88.582C48.877,87.382 47.2,85.297 47.2,83.497C47.3,75.097 47.2,60.315 47.2,51.915L47.2,49.37L50.9,49.37C50.9,49.87 51,50.915 51,51.515C51,60.415 51,74.655 50.9,83.555C50.9,84.555 50.9,87.114 50.777,88.582Z" style="fill:rgb(196,196,196);fill-rule:nonzero;"/>
        </g>
        <g transform="matrix(-1.27333,0,0,1.27333,115.119,-2.84607)">
            <path d="M50.777,88.582C48.877,87.382 47.2,85.297 47.2,83.497C47.3,75.097 47.2,60.315 47.2,51.915L47.2,49.37L50.9,49.37C50.9,49.87 51,50.915 51,51.515C51,60.415 51,74.655 50.9,83.555C50.9,84.555 50.9,87.114 50.777,88.582Z" style="fill:rgb(235,235,235);fill-rule:nonzero;"/>
        </g>
    </g>
    <g transform="matrix(0.743461,-0.565908,0.5347,0.702461,-30.6844,33.3601)">
        <g transform="matrix(1.4043,0,0,1.27658,-18.682,-5.62586)">
            <path d="M56.4,21.671C55.4,22.771 43.115,22.543 42.615,21.943C39.615,18.343 39.3,13.771 41.9,10.171C44.2,6.871 48.8,5.571 52.8,7.071C58.6,9.271 60.5,16.871 56.4,21.671Z" style="fill:none;fill-rule:nonzero;stroke:black;stroke-width:4.91px;"/>
            <path d="M56.4,21.671C55.4,22.771 43.115,22.543 42.615,21.943C39.615,18.343 39.3,13.771 41.9,10.171C44.2,6.871 48.8,5.571 52.8,7.071C58.6,9.271 60.5,16.871 56.4,21.671Z" style="fill:rgb(251,173,31);fill-rule:nonzero;"/>
        </g>
        <g transform="matrix(-0.456573,0.170599,-0.213078,-0.561033,100.07,49.4012)">
            <path d="M62.842,97.163C63.237,95.986 64.465,95.604 65.661,95.598C67.689,95.589 68.393,95.459 68.393,95.459C75.917,94.368 79.647,92.961 85.415,86.637C85.415,86.637 86.808,86.435 87.738,86.746C88.996,87.168 89.675,88.518 89.257,89.765C89.147,90.095 88.966,90.383 88.745,90.627L88.734,90.641C83.054,97.054 78.044,99.311 69.054,100.38C66.891,100.637 67.644,100.483 65.185,100.326C65.185,100.326 64.637,100.28 64.37,100.191L64.365,100.189C63.107,99.768 62.423,98.415 62.842,97.163Z" style="fill:rgb(255,236,115);fill-rule:nonzero;"/>
        </g>
    </g>
    <g transform="matrix(1.13097,-0.860871,0.573677,0.753668,-52.9781,41.8322)">
        <path d="M56.5,52.514C56.5,52.554 41.837,52.32 41.837,52.32C41.837,50.792 41.964,34.13 41.837,27.764C41.837,26.745 56.48,26.745 56.48,28.528C56.608,35.149 56.5,51.368 56.5,52.514Z" style="fill:none;fill-rule:nonzero;stroke:black;stroke-width:4.97px;"/>
        <path d="M56.5,52.514C56.5,52.554 41.837,52.32 41.837,52.32C41.837,50.792 41.964,34.13 41.837,27.764C41.837,26.745 56.48,26.745 56.48,28.528C56.608,35.149 56.5,51.368 56.5,52.514Z" style="fill:rgb(188,121,40);fill-rule:nonzero;"/>
        <g transform="matrix(0.703564,0,0,1.05578,13.8897,6.78881)">
            <path d="M58.13,27.621C57.949,26.173 58.311,24.726 57.406,24.244C54.872,23.038 44.92,21.708 42.024,20.623C40.938,22.793 41.662,23.999 44.377,24.844C46.368,25.447 55.415,26.656 58.13,27.621ZM43.615,38.798C43.619,38.804 43.714,38.873 43.855,38.9C45.684,39.25 58.112,41.194 58.112,41.19C58.074,40.527 58.002,38.716 57.406,38.398C56.711,38.068 55.46,37.728 53.949,37.387C49.947,36.482 44.126,35.565 42.024,34.777C41.648,37.027 43.51,38.659 43.615,38.798ZM43.615,31.798C43.619,31.804 43.714,31.873 43.855,31.9C45.684,32.25 58.015,34.549 58.015,34.545C57.978,33.882 58.002,31.716 57.406,31.398C56.711,31.068 55.016,30.474 53.505,30.133C49.503,29.228 44.126,28.565 42.024,27.777C41.648,30.027 43.51,31.659 43.615,31.798Z" style="fill:rgb(80,27,0);fill-rule:nonzero;"/>
        </g>
    </g>
    <g transform="matrix(0.79571,-0.605678,0.605678,0.79571,-37.6505,29.9665)">
        <path d="M78.304,52.275L78.304,64.366L22.272,64.366L22.272,52.275L78.304,52.275ZM19.933,49.728L29.642,58.297L19.933,66.866L10.225,58.297L19.933,49.728ZM80.483,49.713L90.192,58.282L80.483,66.851L70.775,58.282L80.483,49.713Z" style="fill:none;fill-rule:nonzero;stroke:black;stroke-width:6px;stroke-linecap:round;stroke-miterlimit:1.5;"/>
        <path d="M78.304,52.275L78.304,64.366L22.272,64.366L22.272,52.275L78.304,52.275ZM19.933,49.728L29.642,58.297L19.933,66.866L10.225,58.297L19.933,49.728ZM80.483,49.713L90.192,58.282L80.483,66.851L70.775,58.282L80.483,49.713Z" style="fill:rgb(251,173,31);fill-rule:nonzero;"/>
        <path d="M75.304,54.275L71.304,57.532L29.272,57.532L25.272,54.275L75.304,54.275ZM19.933,49.728L19.914,58.219L10.225,58.297L19.933,49.728Z" style="fill:rgb(255,236,115);"/>
        <g transform="matrix(-0.128199,0.991749,-0.991749,-0.128199,149.829,-15.0943)">
            <path d="M80.483,49.713L90.192,58.282L81.714,59.184L80.483,49.713Z" style="fill:rgb(184,141,12);"/>
        </g>
    </g>
</svg>
