<svg xmlns="http://www.w3.org/2000/svg" width="100%" height="100%" viewBox="0 0 110 135" fill-rule="nonzero" stroke-linejoin="round" stroke-miterlimit="2" xmlns:v="https://vecta.io/nano"><path d="M103.959 12.042v109.67a11.93 11.93 0 0 1-3.5 8.426c-2.171 2.171-5.155 3.511-8.431 3.511H11.935c-3.276 0-6.265-1.346-8.425-3.5a11.9 11.9 0 0 1-3.512-8.431V12.048c0-3.276 1.346-6.266 3.501-8.425C5.67 1.451 8.654.111 11.93.111h80.092a11.93 11.93 0 0 1 8.426 3.5c2.171 2.171 3.511 5.155 3.511 8.431z" fill="#030202"/><path d="M99.651 121.713V12.043c0-2.098-.859-4.004-2.239-5.389s-3.293-2.239-5.391-2.239H11.93c-2.099 0-4.006.859-5.391 2.239s-2.239 3.292-2.239 5.389v109.67c0 2.099.859 4.006 2.239 5.391s3.292 2.239 5.391 2.239h80.092c2.098 0 4.006-.859 5.391-2.239s2.239-3.292 2.239-5.391z" fill="#8d8d8d"/><path d="M48.399 125.579c-1.188 0-2.154-.964-2.154-2.154s.966-2.154 2.154-2.154h7.157c1.189 0 2.155.964 2.155 2.154s-.966 2.154-2.155 2.154h-7.157zM104.654 8.593a5.66 5.66 0 0 1 4.029 1.667 5.67 5.67 0 0 1 1.672 4.032c0 1.523-.595 2.955-1.672 4.034L94.728 32.281v79.492c0 3.145-2.556 5.699-5.701 5.699H14.925c-3.145 0-5.699-2.555-5.699-5.699V14.72c0-3.145 2.555-5.701 5.699-5.701h74.102c3.145 0 5.701 2.556 5.701 5.701v1.439l5.894-5.894a5.66 5.66 0 0 1 4.034-1.672h-.001z" fill="#030202"/><path d="M90.927 14.72a1.9 1.9 0 0 0-1.899-1.901H14.925a1.9 1.9 0 0 0-1.901 1.901v97.053a1.9 1.9 0 0 0 1.901 1.899h74.102a1.9 1.9 0 0 0 1.899-1.899V36.081L74.482 52.522a1.9 1.9 0 0 1-.704.446l-8.388 3.011c-.693.248-1.468.077-1.986-.446-.361-.361-.556-.85-.556-1.344 0-.214.038-.433.114-.642l3.012-8.388c.095-.261.247-.503.446-.703l24.505-24.497V14.72z" fill="#a4d2ec"/><path d="M61.781 58.957c-2.608 3.417-7.847 5.584-13.401 7.881-7.234 2.998-14.72 6.093-14.72 11.541 0 3.843 3.705 5.243 9.804 7.083 4.874 1.475 9.919 2.998 11.04 7.404 1.069 4.198-3.416 8.264-13.705 12.452-6.926 2.816-13.956 4.669-14.251 4.749-1.012.265-2.058-.327-2.329-1.322a1.89 1.89 0 0 1-.066-.48 1.87 1.87 0 0 1 1.411-1.802c.072-.018 7.082-1.867 13.775-4.59 9.048-3.679 11.837-6.662 11.472-8.091-.599-2.363-4.423-3.516-8.47-4.739-5.557-1.69-12.484-3.782-12.484-10.664 0-7.928 9.058-11.676 17.049-14.982 4.84-2.003 9.842-4.076 11.832-6.681a1.92 1.92 0 0 1 2.661-.373c.84.62 1.007 1.793.379 2.614h.001z" fill="#b12402"/><path d="M103.31 12.949L69.409 46.85l-1.505 4.194 4.194-1.505 33.901-33.901c.356-.361.556-.837.556-1.345a1.9 1.9 0 0 0-.556-1.344c-.361-.356-.837-.556-1.345-.556a1.9 1.9 0 0 0-1.344.556z" fill="#fefffe"/><path d="M28.661 43.067v9.95a1.14 1.14 0 0 0 1.132 1.144h23.164a1.14 1.14 0 0 0 1.132-1.144V29.599a1.14 1.14 0 0 0-1.132-1.144h-10.59c-.479-2.75-.875-6.789-5.275-9.381-2.185-1.286-4.584-2.328-7.298-2.328-3.51 0-6.688 1.439-8.991 3.763a12.88 12.88 0 0 0-3.722 9.091c0 2.887 1.073 5.467 2.542 7.704 2.762 4.209 6.449 4.757 9.038 5.763z" fill="#ffff63"/><g fill="#030202"><path d="M61.828 52.539a1 1 0 0 1-.602-1.274 1 1 0 0 1 1.274-.601c2.195.793 3.172 1.841 4.485 3.712a11.2 11.2 0 0 1 2.035 6.449c0 3.102-1.258 5.91-3.289 7.945s-4.84 3.289-7.946 3.289c-2.523 0-4.855-.836-6.734-2.246-1.918-1.441-2.931-2.642-3.809-4.93-.197-.512.152-1.082.68-1.234s1.041.166 1.234.679c.708 1.884 1.512 2.704 3.09 3.892 1.539 1.156 3.457 1.839 5.539 1.839 2.551 0 4.86-1.035 6.528-2.703a9.2 9.2 0 0 0 2.703-6.527c0-1.977-.617-3.805-1.668-5.301-1.086-1.543-1.727-2.337-3.524-2.985l.004-.004zm-15.231 7.286a11.2 11.2 0 0 1 3.247-6.945c1.812-1.813 4.238-3.008 6.945-3.246v-8.278H38.32v18.469h8.277zm10.189-8.18c-2.149.235-4.082 1.203-5.528 2.653a9.22 9.22 0 0 0-2.652 5.527h8.18v-8.18zM37.317 39.357h20.469a1 1 0 0 1 1 1v20.469c0 .55-.449 1-1 1H37.317c-.551 0-1-.45-1-1V40.357a1 1 0 0 1 1-1z" stroke="#000" stroke-width=".93" transform="matrix(0 -1.14411 -1.13165 0 98.6268 95.7121)"/><path d="M65.818 104.868c0 .807.776 1.467 1.728 1.467s1.728-.66 1.728-1.467V75.937c0-.807-.776-1.467-1.728-1.467s-1.728.66-1.728 1.467v28.932zm7.833 0c0 .807.776 1.467 1.728 1.467s1.728-.66 1.728-1.467V75.937c0-.807-.778-1.467-1.728-1.467s-1.728.66-1.728 1.467v28.932zm7.831 0c0 .807.776 1.467 1.728 1.467s1.728-.66 1.728-1.467V94.27c0-.808-.776-1.467-1.728-1.467s-1.728.658-1.728 1.467v10.599z"/></g></svg>