<svg xmlns="http://www.w3.org/2000/svg" width="100%" height="100%" viewBox="0 0 1024 1280" fill-rule="evenodd" stroke-linejoin="round" stroke-miterlimit="2" xmlns:v="https://vecta.io/nano"><g transform="matrix(.964322 .240405 -.253003 1.01485 141.008 -43.8231)"><g stroke-width="45.94" stroke="#201340"><path d="M1023.25 534.356l.03.662.02.883c.29 18.439-7.08 35.891-19.96 49.083L722.628 865.696l-86.636 86.529-22.41 22.41c-14.69 14.69-33.239 25.198-54.791 23.804-18.228-1.18-33.99-8.9-46.857-21.767L237.549 702.287c-9.65-9.65-19.837-18.764-25.412-31.524-12.009-27.556-5.361-57.043 15.762-78.166L330.19 490.306 442.346 378.15l170.7-170.7c10.937-10.937 22.517-20.801 38.171-24.447 13.403-3.216 27.45-1.608 41.067-.965l144.001 6.219 108.296 4.718c16.084.751 30.344 5.897 42.782 16.084 15.017 12.223 22.837 30.666 23.907 49.751.54 10.723-.43-10.723 0 0 1.22 27.097-119.567 108.313-118.39 135.364.989 22.723 93.638 68.167 94.619 90.88 1.281 31.303 34.371 18 35.751 49.302z" fill="#9f50e1" transform="matrix(.975177 -.221428 .221428 .975177 -275.226 152.569)"/><path d="M1023.25 534.356l.03.662.02.883c.29 18.439-7.08 35.891-19.96 49.083L722.628 865.696l-86.636 86.529-22.41 22.41c-14.69 14.69-33.239 25.198-54.791 23.804-18.228-1.18-33.99-8.9-46.857-21.767L237.549 702.287c-9.65-9.65-19.837-18.764-25.412-31.524-12.009-27.556-5.361-57.043 15.762-78.166L330.19 490.306 442.346 378.15l170.7-170.7c10.937-10.937 22.517-20.801 38.171-24.447 13.403-3.216 27.45-1.608 41.067-.965l144.001 6.219 108.296 4.718c16.084.751 30.344 5.897 42.782 16.084 15.017 12.223 22.837 30.666 23.907 49.751l1.4 32.275 6.54 149.362 4.04 93.909zM889.361 413.427c-27.128 27.127-71.089 27.127-98.324 0-27.128-27.128-27.128-71.197 0-98.324s71.089-27.128 98.324 0c27.128 27.127 27.128 71.196 0 98.324z" fill="#87ffaf" transform="matrix(.975177 -.221428 .221428 .975177 -110.869 124.769)"/></g><path d="M20.613 38.509h-.006c0-1.044.846-1.884 1.889-1.884a1.88 1.88 0 0 1 1.883 1.884v13.125c0 1.044-.845 1.884-1.883 1.884a1.89 1.89 0 0 1-1.889-1.884l.006-13.125zm-8.623 0h-.006c0-1.044.846-1.884 1.883-1.884 1.043 0 1.889.84 1.889 1.884v13.125c0 1.044-.846 1.884-1.889 1.884-1.037 0-1.883-.84-1.883-1.884l.006-13.125z" transform="matrix(10.7683 -15.8428 15.4382 9.47441 -273.589 439.758)" fill="#9050f9"/></g></svg>