<svg xmlns="http://www.w3.org/2000/svg" width="100%" height="100%" viewBox="0 0 100 125" fill-rule="evenodd" stroke-linejoin="round" stroke-miterlimit="2" xmlns:v="https://vecta.io/nano"><path d="M91.332 23.605v61.121c0 9.159-7.447 16.606-16.606 16.606H16.605c0 4.566 3.739 8.303 8.304 8.303h52.423c10.894.414 22.617-12.554 22.303-21.303V31.909c0-4.565-3.737-8.304-8.303-8.304zM0 11.261v70.866C0 88.12 3.738 93.03 8.303 93.03h66.423c4.565 0 8.304-4.91 8.304-10.903V22.622c-.093-7.392-3.274-11.616-9.33-11.746L0 11.261zm41.176 42.021L17.855 76.606 9.16 67.91l18.974-18.974L9.16 29.959l8.695-8.694 23.321 23.323a6.15 6.15 0 0 1 0 8.694zm30.296 22.983H41.266V63.966h30.206v12.299z" fill-rule="nonzero"/></svg>