<svg xmlns="http://www.w3.org/2000/svg" width="100%" height="100%" viewBox="0 0 20 25" fill-rule="evenodd" stroke-linejoin="round" stroke-miterlimit="2" xmlns:v="https://vecta.io/nano"><path d="M20.036 6.201v16.576c-.002 1.156-1.004 2.259-2.304 2.261l-15.382-.005c-1.306-.002-2.342-1-2.343-2.162V6.296c.001-1.155 1.027-2.15 2.323-2.16l1.452-.075a.7.7 0 0 1 .736.699v1.02c0 .175.198.275.396.275H15.1c.198 0 .395-.1.396-.276V4.759a.7.7 0 0 1 .69-.7l1.497-.019c1.315 0 2.35 1 2.352 2.161zm-.701.001c-.001-.801-.742-1.461-1.643-1.461l-1.497.019v1.02c-.001.535-.495.974-1.095.975H4.914c-.601-.001-1.095-.44-1.095-.975v-1.02l-1.468.076c-.901 0-1.643.66-1.644 1.461v16.574c.001.802.743 1.461 1.644 1.462l15.381.006c.901-.001 1.602-.76 1.603-1.562V6.202z" fill="#121212"/><path d="M19.335 6.202v16.574c-.001.802-.702 1.561-1.603 1.562l-15.381-.006c-.901-.001-1.643-.66-1.644-1.462V6.297c.001-.801.743-1.461 1.644-1.461l1.468-.076v1.02c0 .535.494.974 1.095.975h10.187c.6-.001 1.094-.44 1.095-.975v-1.02l1.497-.019c.901 0 1.642.66 1.643 1.461z" fill="#d99145"/><path d="M3.539 8.819H16.9v13.129H3.539z" fill="#fff" stroke="#818181" stroke-width="1.002"/><path d="M3.813 5.531v-1.1c.001-1.223 1.092-2.273 2.463-2.274h.32C7.134.924 8.462.058 9.979.058s2.844.866 3.383 2.099h.32c1.371.001 2.462 1.051 2.463 2.274v1.1l-.03.264-.085.241-.129.211-.163.177-.191.141-.213.104-.232.065-.245.022H5.101l-.245-.022-.232-.065-.214-.104-.19-.141-.164-.177-.128-.211-.085-.242-.03-.263zm.7 0c0 .288.265.525.588.525h9.756c.322 0 .588-.237.588-.525V4.432c-.001-.863-.797-1.574-1.764-1.575h-.822C12.58 1.64 11.37.758 9.979.758s-2.602.882-2.88 2.099h-.823c-.967.001-1.762.712-1.763 1.575v1.099zm6.873-2.949c.047.092.078.19.092.292a1.68 1.68 0 0 1 .03.292c-.005.405-.164.796-.443 1.09l-.229.184a1.19 1.19 0 0 1-.276.139c-.087.044-.179.074-.275.092-.102.016-.203.026-.306.031-.2-.003-.398-.044-.581-.123a1.58 1.58 0 0 1-.505-.323c-.279-.294-.438-.685-.443-1.091a1.58 1.58 0 0 1 .03-.291c.014-.102.045-.2.091-.292a1.17 1.17 0 0 1 .137-.277l.184-.231c.606-.576 1.568-.576 2.173 0a2.38 2.38 0 0 1 .183.231c.057.085.104.179.138.277zm-.662.228a.45.45 0 0 0-.054-.11c-.033-.047-.068-.092-.112-.141a.88.88 0 0 0-1.167.008c-.037.043-.073.089-.111.144-.02.031-.036.064-.048.099-.009.028-.021.055-.034.082a.27.27 0 0 0-.025.079l-.006.033a.97.97 0 0 0-.017.165c.006.22.091.43.243.596a.9.9 0 0 0 .264.164c.111.047.211.069.325.072l.19-.021c.025-.006.05-.015.074-.026s.056-.027.086-.037a.47.47 0 0 0 .096-.047l.157-.127a.92.92 0 0 0 .223-.58c-.002-.053-.008-.107-.017-.159l-.006-.033c-.003-.025-.011-.05-.023-.072-.015-.029-.027-.059-.038-.089z" fill="#121212"/><path d="M11.386 2.582c-.034-.098-.081-.192-.138-.277a2.38 2.38 0 0 0-.183-.231c-.605-.576-1.567-.576-2.173 0-.065.073-.126.151-.184.231a1.17 1.17 0 0 0-.137.277c-.046.092-.077.19-.091.292a1.58 1.58 0 0 0-.03.291c.005.406.164.797.443 1.091a1.58 1.58 0 0 0 .505.323c.183.079.381.12.581.123.103-.005.204-.015.306-.031.096-.018.188-.048.275-.092a1.19 1.19 0 0 0 .276-.139l.229-.184c.279-.294.438-.685.443-1.09a1.68 1.68 0 0 0-.03-.292c-.014-.102-.045-.2-.092-.292zM4.513 5.531V4.432c.001-.863.796-1.574 1.763-1.575h.823C7.377 1.64 8.588.758 9.979.758s2.601.882 2.88 2.099h.822c.967.001 1.763.712 1.764 1.575v1.099c0 .288-.266.525-.588.525H5.101c-.323 0-.588-.237-.588-.525z" fill="#ababaa"/><path d="M9.58 18.999a.69.69 0 0 1 .21.496c0 .378-.311.689-.689.689a.69.69 0 0 1-.496-.21l-.891-.891-.891.891a.69.69 0 0 1-.975-.975l.891-.891-.891-.891a.69.69 0 0 1 .975-.975l.891.891.891-.891a.69.69 0 0 1 .975.975l-.891.891.891.891zm4.66.36l-2.692-.018c-.418 0-.762-.344-.762-.762s.344-.762.762-.762l2.692.018c.418 0 .762.343.762.762s-.343.762-.762.762zm0-6.094l-2.692-.018c-.418 0-.762-.344-.762-.762s.344-.762.762-.762l2.692.018c.418 0 .762.344.762.762s-.343.762-.762.762zm-4.458-2.048v2.757a.69.69 0 0 1-.689.688H6.337a.69.69 0 0 1-.689-.688v-2.757a.69.69 0 0 1 .689-.688h2.757a.69.69 0 0 1 .689.688zm-2.757.69h1.379v1.378H7.026v-1.378z" fill="#121212"/></svg>