<?xml version="1.0" encoding="UTF-8" standalone="no"?>
<!DOCTYPE svg PUBLIC "-//W3C//DTD SVG 1.1//EN" "http://www.w3.org/Graphics/SVG/1.1/DTD/svg11.dtd">
<svg width="100%" height="100%" viewBox="0 0 110 135" version="1.1" xmlns="http://www.w3.org/2000/svg" xmlns:xlink="http://www.w3.org/1999/xlink" xml:space="preserve" xmlns:serif="http://www.serif.com/" style="fill-rule:evenodd;clip-rule:evenodd;stroke-linejoin:round;stroke-miterlimit:2;">
    <g>
        <g transform="matrix(0.945466,0,0,0.726746,3.82859,31.7966)">
            <path d="M110.452,-20.504L109.771,111.89L7.804,110.394L6.197,-19.323L110.452,-20.504Z" style="fill:rgb(232,224,208);"/>
        </g>
        <path d="M1.5,98.526L1.5,22.393C1.5,16.453 4.063,10.76 8.613,6.555C13.169,2.357 17.352,0 23.798,0L103.55,0C106.235,0 108.409,2.004 108.409,4.478L108.409,111.962C108.409,116.91 104.06,120.918 98.69,120.918L84.112,120.918L84.112,111.962L98.69,111.962L98.69,85.091L23.798,85.091C15.749,85.091 11.219,91.109 11.219,98.526C11.219,105.944 17.749,111.962 25.798,111.962L84.112,111.962L84.112,120.918L25.798,120.918C12.386,120.918 1.5,110.887 1.5,98.526Z" style="fill:rgb(105,186,201);"/>
        <path d="M1.5,98.526L1.5,22.393C1.5,16.453 4.063,10.76 8.613,6.555C13.169,2.357 17.352,0 23.798,0L103.55,0C106.235,0 108.409,2.004 108.409,4.478L108.409,111.962C108.409,116.91 104.06,120.918 98.69,120.918L84.112,120.918L84.112,111.962L98.69,111.962L98.69,85.091L23.798,85.091C15.749,85.091 11.219,91.109 11.219,98.526C11.219,105.944 17.749,111.962 25.798,111.962L84.112,111.962L84.112,120.918L25.798,120.918C12.386,120.918 1.5,110.887 1.5,98.526Z" style="fill:rgb(217,145,69);"/>
        <path d="M1.5,98.526L1.5,97.393C1.5,91.453 4.063,85.76 8.613,81.555C13.169,77.357 17.352,75 23.798,75L103.55,75C106.235,75 108.409,77.004 108.409,79.478L108.409,111.962C108.409,116.91 104.06,120.918 98.69,120.918L84.112,120.918L84.112,111.962L98.69,111.962L98.69,85.091L23.798,85.091C15.749,85.091 11.219,91.109 11.219,98.526C11.219,105.944 17.749,111.962 25.798,111.962L84.112,111.962L84.112,120.918L25.798,120.918C12.386,120.918 1.5,110.887 1.5,98.526Z" style="fill:rgb(230,187,133);"/>
        <g transform="matrix(1.32765,0,0,1,-29.7944,-1)">
            <path d="M90.931,103.27L46.564,103.27C43.278,103.27 41.228,101.998 40.208,99.163C40.305,95.701 41.844,94.676 50.377,94.676L90.849,94.676C90.858,96.495 90.947,101.986 90.931,103.27Z" style="fill:rgb(14,56,33);stroke:rgb(14,56,33);stroke-width:0.85px;"/>
        </g>
        <g transform="matrix(1.32765,0,0,1,-29.7944,-1)">
            <path d="M90.931,103.27L46.564,103.27C43.278,103.27 41.228,101.998 40.208,99.163C40.305,95.701 41.844,94.676 50.377,94.676L90.849,94.676C90.858,96.495 90.947,101.986 90.931,103.27Z" style="fill:rgb(157,39,30);"/>
        </g>
        <g transform="matrix(1.32765,0,0,1,-29.7944,-1)">
            <path d="M90.931,103.27L46.564,103.27C43.278,103.27 41.228,101.998 40.208,99.163C40.305,95.701 41.844,94.676 50.377,94.676L90.849,94.676C90.858,96.495 90.947,101.986 90.931,103.27Z" style="fill:white;stroke:white;stroke-width:0.85px;"/>
        </g>
        <g transform="matrix(1,0,0,1.02067,-2.1446,-5.60037)">
            <path d="M40.376,99.828C40.376,99.828 40.383,133.97 40.145,134.785L59.699,123.063L79.13,134.668C79.061,131.739 79.252,99.828 79.252,99.828L40.376,99.828Z" style="fill:rgb(255,0,0);stroke:rgb(157,39,30);stroke-width:6.07px;"/>
        </g>
    </g>
    <g transform="matrix(1,0,0,1,-1,0)">
        <path d="M21.797,8.957L21.797,76.134C16.331,76.134 14.283,77.802 10.219,80.618L10.219,22.392C10.219,18.826 11.756,15.412 14.489,12.893C17.223,10.373 17.928,8.957 21.797,8.957Z" style="fill:rgb(230,187,133);"/>
    </g>
    <g transform="matrix(0.652929,0,0,0.60173,28.0729,0.178377)">
        <g transform="matrix(1.36652,0,0,1.4828,-32.4551,-3.20338)">
            <path d="M82.595,57.803C82.671,56.011 85.149,54.402 85.151,55.92C90.377,49.509 88.411,42.695 85.035,35.526C84.058,33.45 82.918,31.566 81.578,29.889C76.775,23.876 69.403,20.522 57.735,20.491C42.817,20.53 34.114,26.004 29.629,35.526C26.252,42.695 25.093,49.512 30.318,55.92C30.322,54.402 32.812,56.013 32.887,57.803C32.907,58.287 32.919,58.716 32.919,59.121L32.919,59.181C32.912,60.114 32.812,60.863 32.383,61.423C31.788,62.198 30.943,62.685 30.24,62.984L32.79,69.94C38.23,69.447 42.296,73.116 42.48,73.284C42.709,73.497 42.838,73.782 42.838,74.081L42.838,81.379C43.64,81.616 45.225,81.991 47.885,82.296L50.406,82.532C52.068,82.657 54.023,82.749 56.316,82.777L59.167,82.777C61.461,82.749 63.415,82.657 65.076,82.532L67.598,82.296C70.252,81.991 71.841,81.616 72.645,81.379L72.645,74.081C72.645,73.782 72.773,73.497 73.004,73.284C73.187,73.116 77.265,69.442 82.693,69.94L85.243,62.984C84.537,62.685 83.692,62.198 83.1,61.423C82.671,60.863 82.57,60.117 82.564,59.181L82.564,59.121C82.564,58.716 82.577,58.285 82.595,57.803Z" style="fill:rgb(0,1,0);fill-rule:nonzero;stroke:rgb(0,1,0);stroke-width:7.49px;"/>
        </g>
        <g transform="matrix(0.989056,0,0,1,-0.957398,-0.147176)">
            <path d="M85.525,72.234C86.291,75.003 86.464,77.611 86.467,79.861C93.609,70.356 90.922,60.252 86.309,49.621C84.973,46.543 83.416,43.75 81.585,41.263C75.021,32.347 64.948,27.374 49.003,27.328C28.617,27.386 16.724,35.503 10.595,49.621C5.981,60.251 4.396,70.36 11.537,79.861C11.542,77.611 11.715,75.003 12.481,72.229C14.083,66.431 18.722,63.856 20.988,62.919L20.988,57.276C20.988,56.343 21.759,55.588 22.711,55.588C23.663,55.588 24.434,56.343 24.434,57.276L24.434,64.101C24.434,64.861 23.913,65.527 23.167,65.729C22.939,65.793 17.387,67.393 15.807,73.115C14.816,76.695 14.945,79.999 15.048,82.654C15.074,83.371 15.091,84.008 15.091,84.608L15.091,84.697C15.082,86.081 14.945,87.191 14.359,88.022C13.545,89.171 12.391,89.893 11.43,90.336L14.915,100.651C22.349,99.92 27.905,105.36 28.156,105.609C28.47,105.925 28.646,106.348 28.646,106.791L28.646,117.613C29.741,117.963 31.907,118.52 35.543,118.972L35.543,110.902C35.543,109.97 36.313,109.214 37.266,109.214C38.218,109.214 38.988,109.97 38.988,110.902L38.988,119.322C41.259,119.508 43.93,119.643 47.064,119.685L47.064,111.515C47.064,110.581 47.836,109.826 48.788,109.826C48.865,109.826 48.935,109.859 49.012,109.868C49.089,109.859 49.154,109.826 49.236,109.826C50.187,109.826 50.959,110.581 50.959,111.515L50.959,119.685C54.095,119.643 56.765,119.508 59.035,119.322L59.035,110.902C59.035,109.97 59.806,109.214 60.757,109.214C61.71,109.214 62.481,109.97 62.481,110.902L62.481,118.972C66.108,118.52 68.279,117.963 69.377,117.613L69.377,106.791C69.377,106.348 69.553,105.925 69.868,105.609C70.118,105.36 75.691,99.912 83.109,100.651L86.593,90.336C85.628,89.893 84.474,89.171 83.664,88.022C83.079,87.191 82.941,86.085 82.932,84.697L82.932,84.608C82.932,84.008 82.95,83.368 82.975,82.654C83.079,79.996 83.208,76.69 82.218,73.111C80.615,67.329 74.912,65.742 74.856,65.726C74.106,65.523 73.589,64.856 73.589,64.097L73.589,57.272C73.589,56.339 74.361,55.584 75.313,55.584C76.264,55.584 77.035,56.339 77.035,57.272L77.035,62.915C79.301,63.851 83.944,66.426 85.547,72.225L85.525,72.234ZM29.413,94.134L29.236,94.134C27.47,94.134 23.96,94.059 21.479,91.636C19.794,89.99 18.942,87.614 18.942,84.575C18.942,75.239 25.386,70.989 31.377,70.989C37.368,70.989 44.346,73.813 44.346,81.777C44.346,91.535 34.956,94.135 29.408,94.135L29.413,94.134ZM55.157,104.464C54.226,105.139 53.042,105.515 51.81,105.515C50.608,105.515 50.131,105.148 49.003,104.362C47.874,105.148 47.402,105.515 46.196,105.515C44.96,105.515 43.779,105.139 42.849,104.464C40.782,102.965 40.437,101.202 42.005,99.088C43.964,96.451 47.297,91.111 48.077,90.77C48.382,90.639 49.623,90.639 49.925,90.77C50.709,91.107 54.036,96.451 55.997,99.088C57.568,101.202 57.22,102.965 55.152,104.464L55.157,104.464ZM79.067,84.576C79.067,87.614 78.215,89.991 76.53,91.636C74.049,94.063 70.535,94.135 68.885,94.135L68.725,94.135C63.049,94.135 53.658,91.531 53.658,81.777C53.658,73.816 60.645,70.989 66.628,70.989C72.611,70.989 79.063,75.239 79.063,84.575L79.067,84.576Z" style="fill:rgb(247,233,199);fill-rule:nonzero;"/>
        </g>
        <g transform="matrix(1.22266,0,0,1.22266,-11.6194,-6.04528)">
            <path d="M33.645,22.738C34.215,18.005 56.753,16.817 64.75,22.41L64.647,53.912C64.647,55.528 62.746,58.126 58.902,58.066C56.116,58.023 54.336,55.976 54.336,54.36L54.336,47.231C54.254,46.636 53.036,44.714 51.132,44.761C48.804,44.82 47.967,46.472 47.898,46.935L47.831,60.783C47.831,62.399 45.353,63.462 43.812,63.462C42.272,63.462 39.458,62.062 39.458,60.446L39.339,44.866C39.32,47.266 33.276,48.76 33.431,40.352L33.645,22.738Z" style="fill:rgb(0,1,0);fill-rule:nonzero;"/>
            <path d="M39.322,45.791C38.297,47.581 35.129,47.598 33.902,44.64C33.385,43.392 33.256,42.086 33.255,40.74C33.255,40.572 33.257,40.573 33.644,22.737C33.614,34.815 33.578,40.949 33.654,41.798C34.212,48.087 38.943,46.883 39.06,44.857C39.083,44.469 39.62,44.472 39.627,44.863C39.869,58.477 39.416,58.52 39.895,60.645C40.093,61.522 42.379,63.525 44.973,62.777C46.09,62.454 47.332,61.696 47.33,60.774C47.327,59.652 47.297,46.912 47.333,46.741C47.865,44.211 52.586,42.568 54.659,46.34C54.692,46.401 54.955,46.879 54.958,47.164C54.972,48.169 54.944,53.779 54.941,54.354C54.931,56.447 58.168,58.398 61.518,57.093C63.478,56.33 64.251,54.74 64.272,53.973C64.702,38.193 64.698,38.197 64.75,22.41C64.701,37.311 64.734,37.306 64.994,52.204C64.997,52.393 65.028,54.21 64.95,54.574C63.985,59.042 56.121,60.335 54.046,55.735C53.871,55.347 53.735,54.868 53.73,54.366C53.725,53.801 53.729,53.804 53.719,47.297L53.737,47.295C53.718,47.289 53.701,47.271 53.684,47.226C53.599,47.007 52.734,45.355 51.05,45.426C49.393,45.495 48.689,46.503 48.507,46.955C48.498,46.978 48.489,46.994 48.48,47.005C48.331,60.663 48.516,60.709 48.179,61.57C47.6,63.049 44.285,65.298 40.665,62.857C39.656,62.175 39.129,61.391 39.055,60.649C39.04,60.502 39.048,60.499 39.322,45.791ZM34.921,21.071C34.225,21.543 33.769,22.096 33.644,22.737C33.666,22.627 33.683,21.894 34.921,21.071ZM34.921,21.071C36.414,20.058 39.015,19.415 41.835,19.054C38.036,19.555 36.008,20.348 34.921,21.071ZM43.593,18.867C43.003,18.918 42.414,18.98 41.835,19.054C42.044,19.026 42.259,19 42.479,18.974C42.716,18.946 43.095,18.907 43.593,18.867ZM43.593,18.867C45.209,18.727 46.838,18.671 48.319,18.683C59.173,18.772 63.599,21.659 64.75,22.41C58.261,18.177 47.425,18.556 43.593,18.867ZM53.789,47.289L53.934,47.274C53.87,47.262 53.824,47.279 53.789,47.289ZM48.315,46.982C48.292,46.975 48.265,46.971 48.235,46.973L48.315,46.982Z" style="fill:rgb(0,1,0);"/>
        </g>
        <g transform="matrix(1.0914,0,0,1.0914,-5.54807,-1.39678)">
            <path d="M34.893,23.086C35.527,25.889 55.602,29.518 63.604,23.103L63.604,54.36C63.604,55.976 62.341,57.302 60.8,57.302C59.259,57.302 57.995,55.976 57.995,54.36L57.995,44.805C57.995,41.393 55.361,38.628 52.11,38.628C48.858,38.628 46.224,41.393 46.224,44.805L46.224,60.52C46.224,62.136 44.96,63.462 43.419,63.462C41.879,63.462 40.615,62.136 40.615,60.52L40.615,40.229C40.611,34.028 37.738,33.885 37.725,40.297C37.717,44.206 34.976,44.103 34.979,40.734L34.893,23.086Z" style="fill:rgb(248,228,153);fill-rule:nonzero;"/>
        </g>
        <g transform="matrix(1.0914,0,0,1.08749,-5.2554,0.0162155)">
            <path d="M55.945,7.006C56.359,7.073 56.622,7.421 56.678,7.736C56.91,8.282 57.02,8.91 57.252,9.456C58.093,12.131 59.039,14.825 58.573,17.692C58.234,19.772 56.981,21.599 55.184,22.83C53.148,24.224 50.511,24.711 47.918,24.29L47.606,24.239C43.579,23.481 40.659,20.467 40.027,16.508C39.276,11.308 42.008,8.908 44.294,6.642C46.05,4.999 47.673,3.534 48.298,0.997C48.346,0.7 48.601,0.436 48.945,0.29C49.289,0.143 49.702,0.21 49.982,0.458C53.602,3.079 53.351,6.592 52.637,9.015C53.474,8.441 54.312,7.867 54.959,7.159C55.204,6.985 55.548,6.838 55.945,7.006Z" style="fill:rgb(255,32,0);fill-rule:nonzero;stroke:rgb(0,1,0);stroke-width:1.89px;"/>
        </g>
        <g transform="matrix(1.0914,0,0,1.08749,-5.2554,0.0162155)">
            <path d="M49.285,21.327C50.29,21.268 51.206,20.822 51.8,20.104C52.383,19.292 52.434,18.242 51.933,17.353C51.458,16.651 50.909,15.991 50.295,15.381C49.39,14.573 48.701,13.59 48.286,12.512C48.186,12.131 48.146,11.741 48.167,11.353C46.515,12.613 45.398,14.353 44.999,16.292C44.851,17.134 44.461,19.369 45.853,20.533C46.224,20.821 46.658,21.034 47.124,21.155C47.633,21.254 48.148,21.319 48.666,21.349C48.873,21.353 49.079,21.346 49.285,21.327Z" style="fill:rgb(247,238,79);fill-rule:nonzero;"/>
        </g>
    </g>
</svg>
