<?xml version="1.0" encoding="UTF-8" standalone="no"?>
<!DOCTYPE svg PUBLIC "-//W3C//DTD SVG 1.1//EN" "http://www.w3.org/Graphics/SVG/1.1/DTD/svg11.dtd">
<svg width="100%" height="100%" viewBox="0 0 110 135" version="1.1" xmlns="http://www.w3.org/2000/svg" xmlns:xlink="http://www.w3.org/1999/xlink" xml:space="preserve" xmlns:serif="http://www.serif.com/" style="fill-rule:evenodd;clip-rule:evenodd;stroke-linejoin:round;stroke-miterlimit:2;">
    <g transform="matrix(1.80229,0,0,1.8708,-2.70343,-0.543046)">
        <g>
            <g transform="matrix(0.554851,0,0,0.53453,1.5,0.290275)">
                <path d="M108.175,35.349C107.872,35.233 96.209,31.715 86.917,30.98C86.917,30.98 58.502,34.067 54.121,42.613C45.744,35.441 35.3,31.776 22.981,31.776C11.194,31.776 2.143,35.205 1.764,35.349C0.705,35.759 0,36.808 0,37.981L0,108.092C0,109.007 0.429,109.864 1.152,110.39C1.871,110.914 2.794,111.043 3.624,110.73C3.87,110.639 28.422,101.651 46.742,115.875C47.209,116.238 47.779,116.434 48.361,116.434L61.579,116.434C62.163,116.434 62.73,116.238 63.197,115.875C81.46,101.696 106.072,110.641 106.317,110.732C107.142,111.039 108.067,110.914 108.788,110.386C109.507,109.86 109.938,109.005 109.938,108.091L109.938,37.981C109.939,36.808 109.235,35.759 108.175,35.349Z" style="fill:rgb(217,145,69);fill-rule:nonzero;"/>
            </g>
            <g transform="matrix(0.51744,0,0,0.49849,3.55643,3.83367)">
                <path d="M108.175,25.349C107.872,25.233 101.209,22.715 91.917,21.98L91.917,5.017C91.917,3.466 90.707,2.211 89.213,2.211C71.444,2.211 58.502,24.067 54.121,32.613C45.744,25.441 35.3,21.776 22.981,21.776C11.194,21.776 2.143,25.205 1.764,25.349C0.705,25.759 0,26.808 0,27.981L0,97.092C0,98.007 0.429,98.864 1.152,99.39C1.871,99.914 2.794,100.043 3.624,99.73C3.87,99.639 28.422,90.651 46.742,104.875C47.209,105.238 47.779,105.434 48.361,105.434L61.579,105.434C62.163,105.434 62.73,105.238 63.197,104.875C81.46,90.696 106.072,99.641 106.317,99.732C107.142,100.039 108.067,99.914 108.788,99.386C109.507,98.86 109.938,98.005 109.938,97.091L109.938,27.981C109.939,26.808 109.235,25.759 108.175,25.349Z" style="fill:rgb(0,0,16);fill-rule:nonzero;"/>
            </g>
            <g transform="matrix(0.51744,0,0,0.49849,3.55643,3.83367)">
                <path d="M104.533,30.026L104.533,93.349C96.895,91.489 78.23,88.309 61.011,96.011C66.198,87.031 76.579,72.418 89.213,72.418C90.707,72.418 91.917,71.163 91.917,69.612L91.917,27.609C97.565,28.101 102.157,29.298 104.533,30.026Z" style="fill:rgb(232,224,208);fill-rule:nonzero;"/>
            </g>
            <g transform="matrix(0.51744,0,0,0.49849,3.55643,3.83367)">
                <path d="M86.51,8.046L86.51,66.976C73.531,68.598 63.392,81.55 57.673,90.89L57.673,37.749C59.45,33.966 71.023,10.575 86.51,8.046Z" style="fill:rgb(232,224,208);fill-rule:nonzero;"/>
            </g>
            <g transform="matrix(0.51744,0,0,0.49849,3.55643,3.83367)">
                <path d="M5.407,30.026C8.447,29.096 15.101,27.388 22.981,27.388C34.784,27.388 44.63,31.066 52.266,38.323L52.266,97.646C44.246,93.315 34.84,91.124 24.226,91.124C16.145,91.124 9.316,92.415 5.407,93.358L5.407,30.026Z" style="fill:rgb(232,224,208);fill-rule:nonzero;"/>
            </g>
            <g transform="matrix(0.554851,0,0,0.53453,1.5,0.290275)">
                <path d="M60.696,110.822L49.244,110.822C32.989,98.757 12.398,102.177 4.407,104.328L4.407,99.141C7.646,98.293 15.745,96.737 24.226,96.737C35.674,96.737 45.52,99.477 53.49,104.882C53.521,104.903 53.557,104.91 53.587,104.929C53.733,105.019 53.887,105.088 54.045,105.148C54.117,105.176 54.186,105.211 54.258,105.232C54.485,105.298 54.717,105.335 54.955,105.337C54.959,105.337 54.964,105.339 54.97,105.339L54.972,105.339C54.977,105.339 54.982,105.337 54.988,105.337C55.22,105.335 55.451,105.298 55.678,105.234C55.754,105.213 55.824,105.174 55.898,105.146C56.017,105.101 56.141,105.066 56.255,105.002C56.291,104.981 56.316,104.951 56.35,104.929C56.381,104.91 56.415,104.903 56.446,104.884C74.481,92.649 98.817,97.405 105.531,99.144L105.531,104.328C97.541,102.177 76.949,98.757 60.696,110.822Z" style="fill:white;fill-rule:nonzero;"/>
            </g>
            <g transform="matrix(0.493692,0,0,0.315319,4.02874,14.8026)">
                <path d="M36.723,11.153L36.622,59.594L19.631,59.594L19.631,8.373C25.521,8.458 30.634,8.506 36.723,11.153Z" style="fill:rgb(255,0,0);"/>
            </g>
            <g transform="matrix(0.627854,0,0,0.60486,-2.70624,7.59646)">
                <path d="M25,14.51L25,45.832C25,46.633 25.457,47.363 26.18,47.711C26.902,48.059 27.758,47.961 28.383,47.461L32.289,44.336L36.195,47.461L36.199,47.461C36.824,47.961 37.68,48.059 38.402,47.711C39.125,47.363 39.582,46.633 39.582,45.832L39.582,29.168C39.582,28.016 38.652,27.082 37.5,27.082C36.348,27.082 35.418,28.016 35.418,29.168L35.418,41.5L33.594,40.043L33.594,40.039C32.832,39.434 31.75,39.434 30.992,40.039L29.168,41.5L29.168,14.51L25,14.51Z" style="fill:rgb(0,0,16);fill-rule:nonzero;"/>
            </g>
            <g transform="matrix(0.627854,0,0,0.60486,-2.78465,7.27162)">
                <path d="M39.582,22.918C39.582,25.695 35.418,25.695 35.418,22.918C35.418,20.141 39.582,20.141 39.582,22.918" style="fill:rgb(0,0,16);fill-rule:nonzero;"/>
            </g>
        </g>
    </g>
</svg>
