<?xml version="1.0" encoding="UTF-8" standalone="no"?>
<!DOCTYPE svg PUBLIC "-//W3C//DTD SVG 1.1//EN" "http://www.w3.org/Graphics/SVG/1.1/DTD/svg11.dtd">
<svg width="100%" height="100%" viewBox="0 0 110 135" version="1.1" xmlns="http://www.w3.org/2000/svg" xmlns:xlink="http://www.w3.org/1999/xlink" xml:space="preserve" xmlns:serif="http://www.serif.com/" style="fill-rule:evenodd;clip-rule:evenodd;stroke-linejoin:round;stroke-miterlimit:2;">
    <g>
        <g transform="matrix(0.945466,0,0,0.726746,3.82859,31.7966)">
            <path d="M110.452,-20.504L109.771,111.89L7.804,110.394L6.197,-19.323L110.452,-20.504Z" style="fill:rgb(232,224,208);"/>
        </g>
        <path d="M1.5,98.526L1.5,22.393C1.5,16.453 4.063,10.76 8.613,6.555C13.169,2.357 17.352,0 23.798,0L103.55,0C106.235,0 108.409,2.004 108.409,4.478L108.409,111.962C108.409,116.91 104.06,120.918 98.69,120.918L84.112,120.918L84.112,111.962L98.69,111.962L98.69,85.091L23.798,85.091C15.749,85.091 11.219,91.109 11.219,98.526C11.219,105.944 17.749,111.962 25.798,111.962L84.112,111.962L84.112,120.918L25.798,120.918C12.386,120.918 1.5,110.887 1.5,98.526Z" style="fill:rgb(105,186,201);"/>
        <path d="M1.5,98.526L1.5,22.393C1.5,16.453 4.063,10.76 8.613,6.555C13.169,2.357 17.352,0 23.798,0L103.55,0C106.235,0 108.409,2.004 108.409,4.478L108.409,111.962C108.409,116.91 104.06,120.918 98.69,120.918L84.112,120.918L84.112,111.962L98.69,111.962L98.69,85.091L23.798,85.091C15.749,85.091 11.219,91.109 11.219,98.526C11.219,105.944 17.749,111.962 25.798,111.962L84.112,111.962L84.112,120.918L25.798,120.918C12.386,120.918 1.5,110.887 1.5,98.526Z" style="fill:rgb(217,145,69);"/>
        <path d="M1.5,98.526L1.5,97.393C1.5,91.453 4.063,85.76 8.613,81.555C13.169,77.357 17.352,75 23.798,75L103.55,75C106.235,75 108.409,77.004 108.409,79.478L108.409,111.962C108.409,116.91 104.06,120.918 98.69,120.918L84.112,120.918L84.112,111.962L98.69,111.962L98.69,85.091L23.798,85.091C15.749,85.091 11.219,91.109 11.219,98.526C11.219,105.944 17.749,111.962 25.798,111.962L84.112,111.962L84.112,120.918L25.798,120.918C12.386,120.918 1.5,110.887 1.5,98.526Z" style="fill:rgb(230,187,133);"/>
        <g transform="matrix(1.32765,0,0,1,-29.7944,-1)">
            <path d="M90.931,103.27L46.564,103.27C43.278,103.27 41.228,101.998 40.208,99.163C40.305,95.701 41.844,94.676 50.377,94.676L90.849,94.676C90.858,96.495 90.947,101.986 90.931,103.27Z" style="fill:rgb(14,56,33);stroke:rgb(14,56,33);stroke-width:0.85px;"/>
        </g>
        <g transform="matrix(1.32765,0,0,1,-29.7944,-1)">
            <path d="M90.931,103.27L46.564,103.27C43.278,103.27 41.228,101.998 40.208,99.163C40.305,95.701 41.844,94.676 50.377,94.676L90.849,94.676C90.858,96.495 90.947,101.986 90.931,103.27Z" style="fill:rgb(157,39,30);"/>
        </g>
        <g transform="matrix(1.32765,0,0,1,-29.7944,-1)">
            <path d="M90.931,103.27L46.564,103.27C43.278,103.27 41.228,101.998 40.208,99.163C40.305,95.701 41.844,94.676 50.377,94.676L90.849,94.676C90.858,96.495 90.947,101.986 90.931,103.27Z" style="fill:white;stroke:white;stroke-width:0.85px;"/>
        </g>
        <g transform="matrix(1,0,0,1.02067,-2.1446,-5.60037)">
            <path d="M40.376,99.828C40.376,99.828 40.383,133.97 40.145,134.785L59.699,123.063L79.13,134.668C79.061,131.739 79.252,99.828 79.252,99.828L40.376,99.828Z" style="fill:rgb(255,0,0);stroke:rgb(157,39,30);stroke-width:6.07px;"/>
        </g>
    </g>
    <g transform="matrix(1,0,0,1,-1,0)">
        <path d="M21.797,8.957L21.797,76.134C16.331,76.134 14.283,77.802 10.219,80.618L10.219,22.392C10.219,18.826 11.756,15.412 14.489,12.893C17.223,10.373 17.928,8.957 21.797,8.957Z" style="fill:rgb(230,187,133);"/>
    </g>
    <g transform="matrix(0.761667,0,0,0.799139,13.1368,2.22198)">
        <path d="M42.21,12.33C44.32,10.835 47.291,9.736 49.475,11.646L53.208,14.666C50.317,16.04 47.736,17.825 45.289,19.983C42.854,22.161 40.793,24.547 39.096,27.242C37.556,24.706 34.332,21.555 36.345,18.394C36.817,17.595 42.133,12.453 42.21,12.33Z" style="fill:none;stroke:rgb(0,0,16);stroke-width:9.85px;"/>
        <path d="M42.21,12.33C44.32,10.835 47.291,9.736 49.475,11.646L53.208,14.666C50.317,16.04 47.736,17.825 45.289,19.983C42.854,22.161 40.793,24.547 39.096,27.242C37.556,24.706 34.332,21.555 36.345,18.394C36.817,17.595 42.133,12.453 42.21,12.33Z" style="fill:rgb(32,19,64);"/>
        <g transform="matrix(1.25975,0.400764,-0.400764,1.25975,3.82765,-24.0458)">
            <path d="M29.997,59.469L23.479,55.252L16.323,56.186C15.977,56.2 15.627,56.031 15.411,55.751C15.195,55.469 15.147,55.12 15.292,54.844L18.881,49.269L16.843,42.355L16.84,42.35C16.778,42.032 16.906,41.727 17.175,41.565C17.444,41.403 17.811,41.409 18.124,41.577L24.667,45.779L31.819,44.887L31.821,44.891C32.164,44.874 32.515,45.042 32.731,45.322C32.947,45.604 32.994,45.954 32.853,46.233L29.269,51.766L31.281,58.696C31.343,59.015 31.215,59.319 30.945,59.482C30.676,59.644 30.309,59.637 29.997,59.469Z" style="fill:rgb(255,6,2);"/>
        </g>
        <g transform="matrix(1,0,0,1,-2.27055,-2.37985)">
            <path d="M37.867,15.989C35.615,12.899 31.189,11.899 28.213,14.602C25.664,16.875 25.461,20.783 27.761,23.311C31.476,27.4 31.957,33.472 28.924,38.068C28.661,38.409 27.616,40.188 27.244,40.446C26.312,41.274 24.9,41.417 23.8,40.704C22.49,39.855 22.121,38.114 22.975,36.817L24.178,34.991L24.186,34.991C25.814,32.521 25.557,29.261 23.56,27.063C19.168,22.229 19.556,14.768 24.423,10.427C29.709,5.664 37.62,6.437 41.851,12.033C41.866,12.022 37.959,15.854 37.867,15.989Z" style="fill:rgb(239,239,186);"/>
        </g>
        <path d="M91.72,27.155C103.189,39.897 102.151,59.624 89.409,71.093C57.587,97.441 18.235,53.694 47.782,24.843C60.525,13.376 80.235,14.393 91.72,27.155Z" style="fill:none;stroke:rgb(0,0,16);stroke-width:12.08px;stroke-linecap:round;"/>
        <path d="M91.72,27.155C103.189,39.897 102.151,59.624 89.409,71.093C57.587,97.441 18.235,53.694 47.782,24.843C60.525,13.376 80.235,14.393 91.72,27.155Z" style="fill:rgb(32,19,64);"/>
        <path d="M60.399,64.388C64.174,65.233 62.929,70.988 59.134,70.181C51.564,68.599 45.885,62.717 43.801,55.449C43.11,52.272 41.602,43.089 47.125,43.697C48.748,44.051 49.737,45.634 49.389,47.226C47.694,54.992 52.634,62.688 60.4,64.383L60.399,64.388Z" style="fill:rgb(226,226,226);"/>
    </g>
</svg>
