<svg xmlns="http://www.w3.org/2000/svg" width="100%" height="100%" viewBox="0 0 110 135" fill-rule="nonzero" stroke-linejoin="round" stroke-miterlimit="2" stroke="#000" stroke-width=".05" xmlns:v="https://vecta.io/nano"><path d="M105.74 100.286L72.166 68.782 55.797 86.126l32.483 30.515c4.821 4.498 12.634 4.498 17.456 0 4.793-4.525 4.793-11.857.005-16.355h-.001z" fill="#d99145"/><path d="M96.955 115.192c-.386.362-.883.543-1.385.543a1.98 1.98 0 0 1-1.344-.543L62.448 85.497a1.73 1.73 0 0 1 0-2.527c.77-.725 1.963-.725 2.729 0l31.778 29.662c.73.723.73 1.875 0 2.561v-.001zm6.926-6.5a1.99 1.99 0 0 1-1.345.544c-.502 0-1-.181-1.384-.544L69.414 78.998c-.772-.686-.772-1.843 0-2.561.73-.686 1.962-.686 2.693 0l31.778 29.7a1.77 1.77 0 0 1-.004 2.557v-.002z" fill="#201340"/><path d="M25.123 27.626c1.026-.961.808-2.567-.434-3.3l-12.167-6.977a3.96 3.96 0 0 0-4.666.524l-6.322 5.963a3.41 3.41 0 0 0-.53 4.41L8.44 39.664a2.37 2.37 0 0 0 3.516.381l1.309-1.224 26.767 26.194 11.106-9.383-27.324-26.776 1.309-1.23z" fill="#9badad"/><path d="M108.514 36.199c-.52-2.009-3.181-2.719-4.741-1.255L92.15 45.851c-1.153 1.084-3.011 1.084-4.164 0l-8.664-8.131c-1.145-1.073-1.153-2.825 0-3.907L90.94 22.909c1.546-1.451.827-3.957-1.3-4.427-8.357-1.885-17.536.23-24.054 6.348-7.79 7.31-9.492 18.156-5.138 27.015L5.168 97.868c-5.724 4.755-5.989 13.059-.581 18.134 5.208 4.888 13.632 4.827 18.775 0 .184-.173.373-.35.548-.546l49.04-51.884c8.635 3.726 19.11 2.702 26.72-3.092 8.087-6.134 11.037-15.668 8.843-24.283l.001.002zm-97.498 73.77c-1.701-1.597-1.701-4.192 0-5.788 1.711-1.606 4.466-1.597 6.169 0a3.91 3.91 0 0 1 0 5.788c-1.703 1.598-4.468 1.598-6.169 0z" fill="#bfc1c3"/><path d="M113.412 119.14a1.99 1.99 0 0 1-1.345.544c-.502 0-1-.181-1.384-.544L69.414 78.998c-.772-.686-.772-1.843 0-2.561.73-.686 1.962-.686 2.693 0l41.309 40.148a1.77 1.77 0 0 1-.004 2.557v-.002z" fill="#e3e3e3" transform="matrix(-.99895 -.045807 -.045807 .99895 134.861 -16.8915)"/></svg>