<svg xmlns="http://www.w3.org/2000/svg" width="100%" height="100%" viewBox="0 0 16 16" fill-rule="evenodd" stroke-linejoin="round" stroke-miterlimit="2" xmlns:v="https://vecta.io/nano"><g transform="matrix(.999999 0 0 1 -.000029 -.000016)"><path d="M15.995 4.207c-.195-.054-1.133-.297-1.332-.475-.098 1.083.507 1.568 1.085 2.495.062.099.076 3.224.122 3.307-.192 3.327-.394 2.964.131 5.797 0 .21-.253.493-.45.493l-1.508-.242c-.152 0-.286-.102-.338-.252 0-.001-.491-.726-.491-.726-.007-.017-.022-.028-.04-.028s-.034.011-.041.028l-.426.996a.36.36 0 0 1-.297.222v.001l-1.031.018C11.38 15.834 5.045.038 5.045.111h5.026c.152 0 .286.101.338.252l.414.968c.007.017.022.028.04.028s.034-.011.041-.028l.426-.996a.36.36 0 0 1 .297-.222V.111h3.924c.197 0 .358.171.358.382l.086 3.714zM.077 7.737C.445 4.363-.202.678.201.509.794.225 1.387.085 1.98.11c.152 0 .286.101.338.252l.414.968c.007.017.022.028.04.028s.034-.011.041-.028l.426-.996a.36.36 0 0 1 .297-.222V.11l1.509.001c-.001-.077 6.312 15.673 6.334 15.729-.02-.026-5.03.173-5.03.173-.343-.13-1.223-1.406-1.226-1.41-.01-.015-.022-.028-.04-.028s-.034.011-.041.028l-.426.996a.36.36 0 0 1-.297.222v.002H.396c-.198 0-.359-.172-.359-.382l.064-5.017.058-.027C1.458 9.79 1.233 9.18 1.258 8.538c-.217.122-.387.215-.533.289-.026-.659-.227-.641-.269-.755-.105-.287-.214-.01-.379-.335z" fill="#e47728"/><path d="M15.964 5.486c.028 1.606.073 3.836-.165 4.725-.565 2.112-.219 3.327-.433 3.568-.139.156-.767.541-1.507.93-.213-.254-.452-.588-.901-1.266-.037.67-.326 1.518-.509 1.936-.355.148-.672.258-.959.332-.703.18-1.083.099-3.101-.642L6.6 14.437c-.108-.027-.202-.068-.222-.109-.067-.132-.11-1.077-.32-2.432a5.11 5.11 0 0 0-.456-1.233c-.013.026-.367 1.314-.44 1.942s.078 1.261.051 1.369c-.079.332-.106.361-.553.459l-1.545.414-2.391.575-.236.007-.06-.127c-.138-.289-.24-.994-.302-1.973.48-.867.809-1.271 1.318-2.901l-.723.243c.237-.425.37-1.015.523-1.96l-.635.278c.026-.134.031-.291.014-.479-.025-.255-.285-.541-.321-.581L.175 6.622c.161-2.808.402-4.437.688-4.706.2-.193 1.891-.975 3.008-1.388C4.766.193 5.148.107 5.521.14c.582.053 1.343.253 2.841.741l1.268.388c.395.101.455.134.556.24.221.248.395.888.575 2.146.12.794.12.828.173.828.06 0 .109-.32.2-1.304l.209-1.61c.039-.113.06-.134.2-.161.455-.086 1.008-.24 2.057-.587 1.612-.522 1.679-.534 1.785-.315.139.285.261 1.381.364 3.244l-.148-.048c-.658-.131-.974-.355-.892-.277.742.712 1.247 1.625 1.255 2.061zm-1.413 5.856c-2.204-2.314-5.454-4.06-6.764-5.418.937 5.898 3.72 6.788 3.815 7.165.138-1.618.064-1.323.364-2.118.279-.738 1.568.058 2.585.371zM6.418 2.871c-1.021 1.021-3.714 1.316-2.693.295-1.458.585-.61 2.199-2.182 2.309-.293 1.062-.184 2.83-.124 3.01.154-1.59 5.395-3.998 4.999-5.614z" fill="#d99145"/><path d="M13.807 6.139c.063-.202.386-.514.494-.608.117-.101.551-.376.488-.288-.162.229-.456.73-.537 1.025l.42-.298c.021.006.042.008.061.009l-.054.249-.07.236c-.141.068-.304.161-.461.308l.398-.123-.095.252-.142.382c.002.005.116.104.249.206.346.256.636.519.835.754l-.312.017.633.399c-.116.029-.147.098-.107.226.018.056.148.205.122.2-.137-.024-.2-.053-.348-.111-.194-.076-.555-.208-1.021-.696.162.303.923.82 1.014.97-.211-.068-1.152-.511-1.395-.627-.3-.136-.345-.149-.395-.087-.03.044-.173.232-.325.421-.246.318-.489.547-.695.676.1-.165.206-.341.218-.774-.422.52-.685 1.02-.758 1.15a3.04 3.04 0 0 1-.02-.457c.023-.276.251-.984.521-1.55l-.019-.254-.285-.325c-.184-.133-.581-.181-.72-.302l.402-.015c-.109-.2-.759-.359-1.04-.444-.057-.066-.262-.075-.301-.142.073-.034.793-.003.963-.016-.226-.093-.682-.302-.768-.37l.244.01c.081-.053.181-.168.088-.348-.02-.04 1.059.717 1.036.537-.005-.043-.263-.336-.275-.368.094.034.252.146.349.187l.982.476.218-.291.364-.47.044.274z" fill="#c30001"/><path d="M11.742 5.386l-.725-.634c-.266-.232-.334-.605-.152-.826s.55-.213.815.02l.726.633c.264.232.333.605.151.827s-.55.212-.815-.02zm-9.658-.681c-.124-.022-.25-.026-.375-.011l-.261.028a.52.52 0 0 1-.572-.463c-.027-.283.185-.543.47-.575l.261-.028c.224-.024.45-.017.671.022.228.04.401.228.424.458.028.284-.184.543-.47.575-.049.005-.099.003-.148-.006zm5.848 7.713a1.31 1.31 0 0 1-.375.011l-.261-.028a.52.52 0 0 0-.572.462c-.027.284.185.544.47.575l.261.028c.224.024.45.017.671-.022.228-.04.401-.227.424-.457a.53.53 0 0 0-.47-.575c-.049-.005-.099-.003-.148.006zm.455-7.567a2.39 2.39 0 0 1 .502-.169l.36-.08c.396-.087.677-.408.624-.709s-.422-.477-.817-.39l-.36.081c-.31.069-.612.17-.898.302-.293.136-.468.399-.426.643.054.301.422.476.817.389.068-.015.135-.038.198-.067zM3.223 6.705l-.084-.855c-.017-.179-.07-.352-.155-.508-.033-.062-.054-.128-.062-.197a.53.53 0 0 1 .47-.574c.209-.023.411.081.51.262a2.27 2.27 0 0 1 .278.904l.084.855a.53.53 0 0 1-.469.575.52.52 0 0 1-.572-.462zm6.574 3.455l-.431-.744a1.3 1.3 0 0 0-.351-.397.57.57 0 0 1-.138-.155.53.53 0 0 1 .19-.717c.181-.107.407-.096.573.028a2.29 2.29 0 0 1 .628.707l.43.743a.53.53 0 0 1-.189.718.52.52 0 0 1-.712-.183zm-1.58-2.329c-.146.15-.368.196-.562.118-.064-.024-.121-.063-.167-.114a2.37 2.37 0 0 1-.704-1.872.52.52 0 0 1 .71-.448c.211.084.344.299.327.528-.029.389.113.773.39 1.045.161.148.216.381.137.585a.53.53 0 0 1-.107.168l-.024-.01zM3.532 9.874l-.154-1.582a.53.53 0 0 1 .47-.575.52.52 0 0 1 .572.462l.155 1.581a.53.53 0 0 1-.471.575.52.52 0 0 1-.572-.461zm1.807 3.322c-.659-.219-1.184-.723-1.429-1.371a.41.41 0 0 1-.014-.135.72.72 0 0 1-.011-.067.54.54 0 0 1 .475-.58c.262-.028.506.144.565.4a1.27 1.27 0 0 0 .797.757.52.52 0 0 1 .349.44c.028.285-.185.545-.471.576a.53.53 0 0 1-.224-.024l-.037.004zm5.437-2.382a.52.52 0 0 1 .432.593c-.058.372-.204.719-.421 1.018-.185.254-.421.473-.696.638-.247.149-.571.071-.718-.174-.038-.064-.061-.136-.068-.212-.022-.201.077-.398.25-.504.332-.202.56-.54.621-.921.064-.269.331-.448.603-.401l-.003-.037z" fill="#000100" fill-rule="nonzero"/></g></svg>