<?xml version="1.0" encoding="UTF-8" standalone="no"?>
<!DOCTYPE svg PUBLIC "-//W3C//DTD SVG 1.1//EN" "http://www.w3.org/Graphics/SVG/1.1/DTD/svg11.dtd">
<svg width="100%" height="100%" viewBox="0 0 110 135" version="1.1" xmlns="http://www.w3.org/2000/svg" xmlns:xlink="http://www.w3.org/1999/xlink" xml:space="preserve" xmlns:serif="http://www.serif.com/" style="fill-rule:evenodd;clip-rule:evenodd;stroke-linejoin:round;stroke-miterlimit:2;">
    <g transform="matrix(1.24505,0,0,1.24505,-13.345,-10.8478)">
        <path d="M88.457,49.401L98.285,37.106L98.281,37.102C98.574,36.805 98.734,36.406 98.734,35.992C98.91,32.023 95.855,24.14 93.112,21.265C90.37,18.39 86.573,15.151 82.6,15.139L27.399,15.139C19.036,15.022 9.902,28.551 11.531,36.899L21.531,49.413L11.515,63.422C11.343,63.684 11.253,63.985 11.249,64.297L98.733,64.297C98.725,63.989 98.636,63.684 98.468,63.422L88.457,49.401Z" style="fill:rgb(0,0,16);fill-rule:nonzero;"/>
        <path d="M94.236,62.735L15.75,62.735L24.265,50.948L43.136,50.948C43.988,50.933 44.675,50.237 44.675,49.386C44.675,48.53 43.988,47.835 43.136,47.823L24.245,47.823L15.827,37.555L48.272,37.555C47.991,36.644 48.054,27.651 48.054,27.651L48.054,27.655C48.054,27.237 48.218,26.839 48.511,26.546C48.804,26.253 49.202,26.089 49.616,26.093L60.35,26.093C60.764,26.089 61.167,26.249 61.46,26.546C61.753,26.839 61.917,27.237 61.913,27.655C62.018,30.421 61.948,34.797 61.694,37.555L94.139,37.555L85.748,47.823L66.162,47.823C65.307,47.835 64.619,48.53 64.619,49.386C64.619,50.237 65.307,50.936 66.162,50.948L85.736,50.948L94.236,62.735Z" style="fill:rgb(190,23,192);fill-rule:nonzero;"/>
        <g transform="matrix(1,0,0,1,0,0.946177)">
            <path d="M84.195,62.701L28.716,62.69C28.474,62.007 28.569,61.359 28.887,60.735C30.559,58.781 33.418,56.578 37.074,58.156C37.871,58.5 38.801,58.277 39.355,57.61C41.598,54.805 45.637,54.231 48.57,56.297C49.418,56.86 50.551,56.688 51.195,55.906C53.074,53.5 58.469,51.684 61.133,56.547C61.394,57.039 61.855,57.399 62.398,57.527C62.941,57.66 63.515,57.555 63.976,57.235C65.644,56.07 71.008,53.817 73.554,58.406L73.551,58.406C74.094,59.281 75.222,59.582 76.129,59.094C77.383,58.344 81.863,57.172 83.926,60.735C84.445,61.602 84.322,62.104 84.195,62.701Z" style="fill:none;fill-rule:nonzero;stroke:rgb(255,236,0);stroke-width:3.6px;"/>
            <path d="M84.195,62.701L28.716,62.69C28.474,62.007 28.569,61.359 28.887,60.735C30.559,58.781 33.418,56.578 37.074,58.156C37.871,58.5 38.801,58.277 39.355,57.61C41.598,54.805 45.637,54.231 48.57,56.297C49.418,56.86 50.551,56.688 51.195,55.906C53.074,53.5 58.469,51.684 61.133,56.547C61.394,57.039 61.855,57.399 62.398,57.527C62.941,57.66 63.515,57.555 63.976,57.235C65.644,56.07 71.008,53.817 73.554,58.406L73.551,58.406C74.094,59.281 75.222,59.582 76.129,59.094C77.383,58.344 81.863,57.172 83.926,60.735C84.445,61.602 84.322,62.104 84.195,62.701Z" style="fill:rgb(254,197,2);fill-rule:nonzero;"/>
        </g>
        <g transform="matrix(0.919392,0,0,0.639334,9.03266,15.9594)">
            <path d="M6.531,28.258L93.285,28.465L93.281,28.461C93.574,28.164 93.734,27.766 93.734,27.352C93.91,23.383 90.714,13.234 87.972,10.359C85.229,7.484 81.432,3.339 77.46,3.327L22.54,3.327C14.177,3.21 4.902,19.91 6.531,28.258Z" style="fill:rgb(165,90,60);fill-rule:nonzero;"/>
        </g>
        <g transform="matrix(0.802634,0,0,0.430569,14.8755,19.2779)">
            <path d="M6.531,26.393L93.285,26.599L93.281,26.596C93.574,26.299 93.734,25.9 93.734,25.486C93.91,21.517 90.714,13.234 87.972,10.359C85.229,7.484 81.432,3.339 77.46,3.327L22.54,3.327C14.177,3.21 4.902,18.045 6.531,26.393Z" style="fill:rgb(218,132,3);fill-rule:nonzero;"/>
        </g>
        <g transform="matrix(1.37991,0,0,1.2907,-14.212,9.3949)">
            <path d="M46.18,23.441C46.2,25.531 47.899,27.211 49.985,27.211C52.074,27.211 53.77,25.531 53.789,23.441L53.789,18.414L46.18,18.414L46.18,23.441Z" style="fill:none;fill-rule:nonzero;stroke:rgb(0,0,16);stroke-width:3.67px;"/>
            <path d="M46.18,23.441C46.2,25.531 47.899,27.211 49.985,27.211C52.074,27.211 53.77,25.531 53.789,23.441L53.789,18.414L46.18,18.414L46.18,23.441Z" style="fill:rgb(254,197,2);fill-rule:nonzero;"/>
        </g>
        <g transform="matrix(1,0,0,0.971261,-3.55271e-15,1.79821)">
            <path d="M96.339,62.57L13.378,62.57C11.911,62.57 10.718,63.763 10.718,65.229L10.718,105.364C10.718,106.831 11.911,108.023 13.378,108.023L96.339,108.023C97.806,108.023 98.998,106.831 98.998,105.364L98.998,65.229C98.998,63.763 97.806,62.57 96.339,62.57Z" style="fill:rgb(0,0,16);"/>
        </g>
        <g transform="matrix(1,0,0,0.971261,-3.55271e-15,1.79821)">
            <path d="M51.18,66.588L14.713,66.588L14.713,104.005L95.005,104.005L95.005,66.588L60.144,66.588L60.144,71.079L82.513,71.079C82.937,71.079 83.344,71.245 83.643,71.544L90.025,77.926C90.324,78.225 90.49,78.632 90.49,79.056L90.49,91.537C90.49,91.961 90.324,92.368 90.025,92.667L83.643,99.049C83.344,99.348 82.937,99.514 82.513,99.514L27.205,99.514C26.781,99.514 26.374,99.348 26.075,99.049L19.693,92.667C19.394,92.368 19.228,91.961 19.228,91.537L19.228,79.056C19.228,78.632 19.394,78.225 19.693,77.926L26.075,71.544C26.374,71.245 26.781,71.079 27.205,71.079L51.18,71.079L51.18,66.588Z" style="fill:rgb(218,132,3);"/>
            <path d="M27.298,73.002L21.096,79.204L21.096,91.389L27.298,97.591L82.42,97.591L88.622,91.389L88.622,79.204L82.42,73.002L60.144,73.002C59.113,73.002 58.277,72.141 58.277,71.079L58.277,66.588C58.277,65.526 59.113,64.665 60.144,64.665L95.005,64.665C96.037,64.665 96.873,65.526 96.873,66.588L96.873,104.005C96.873,105.068 96.037,105.929 95.005,105.929L14.713,105.929C13.681,105.929 12.845,105.068 12.845,104.005L12.845,66.588C12.845,65.526 13.681,64.665 14.713,64.665L51.18,64.665C52.212,64.665 53.048,65.526 53.048,66.588L53.048,71.079C53.048,72.141 52.212,73.002 51.18,73.002L27.298,73.002ZM51.18,66.588L14.713,66.588L14.713,104.005L95.005,104.005L95.005,66.588L60.144,66.588L60.144,71.079L82.513,71.079C82.937,71.079 83.344,71.245 83.643,71.544L90.025,77.926C90.324,78.225 90.49,78.632 90.49,79.056L90.49,91.537C90.49,91.961 90.324,92.368 90.025,92.667L83.643,99.049C83.344,99.348 82.937,99.514 82.513,99.514L27.205,99.514C26.781,99.514 26.374,99.348 26.075,99.049L19.693,92.667C19.394,92.368 19.228,91.961 19.228,91.537L19.228,79.056C19.228,78.632 19.394,78.225 19.693,77.926L26.075,71.544C26.374,71.245 26.781,71.079 27.205,71.079L51.18,71.079L51.18,66.588Z" style="fill:rgb(165,90,60);"/>
        </g>
        <g transform="matrix(0.803181,0,0,0.803181,10.7185,8.71274)">
            <path d="M66.383,82.204C65.979,84.671 64.815,85.891 63.134,87.635L94.187,87.635L88.565,82.204L66.383,82.204Z" style="fill:rgb(165,90,60);"/>
        </g>
        <g transform="matrix(0.803181,0,0,0.803181,10.7185,8.71274)">
            <rect x="15.568" y="90.493" width="78.779" height="8.09" style="fill:rgb(165,90,60);"/>
        </g>
        <g transform="matrix(0.803181,0,0,0.803181,10.7185,8.71274)">
            <path d="M21.349,106.872L15.728,101.442L94.187,101.442L88.566,106.872L21.349,106.872Z" style="fill:rgb(165,90,60);"/>
        </g>
        <g transform="matrix(0.803181,0,0,0.803181,10.7185,8.71274)">
            <path d="M46.781,87.635L15.728,87.635L21.349,82.204L43.532,82.204C43.936,84.671 45.099,85.891 46.781,87.635Z" style="fill:rgb(165,90,60);"/>
        </g>
        <g transform="matrix(1.03746,0,0,1.0336,-2.05508,-2.06934)">
            <path d="M47.946,64.984L61.773,64.984L61.773,72.675C61.773,76.493 58.677,79.588 54.859,79.588C51.041,79.588 47.946,76.493 47.946,72.675L47.946,64.984Z" style="fill:none;stroke:rgb(0,0,16);stroke-width:4.28px;"/>
            <path d="M47.946,64.984L61.773,64.984L61.773,72.675C61.773,76.493 58.677,79.588 54.859,79.588C51.041,79.588 47.946,76.493 47.946,72.675L47.946,64.984Z" style="fill:rgb(254,197,2);"/>
        </g>
        <g transform="matrix(0.803181,0,0,0.803181,10.7185,8.71274)">
            <path d="M12.582,77.345C12.582,78.41 11.692,79.274 10.595,79.274C9.499,79.274 8.609,78.41 8.609,77.345C8.609,76.28 9.499,75.415 10.595,75.415C11.692,75.415 12.582,76.28 12.582,77.345ZM101.307,77.345C101.307,78.41 100.417,79.274 99.32,79.274C98.224,79.274 97.334,78.41 97.334,77.345C97.334,76.28 98.224,75.415 99.32,75.415C100.417,75.415 101.307,76.28 101.307,77.345ZM99.32,113.66C100.417,113.66 101.307,112.796 101.307,111.731C101.307,110.665 100.417,109.801 99.32,109.801C98.224,109.801 97.334,110.665 97.334,111.731C97.334,112.796 98.224,113.66 99.32,113.66ZM12.582,111.731C12.582,112.796 11.692,113.66 10.595,113.66C9.499,113.66 8.609,112.796 8.609,111.731C8.609,110.665 9.499,109.801 10.595,109.801C11.692,109.801 12.582,110.665 12.582,111.731ZM56.944,75.045C56.944,73.98 56.054,73.116 54.958,73.116C53.861,73.116 52.971,73.98 52.971,75.045L52.971,81.846C52.971,82.912 53.861,83.776 54.958,83.776C56.054,83.776 56.944,82.912 56.944,81.846L56.944,75.045ZM86.255,19.487C86.255,19.487 94.81,22.968 88.427,22.777L21.893,22.777C20.741,20.77 26.497,19.487 26.497,19.487L86.255,19.487Z" style="fill:rgb(0,0,16);"/>
        </g>
    </g>
</svg>
