<svg xmlns="http://www.w3.org/2000/svg" width="100%" height="100%" viewBox="0 0 77 81" fill-rule="evenodd" stroke-linejoin="round" stroke-miterlimit="2" xmlns:v="https://vecta.io/nano"><path d="M38.213.18l-15.61 28.616L.181 16.975l14.947 23.644L.181 64.263l22.422-11.821 15.61 28.086L53.677 52.31l22.422 11.822L61.15 40.487l14.949-23.645-22.422 11.822L38.213.18zM26.5 30.85L38.213 8.396l11.568 22.322-11.568 7.265L26.5 30.85zm29.426 1.372l7.885-4.157-5.256 8.315-2.629-4.158zM12.47 28.197l7.884 4.158-2.628 4.157-5.256-8.315zm7.854 12.422l3.927-6.211 9.462 5.947-9.462 6.476-3.927-6.212zm22.386-.264l9.321-6.079 3.926 6.211-3.926 6.211-9.321-6.343zM26.5 50.387l11.713-7.66 11.568 7.529-11.568 22.058L26.5 50.387zm-8.774-5.659l2.628 4.156-7.884 4.158 5.256-8.314zm38.201 4.024l2.628-4.158 5.255 8.314-7.883-4.156z" fill-rule="nonzero" stroke="#000" stroke-width=".36"/></svg>