<svg xmlns="http://www.w3.org/2000/svg" width="100%" height="100%" viewBox="0 0 110 135" fill-rule="evenodd" stroke-linejoin="round" stroke-miterlimit="2" xmlns:v="https://vecta.io/nano"><g transform="matrix(.948522 0 0 .964937 3.11275 3.65188)"><path d="M88.061 84.809c13.465 3.396 20.837 8.633 20.837 14.803-.805 24.455-104.898 24.427-105.694 0 0-6.033 7.412-11.33 20.43-14.648 1.402-.358 1.902-2.519 1.902-2.519l5.86-26.231 1.357-8.093c.155-1.416-1.29-2.173-2.949-2.018l-10.301 1.32-14.687 3.279c-3.012.805-5.884-2.595-3.92-5.2l14.92-17.132c1.927-4.928 30.466-15.32 36.451-15.858 2.48-.224 16.475 1.055 18.1 4.295 5.912 8.773 9.367 17.053 10.71 24.911.805 1.532 1.168 8.023 1.494 9.73 0 0 3.791 32.669 5.491 33.36zm-80.572-39.6l10.972-2.45a4.68 4.68 0 0 1 .435-.077l10.301-1.32.161-.017 1.823.01 1.861.418 1.259.582 1.231.915.915 1.068.692 1.331.36 1.488.005 1.485c-.01.089-.022.179-.037.269l-1.357 8.093c-.015.083-.031.168-.05.251l-5.86 26.231-.007.036s-.226 1.031-.795 2.161l-1.054 1.628-1.737 1.522-1.792.762c-5.806 1.479-10.389 3.335-13.495 5.559-1.925 1.38-3.29 2.717-3.335 4.392.071 1.235.755 2.3 1.743 3.295 1.573 1.587 3.849 2.923 6.596 4.112 9.689 4.197 24.713 6.207 39.724 6.21s30.036-2.004 39.725-6.201c2.748-1.191 5.024-2.527 6.598-4.114.99-.998 1.675-2.065 1.746-3.32-.042-1.704-1.397-3.071-3.356-4.463-3.155-2.241-7.845-4.104-13.868-5.624a4.9 4.9 0 0 1-.633-.207l-1.31-.786-1.217-1.443c-.423-.716-1.047-2.464-1.571-4.946-1.778-8.421-4.103-28.05-4.319-29.9-.298-1.735-1.069-8.072-1.118-8.465-.17-.374-.291-.767-.36-1.173-1.232-7.214-4.434-14.795-9.825-22.841-.63-.232-3.082-1.113-4.848-1.453-3.742-.721-7.83-1.062-8.997-.957-3.944.355-18.252 5.365-27.126 9.864-2.348 1.19-5.095 3.138-5.513 3.438a4.73 4.73 0 0 1-.637.935l-11.93 13.7z" fill="#bab1c2" stroke="#041f3b" stroke-width="7.289"/><path d="M88.061 84.809c13.465 3.396 20.837 8.633 20.837 14.803-.805 24.455-104.898 24.427-105.694 0 0-6.033 7.412-11.33 20.43-14.648 1.402-.358 1.902-2.519 1.902-2.519l5.86-26.231 1.357-8.093c.155-1.416-1.29-2.173-2.949-2.018l-10.301 1.32-14.687 3.279c-3.012.805-5.884-2.595-3.92-5.2l14.92-17.132c1.927-4.928 30.466-15.32 36.451-15.858 2.48-.224 16.475 1.055 18.1 4.295 5.912 8.773 9.367 17.053 10.71 24.911.805 1.532 1.168 8.023 1.494 9.73 0 0 3.791 32.669 5.491 33.36z" fill="#ffdf00" fill-rule="nonzero"/><path d="M88.061 84.809c13.465 3.396 20.837 8.633 20.837 14.803-.805 24.455-104.898 24.427-105.694 0 0-6.033 7.412-11.33 20.43-14.648 1.402-.358 1.902-2.519 1.902-2.519l3.336 2.716 3.59 2.93a1.98 1.98 0 0 0 3.123-1.048l2.328-9.488 12.223-4.074a1.95 1.95 0 0 0 1.295-1.789 1.95 1.95 0 0 0-1.198-1.859l-11.718-4.675-1.417-9.526a1.95 1.95 0 0 0-1.154-1.489 1.94 1.94 0 0 0-1.872.189l-2.677 1.882 1.357-8.093c.155-1.416-1.29-2.173-2.949-2.018l-10.301 1.32-14.687 3.279c-3.012.805-5.884-2.595-3.92-5.2l14.92-17.132c1.927-4.928 30.466-15.32 36.451-15.858 2.48-.224 16.475 1.055 18.1 4.295 5.912 8.773 9.367 17.053 10.71 24.911.805 1.532 1.168 8.023 1.494 9.73l-3.511 3.027-.33.291-11.175-2.134a1.97 1.97 0 0 0-1.921.757 1.94 1.94 0 0 0-.155 2.056l4.831 8.158-5.529 9.808a1.93 1.93 0 0 0 1.863 2.949l11.292-1.358c8.794 8.794 8.427 9.115 10.127 9.807zM64.473 30h-.005l-8.26.99-5.509-6.227c-.495-.549-1.252-.772-1.959-.577a1.94 1.94 0 0 0-1.397 1.489l-1.592 8.168-7.644 3.298a1.94 1.94 0 0 0-1.163 1.689c-.04.736.344 1.43.988 1.784l7.276 4.055.796 8.285a1.94 1.94 0 0 0 1.242 1.61 1.95 1.95 0 0 0 1.998-.389h-.005l6.112-5.646 8.109 1.804a1.95 1.95 0 0 0 1.94-.679 1.94 1.94 0 0 0 .253-2.036h.004l-3.511-7.547 4.225-7.16a1.94 1.94 0 0 0-.053-2.043c-.402-.61-1.113-.949-1.844-.868zM38.188 49.103l1.577.936.453.454-.232-2.413-1.748-.975.005 1.617a6.71 6.71 0 0 1-.043.312l-.011.068zm22.39.694c.017.043.037.087.056.129a5.45 5.45 0 0 0 .327.606l.001-.004c-.115-.186-.22-.38-.314-.582l-.07-.149zM25.955 89.91l-.957.406c-5.697 1.453-10.198 3.262-13.245 5.444-1.686 1.209-2.973 2.315-3.024 3.773.07 1.049.685 1.938 1.527 2.785 1.516 1.529 3.716 2.807 6.364 3.954 9.616 4.166 24.53 6.146 39.427 6.148s29.813-1.973 39.43-6.139c2.647-1.147 4.848-2.425 6.365-3.955.843-.851 1.46-1.743 1.53-2.81-.052-1.488-1.325-2.622-3.042-3.843-3.098-2.2-7.706-4.017-13.62-5.508-.248-.062-.493-.143-.73-.24-1.358-.553-2.084-.947-3.556-2.394-.967-.95-2.6-2.768-6.506-6.723l-8.592 1.033-2.121-.04-1.98-.616-1.738-1.141-1.384-1.623-.862-1.931-.286-2.056.294-2.059.875-1.935-.155.258 3.962-7.028-3.205-5.411a7.23 7.23 0 0 1-.13-.231l-.714-1.993-.053-.854-2.853-.635-3.988 3.683-3.742 1.465v.001l3.714-1.435-1.69 1.158-1.913.651-2.028.114-2.026-.453-.005-.001-1.823-.998-.385-.379.425 2.851 8.768 3.498c.029.011.056.024.084.035l1.93 1.177 1.465 1.661.915 2.025.276 2.24-.392 2.211-1.018 1.971-1.552 1.584-1.995 1.077-.108.037-9.333 3.11-1.602 6.528-.024.094-.705 1.742-1.085 1.478-1.399 1.163-1.656.798c-.014.005-.026.01-.04.014l-1.8.36-1.82-.084-1.752-.524-1.594-.949-.103-.082-3.014-2.46zm5.687-49.209l-.032-.083-.18-2.064.384-2.034.92-1.835 1.384-1.512 1.777-1.094c.007-.004.016-.007.024-.01l4.968-2.144 1.034-5.307.007-.04.69-1.954 1.177-1.665 1.072-.869c-5.876 1.937-13.469 4.927-18.962 7.712-2.187 1.108-4.744 2.883-5.257 3.243-.187.34-.411.661-.668.954L9.538 43.989l8.761-1.956a5.23 5.23 0 0 1 .502-.088l10.301-1.32c.062-.009.124-.015.187-.021l1.971.011.382.086zm40.4-9.65l.113.682-.226 2.035-.793 1.936-.009.015-2.749 4.656 2.286 4.913c.227.488.379 1 .456 1.52l.149.497.006.416 5.339 1.019-.598-4.809c-.179-.41-.308-.839-.384-1.281-.642-3.761-1.829-7.623-3.59-11.599zm-22.37-12.407l1.689.253 1.858.837 1.581 1.327c.012.014.025.027.036.042l3.591 4.058 5.39-.646c.012-.001.025-.002.037-.005l2.077.058 1.94.608 1.697 1.103.303.345c-1.124-2.09-2.403-4.211-3.839-6.366-.693-.242-2.888-.991-4.48-1.298-3.657-.705-7.648-1.05-8.789-.947h-.001c-.716.065-1.778.286-3.089.63z" fill="#201340"/><g fill-rule="nonzero"><path d="M88.061 84.809c-1.7-.692-1.334-1.013-10.127-9.807l-11.292 1.358a1.93 1.93 0 0 1-1.863-2.949l5.529-9.808-4.831-8.158a1.94 1.94 0 0 1 .155-2.056 1.97 1.97 0 0 1 1.921-.757l11.175 2.134.33-.291 3.511-3.027c-.325-1.707-.689-8.198-1.494-9.73-1.342-7.857-4.798-16.138-10.71-24.911-1.625-3.24-15.62-4.519-18.1-4.295-5.985.538-34.524 10.929-36.451 15.858L.896 45.502c-1.964 2.605.908 6.005 3.92 5.2l14.687-3.279 10.301-1.32c1.659-.155 3.104.602 2.949 2.018l-1.357 8.093 2.677-1.882a1.94 1.94 0 0 1 1.872-.189 1.95 1.95 0 0 1 1.154 1.489l1.417 9.526 11.718 4.675a1.95 1.95 0 0 1 1.198 1.859 1.95 1.95 0 0 1-1.295 1.789l-12.223 4.074-2.328 9.488a1.98 1.98 0 0 1-3.123 1.048l-3.59-2.93-3.336-2.716s-.5 2.162-1.902 2.519c-13.018 3.318-20.43 8.615-20.43 14.648.796 24.427 104.889 24.455 105.694 0 0-6.17-7.372-11.407-20.837-14.803zM49.238 54.174h.005a1.95 1.95 0 0 1-1.998.389 1.94 1.94 0 0 1-1.242-1.61l-.796-8.285-7.276-4.055c-.644-.354-1.028-1.048-.988-1.784a1.94 1.94 0 0 1 1.163-1.689l7.644-3.298 1.592-8.168a1.94 1.94 0 0 1 1.397-1.489c.708-.195 1.464.029 1.959.577l5.509 6.227 8.265-.99h-.005c.733-.082 1.445.257 1.849.868a1.94 1.94 0 0 1 .053 2.043l-4.225 7.16 3.511 7.547h-.004a1.94 1.94 0 0 1-.253 2.036 1.95 1.95 0 0 1-1.94.679l-8.109-1.804-6.112 5.646z" fill="#635cc0"/><path d="M78.635 60.355c.166.272-8.203-1.502-8.373-1.497l3.295 6.346c.298.59.27 1.292-.075 1.854l-3.754 6.103 7.748-.955c1.173-.277 2.204 1.297 2.945 1.965l4.255 4.731c-.322.068-3.06-20.99-2.674-21.168-.63.444-2.575 2.579-3.367 2.621zm-43.536.535c-.253.113-3.188 2.42-3.386 2.359l-3.478 15.876 3.183 2.639 2.558 2.115 1.767-7.282c.157-.622.616-1.123 1.214-1.329l7.767-2.64-7.436-3.014c-.611-.253-1.043-.814-1.14-1.479l-1.049-7.245zm23.205-17.881c-.248-.562-.216-1.207.092-1.741l2.614-4.493-5.098.619c-.603.079-1.206-.15-1.601-.619l-3.386-3.913-.993 5.131c-.116.602-.516 1.108-1.069 1.348l-4.711 2.077 4.472 2.546c.53.3.884.847.939 1.461l.497 5.185 3.755-3.557a1.85 1.85 0 0 1 1.656-.449l5.005 1.142-2.172-4.737z" fill="#fff200" transform="matrix(1.05427 0 0 1.03634 -3.28168 -3.78458)"/></g></g><path d="M51.004 96.008c.409-1.22 1.736-1.874 2.966-1.462s1.895 1.734 1.486 2.954-1.736 1.873-2.966 1.461-1.895-1.733-1.488-2.948l.002-.005zm8.619 1.123c.395-1.177 1.623-1.559 2.819-1.565l5.951-.107c7.765-.154 13.515-3.589 18.32-10.785 0 0 1.393-.202 2.323.109 1.258.422 1.937 1.772 1.519 3.019a2.43 2.43 0 0 1-.512.862l-.011.014c-4.759 7.213-11.322 11.502-20.978 11.702-2.184.045-4.629.071-7.088-.086 0 0-.548-.046-.815-.135l-.005-.002c-1.258-.421-1.942-1.774-1.523-3.026z" fill="#041f3b" fill-rule="nonzero"/></svg>