<svg xmlns="http://www.w3.org/2000/svg" width="100%" height="100%" viewBox="0 0 32 40" fill-rule="nonzero" stroke-linejoin="round" stroke-miterlimit="2" xmlns:v="https://vecta.io/nano"><path d="M29.749 31.892l-14.347-.02a3.21 3.21 0 0 0-6.018 0l-7.375.02c-.585 0-1.067.481-1.067 1.067s.482 1.067 1.067 1.067l7.375-.02a3.21 3.21 0 0 0 6.018 0l14.347.02c.586 0 1.067-.482 1.067-1.067a1.07 1.07 0 0 0-1.067-1.067z" fill="#e2e2e2"/><path d="M12.426 34.325c-.668 0-1.217-.55-1.217-1.217a1.22 1.22 0 0 1 1.217-1.217 1.22 1.22 0 0 1 1.217 1.217c0 .667-.548 1.217-1.217 1.217z" fill="red"/><path d="M29.378 5.404C26.766 2.993 19.862 3.003 16.202 3h-.561c-3.669.006-10.566-.006-13.175 2.404C.028 7.653 0 14.606 0 14.675s.028 7.022 2.464 9.272c2.611 2.41 9.503 2.397 13.175 2.404h.904c3.761 0 10.303-.066 12.833-2.404 2.438-2.249 2.466-9.202 2.466-9.272s-.028-7.022-2.464-9.272z" fill="#000100"/><path d="M27.937 22.386c-1.999 1.848-8.853 1.836-11.735 1.842h-.563c-2.881-.002-9.736.006-11.735-1.842-1.162-1.073-1.781-5.167-1.781-7.711s.619-6.637 1.782-7.711c1.999-1.848 8.851-1.845 11.735-1.842h.563c2.885 0 9.736-.006 11.735 1.842 1.163 1.073 1.781 5.167 1.781 7.711s-.618 6.637-1.782 7.711z" fill="red"/><path d="M21.07 13.324l-6.957-4.348c-.491-.306-1.11-.323-1.616-.044s-.82.814-.82 1.393v8.698c0 .578.314 1.112.819 1.393s1.126.264 1.616-.044l6.958-4.348h-.002a1.59 1.59 0 0 0 .002-2.7v-.001z" fill="#000100"/><path d="M13.798 18.066v-6.782l5.426 3.392-5.426 3.391z" fill="#e1d6f8"/></svg>