<svg xmlns="http://www.w3.org/2000/svg" width="100%" height="100%" viewBox="0 0 32 40" fill-rule="nonzero" stroke-linejoin="round" stroke-miterlimit="2" xmlns:v="https://vecta.io/nano"><path d="M29.378 9.404C26.766 6.994 19.862 7.002 16.202 7h-.561c-3.669.006-10.566-.006-13.175 2.404C.028 11.653 0 19.606 0 19.675s.028 8.022 2.464 10.271c2.611 2.41 9.503 2.397 13.175 2.404h.904c3.761 0 10.303-.066 12.833-2.404 2.438-2.249 2.466-10.202 2.466-10.271s-.028-8.022-2.464-10.271h0z" fill="#000100"/><path d="M27.937 28.387c-1.999 1.848-8.853 1.836-11.735 1.842h-.563c-2.881-.003-9.736.006-11.735-1.842-1.162-1.073-1.781-6.168-1.781-8.711s.619-7.637 1.782-8.71c1.999-1.849 8.851-1.845 11.735-1.842h.563c2.885 0 9.736-.007 11.735 1.842 1.163 1.073 1.781 6.167 1.781 8.71s-.618 7.638-1.782 8.711z" fill="red"/><path d="M21.07 18.324l-6.957-4.348c-.491-.306-1.11-.323-1.616-.044s-.82.814-.82 1.393v8.698c0 .578.314 1.112.819 1.393s1.126.264 1.616-.044l6.958-4.348h-.002a1.59 1.59 0 0 0 .002-2.7v-.001z" fill="#000100"/><path d="M13.798 23.066v-6.782l5.426 3.392-5.426 3.391z" fill="#fff"/></svg>